<?xml version="1.0" encoding="UTF-8"?>
<!DOCTYPE svg PUBLIC "-//W3C//DTD SVG 1.1//EN" "http://www.w3.org/Graphics/SVG/1.1/DTD/svg11.dtd">
<!-- Creator: CorelDRAW X6 -->
<svg xmlns="http://www.w3.org/2000/svg" xml:space="preserve" width="210mm" height="297mm" version="1.1" style="shape-rendering:geometricPrecision; text-rendering:geometricPrecision; image-rendering:optimizeQuality; fill-rule:evenodd; clip-rule:evenodd"
viewBox="0 0 21000 29700"
 xmlns:xlink="http://www.w3.org/1999/xlink">
 <defs>
  <style type="text/css">
   <![CDATA[
    .str1 {stroke:black;stroke-width:52.92;stroke-linecap:round;stroke-linejoin:round}
    .str2 {stroke:lime;stroke-width:52.92;stroke-linecap:round;stroke-linejoin:round}
    .str0 {stroke:red;stroke-width:52.92;stroke-linecap:round;stroke-linejoin:round}
    .fil0 {fill:none}
   ]]>
  </style>
 </defs>
 <g id="Layer_x0020_1">
  <metadata id="CorelCorpID_0Corel-Layer"/>
  <g id="_877677264">
   <path class="fil0 str0" d="M3600 28750l0 -12800c0,-276 224,-500 500,-500l12800 0c276,0 500,224 500,500l0 12800c0,276 -224,500 -500,500l-12800 0c-276,0 -500,-224 -500,-500z"/>
   <path class="fil0 str1" d="M8634 28039c103,-203 313,-343 557,-343 330,0 600,256 622,581 -92,-9 -183,-20 -274,-34 -35,-160 -177,-280 -348,-280 -120,0 -227,60 -291,151 -89,-23 -178,-48 -266,-76z"/>
   <path class="fil0 str1" d="M6595 26930c173,-149 421,-197 645,-104 305,126 456,467 352,775 -82,-44 -162,-89 -240,-136 29,-161 -57,-326 -214,-392 -111,-46 -232,-32 -327,28 -74,-56 -146,-113 -217,-172z"/>
   <path class="fil0 str1" d="M5135 25125c216,-71 464,-21 636,151 233,233 243,606 29,851 -59,-71 -115,-144 -170,-218 89,-138 73,-323 -48,-444 -85,-85 -202,-118 -313,-99 -47,-80 -92,-160 -134,-241z"/>
   <path class="fil0 str1" d="M5007 23282c126,305 -7,653 -299,797 -27,-88 -51,-177 -74,-266 135,-93 191,-271 126,-428 -46,-111 -142,-186 -251,-211 -13,-91 -23,-183 -32,-274 227,17 437,158 530,383z"/>
   <path class="fil0 str1" d="M4722 20590c203,103 343,313 343,557 0,330 -256,600 -581,622 9,-92 20,-183 34,-274 160,-35 280,-177 280,-348 0,-120 -60,-227 -151,-291 23,-89 48,-178 76,-266z"/>
   <path class="fil0 str1" d="M5831 18551c149,173 197,421 104,645 -126,305 -467,456 -775,352 44,-82 89,-162 136,-240 161,29 326,-57 392,-214 46,-111 32,-232 -28,-327 56,-74 113,-146 172,-217z"/>
   <path class="fil0 str1" d="M9283 21365c-88,98 -165,209 -226,332l-1275 -528c135,-297 314,-561 528,-786l973 983z"/>
   <path class="fil0 str1" d="M7636 17092c71,216 21,464 -151,636 -233,233 -606,243 -851,29 71,-59 144,-115 218,-170 138,89 323,73 444,-48 85,-85 118,-202 99,-313 80,-47 160,-92 241,-134z"/>
   <path class="fil0 str1" d="M9748 21012c-119,57 -232,130 -336,220l-976 -976c238,-223 505,-398 788,-525l523 1280z"/>
   <path class="fil0 str1" d="M9479 16964c-305,126 -653,-7 -797,-299 88,-27 177,-51 266,-74 93,135 271,191 428,126 111,-46 186,-142 211,-251 91,-13 183,-23 274,-32 -17,227 -158,437 -383,530z"/>
   <path class="fil0 str1" d="M7761 25312c215,89 452,49 623,-85 24,17 48,33 72,49 17,11 34,22 51,34 -81,253 8,525 212,683l-744 1796c-53,-24 -106,-48 -159,-74 169,-440 -43,-937 -481,-1119 -326,-135 -688,-58 -930,169 -39,-35 -78,-71 -116,-108l1388 -1388c26,16 54,30 84,42z"/>
   <path class="fil0 str1" d="M9408 23478c98,88 209,165 332,226l-528 1275c-297,-135 -561,-314 -786,-528l983 -973z"/>
   <path class="fil0 str1" d="M6832 24076c165,165 399,218 609,160 16,24 31,49 47,73 11,17 23,34 35,51 -171,201 -193,485 -68,708l-1376 1376c-39,-42 -78,-84 -116,-126 325,-342 319,-882 -16,-1217 -250,-250 -614,-316 -924,-200 -23,-49 -45,-98 -67,-147l1812 -751c19,26 40,51 63,74z"/>
   <path class="fil0 str1" d="M9056 23012c57,119 130,232 220,336l-976 976c-223,-238 -398,-505 -525,-788l1280 -523z"/>
   <path class="fil0 str1" d="M6415 22485c8,32 18,64 31,95 89,215 285,354 501,380 5,28 10,57 16,85 4,20 8,40 13,60 -234,120 -363,372 -334,625l-1798 745c-20,-52 -39,-105 -58,-158 431,-192 633,-693 451,-1131 -135,-326 -446,-527 -777,-538 -3,-55 -5,-109 -6,-164l1961 0z"/>
   <path class="fil0 str1" d="M6671 20948c-5,33 -8,66 -8,100 0,233 128,436 318,543 -6,28 -12,57 -18,85 -4,20 -8,40 -11,60 -261,21 -477,204 -547,447l-1947 0c2,-55 4,-110 7,-165 471,-12 850,-398 850,-872 0,-353 -210,-658 -512,-795 19,-52 38,-103 58,-154l1812 750z"/>
   <path class="fil0 str1" d="M8008 16913l751 1812c-26,19 -51,40 -75,64 -165,165 -218,399 -160,609 -24,16 -49,31 -73,47 -17,11 -34,23 -51,35 -200,-169 -480,-193 -703,-71l-1377 -1377c40,-38 81,-75 122,-112 342,325 882,319 1217,-16 250,-250 316,-614 200,-924 49,-23 98,-46 148,-67z"/>
   <path class="fil0 str1" d="M6776 20667l-1799 -745c23,-50 46,-100 69,-149 440,169 937,-43 1119,-481 135,-326 58,-688 -169,-930 37,-41 74,-81 112,-120l1387 1387c-17,28 -33,58 -46,89 -89,215 -49,452 85,623 -17,24 -33,48 -49,72 -11,17 -22,34 -34,51 -249,-80 -517,5 -676,203z"/>
   <path class="fil0 str1" d="M10021 26251l0 1801c-113,-351 -442,-606 -831,-606 -353,0 -658,210 -795,512 -48,-17 -96,-35 -144,-54l751 -1814c29,4 59,6 90,6 233,0 436,-128 543,-318 28,6 57,12 85,18 20,4 40,8 60,11 15,180 106,338 241,442z"/>
   <path class="fil0 str1" d="M10021 23807l0 1404c-224,-30 -440,-85 -645,-163l536 -1275c36,13 72,24 109,34z"/>
   <path class="fil0 str1" d="M10021 19506l0 1404c-34,9 -68,19 -102,30l-528 -1275c208,-78 419,-130 630,-159z"/>
   <path class="fil0 str1" d="M10021 16777l0 1722c-124,103 -202,249 -221,405 -28,5 -57,10 -85,16 -20,4 -40,8 -60,13 -120,-233 -371,-363 -624,-334l-745 -1798c52,-20 104,-39 157,-57 192,431 693,633 1131,451 203,-84 357,-235 447,-417z"/>
   <path class="fil0 str2" d="M10268 22200c0,-1930 0,-4456 0,-6099"/>
   <path class="fil0 str1" d="M10268 22500l-1357 0c10,114 33,229 71,342l-1275 528c-108,-286 -166,-579 -181,-870l-327 0 0 -300 329 0c17,-304 80,-595 184,-866l1275 536c-37,105 -63,216 -76,331l1357 0"/>
   <line class="fil0 str2" x1="10268" y1="28599" x2="10268" y2= "22500" />
   <path class="fil0 str1" d="M10268 16100c-357,8 -719,47 -1081,119 -3385,673 -5584,3964 -4911,7349 583,2929 3125,4969 5992,5030"/>
   <path class="fil0 str1" d="M12290 16661c-103,203 -313,343 -557,343 -330,0 -600,-256 -622,-581 92,9 183,20 274,34 35,160 177,280 348,280 120,0 227,-60 291,-151 89,23 178,48 266,76z"/>
   <path class="fil0 str1" d="M14329 17770c-173,149 -421,197 -645,104 -305,-126 -456,-467 -352,-775 82,44 162,89 240,136 -29,161 57,326 214,392 111,46 232,32 327,-28 74,56 146,113 217,172z"/>
   <path class="fil0 str1" d="M15788 19575c-216,71 -464,21 -636,-151 -233,-233 -243,-606 -29,-851 59,71 115,144 170,218 -89,138 -73,323 48,444 85,85 202,118 313,99 47,80 92,160 134,241z"/>
   <path class="fil0 str1" d="M15916 21417c-126,-305 7,-653 299,-797 27,88 51,177 74,266 -135,93 -191,271 -126,428 46,111 142,186 251,211 13,91 23,183 32,274 -227,-17 -437,-158 -530,-383z"/>
   <path class="fil0 str1" d="M16202 24109c-203,-103 -343,-313 -343,-557 0,-330 256,-600 581,-622 -9,92 -20,183 -34,274 -160,35 -280,177 -280,348 0,120 60,227 151,291 -23,89 -48,178 -76,266z"/>
   <path class="fil0 str1" d="M15093 26148c-149,-173 -197,-421 -104,-645 126,-305 467,-456 775,-352 -44,82 -89,162 -136,240 -161,-29 -326,57 -392,214 -46,111 -32,232 28,327 -56,74 -113,146 -172,217z"/>
   <path class="fil0 str1" d="M11641 23334c88,-98 165,-209 226,-332l1275 528c-135,297 -314,561 -528,786l-973 -983z"/>
   <path class="fil0 str1" d="M13288 27607c-71,-216 -21,-464 151,-636 233,-233 606,-243 851,-29 -71,59 -144,115 -218,170 -138,-89 -323,-73 -444,48 -85,85 -118,202 -99,313 -80,47 -160,92 -241,134z"/>
   <path class="fil0 str1" d="M11175 23687c119,-57 232,-130 336,-220l976 976c-238,223 -505,398 -788,525l-523 -1280z"/>
   <path class="fil0 str1" d="M11445 27735c305,-126 653,7 797,299 -88,27 -177,51 -266,74 -93,-135 -271,-191 -428,-126 -111,46 -186,142 -211,251 -91,13 -183,23 -274,32 17,-227 158,-437 383,-530z"/>
   <path class="fil0 str1" d="M13163 19387c-215,-89 -452,-49 -623,85 -24,-17 -48,-33 -72,-49 -17,-11 -34,-22 -51,-34 81,-253 -8,-525 -212,-683l744 -1796c53,24 106,48 159,74 -169,440 43,937 481,1119 326,135 688,58 930,-169 39,35 78,71 116,108l-1388 1388c-26,-16 -54,-30 -84,-42z"/>
   <path class="fil0 str1" d="M11515 21222c-98,-88 -209,-165 -332,-226l528 -1275c297,135 561,314 786,528l-983 973z"/>
   <path class="fil0 str1" d="M14092 20623c-165,-165 -399,-218 -609,-160 -16,-24 -31,-49 -47,-73 -11,-17 -23,-34 -35,-51 171,-201 193,-485 68,-708l1376 -1376c39,42 78,84 116,126 -325,342 -319,882 16,1217 250,250 614,316 924,200 23,49 45,98 67,147l-1812 751c-19,-26 -40,-51 -63,-74z"/>
   <path class="fil0 str1" d="M11868 21687c-57,-119 -130,-232 -220,-336l976 -976c223,238 398,505 525,788l-1280 523z"/>
   <path class="fil0 str1" d="M14508 22215c-8,-32 -18,-64 -31,-95 -89,-215 -285,-354 -501,-380 -5,-28 -10,-57 -16,-85 -4,-20 -8,-40 -13,-60 234,-120 363,-372 334,-625l1798 -745c20,52 39,105 58,158 -431,192 -633,693 -451,1131 135,326 446,527 777,538 3,55 5,109 6,164l-1961 0z"/>
   <path class="fil0 str1" d="M14253 23751c5,-33 8,-66 8,-100 0,-233 -128,-436 -318,-543 6,-28 12,-57 18,-85 4,-20 8,-40 11,-60 261,-21 477,-204 547,-447l1947 0c-2,55 -4,110 -7,165 -471,12 -850,398 -850,872 0,353 210,658 512,795 -19,52 -38,103 -58,154l-1812 -750z"/>
   <path class="fil0 str1" d="M12915 27787l-751 -1812c26,-19 51,-40 75,-64 165,-165 218,-399 160,-609 24,-16 49,-31 73,-47 17,-11 34,-23 51,-35 200,169 480,193 703,71l1377 1377c-40,38 -81,75 -122,112 -342,-325 -882,-319 -1217,16 -250,250 -316,614 -200,924 -49,23 -98,46 -148,67z"/>
   <path class="fil0 str1" d="M14148 24032l1799 745c-23,50 -46,100 -69,149 -440,-169 -937,43 -1119,481 -135,326 -58,688 169,930 -37,41 -74,81 -112,120l-1387 -1387c17,-28 33,-58 46,-89 89,-215 49,-452 -85,-623 17,-24 33,-48 49,-72 11,-17 22,-34 34,-51 249,80 517,-5 676,-203z"/>
   <path class="fil0 str1" d="M10902 18448l0 -1801c113,351 442,606 831,606 353,0 658,-210 795,-512 48,17 96,35 144,54l-751 1814c-29,-4 -59,-6 -90,-6 -233,0 -436,128 -543,318 -28,-6 -57,-12 -85,-18 -20,-4 -40,-8 -60,-11 -15,-180 -106,-338 -241,-442z"/>
   <path class="fil0 str1" d="M10902 20893l0 -1404c224,30 440,85 645,163l-536 1275c-36,-13 -72,-24 -109,-34z"/>
   <path class="fil0 str1" d="M10902 25193l0 -1404c34,-9 68,-19 102,-30l528 1275c-208,78 -419,130 -630,159z"/>
   <path class="fil0 str1" d="M10902 27923l0 -1722c124,-103 202,-249 221,-405 28,-5 57,-10 85,-16 20,-4 40,-8 60,-13 120,233 371,363 624,334l745 1798c-52,20 -104,39 -157,57 -192,-431 -693,-633 -1131,-451 -203,84 -357,235 -447,417z"/>
   <path class="fil0 str2" d="M10655 22500c0,1930 0,4456 0,6099"/>
   <path class="fil0 str1" d="M10655 22200l1357 0c-10,-114 -33,-229 -71,-342l1275 -528c108,286 166,579 181,870l327 0 0 300 -329 0c-17,304 -80,595 -184,866l-1275 -536c37,-105 63,-216 76,-331l-1357 0"/>
   <line class="fil0 str2" x1="10655" y1="16100" x2="10655" y2= "22200" />
   <path class="fil0 str1" d="M10655 28599c357,-8 719,-47 1081,-119 3385,-673 5584,-3964 4911,-7349 -583,-2929 -3125,-4969 -5992,-5030"/>
  </g>
  <g id="_876266496">
   <path class="fil0 str0" d="M3649 13706l0 -12800c0,-276 224,-500 500,-500l12800 0c276,0 500,224 500,500l0 12800c0,276 -224,500 -500,500l-12800 0c-276,0 -500,-224 -500,-500z"/>
   <path class="fil0 str2" d="M15074 11618c244,-256 469,-536 672,-840 1917,-2870 1145,-6752 -1724,-8669 -2227,-1488 -5064,-1356 -7119,119"/>
   <polyline class="fil0 str1" points="14862,11831 10443,7412 10655,7200 15074,11618 "/>
   <path class="fil0 str2" d="M5473 3660c-41,57 -81,114 -120,173 -1917,2870 -1145,6752 1724,8669 2479,1657 5714,1305 7785,-672"/>
   <path class="fil0 str1" d="M6902 2229l-468 -346 -330 209 -28 28c-24,-106 -78,-207 -160,-289 -234,-234 -614,-234 -849,0 -234,234 -234,614 0,849 83,83 183,136 289,160l-22 22 -209 330 347 469"/>
   <path class="fil0 str1" d="M7786 2049c71,216 21,464 -151,636 -194,194 -485,233 -718,118l209 -209c112,22 233,-11 320,-98 85,-85 118,-202 99,-313 80,-47 160,-92 241,-134z"/>
   <path class="fil0 str1" d="M10012 1391c-17,227 -158,437 -383,530 -305,126 -653,-7 -797,-299 88,-27 177,-51 266,-74 93,135 271,191 428,126 111,-46 186,-142 211,-251 91,-13 183,-23 274,-32z"/>
   <path class="fil0 str1" d="M12321 1635c-103,203 -313,343 -557,343 -330,0 -600,-256 -622,-581 92,9 183,20 274,34 35,160 177,280 348,280 120,0 227,-60 291,-151 89,23 178,48 266,76z"/>
   <path class="fil0 str1" d="M13714 2848c-305,-126 -456,-467 -352,-775 82,44 162,89 240,136 -29,161 57,326 214,392 111,46 232,32 327,-28 74,56 146,113 217,172 -173,149 -421,197 -645,104z"/>
   <path class="fil0 str1" d="M15819 4549c-216,71 -464,21 -636,-151 -233,-233 -243,-606 -29,-851 59,71 115,144 170,218 -89,138 -73,323 48,444 85,85 202,118 313,99 47,80 92,160 134,241z"/>
   <path class="fil0 str1" d="M16477 6775c-227,-17 -437,-158 -530,-383 -126,-305 7,-653 299,-797 27,88 51,177 74,266 -135,93 -191,271 -126,428 46,111 142,186 251,211 13,91 23,183 32,274z"/>
   <path class="fil0 str1" d="M12046 7227c-7,-132 -31,-264 -75,-394l1275 -528c115,305 174,619 183,929l-1383 -7z"/>
   <path class="fil0 str1" d="M16232 9084c-203,-103 -343,-313 -343,-557 0,-330 256,-600 581,-622 -9,92 -20,183 -34,274 -160,35 -280,177 -280,348 0,120 60,227 151,291 -23,89 -48,178 -76,266z"/>
   <path class="fil0 str1" d="M15020 10477c126,-305 467,-456 775,-352 -44,82 -89,162 -136,240 -161,-29 -326,57 -392,214 -46,111 -32,232 28,327 -56,74 -113,146 -172,217 -149,-173 -197,-421 -104,-645z"/>
   <path class="fil0 str1" d="M13318 12582c-71,-216 -21,-464 151,-636 233,-233 606,-243 851,-29 -71,59 -144,115 -218,170 -138,-89 -323,-73 -444,48 -85,85 -118,202 -99,313 -80,47 -160,92 -241,134z"/>
   <path class="fil0 str1" d="M11092 13240c17,-227 158,-437 383,-530 305,-126 653,7 797,299 -88,27 -177,51 -266,74 -93,-135 -271,-191 -428,-126 -111,46 -186,142 -211,251 -91,13 -183,23 -274,32z"/>
   <path class="fil0 str1" d="M8784 12995c103,-203 313,-343 557,-343 330,0 600,256 622,581 -92,-9 -183,-20 -274,-34 -35,-160 -177,-280 -348,-280 -120,0 -227,60 -291,151 -89,-23 -178,-48 -266,-76z"/>
   <path class="fil0 str1" d="M7391 11783c305,126 456,467 352,775 -82,-44 -162,-89 -240,-136 29,-161 -57,-326 -214,-392 -111,-46 -232,-32 -327,28 -74,-56 -146,-113 -217,-172 173,-149 421,-197 645,-104z"/>
   <path class="fil0 str1" d="M5286 10081c216,-71 464,-21 636,151 233,233 243,606 29,851 -59,-71 -115,-144 -170,-218 89,-138 73,-323 -48,-444 -85,-85 -202,-118 -313,-99 -47,-80 -92,-160 -134,-241z"/>
   <path class="fil0 str1" d="M4628 7855c227,17 437,158 530,383 126,305 -7,653 -299,797 -27,-88 -51,-177 -74,-266 135,-93 191,-271 126,-428 -46,-111 -142,-186 -251,-211 -13,-91 -23,-183 -32,-274z"/>
   <path class="fil0 str1" d="M9059 7404c7,132 31,264 75,394l-1275 528c-115,-305 -174,-619 -183,-929l1383 7z"/>
   <path class="fil0 str1" d="M4872 5547c203,103 343,313 343,557 0,330 -256,600 -581,622 9,-92 20,-183 34,-274 160,-35 280,-177 280,-348 0,-120 -60,-227 -151,-291 23,-89 48,-178 76,-266z"/>
   <path class="fil0 str1" d="M9138 6826c-44,124 -72,256 -82,393l-1380 0c11,-326 76,-639 187,-928l1275 536z"/>
   <path class="fil0 str1" d="M6085 4154c-126,305 -467,456 -775,352 44,-82 89,-162 136,-240 161,29 326,-57 392,-214 26,-64 33,-131 22,-195l211 -211c74,154 84,337 14,508z"/>
   <path class="fil0 str1" d="M16500 7171l-1965 0c-7,-26 -16,-51 -26,-76 -89,-215 -285,-354 -501,-380 -5,-28 -10,-57 -16,-85 -4,-20 -8,-40 -13,-60 239,-123 369,-383 332,-642l1794 -743c22,58 43,115 64,173 -431,192 -633,693 -451,1131 135,326 446,527 777,538 2,48 4,97 5,145z"/>
   <path class="fil0 str1" d="M14286 8708c4,-27 5,-55 5,-82 0,-233 -128,-436 -318,-543 6,-28 12,-57 18,-85 4,-20 8,-40 11,-60 268,-22 487,-213 552,-466l1942 0c-2,62 -4,123 -8,184 -471,12 -850,398 -850,872 0,353 210,658 512,795 -17,46 -34,92 -51,138l-1815 -752z"/>
   <path class="fil0 str1" d="M11966 7805c44,-124 72,-256 82,-393l1380 0c-11,326 -76,639 -187,928l-1275 -536z"/>
   <path class="fil0 str1" d="M10773 11271c215,-89 354,-285 380,-501 28,-5 57,-10 85,-16 20,-4 40,-8 60,-13 121,236 377,366 633,333l744 1796c-55,21 -110,41 -164,60 -192,-431 -693,-633 -1131,-451 -326,135 -527,446 -538,777 -53,3 -105,4 -158,6l0 -1962c30,-7 60,-17 89,-29z"/>
   <path class="fil0 str1" d="M10641 8809c132,-7 264,-31 394,-75l528 1275c-305,115 -619,174 -929,183l7 -1383z"/>
   <path class="fil0 str1" d="M9243 11054c233,0 436,-128 543,-318 28,6 57,12 85,18 20,4 40,8 60,11 22,263 206,480 453,549l0 1945c-57,-2 -114,-4 -171,-7 -12,-471 -398,-850 -872,-850 -353,0 -658,210 -795,512 -51,-18 -101,-37 -151,-56l751 -1812c32,5 64,8 97,8z"/>
   <path class="fil0 str1" d="M10063 8729c124,44 256,72 393,82l0 1380c-326,-11 -639,-76 -928,-187l536 -1275z"/>
   <path class="fil0 str1" d="M7823 10223c28,17 58,32 89,45 215,89 452,49 623,-85 24,17 48,33 72,49 17,11 34,23 51,34 -80,250 6,520 206,678l-745 1798c-51,-23 -102,-47 -152,-71 169,-440 -43,-937 -481,-1119 -326,-135 -688,-58 -930,169 -40,-37 -80,-74 -120,-112l1387 -1387z"/>
   <path class="fil0 str1" d="M9559 8434c98,88 209,165 332,226l-528 1275c-297,-135 -561,-314 -786,-528l983 -973z"/>
   <path class="fil0 str1" d="M6917 8956c19,27 41,53 65,77 165,165 399,218 609,160 15,24 31,49 47,73 11,17 23,34 35,51 -169,200 -193,481 -71,703l-1377 1377c-38,-40 -75,-81 -112,-122 325,-342 319,-882 -16,-1217 -250,-250 -614,-316 -924,-200 -23,-50 -46,-100 -68,-150l1812 -750z"/>
   <path class="fil0 str1" d="M9206 7969c57,119 130,232 220,336l-976 976c-223,-238 -398,-505 -525,-788l1280 -523z"/>
   <path class="fil0 str1" d="M5009 5157l1812 751c-5,32 -8,65 -8,98 0,233 128,436 318,543 -6,28 -12,57 -18,85 -4,20 -8,40 -11,60 -261,21 -476,203 -547,447l-1947 0c2,-55 4,-110 7,-165 471,-12 850,-398 850,-872 0,-353 -210,-658 -512,-795 18,-51 37,-102 57,-152z"/>
   <path class="fil0 str1" d="M10414 1368l0 1964c-28,7 -55,16 -83,28 -215,89 -354,285 -380,501 -28,5 -57,10 -85,16 -20,4 -40,8 -60,13 -121,-236 -376,-365 -631,-333l-744 -1797c54,-21 109,-41 163,-60 192,431 693,633 1131,451 326,-135 527,-446 538,-777 50,-2 101,-4 151,-5z"/>
   <path class="fil0 str1" d="M11042 5901c-124,-44 -256,-72 -393,-82l0 -1380c326,11 639,76 928,187l-536 1275z"/>
   <path class="fil0 str1" d="M12697 1767l-752 1815c-27,-4 -55,-6 -83,-6 -233,0 -436,128 -543,318 -28,-6 -57,-12 -85,-18 -20,-4 -40,-8 -60,-11 -22,-265 -210,-484 -459,-551l0 -1944c59,2 119,4 178,7 12,471 398,850 872,850 353,0 658,-210 795,-512 47,17 93,34 139,52z"/>
   <path class="fil0 str1" d="M11546 6196c-98,-88 -209,-165 -332,-226l528 -1275c297,135 561,314 786,528l-983 973z"/>
   <path class="fil0 str1" d="M13432 5315c174,-205 194,-495 61,-719l1374 -1374c42,45 84,90 124,135 -325,342 -319,882 16,1217 250,250 614,316 924,200 21,44 41,87 60,131l-1816 752c-16,-21 -34,-41 -53,-60 -165,-165 -399,-218 -609,-160 -15,-24 -31,-49 -47,-73 -11,-17 -23,-34 -35,-51z"/>
   <path class="fil0 str1" d="M14656 3008l-1390 1390c-23,-13 -47,-25 -73,-36 -215,-89 -452,-49 -623,85 -24,-17 -48,-33 -72,-49 -17,-11 -34,-22 -51,-34 82,-255 -9,-530 -217,-687l744 -1795c55,25 110,50 164,76 -169,440 43,937 481,1119 326,135 688,58 930,-169 36,33 72,66 107,99z"/>
   <path class="fil0 str1" d="M11899 6662c-57,-119 -130,-232 -220,-336l976 -976c223,238 398,505 525,788l-1280 523z"/>
   <path class="fil0 str1" d="M6792 8683l-1799 745c-20,-51 -38,-103 -56,-154 431,-192 633,-693 451,-1131 -135,-326 -446,-527 -777,-538 -3,-55 -5,-109 -6,-164l1961 0c8,32 18,64 31,95 89,215 285,354 501,380 5,28 10,57 16,85 4,20 8,40 13,60 -233,119 -362,370 -335,622z"/>
   <path class="fil0 str1" d="M13036 10337l1274 1274c-328,-169 -741,-116 -1016,159 -250,250 -316,614 -200,924 -46,22 -93,43 -140,64l-751 -1814c24,-18 46,-37 68,-59 165,-165 218,-399 160,-609 24,-15 49,-31 73,-47 17,-11 34,-23 51,-35 138,117 314,164 483,143z"/>
   <path class="fil0 str1" d="M11307 8608l993 993c-179,138 -371,251 -571,341l-523 -1280c34,-16 68,-34 101,-53z"/>
   <path class="fil0 str1" d="M8266 5567l992 992c-18,30 -35,62 -51,94l-1275 -528c92,-202 204,-388 333,-558z"/>
   <path class="fil0 str1" d="M6336 3637l1218 1218c-15,160 33,318 130,442 -17,24 -33,48 -49,72 -11,17 -22,34 -34,51 -250,-80 -519,6 -678,205l-1798 -745c23,-51 46,-101 70,-151 440,169 937,-43 1119,-481 84,-203 86,-419 21,-611z"/>
   <path class="fil0 str1" d="M8119 4289l-1217 -1217 -9 -9c309,114 670,46 918,-202 250,-250 316,-614 200,-924 47,-22 94,-44 141,-64l751 1814c-24,18 -47,38 -69,60 -165,165 -218,399 -160,609 -24,15 -49,31 -73,47 -17,11 -34,23 -51,35 -124,-105 -279,-154 -432,-147z"/>
   <path class="fil0 str1" d="M9833 6003l-997 -997c171,-128 354,-234 543,-319l523 1280c-23,11 -47,23 -69,35z"/>
   <path class="fil0 str1" d="M12862 9032l-996 -996c11,-19 21,-39 31,-59l1275 528c-86,190 -190,366 -310,527z"/>
   <path class="fil0 str1" d="M14747 10916l-1193 -1193c1,-142 -46,-280 -133,-390 17,-24 33,-48 49,-72 11,-17 23,-34 34,-51 255,82 530,-10 687,-217l1795 743c-25,56 -50,111 -77,165 -440,-169 -937,43 -1119,481 -73,176 -84,362 -43,535z"/>
   <path class="fil0 str1" d="M10464 5821c-132,7 -264,31 -394,75l-528 -1275c305,-115 619,-174 929,-183l-7 1383z"/>
   <path class="fil0 str1" d="M5280 2043c117,-117 307,-117 424,0 117,117 117,307 0,424 -117,117 -307,117 -424,0 -117,-117 -117,-307 0,-424z"/>
  </g>
 </g>
</svg>
