  0
SECTION
  2
HEADER
  9
$ACADVER
  1
AC1021
  9
$ACADMAINTVER
 70
    25
  9
$DWGCODEPAGE
  3
ANSI_1252
  9
$INSBASE
 10
0.0
 20
0.0
 30
0.0
  9
$EXTMIN
 10
-6.92646
 20
-6.92646
 30
0.0
  9
$EXTMAX
 10
6.92646
 20
6.92646
 30
0.0
  9
$LIMMIN
 10
0.0
 20
0.0
  9
$LIMMAX
 10
12.0
 20
9.0
  9
$ORTHOMODE
 70
     0
  9
$REGENMODE
 70
     1
  9
$FILLMODE
 70
     1
  9
$QTEXTMODE
 70
     0
  9
$MIRRTEXT
 70
     1
  9
$LTSCALE
 40
1.0
  9
$ATTMODE
 70
     1
  9
$TEXTSIZE
 40
0.2
  9
$TRACEWID
 40
0.05
  9
$TEXTSTYLE
  7
Standard
  9
$CLAYER
  8
0
  9
$CELTYPE
  6
ByLayer
  9
$CECOLOR
 62
   256
  9
$CELTSCALE
 40
1.0
  9
$DISPSILH
 70
     0
  9
$DIMSCALE
 40
1.0
  9
$DIMASZ
 40
0.18
  9
$DIMEXO
 40
0.0625
  9
$DIMDLI
 40
0.38
  9
$DIMRND
 40
0.0
  9
$DIMDLE
 40
0.0
  9
$DIMEXE
 40
0.18
  9
$DIMTP
 40
0.0
  9
$DIMTM
 40
0.0
  9
$DIMTXT
 40
0.18
  9
$DIMCEN
 40
0.09
  9
$DIMTSZ
 40
0.0
  9
$DIMTOL
 70
     0
  9
$DIMLIM
 70
     0
  9
$DIMTIH
 70
     1
  9
$DIMTOH
 70
     1
  9
$DIMSE1
 70
     0
  9
$DIMSE2
 70
     0
  9
$DIMTAD
 70
     0
  9
$DIMZIN
 70
     0
  9
$DIMBLK
  1

  9
$DIMASO
 70
     1
  9
$DIMSHO
 70
     1
  9
$DIMPOST
  1

  9
$DIMAPOST
  1

  9
$DIMALT
 70
     0
  9
$DIMALTD
 70
     2
  9
$DIMALTF
 40
25.4
  9
$DIMLFAC
 40
1.0
  9
$DIMTOFL
 70
     0
  9
$DIMTVP
 40
0.0
  9
$DIMTIX
 70
     0
  9
$DIMSOXD
 70
     0
  9
$DIMSAH
 70
     0
  9
$DIMBLK1
  1

  9
$DIMBLK2
  1

  9
$DIMSTYLE
  2
Standard
  9
$DIMCLRD
 70
     0
  9
$DIMCLRE
 70
     0
  9
$DIMCLRT
 70
     0
  9
$DIMTFAC
 40
1.0
  9
$DIMGAP
 40
0.09
  9
$DIMJUST
 70
     0
  9
$DIMSD1
 70
     0
  9
$DIMSD2
 70
     0
  9
$DIMTOLJ
 70
     1
  9
$DIMTZIN
 70
     0
  9
$DIMALTZ
 70
     0
  9
$DIMALTTZ
 70
     0
  9
$DIMUPT
 70
     0
  9
$DIMDEC
 70
     4
  9
$DIMTDEC
 70
     4
  9
$DIMALTU
 70
     2
  9
$DIMALTTD
 70
     2
  9
$DIMTXSTY
  7
Standard
  9
$DIMAUNIT
 70
     0
  9
$DIMADEC
 70
     0
  9
$DIMALTRND
 40
0.0
  9
$DIMAZIN
 70
     0
  9
$DIMDSEP
 70
    46
  9
$DIMATFIT
 70
     3
  9
$DIMFRAC
 70
     0
  9
$DIMLDRBLK
  1

  9
$DIMLUNIT
 70
     2
  9
$DIMLWD
 70
    -2
  9
$DIMLWE
 70
    -2
  9
$DIMTMOVE
 70
     0
  9
$DIMFXL
 40
1.0
  9
$DIMFXLON
 70
     0
  9
$DIMJOGANG
 40
0.7853981633974483
  9
$DIMTFILL
 70
     0
  9
$DIMTFILLCLR
 70
     0
  9
$DIMARCSYM
 70
     0
  9
$DIMLTYPE
  6

  9
$DIMLTEX1
  6

  9
$DIMLTEX2
  6

  9
$LUNITS
 70
     2
  9
$LUPREC
 70
     4
  9
$SKETCHINC
 40
0.1
  9
$FILLETRAD
 40
0.5
  9
$AUNITS
 70
     0
  9
$AUPREC
 70
     0
  9
$MENU
  1
.
  9
$ELEVATION
 40
0.0
  9
$PELEVATION
 40
0.0
  9
$THICKNESS
 40
0.0
  9
$LIMCHECK
 70
     0
  9
$CHAMFERA
 40
0.5
  9
$CHAMFERB
 40
0.5
  9
$CHAMFERC
 40
1.0
  9
$CHAMFERD
 40
0.0
  9
$SKPOLY
 70
     0
  9
$TDCREATE
 40
2460271.520197801
  9
$TDUCREATE
 40
2460271.520197801
  9
$TDUPDATE
 40
2460271.520197836
  9
$TDUUPDATE
 40
2460271.520197836
  9
$TDINDWG
 40
0.0000000116
  9
$TDUSRTIMER
 40
0.0000000116
  9
$USRTIMER
 70
     1
  9
$ANGBASE
 50
0.0
  9
$ANGDIR
 70
     0
  9
$PDMODE
 70
     0
  9
$PDSIZE
 40
0.0
  9
$PLINEWID
 40
0.0
  9
$SPLFRAME
 70
     0
  9
$SPLINETYPE
 70
     6
  9
$SPLINESEGS
 70
     8
  9
$HANDSEED
  5
98
  9
$SURFTAB1
 70
     6
  9
$SURFTAB2
 70
     6
  9
$SURFTYPE
 70
     6
  9
$SURFU
 70
     6
  9
$SURFV
 70
     6
  9
$UCSBASE
  2

  9
$UCSNAME
  2

  9
$UCSORG
 10
0.0
 20
0.0
 30
0.0
  9
$UCSXDIR
 10
1.0
 20
0.0
 30
0.0
  9
$UCSYDIR
 10
0.0
 20
1.0
 30
0.0
  9
$UCSORTHOREF
  2

  9
$UCSORTHOVIEW
 70
     0
  9
$UCSORGTOP
 10
0.0
 20
0.0
 30
0.0
  9
$UCSORGBOTTOM
 10
0.0
 20
0.0
 30
0.0
  9
$UCSORGLEFT
 10
0.0
 20
0.0
 30
0.0
  9
$UCSORGRIGHT
 10
0.0
 20
0.0
 30
0.0
  9
$UCSORGFRONT
 10
0.0
 20
0.0
 30
0.0
  9
$UCSORGBACK
 10
0.0
 20
0.0
 30
0.0
  9
$PUCSBASE
  2

  9
$PUCSNAME
  2

  9
$PUCSORG
 10
0.0
 20
0.0
 30
0.0
  9
$PUCSXDIR
 10
1.0
 20
0.0
 30
0.0
  9
$PUCSYDIR
 10
0.0
 20
1.0
 30
0.0
  9
$PUCSORTHOREF
  2

  9
$PUCSORTHOVIEW
 70
     0
  9
$PUCSORGTOP
 10
0.0
 20
0.0
 30
0.0
  9
$PUCSORGBOTTOM
 10
0.0
 20
0.0
 30
0.0
  9
$PUCSORGLEFT
 10
0.0
 20
0.0
 30
0.0
  9
$PUCSORGRIGHT
 10
0.0
 20
0.0
 30
0.0
  9
$PUCSORGFRONT
 10
0.0
 20
0.0
 30
0.0
  9
$PUCSORGBACK
 10
0.0
 20
0.0
 30
0.0
  9
$USERI1
 70
     0
  9
$USERI2
 70
     0
  9
$USERI3
 70
     0
  9
$USERI4
 70
     0
  9
$USERI5
 70
     0
  9
$USERR1
 40
0.0
  9
$USERR2
 40
0.0
  9
$USERR3
 40
0.0
  9
$USERR4
 40
0.0
  9
$USERR5
 40
0.0
  9
$WORLDVIEW
 70
     1
  9
$SHADEDGE
 70
     3
  9
$SHADEDIF
 70
    70
  9
$TILEMODE
 70
     1
  9
$MAXACTVP
 70
    64
  9
$PINSBASE
 10
0.0
 20
0.0
 30
0.0
  9
$PLIMCHECK
 70
     0
  9
$PEXTMIN
 10
1.000000000000000E+20
 20
1.000000000000000E+20
 30
1.000000000000000E+20
  9
$PEXTMAX
 10
-1.000000000000000E+20
 20
-1.000000000000000E+20
 30
-1.000000000000000E+20
  9
$PLIMMIN
 10
0.0
 20
0.0
  9
$PLIMMAX
 10
12.0
 20
9.0
  9
$UNITMODE
 70
     0
  9
$VISRETAIN
 70
     1
  9
$PLINEGEN
 70
     0
  9
$PSLTSCALE
 70
     1
  9
$TREEDEPTH
 70
  3020
  9
$CMLSTYLE
  2
Standard
  9
$CMLJUST
 70
     0
  9
$CMLSCALE
 40
1.0
  9
$PROXYGRAPHICS
 70
     1
  9
$MEASUREMENT
 70
     0
  9
$CELWEIGHT
370
    -1
  9
$ENDCAPS
280
     0
  9
$JOINSTYLE
280
     0
  9
$LWDISPLAY
290
     0
  9
$INSUNITS
 70
     5
  9
$HYPERLINKBASE
  1

  9
$STYLESHEET
  1

  9
$XEDIT
290
     1
  9
$CEPSNTYPE
380
     0
  9
$PSTYLEMODE
290
     1
  9
$FINGERPRINTGUID
  2
{D83053AC-8187-41A2-A5B7-80B27463E56D}
  9
$VERSIONGUID
  2
{FAEB1C32-E019-11D5-929B-00C0DF256EC4}
  9
$EXTNAMES
290
     1
  9
$PSVPSCALE
 40
0.0
  9
$OLESTARTUP
290
     0
  9
$SORTENTS
280
   127
  9
$INDEXCTL
280
     0
  9
$HIDETEXT
280
     1
  9
$XCLIPFRAME
290
     0
  9
$HALOGAP
280
     0
  9
$OBSCOLOR
 70
   257
  9
$OBSLTYPE
280
     0
  9
$INTERSECTIONDISPLAY
280
     0
  9
$INTERSECTIONCOLOR
 70
   257
  9
$DIMASSOC
280
     2
  9
$PROJECTNAME
  1

  9
$CAMERADISPLAY
290
     0
  9
$LENSLENGTH
 40
50.0
  9
$CAMERAHEIGHT
 40
0.0
  9
$STEPSPERSEC
 40
2.0
  9
$STEPSIZE
 40
6.0
  9
$3DDWFPREC
 40
2.0
  9
$PSOLWIDTH
 40
0.25
  9
$PSOLHEIGHT
 40
4.0
  9
$LOFTANG1
 40
1.570796326794897
  9
$LOFTANG2
 40
1.570796326794897
  9
$LOFTMAG1
 40
0.0
  9
$LOFTMAG2
 40
0.0
  9
$LOFTPARAM
 70
     7
  9
$LOFTNORMALS
280
     1
  9
$LATITUDE
 40
37.795
  9
$LONGITUDE
 40
-122.394
  9
$NORTHDIRECTION
 40
0.0
  9
$TIMEZONE
 70
 -8000
  9
$LIGHTGLYPHDISPLAY
280
     1
  9
$TILEMODELIGHTSYNCH
280
     1
  9
$SOLIDHIST
280
     1
  9
$SHOWHIST
280
     1
  9
$DWFFRAME
280
     2
  9
$DGNFRAME
280
     2
  9
$REALWORLDSCALE
290
     1
  9
$INTERFERECOLOR
 62
   256
  9
$CSHADOW
280
     0
  9
$SHADOWPLANELOCATION
 40
0.0
  0
ENDSEC
  0
SECTION
  2
CLASSES
  0
CLASS
  1
ACDBDICTIONARYWDFLT
  2
AcDbDictionaryWithDefault
  3
ObjectDBX Classes
 90
        0
 91
        4
280
     0
281
     0
  0
CLASS
  1
VISUALSTYLE
  2
AcDbVisualStyle
  3
ObjectDBX Classes
 90
     4095
 91
        4
280
     0
281
     0
  0
CLASS
  1
MATERIAL
  2
AcDbMaterial
  3
ObjectDBX Classes
 90
     1153
 91
        4
280
     0
281
     0
  0
ENDSEC
  0
SECTION
  2
TABLES
  0
TABLE
  2
VPORT
  5
8
330
0
100
AcDbSymbolTable
 70
     1
  0
VPORT
  5
29
330
8
100
AcDbSymbolTableRecord
100
AcDbViewportTableRecord
  2
*Active
 70
     0
 10
0.0
 20
0.0
 11
1.0
 21
1.0
 12
10.42990654205607
 22
4.5
 13
0.0
 23
0.0
 14
0.5
 24
0.5
 15
0.5
 25
0.5
 16
0.0
 26
0.0
 36
1.0
 17
0.0
 27
0.0
 37
0.0
 40
9.0
 41
1.972972972850329
 42
50.0
 43
0.0
 44
0.0
 50
0.0
 51
0.0
 71
     0
 72
   100
 73
     1
 74
     3
 75
     0
 76
     0
 77
     0
 78
     0
281
     0
 65
     1
110
0.0
120
0.0
130
0.0
111
1.0
121
0.0
131
0.0
112
0.0
122
1.0
132
0.0
 79
     0
146
0.0
 60
     3
 61
     5
292
     1
282
     1
141
0.0
142
0.0
 63
   250
  0
ENDTAB
  0
TABLE
  2
LTYPE
  5
5
330
0
100
AcDbSymbolTable
 70
     1
  0
LTYPE
  5
14
330
5
100
AcDbSymbolTableRecord
100
AcDbLinetypeTableRecord
  2
ByBlock
 70
     0
  3

 72
    65
 73
     0
 40
0.0
  0
LTYPE
  5
15
330
5
100
AcDbSymbolTableRecord
100
AcDbLinetypeTableRecord
  2
ByLayer
 70
     0
  3

 72
    65
 73
     0
 40
0.0
  0
LTYPE
  5
16
330
5
100
AcDbSymbolTableRecord
100
AcDbLinetypeTableRecord
  2
Continuous
 70
     0
  3
Solid line
 72
    65
 73
     0
 40
0.0
  0
ENDTAB
  0
TABLE
  2
LAYER
  5
2
330
0
100
AcDbSymbolTable
 70
     2
  0
LAYER
  5
10
330
2
100
AcDbSymbolTableRecord
100
AcDbLayerTableRecord
  2
0
 70
     0
 62
     7
  6
Continuous
370
    -3
390
F
347
3E
  0
LAYER
  5
40
330
2
100
AcDbSymbolTableRecord
100
AcDbLayerTableRecord
  2
Layer 1
 70
     0
 62
     7
  6
Continuous
370
    -3
390
F
347
3E
  0
ENDTAB
  0
TABLE
  2
STYLE
  5
3
330
0
100
AcDbSymbolTable
 70
     1
  0
STYLE
  5
11
330
3
100
AcDbSymbolTableRecord
100
AcDbTextStyleTableRecord
  2
Standard
 70
     0
 40
0.0
 41
1.0
 50
0.0
 71
     0
 42
0.2
  3
txt
  4

  0
ENDTAB
  0
TABLE
  2
VIEW
  5
6
330
0
100
AcDbSymbolTable
 70
     0
  0
ENDTAB
  0
TABLE
  2
UCS
  5
7
330
0
100
AcDbSymbolTable
 70
     0
  0
ENDTAB
  0
TABLE
  2
APPID
  5
9
330
0
100
AcDbSymbolTable
 70
     2
  0
APPID
  5
12
330
9
100
AcDbSymbolTableRecord
100
AcDbRegAppTableRecord
  2
ACAD
 70
     0
  0
APPID
  5
3F
330
9
100
AcDbSymbolTableRecord
100
AcDbRegAppTableRecord
  2
ODA
 70
     0
  0
ENDTAB
  0
TABLE
  2
DIMSTYLE
  5
A
330
0
100
AcDbSymbolTable
 70
     1
100
AcDbDimStyleTable
  0
DIMSTYLE
105
27
330
A
100
AcDbSymbolTableRecord
100
AcDbDimStyleTableRecord
  2
Standard
 70
     0
178
     0
340
11
  0
ENDTAB
  0
TABLE
  2
BLOCK_RECORD
  5
1
330
0
100
AcDbSymbolTable
 70
     1
  0
BLOCK_RECORD
  5
1F
330
1
100
AcDbSymbolTableRecord
100
AcDbBlockTableRecord
  2
*Model_Space
340
22
 70
     0
280
     1
281
     0
  0
BLOCK_RECORD
  5
1B
330
1
100
AcDbSymbolTableRecord
100
AcDbBlockTableRecord
  2
*Paper_Space
340
1E
 70
     0
280
     1
281
     0
  0
BLOCK_RECORD
  5
23
330
1
100
AcDbSymbolTableRecord
100
AcDbBlockTableRecord
  2
*Paper_Space0
340
26
 70
     0
280
     1
281
     0
  0
ENDTAB
  0
ENDSEC
  0
SECTION
  2
BLOCKS
  0
BLOCK
  5
20
330
1F
100
AcDbEntity
  8
0
100
AcDbBlockBegin
  2
*Model_Space
 70
     0
 10
0.0
 20
0.0
 30
0.0
  3
*Model_Space
  1

  0
ENDBLK
  5
21
330
1F
100
AcDbEntity
  8
0
100
AcDbBlockEnd
  0
BLOCK
  5
1C
330
1B
100
AcDbEntity
 67
     1
  8
0
100
AcDbBlockBegin
  2
*Paper_Space
 70
     0
 10
0.0
 20
0.0
 30
0.0
  3
*Paper_Space
  1

  0
ENDBLK
  5
1D
330
1B
100
AcDbEntity
 67
     1
  8
0
100
AcDbBlockEnd
  0
BLOCK
  5
24
330
23
100
AcDbEntity
  8
0
100
AcDbBlockBegin
  2
*Paper_Space0
 70
     0
 10
0.0
 20
0.0
 30
0.0
  3
*Paper_Space0
  1

  0
ENDBLK
  5
25
330
23
100
AcDbEntity
  8
0
100
AcDbBlockEnd
  0
ENDSEC
  0
SECTION
  2
ENTITIES
  0
SPLINE
  5
41
330
1F
100
AcDbEntity
  8
Layer 1
 62
     1
370
    53
100
AcDbSpline
210
0.0
220
0.0
230
1.0
 70
    11
 71
     3
 72
    36
 73
    32
 74
     0
 42
0.0000000001
 43
0.0000000001
 12
1.0
 22
0.0
 32
0.0
 13
1.0
 23
0.0
 33
0.0
 40
0.0
 40
0.0
 40
0.0
 40
0.0
 40
0.1111111111111111
 40
0.1111111111111111
 40
0.1111111111111111
 40
0.1111111111111111
 40
0.2222222222222222
 40
0.2222222222222222
 40
0.2222222222222222
 40
0.2222222222222222
 40
0.3333333333333333
 40
0.3333333333333333
 40
0.3333333333333333
 40
0.3333333333333333
 40
0.4444444444444444
 40
0.4444444444444444
 40
0.4444444444444444
 40
0.4444444444444444
 40
0.5555555555555556
 40
0.5555555555555556
 40
0.5555555555555556
 40
0.5555555555555556
 40
0.6666666666666666
 40
0.6666666666666666
 40
0.6666666666666666
 40
0.6666666666666666
 40
0.7777777777777778
 40
0.7777777777777778
 40
0.7777777777777778
 40
0.7777777777777778
 40
1.0
 40
1.0
 40
1.0
 40
1.0
 10
-6.9
 20
-6.4
 30
0.0
 10
-6.9
 20
-6.4
 30
0.0
 10
-6.9
 20
6.4
 30
0.0
 10
-6.9
 20
6.4
 30
0.0
 10
-6.9
 20
6.4
 30
0.0
 10
-6.9
 20
6.67609
 30
0.0
 10
-6.67609
 20
6.9
 30
0.0
 10
-6.4
 20
6.9
 30
0.0
 10
-6.4
 20
6.9
 30
0.0
 10
-6.4
 20
6.9
 30
0.0
 10
6.4
 20
6.9
 30
0.0
 10
6.4
 20
6.9
 30
0.0
 10
6.4
 20
6.9
 30
0.0
 10
6.67609
 20
6.9
 30
0.0
 10
6.9
 20
6.67609
 30
0.0
 10
6.9
 20
6.4
 30
0.0
 10
6.9
 20
6.4
 30
0.0
 10
6.9
 20
6.4
 30
0.0
 10
6.9
 20
-6.4
 30
0.0
 10
6.9
 20
-6.4
 30
0.0
 10
6.9
 20
-6.4
 30
0.0
 10
6.9
 20
-6.67609
 30
0.0
 10
6.67609
 20
-6.9
 30
0.0
 10
6.4
 20
-6.9
 30
0.0
 10
6.4
 20
-6.9
 30
0.0
 10
6.4
 20
-6.9
 30
0.0
 10
-6.4
 20
-6.9
 30
0.0
 10
-6.4
 20
-6.9
 30
0.0
 10
-6.4
 20
-6.9
 30
0.0
 10
-6.67609
 20
-6.9
 30
0.0
 10
-6.9
 20
-6.67609
 30
0.0
 10
-6.9
 20
-6.4
 30
0.0
  0
SPLINE
  5
42
330
1F
100
AcDbEntity
  8
Layer 1
370
    53
100
AcDbSpline
210
0.0
220
0.0
230
1.0
 70
    11
 71
     3
 72
    28
 73
    24
 74
     0
 42
0.0000000001
 43
0.0000000001
 12
1.0
 22
0.0
 32
0.0
 13
1.0
 23
0.0
 33
0.0
 40
0.0
 40
0.0
 40
0.0
 40
0.0
 40
0.1428571428571428
 40
0.1428571428571428
 40
0.1428571428571428
 40
0.1428571428571428
 40
0.2857142857142857
 40
0.2857142857142857
 40
0.2857142857142857
 40
0.2857142857142857
 40
0.4285714285714285
 40
0.4285714285714285
 40
0.4285714285714285
 40
0.4285714285714285
 40
0.5714285714285714
 40
0.5714285714285714
 40
0.5714285714285714
 40
0.5714285714285714
 40
0.7142857142857143
 40
0.7142857142857143
 40
0.7142857142857143
 40
0.7142857142857143
 40
1.0
 40
1.0
 40
1.0
 40
1.0
 10
-1.86636
 20
-5.6886
 30
0.0
 10
-1.76369
 20
-5.48529
 30
0.0
 10
-1.55298
 20
-5.34587
 30
0.0
 10
-1.30965
 20
-5.34587
 30
0.0
 10
-1.30965
 20
-5.34587
 30
0.0
 10
-0.97963
 20
-5.34588
 30
0.0
 10
-0.70957
 20
-5.60233
 30
0.0
 10
-0.68776
 20
-5.92682
 30
0.0
 10
-0.68776
 20
-5.92682
 30
0.0
 10
-0.77978
 20
-5.91776
 30
0.0
 10
-0.87112
 20
-5.90643
 30
0.0
 10
-0.96186
 20
-5.89324
 30
0.0
 10
-0.96186
 20
-5.89324
 30
0.0
 10
-0.99668
 20
-5.73318
 30
0.0
 10
-1.13916
 20
-5.61331
 30
0.0
 10
-1.30966
 20
-5.61331
 30
0.0
 10
-1.30966
 20
-5.61331
 30
0.0
 10
-1.42991
 20
-5.61331
 30
0.0
 10
-1.53621
 20
-5.67296
 30
0.0
 10
-1.60064
 20
-5.76427
 30
0.0
 10
-1.60064
 20
-5.76427
 30
0.0
 10
-1.69005
 20
-5.74105
 30
0.0
 10
-1.77866
 20
-5.71587
 30
0.0
 10
-1.86636
 20
-5.6886
 30
0.0
  0
SPLINE
  5
43
330
1F
100
AcDbEntity
  8
Layer 1
370
    53
100
AcDbSpline
210
0.0
220
0.0
230
1.0
 70
    11
 71
     3
 72
    28
 73
    24
 74
     0
 42
0.0000000001
 43
0.0000000001
 12
1.0
 22
0.0
 32
0.0
 13
1.0
 23
0.0
 33
0.0
 40
0.0
 40
0.0
 40
0.0
 40
0.0
 40
0.1428571428571428
 40
0.1428571428571428
 40
0.1428571428571428
 40
0.1428571428571428
 40
0.2857142857142857
 40
0.2857142857142857
 40
0.2857142857142857
 40
0.2857142857142857
 40
0.4285714285714285
 40
0.4285714285714285
 40
0.4285714285714285
 40
0.4285714285714285
 40
0.5714285714285714
 40
0.5714285714285714
 40
0.5714285714285714
 40
0.5714285714285714
 40
0.7142857142857143
 40
0.7142857142857143
 40
0.7142857142857143
 40
0.7142857142857143
 40
1.0
 40
1.0
 40
1.0
 40
1.0
 10
-3.90539
 20
-4.57957
 30
0.0
 10
-3.73273
 20
-4.43102
 30
0.0
 10
-3.4847
 20
-4.38285
 30
0.0
 10
-3.2599
 20
-4.47597
 30
0.0
 10
-3.2599
 20
-4.47597
 30
0.0
 10
-2.95501
 20
-4.60227
 30
0.0
 10
-2.80363
 20
-4.94255
 30
0.0
 10
-2.90767
 20
-5.25068
 30
0.0
 10
-2.90767
 20
-5.25068
 30
0.0
 10
-2.98922
 20
-5.2071
 30
0.0
 10
-3.06926
 20
-5.16168
 30
0.0
 10
-3.14805
 20
-5.11477
 30
0.0
 10
-3.14805
 20
-5.11477
 30
0.0
 10
-3.11897
 20
-4.95357
 30
0.0
 10
-3.20473
 20
-4.7883
 30
0.0
 10
-3.36225
 20
-4.72305
 30
0.0
 10
-3.36225
 20
-4.72305
 30
0.0
 10
-3.47335
 20
-4.67703
 30
0.0
 10
-3.59438
 20
-4.69146
 30
0.0
 10
-3.68886
 20
-4.75117
 30
0.0
 10
-3.68886
 20
-4.75117
 30
0.0
 10
-3.76257
 20
-4.6955
 30
0.0
 10
-3.8348
 20
-4.63833
 30
0.0
 10
-3.90539
 20
-4.57957
 30
0.0
  0
SPLINE
  5
44
330
1F
100
AcDbEntity
  8
Layer 1
370
    53
100
AcDbSpline
210
0.0
220
0.0
230
1.0
 70
    11
 71
     3
 72
    28
 73
    24
 74
     0
 42
0.0000000001
 43
0.0000000001
 12
1.0
 22
0.0
 32
0.0
 13
1.0
 23
0.0
 33
0.0
 40
0.0
 40
0.0
 40
0.0
 40
0.0
 40
0.1428571428571428
 40
0.1428571428571428
 40
0.1428571428571428
 40
0.1428571428571428
 40
0.2857142857142857
 40
0.2857142857142857
 40
0.2857142857142857
 40
0.2857142857142857
 40
0.4285714285714285
 40
0.4285714285714285
 40
0.4285714285714285
 40
0.4285714285714285
 40
0.5714285714285714
 40
0.5714285714285714
 40
0.5714285714285714
 40
0.5714285714285714
 40
0.7142857142857143
 40
0.7142857142857143
 40
0.7142857142857143
 40
0.7142857142857143
 40
1.0
 40
1.0
 40
1.0
 40
1.0
 10
-5.36479
 20
-2.77466
 30
0.0
 10
-5.14843
 20
-2.7035
 30
0.0
 10
-4.90085
 20
-2.7539
 30
0.0
 10
-4.7288
 20
-2.92596
 30
0.0
 10
-4.7288
 20
-2.92596
 30
0.0
 10
-4.49544
 20
-3.15933
 30
0.0
 10
-4.48581
 20
-3.53163
 30
0.0
 10
-4.69984
 20
-3.77649
 30
0.0
 10
-4.69984
 20
-3.77649
 30
0.0
 10
-4.75851
 20
-3.70502
 30
0.0
 10
-4.81506
 20
-3.63242
 30
0.0
 10
-4.86991
 20
-3.55894
 30
0.0
 10
-4.86991
 20
-3.55894
 30
0.0
 10
-4.78137
 20
-3.42114
 30
0.0
 10
-4.79736
 20
-3.23562
 30
0.0
 10
-4.91791
 20
-3.11507
 30
0.0
 10
-4.91791
 20
-3.11507
 30
0.0
 10
-5.00294
 20
-3.03003
 30
0.0
 10
-5.12028
 20
-2.99705
 30
0.0
 10
-5.23041
 20
-3.01606
 30
0.0
 10
-5.23041
 20
-3.01606
 30
0.0
 10
-5.27721
 20
-2.93641
 30
0.0
 10
-5.32207
 20
-2.85595
 30
0.0
 10
-5.36479
 20
-2.77466
 30
0.0
  0
SPLINE
  5
45
330
1F
100
AcDbEntity
  8
Layer 1
370
    53
100
AcDbSpline
210
0.0
220
0.0
230
1.0
 70
    11
 71
     3
 72
    28
 73
    24
 74
     0
 42
0.0000000001
 43
0.0000000001
 12
1.0
 22
0.0
 32
0.0
 13
1.0
 23
0.0
 33
0.0
 40
0.0
 40
0.0
 40
0.0
 40
0.0
 40
0.1428571428571428
 40
0.1428571428571428
 40
0.1428571428571428
 40
0.1428571428571428
 40
0.2857142857142857
 40
0.2857142857142857
 40
0.2857142857142857
 40
0.2857142857142857
 40
0.4285714285714285
 40
0.4285714285714285
 40
0.4285714285714285
 40
0.4285714285714285
 40
0.5714285714285714
 40
0.5714285714285714
 40
0.5714285714285714
 40
0.5714285714285714
 40
0.7142857142857143
 40
0.7142857142857143
 40
0.7142857142857143
 40
0.7142857142857143
 40
1.0
 40
1.0
 40
1.0
 40
1.0
 10
-5.49272
 20
-0.93181
 30
0.0
 10
-5.36643
 20
-1.2367
 30
0.0
 10
-5.50001
 20
-1.58437
 30
0.0
 10
-5.79146
 20
-1.72869
 30
0.0
 10
-5.79146
 20
-1.72869
 30
0.0
 10
-5.8183
 20
-1.6402
 30
0.0
 10
-5.84278
 20
-1.55149
 30
0.0
 10
-5.86535
 20
-1.46261
 30
0.0
 10
-5.86535
 20
-1.46261
 30
0.0
 10
-5.73078
 20
-1.36918
 30
0.0
 10
-5.67456
 20
-1.19167
 30
0.0
 10
-5.7398
 20
-1.03415
 30
0.0
 10
-5.7398
 20
-1.03415
 30
0.0
 10
-5.78582
 20
-0.92306
 30
0.0
 10
-5.88161
 20
-0.84768
 30
0.0
 10
-5.99063
 20
-0.82309
 30
0.0
 10
-5.99063
 20
-0.82309
 30
0.0
 10
-6.00338
 20
-0.7316
 30
0.0
 10
-6.01404
 20
-0.6401
 30
0.0
 10
-6.0224
 20
-0.54865
 30
0.0
 10
-6.0224
 20
-0.54865
 30
0.0
 10
-5.79528
 20
-0.5657
 30
0.0
 10
-5.58583
 20
-0.70701
 30
0.0
 10
-5.49272
 20
-0.93181
 30
0.0
  0
SPLINE
  5
46
330
1F
100
AcDbEntity
  8
Layer 1
370
    53
100
AcDbSpline
210
0.0
220
0.0
230
1.0
 70
    11
 71
     3
 72
    28
 73
    24
 74
     0
 42
0.0000000001
 43
0.0000000001
 12
1.0
 22
0.0
 32
0.0
 13
1.0
 23
0.0
 33
0.0
 40
0.0
 40
0.0
 40
0.0
 40
0.0
 40
0.1428571428571428
 40
0.1428571428571428
 40
0.1428571428571428
 40
0.1428571428571428
 40
0.2857142857142857
 40
0.2857142857142857
 40
0.2857142857142857
 40
0.2857142857142857
 40
0.4285714285714285
 40
0.4285714285714285
 40
0.4285714285714285
 40
0.4285714285714285
 40
0.5714285714285714
 40
0.5714285714285714
 40
0.5714285714285714
 40
0.5714285714285714
 40
0.7142857142857143
 40
0.7142857142857143
 40
0.7142857142857143
 40
0.7142857142857143
 40
1.0
 40
1.0
 40
1.0
 40
1.0
 10
-5.77809
 20
1.75958
 30
0.0
 10
-5.57478
 20
1.65691
 30
0.0
 10
-5.43536
 20
1.4462
 30
0.0
 10
-5.43536
 20
1.20287
 30
0.0
 10
-5.43536
 20
1.20287
 30
0.0
 10
-5.43537
 20
0.87285
 30
0.0
 10
-5.69182
 20
0.60279
 30
0.0
 10
-6.01631
 20
0.58099
 30
0.0
 10
-6.01631
 20
0.58099
 30
0.0
 10
-6.00725
 20
0.673
 30
0.0
 10
-5.99592
 20
0.76434
 30
0.0
 10
-5.98273
 20
0.85508
 30
0.0
 10
-5.98273
 20
0.85508
 30
0.0
 10
-5.82267
 20
0.8899
 30
0.0
 10
-5.7028
 20
1.03238
 30
0.0
 10
-5.7028
 20
1.20288
 30
0.0
 10
-5.7028
 20
1.20288
 30
0.0
 10
-5.7028
 20
1.32313
 30
0.0
 10
-5.76245
 20
1.42943
 30
0.0
 10
-5.85376
 20
1.49386
 30
0.0
 10
-5.85376
 20
1.49386
 30
0.0
 10
-5.83054
 20
1.58327
 30
0.0
 10
-5.80536
 20
1.67188
 30
0.0
 10
-5.77809
 20
1.75958
 30
0.0
  0
SPLINE
  5
47
330
1F
100
AcDbEntity
  8
Layer 1
370
    53
100
AcDbSpline
210
0.0
220
0.0
230
1.0
 70
    11
 71
     3
 72
    28
 73
    24
 74
     0
 42
0.0000000001
 43
0.0000000001
 12
1.0
 22
0.0
 32
0.0
 13
1.0
 23
0.0
 33
0.0
 40
0.0
 40
0.0
 40
0.0
 40
0.0
 40
0.1428571428571428
 40
0.1428571428571428
 40
0.1428571428571428
 40
0.1428571428571428
 40
0.2857142857142857
 40
0.2857142857142857
 40
0.2857142857142857
 40
0.2857142857142857
 40
0.4285714285714285
 40
0.4285714285714285
 40
0.4285714285714285
 40
0.4285714285714285
 40
0.5714285714285714
 40
0.5714285714285714
 40
0.5714285714285714
 40
0.5714285714285714
 40
0.7142857142857143
 40
0.7142857142857143
 40
0.7142857142857143
 40
0.7142857142857143
 40
1.0
 40
1.0
 40
1.0
 40
1.0
 10
-4.66906
 20
3.79861
 30
0.0
 10
-4.52051
 20
3.62595
 30
0.0
 10
-4.47234
 20
3.37792
 30
0.0
 10
-4.56546
 20
3.15313
 30
0.0
 10
-4.56546
 20
3.15313
 30
0.0
 10
-4.69176
 20
2.84823
 30
0.0
 10
-5.03204
 20
2.69685
 30
0.0
 10
-5.34017
 20
2.80089
 30
0.0
 10
-5.34017
 20
2.80089
 30
0.0
 10
-5.29659
 20
2.88244
 30
0.0
 10
-5.25117
 20
2.96248
 30
0.0
 10
-5.20426
 20
3.04127
 30
0.0
 10
-5.20426
 20
3.04127
 30
0.0
 10
-5.04306
 20
3.01219
 30
0.0
 10
-4.87779
 20
3.09795
 30
0.0
 10
-4.81254
 20
3.25547
 30
0.0
 10
-4.81254
 20
3.25547
 30
0.0
 10
-4.76652
 20
3.36657
 30
0.0
 10
-4.78095
 20
3.4876
 30
0.0
 10
-4.84066
 20
3.58208
 30
0.0
 10
-4.84066
 20
3.58208
 30
0.0
 10
-4.78499
 20
3.65579
 30
0.0
 10
-4.72782
 20
3.72802
 30
0.0
 10
-4.66906
 20
3.79861
 30
0.0
  0
SPLINE
  5
48
330
1F
100
AcDbEntity
  8
Layer 1
370
    53
100
AcDbSpline
210
0.0
220
0.0
230
1.0
 70
    11
 71
     3
 72
    20
 73
    16
 74
     0
 42
0.0000000001
 43
0.0000000001
 12
1.0
 22
0.0
 32
0.0
 13
1.0
 23
0.0
 33
0.0
 40
0.0
 40
0.0
 40
0.0
 40
0.0
 40
0.2
 40
0.2
 40
0.2
 40
0.2
 40
0.4
 40
0.4
 40
0.4
 40
0.4
 40
0.6
 40
0.6
 40
0.6
 40
0.6
 40
1.0
 40
1.0
 40
1.0
 40
1.0
 10
-1.21714
 20
0.98495
 30
0.0
 10
-1.30531
 20
0.88701
 30
0.0
 10
-1.38171
 20
0.77606
 30
0.0
 10
-1.44306
 20
0.65338
 30
0.0
 10
-1.44306
 20
0.65338
 30
0.0
 10
-1.44306
 20
0.65338
 30
0.0
 10
-2.71785
 20
1.18142
 30
0.0
 10
-2.71785
 20
1.18142
 30
0.0
 10
-2.71785
 20
1.18142
 30
0.0
 10
-2.58305
 20
1.47862
 30
0.0
 10
-2.40338
 20
1.7423
 30
0.0
 10
-2.19025
 20
1.96783
 30
0.0
 10
-2.19025
 20
1.96783
 30
0.0
 10
-2.19025
 20
1.96783
 30
0.0
 10
-1.21714
 20
0.98495
 30
0.0
 10
-1.21714
 20
0.98495
 30
0.0
  0
SPLINE
  5
49
330
1F
100
AcDbEntity
  8
Layer 1
370
    53
100
AcDbSpline
210
0.0
220
0.0
230
1.0
 70
    11
 71
     3
 72
    28
 73
    24
 74
     0
 42
0.0000000001
 43
0.0000000001
 12
1.0
 22
0.0
 32
0.0
 13
1.0
 23
0.0
 33
0.0
 40
0.0
 40
0.0
 40
0.0
 40
0.0
 40
0.1428571428571428
 40
0.1428571428571428
 40
0.1428571428571428
 40
0.1428571428571428
 40
0.2857142857142857
 40
0.2857142857142857
 40
0.2857142857142857
 40
0.2857142857142857
 40
0.4285714285714285
 40
0.4285714285714285
 40
0.4285714285714285
 40
0.4285714285714285
 40
0.5714285714285714
 40
0.5714285714285714
 40
0.5714285714285714
 40
0.5714285714285714
 40
0.7142857142857143
 40
0.7142857142857143
 40
0.7142857142857143
 40
0.7142857142857143
 40
1.0
 40
1.0
 40
1.0
 40
1.0
 10
-2.86415
 20
5.25801
 30
0.0
 10
-2.79299
 20
5.04166
 30
0.0
 10
-2.84339
 20
4.79408
 30
0.0
 10
-3.01545
 20
4.62202
 30
0.0
 10
-3.01545
 20
4.62202
 30
0.0
 10
-3.24882
 20
4.38866
 30
0.0
 10
-3.62112
 20
4.37903
 30
0.0
 10
-3.86598
 20
4.59307
 30
0.0
 10
-3.86598
 20
4.59307
 30
0.0
 10
-3.79451
 20
4.65174
 30
0.0
 10
-3.72191
 20
4.7083
 30
0.0
 10
-3.64843
 20
4.76314
 30
0.0
 10
-3.64843
 20
4.76314
 30
0.0
 10
-3.51063
 20
4.67459
 30
0.0
 10
-3.32511
 20
4.69058
 30
0.0
 10
-3.20457
 20
4.81113
 30
0.0
 10
-3.20457
 20
4.81113
 30
0.0
 10
-3.11952
 20
4.89616
 30
0.0
 10
-3.08654
 20
5.01351
 30
0.0
 10
-3.10555
 20
5.12363
 30
0.0
 10
-3.10555
 20
5.12363
 30
0.0
 10
-3.0259
 20
5.17043
 30
0.0
 10
-2.94544
 20
5.21529
 30
0.0
 10
-2.86415
 20
5.25801
 30
0.0
  0
SPLINE
  5
4A
330
1F
100
AcDbEntity
  8
Layer 1
370
    53
100
AcDbSpline
210
0.0
220
0.0
230
1.0
 70
    11
 71
     3
 72
    20
 73
    16
 74
     0
 42
0.0000000001
 43
0.0000000001
 12
1.0
 22
0.0
 32
0.0
 13
1.0
 23
0.0
 33
0.0
 40
0.0
 40
0.0
 40
0.0
 40
0.0
 40
0.2
 40
0.2
 40
0.2
 40
0.2
 40
0.4
 40
0.4
 40
0.4
 40
0.4
 40
0.6
 40
0.6
 40
0.6
 40
0.6
 40
1.0
 40
1.0
 40
1.0
 40
1.0
 10
-0.75172
 20
1.33754
 30
0.0
 10
-0.87067
 20
1.2808
 30
0.0
 10
-0.98371
 20
1.20754
 30
0.0
 10
-1.08735
 20
1.11767
 30
0.0
 10
-1.08735
 20
1.11767
 30
0.0
 10
-1.08735
 20
1.11767
 30
0.0
 10
-2.06302
 20
2.09335
 30
0.0
 10
-2.06302
 20
2.09335
 30
0.0
 10
-2.06302
 20
2.09335
 30
0.0
 10
-1.82474
 20
2.31633
 30
0.0
 10
-1.55785
 20
2.49119
 30
0.0
 10
-1.27462
 20
2.61799
 30
0.0
 10
-1.27462
 20
2.61799
 30
0.0
 10
-1.27462
 20
2.61799
 30
0.0
 10
-0.75172
 20
1.33754
 30
0.0
 10
-0.75172
 20
1.33754
 30
0.0
  0
SPLINE
  5
4B
330
1F
100
AcDbEntity
  8
Layer 1
370
    53
100
AcDbSpline
210
0.0
220
0.0
230
1.0
 70
    11
 71
     3
 72
    28
 73
    24
 74
     0
 42
0.0000000001
 43
0.0000000001
 12
1.0
 22
0.0
 32
0.0
 13
1.0
 23
0.0
 33
0.0
 40
0.0
 40
0.0
 40
0.0
 40
0.0
 40
0.1428571428571428
 40
0.1428571428571428
 40
0.1428571428571428
 40
0.1428571428571428
 40
0.2857142857142857
 40
0.2857142857142857
 40
0.2857142857142857
 40
0.2857142857142857
 40
0.4285714285714285
 40
0.4285714285714285
 40
0.4285714285714285
 40
0.4285714285714285
 40
0.5714285714285714
 40
0.5714285714285714
 40
0.5714285714285714
 40
0.5714285714285714
 40
0.7142857142857143
 40
0.7142857142857143
 40
0.7142857142857143
 40
0.7142857142857143
 40
1.0
 40
1.0
 40
1.0
 40
1.0
 10
-1.0213
 20
5.38594
 30
0.0
 10
-1.3262
 20
5.25965
 30
0.0
 10
-1.67387
 20
5.39323
 30
0.0
 10
-1.81818
 20
5.68468
 30
0.0
 10
-1.81818
 20
5.68468
 30
0.0
 10
-1.72969
 20
5.71153
 30
0.0
 10
-1.64097
 20
5.736
 30
0.0
 10
-1.55209
 20
5.75855
 30
0.0
 10
-1.55209
 20
5.75855
 30
0.0
 10
-1.45867
 20
5.624
 30
0.0
 10
-1.28116
 20
5.56778
 30
0.0
 10
-1.12364
 20
5.63302
 30
0.0
 10
-1.12364
 20
5.63302
 30
0.0
 10
-1.01255
 20
5.67904
 30
0.0
 10
-0.93717
 20
5.77483
 30
0.0
 10
-0.91258
 20
5.88385
 30
0.0
 10
-0.91258
 20
5.88385
 30
0.0
 10
-0.82109
 20
5.8966
 30
0.0
 10
-0.72959
 20
5.90726
 30
0.0
 10
-0.63814
 20
5.91562
 30
0.0
 10
-0.63814
 20
5.91562
 30
0.0
 10
-0.65519
 20
5.6885
 30
0.0
 10
-0.7965
 20
5.47906
 30
0.0
 10
-1.0213
 20
5.38594
 30
0.0
  0
SPLINE
  5
4C
330
1F
100
AcDbEntity
  8
Layer 1
370
    53
100
AcDbSpline
210
0.0
220
0.0
230
1.0
 70
    11
 71
     3
 72
    48
 73
    44
 74
     0
 42
0.0000000001
 43
0.0000000001
 12
1.0
 22
0.0
 32
0.0
 13
1.0
 23
0.0
 33
0.0
 40
0.0
 40
0.0
 40
0.0
 40
0.0
 40
0.0833333333333333
 40
0.0833333333333333
 40
0.0833333333333333
 40
0.0833333333333333
 40
0.1666666666666667
 40
0.1666666666666667
 40
0.1666666666666667
 40
0.1666666666666667
 40
0.25
 40
0.25
 40
0.25
 40
0.25
 40
0.3333333333333333
 40
0.3333333333333333
 40
0.3333333333333333
 40
0.3333333333333333
 40
0.4166666666666667
 40
0.4166666666666667
 40
0.4166666666666667
 40
0.4166666666666667
 40
0.5
 40
0.5
 40
0.5
 40
0.5
 40
0.5833333333333334
 40
0.5833333333333334
 40
0.5833333333333334
 40
0.5833333333333334
 40
0.6666666666666666
 40
0.6666666666666666
 40
0.6666666666666666
 40
0.6666666666666666
 40
0.75
 40
0.75
 40
0.75
 40
0.75
 40
0.8333333333333334
 40
0.8333333333333334
 40
0.8333333333333334
 40
0.8333333333333334
 40
1.0
 40
1.0
 40
1.0
 40
1.0
 10
-2.73909
 20
-2.96185
 30
0.0
 10
-2.52368
 20
-3.05107
 30
0.0
 10
-2.28693
 20
-3.01058
 30
0.0
 10
-2.1156
 20
-2.87637
 30
0.0
 10
-2.1156
 20
-2.87637
 30
0.0
 10
-2.09196
 20
-2.89295
 30
0.0
 10
-2.06807
 20
-2.90928
 30
0.0
 10
-2.04393
 20
-2.92537
 30
0.0
 10
-2.04393
 20
-2.92537
 30
0.0
 10
-2.02693
 20
-2.93668
 30
0.0
 10
-2.00982
 20
-2.94785
 30
0.0
 10
-1.99258
 20
-2.9589
 30
0.0
 10
-1.99258
 20
-2.9589
 30
0.0
 10
-2.07379
 20
-3.21147
 30
0.0
 10
-1.98462
 20
-3.48405
 30
0.0
 10
-1.78095
 20
-3.64178
 30
0.0
 10
-1.78095
 20
-3.64178
 30
0.0
 10
-1.78095
 20
-3.64178
 30
0.0
 10
-2.52505
 20
-5.4382
 30
0.0
 10
-2.52505
 20
-5.4382
 30
0.0
 10
-2.52505
 20
-5.4382
 30
0.0
 10
-2.57852
 20
-5.41431
 30
0.0
 10
-2.63146
 20
-5.38973
 30
0.0
 10
-2.68389
 20
-5.36447
 30
0.0
 10
-2.68389
 20
-5.36447
 30
0.0
 10
-2.51478
 20
-4.92443
 30
0.0
 10
-2.72646
 20
-4.4273
 30
0.0
 10
-3.16459
 20
-4.24582
 30
0.0
 10
-3.16459
 20
-4.24582
 30
0.0
 10
-3.49107
 20
-4.11059
 30
0.0
 10
-3.85262
 20
-4.18827
 30
0.0
 10
-4.09493
 20
-4.4149
 30
0.0
 10
-4.09493
 20
-4.4149
 30
0.0
 10
-4.13397
 20
-4.37947
 30
0.0
 10
-4.17247
 20
-4.34359
 30
0.0
 10
-4.21043
 20
-4.30725
 30
0.0
 10
-4.21043
 20
-4.30725
 30
0.0
 10
-4.21043
 20
-4.30725
 30
0.0
 10
-2.82279
 20
-2.91961
 30
0.0
 10
-2.82279
 20
-2.91961
 30
0.0
 10
-2.82279
 20
-2.91961
 30
0.0
 10
-2.79637
 20
-2.93553
 30
0.0
 10
-2.76845
 20
-2.94969
 30
0.0
 10
-2.73909
 20
-2.96185
 30
0.0
  0
SPLINE
  5
4D
330
1F
100
AcDbEntity
  8
Layer 1
370
    53
100
AcDbSpline
210
0.0
220
0.0
230
1.0
 70
    11
 71
     3
 72
    20
 73
    16
 74
     0
 42
0.0000000001
 43
0.0000000001
 12
1.0
 22
0.0
 32
0.0
 13
1.0
 23
0.0
 33
0.0
 40
0.0
 40
0.0
 40
0.0
 40
0.0
 40
0.2
 40
0.2
 40
0.2
 40
0.2
 40
0.4
 40
0.4
 40
0.4
 40
0.4
 40
0.6
 40
0.6
 40
0.6
 40
0.6
 40
1.0
 40
1.0
 40
1.0
 40
1.0
 10
-1.09173
 20
-1.12765
 30
0.0
 10
-0.99379
 20
-1.21582
 30
0.0
 10
-0.88284
 20
-1.29222
 30
0.0
 10
-0.76016
 20
-1.35357
 30
0.0
 10
-0.76016
 20
-1.35357
 30
0.0
 10
-0.76016
 20
-1.35357
 30
0.0
 10
-1.2882
 20
-2.62836
 30
0.0
 10
-1.2882
 20
-2.62836
 30
0.0
 10
-1.2882
 20
-2.62836
 30
0.0
 10
-1.5854
 20
-2.49356
 30
0.0
 10
-1.84908
 20
-2.31389
 30
0.0
 10
-2.07461
 20
-2.10075
 30
0.0
 10
-2.07461
 20
-2.10075
 30
0.0
 10
-2.07461
 20
-2.10075
 30
0.0
 10
-1.09173
 20
-1.12765
 30
0.0
 10
-1.09173
 20
-1.12765
 30
0.0
  0
SPLINE
  5
4E
330
1F
100
AcDbEntity
  8
Layer 1
370
    53
100
AcDbSpline
210
0.0
220
0.0
230
1.0
 70
    11
 71
     3
 72
    48
 73
    44
 74
     0
 42
0.0000000001
 43
0.0000000001
 12
1.0
 22
0.0
 32
0.0
 13
1.0
 23
0.0
 33
0.0
 40
0.0
 40
0.0
 40
0.0
 40
0.0
 40
0.0833333333333333
 40
0.0833333333333333
 40
0.0833333333333333
 40
0.0833333333333333
 40
0.1666666666666667
 40
0.1666666666666667
 40
0.1666666666666667
 40
0.1666666666666667
 40
0.25
 40
0.25
 40
0.25
 40
0.25
 40
0.3333333333333333
 40
0.3333333333333333
 40
0.3333333333333333
 40
0.3333333333333333
 40
0.4166666666666667
 40
0.4166666666666667
 40
0.4166666666666667
 40
0.4166666666666667
 40
0.5
 40
0.5
 40
0.5
 40
0.5
 40
0.5833333333333334
 40
0.5833333333333334
 40
0.5833333333333334
 40
0.5833333333333334
 40
0.6666666666666666
 40
0.6666666666666666
 40
0.6666666666666666
 40
0.6666666666666666
 40
0.75
 40
0.75
 40
0.75
 40
0.75
 40
0.8333333333333334
 40
0.8333333333333334
 40
0.8333333333333334
 40
0.8333333333333334
 40
1.0
 40
1.0
 40
1.0
 40
1.0
 10
-3.6682
 20
-1.72641
 30
0.0
 10
-3.50333
 20
-1.89127
 30
0.0
 10
-3.26912
 20
-1.94446
 30
0.0
 10
-3.05947
 20
-1.88602
 30
0.0
 10
-3.05947
 20
-1.88602
 30
0.0
 10
-3.04397
 20
-1.9104
 30
0.0
 10
-3.02814
 20
-1.93464
 30
0.0
 10
-3.01199
 20
-1.95872
 30
0.0
 10
-3.01199
 20
-1.95872
 30
0.0
 10
-3.00062
 20
-1.97568
 30
0.0
 10
-2.98909
 20
-1.99255
 30
0.0
 10
-2.97738
 20
-2.00935
 30
0.0
 10
-2.97738
 20
-2.00935
 30
0.0
 10
-3.14818
 20
-2.21056
 30
0.0
 10
-3.17076
 20
-2.49457
 30
0.0
 10
-3.04517
 20
-2.71772
 30
0.0
 10
-3.04517
 20
-2.71772
 30
0.0
 10
-3.04517
 20
-2.71772
 30
0.0
 10
-4.42079
 20
-4.09334
 30
0.0
 10
-4.42079
 20
-4.09334
 30
0.0
 10
-4.42079
 20
-4.09334
 30
0.0
 10
-4.46012
 20
-4.05173
 30
0.0
 10
-4.49874
 20
-4.0097
 30
0.0
 10
-4.53665
 20
-3.96726
 30
0.0
 10
-4.53665
 20
-3.96726
 30
0.0
 10
-4.21201
 20
-3.62543
 30
0.0
 10
-4.21734
 20
-3.08514
 30
0.0
 10
-4.55267
 20
-2.7498
 30
0.0
 10
-4.55267
 20
-2.7498
 30
0.0
 10
-4.80254
 20
-2.49993
 30
0.0
 10
-5.1663
 20
-2.43335
 30
0.0
 10
-5.4769
 20
-2.54998
 30
0.0
 10
-5.4769
 20
-2.54998
 30
0.0
 10
-5.49989
 20
-2.50129
 30
0.0
 10
-5.52219
 20
-2.45238
 30
0.0
 10
-5.54377
 20
-2.40323
 30
0.0
 10
-5.54377
 20
-2.40323
 30
0.0
 10
-5.54377
 20
-2.40323
 30
0.0
 10
-3.73143
 20
-1.65253
 30
0.0
 10
-3.73143
 20
-1.65253
 30
0.0
 10
-3.73143
 20
-1.65253
 30
0.0
 10
-3.71259
 20
-1.67836
 30
0.0
 10
-3.69152
 20
-1.70308
 30
0.0
 10
-3.6682
 20
-1.72641
 30
0.0
  0
SPLINE
  5
4F
330
1F
100
AcDbEntity
  8
Layer 1
370
    53
100
AcDbSpline
210
0.0
220
0.0
230
1.0
 70
    11
 71
     3
 72
    20
 73
    16
 74
     0
 42
0.0000000001
 43
0.0000000001
 12
1.0
 22
0.0
 32
0.0
 13
1.0
 23
0.0
 33
0.0
 40
0.0
 40
0.0
 40
0.0
 40
0.0
 40
0.2
 40
0.2
 40
0.2
 40
0.2
 40
0.4
 40
0.4
 40
0.4
 40
0.4
 40
0.6
 40
0.6
 40
0.6
 40
0.6
 40
1.0
 40
1.0
 40
1.0
 40
1.0
 10
-1.44432
 20
-0.66223
 30
0.0
 10
-1.38758
 20
-0.78118
 30
0.0
 10
-1.31432
 20
-0.89422
 30
0.0
 10
-1.22445
 20
-0.99785
 30
0.0
 10
-1.22445
 20
-0.99785
 30
0.0
 10
-1.22445
 20
-0.99785
 30
0.0
 10
-2.20013
 20
-1.97353
 30
0.0
 10
-2.20013
 20
-1.97353
 30
0.0
 10
-2.20013
 20
-1.97353
 30
0.0
 10
-2.42312
 20
-1.73525
 30
0.0
 10
-2.59797
 20
-1.46836
 30
0.0
 10
-2.72477
 20
-1.18513
 30
0.0
 10
-2.72477
 20
-1.18513
 30
0.0
 10
-2.72477
 20
-1.18513
 30
0.0
 10
-1.44432
 20
-0.66223
 30
0.0
 10
-1.44432
 20
-0.66223
 30
0.0
  0
SPLINE
  5
50
330
1F
100
AcDbEntity
  8
Layer 1
370
    53
100
AcDbSpline
210
0.0
220
0.0
230
1.0
 70
    11
 71
     3
 72
    48
 73
    44
 74
     0
 42
0.0000000001
 43
0.0000000001
 12
1.0
 22
0.0
 32
0.0
 13
1.0
 23
0.0
 33
0.0
 40
0.0
 40
0.0
 40
0.0
 40
0.0
 40
0.0833333333333333
 40
0.0833333333333333
 40
0.0833333333333333
 40
0.0833333333333333
 40
0.1666666666666667
 40
0.1666666666666667
 40
0.1666666666666667
 40
0.1666666666666667
 40
0.25
 40
0.25
 40
0.25
 40
0.25
 40
0.3333333333333333
 40
0.3333333333333333
 40
0.3333333333333333
 40
0.3333333333333333
 40
0.4166666666666667
 40
0.4166666666666667
 40
0.4166666666666667
 40
0.4166666666666667
 40
0.5
 40
0.5
 40
0.5
 40
0.5
 40
0.5833333333333334
 40
0.5833333333333334
 40
0.5833333333333334
 40
0.5833333333333334
 40
0.6666666666666666
 40
0.6666666666666666
 40
0.6666666666666666
 40
0.6666666666666666
 40
0.75
 40
0.75
 40
0.75
 40
0.75
 40
0.8333333333333334
 40
0.8333333333333334
 40
0.8333333333333334
 40
0.8333333333333334
 40
1.0
 40
1.0
 40
1.0
 40
1.0
 10
-4.08452
 20
-0.13462
 30
0.0
 10
-4.07694
 20
-0.1665
 30
0.0
 10
-4.06675
 20
-0.19819
 30
0.0
 10
-4.05381
 20
-0.22944
 30
0.0
 10
-4.05381
 20
-0.22944
 30
0.0
 10
-3.96458
 20
-0.44485
 30
0.0
 10
-3.76854
 20
-0.58362
 30
0.0
 10
-3.55249
 20
-0.60986
 30
0.0
 10
-3.55249
 20
-0.60986
 30
0.0
 10
-3.5475
 20
-0.63831
 30
0.0
 10
-3.54216
 20
-0.66677
 30
0.0
 10
-3.53645
 20
-0.6952
 30
0.0
 10
-3.53645
 20
-0.6952
 30
0.0
 10
-3.53243
 20
-0.71521
 30
0.0
 10
-3.52825
 20
-0.73522
 30
0.0
 10
-3.52385
 20
-0.75521
 30
0.0
 10
-3.52385
 20
-0.75521
 30
0.0
 10
-3.75758
 20
-0.8752
 30
0.0
 10
-3.88702
 20
-1.12718
 30
0.0
 10
-3.85798
 20
-1.38023
 30
0.0
 10
-3.85798
 20
-1.38023
 30
0.0
 10
-3.85798
 20
-1.38023
 30
0.0
 10
-5.6561
 20
-2.12504
 30
0.0
 10
-5.6561
 20
-2.12504
 30
0.0
 10
-5.6561
 20
-2.12504
 30
0.0
 10
-5.67608
 20
-2.0726
 30
0.0
 10
-5.69527
 20
-2.02004
 30
0.0
 10
-5.71368
 20
-1.96738
 30
0.0
 10
-5.71368
 20
-1.96738
 30
0.0
 10
-5.28294
 20
-1.77581
 30
0.0
 10
-5.08111
 20
-1.2746
 30
0.0
 10
-5.26259
 20
-0.83647
 30
0.0
 10
-5.26259
 20
-0.83647
 30
0.0
 10
-5.39782
 20
-0.50999
 30
0.0
 10
-5.7084
 20
-0.30926
 30
0.0
 10
-6.03999
 20
-0.29817
 30
0.0
 10
-6.03999
 20
-0.29817
 30
0.0
 10
-6.04264
 20
-0.24359
 30
0.0
 10
-6.04453
 20
-0.18907
 30
0.0
 10
-6.04566
 20
-0.13462
 30
0.0
 10
-6.04566
 20
-0.13462
 30
0.0
 10
-6.04566
 20
-0.13462
 30
0.0
 10
-4.08452
 20
-0.13462
 30
0.0
 10
-4.08452
 20
-0.13462
 30
0.0
  0
SPLINE
  5
51
330
1F
100
AcDbEntity
  8
Layer 1
370
    53
100
AcDbSpline
210
0.0
220
0.0
230
1.0
 70
    11
 71
     3
 72
    48
 73
    44
 74
     0
 42
0.0000000001
 43
0.0000000001
 12
1.0
 22
0.0
 32
0.0
 13
1.0
 23
0.0
 33
0.0
 40
0.0
 40
0.0
 40
0.0
 40
0.0
 40
0.0833333333333333
 40
0.0833333333333333
 40
0.0833333333333333
 40
0.0833333333333333
 40
0.1666666666666667
 40
0.1666666666666667
 40
0.1666666666666667
 40
0.1666666666666667
 40
0.25
 40
0.25
 40
0.25
 40
0.25
 40
0.3333333333333333
 40
0.3333333333333333
 40
0.3333333333333333
 40
0.3333333333333333
 40
0.4166666666666667
 40
0.4166666666666667
 40
0.4166666666666667
 40
0.4166666666666667
 40
0.5
 40
0.5
 40
0.5
 40
0.5
 40
0.5833333333333334
 40
0.5833333333333334
 40
0.5833333333333334
 40
0.5833333333333334
 40
0.6666666666666666
 40
0.6666666666666666
 40
0.6666666666666666
 40
0.6666666666666666
 40
0.75
 40
0.75
 40
0.75
 40
0.75
 40
0.8333333333333334
 40
0.8333333333333334
 40
0.8333333333333334
 40
0.8333333333333334
 40
1.0
 40
1.0
 40
1.0
 40
1.0
 10
-3.82912
 20
1.40151
 30
0.0
 10
-3.83442
 20
1.36883
 30
0.0
 10
-3.83719
 20
1.33531
 30
0.0
 10
-3.8372
 20
1.30114
 30
0.0
 10
-3.8372
 20
1.30114
 30
0.0
 10
-3.83719
 20
1.06798
 30
0.0
 10
-3.70918
 20
0.86475
 30
0.0
 10
-3.51962
 20
0.75783
 30
0.0
 10
-3.51962
 20
0.75783
 30
0.0
 10
-3.5259
 20
0.72964
 30
0.0
 10
-3.53185
 20
0.7013
 30
0.0
 10
-3.53745
 20
0.67285
 30
0.0
 10
-3.53745
 20
0.67285
 30
0.0
 10
-3.5414
 20
0.65283
 30
0.0
 10
-3.54518
 20
0.63273
 30
0.0
 10
-3.54878
 20
0.61258
 30
0.0
 10
-3.54878
 20
0.61258
 30
0.0
 10
-3.80979
 20
0.59124
 30
0.0
 10
-4.02528
 20
0.40908
 30
0.0
 10
-4.09599
 20
0.16538
 30
0.0
 10
-4.09599
 20
0.16538
 30
0.0
 10
-4.09599
 20
0.16538
 30
0.0
 10
-6.04286
 20
0.16538
 30
0.0
 10
-6.04286
 20
0.16538
 30
0.0
 10
-6.04286
 20
0.16538
 30
0.0
 10
-6.04126
 20
0.22068
 30
0.0
 10
-6.0389
 20
0.27579
 30
0.0
 10
-6.03581
 20
0.33069
 30
0.0
 10
-6.03581
 20
0.33069
 30
0.0
 10
-5.56453
 20
0.34285
 30
0.0
 10
-5.18626
 20
0.72867
 30
0.0
 10
-5.18626
 20
1.2029
 30
0.0
 10
-5.18626
 20
1.2029
 30
0.0
 10
-5.18626
 20
1.55627
 30
0.0
 10
-5.39639
 20
1.86057
 30
0.0
 10
-5.69849
 20
1.99772
 30
0.0
 10
-5.69849
 20
1.99772
 30
0.0
 10
-5.67994
 20
2.04947
 30
0.0
 10
-5.66071
 20
2.10087
 30
0.0
 10
-5.64078
 20
2.15192
 30
0.0
 10
-5.64078
 20
2.15192
 30
0.0
 10
-5.64078
 20
2.15192
 30
0.0
 10
-3.82912
 20
1.40151
 30
0.0
 10
-3.82912
 20
1.40151
 30
0.0
  0
SPLINE
  5
52
330
1F
100
AcDbEntity
  8
Layer 1
370
    53
100
AcDbSpline
210
0.0
220
0.0
230
1.0
 70
    11
 71
     3
 72
    48
 73
    44
 74
     0
 42
0.0000000001
 43
0.0000000001
 12
1.0
 22
0.0
 32
0.0
 13
1.0
 23
0.0
 33
0.0
 40
0.0
 40
0.0
 40
0.0
 40
0.0
 40
0.0833333333333333
 40
0.0833333333333333
 40
0.0833333333333333
 40
0.0833333333333333
 40
0.1666666666666667
 40
0.1666666666666667
 40
0.1666666666666667
 40
0.1666666666666667
 40
0.25
 40
0.25
 40
0.25
 40
0.25
 40
0.3333333333333333
 40
0.3333333333333333
 40
0.3333333333333333
 40
0.3333333333333333
 40
0.4166666666666667
 40
0.4166666666666667
 40
0.4166666666666667
 40
0.4166666666666667
 40
0.5
 40
0.5
 40
0.5
 40
0.5
 40
0.5833333333333334
 40
0.5833333333333334
 40
0.5833333333333334
 40
0.5833333333333334
 40
0.6666666666666666
 40
0.6666666666666666
 40
0.6666666666666666
 40
0.6666666666666666
 40
0.75
 40
0.75
 40
0.75
 40
0.75
 40
0.8333333333333334
 40
0.8333333333333334
 40
0.8333333333333334
 40
0.8333333333333334
 40
1.0
 40
1.0
 40
1.0
 40
1.0
 10
-2.49191
 20
5.43734
 30
0.0
 10
-2.49191
 20
5.43734
 30
0.0
 10
-1.74128
 20
3.62519
 30
0.0
 10
-1.74128
 20
3.62519
 30
0.0
 10
-1.74128
 20
3.62519
 30
0.0
 10
-1.76738
 20
3.60621
 30
0.0
 10
-1.79235
 20
3.58497
 30
0.0
 10
-1.8159
 20
3.56142
 30
0.0
 10
-1.8159
 20
3.56142
 30
0.0
 10
-1.98076
 20
3.39655
 30
0.0
 10
-2.03395
 20
3.16233
 30
0.0
 10
-1.97551
 20
2.95269
 30
0.0
 10
-1.97551
 20
2.95269
 30
0.0
 10
-1.99989
 20
2.93719
 30
0.0
 10
-2.02413
 20
2.92136
 30
0.0
 10
-2.04821
 20
2.90521
 30
0.0
 10
-2.04821
 20
2.90521
 30
0.0
 10
-2.06517
 20
2.89384
 30
0.0
 10
-2.08204
 20
2.88231
 30
0.0
 10
-2.09884
 20
2.8706
 30
0.0
 10
-2.09884
 20
2.8706
 30
0.0
 10
-2.29835
 20
3.03996
 30
0.0
 10
-2.57929
 20
3.06362
 30
0.0
 10
-2.80156
 20
2.94157
 30
0.0
 10
-2.80156
 20
2.94157
 30
0.0
 10
-2.80156
 20
2.94157
 30
0.0
 10
-4.17829
 20
4.3183
 30
0.0
 10
-4.17829
 20
4.3183
 30
0.0
 10
-4.17829
 20
4.3183
 30
0.0
 10
-4.13816
 20
4.35615
 30
0.0
 10
-4.09765
 20
4.39334
 30
0.0
 10
-4.05675
 20
4.42987
 30
0.0
 10
-4.05675
 20
4.42987
 30
0.0
 10
-3.71492
 20
4.10523
 30
0.0
 10
-3.17463
 20
4.11056
 30
0.0
 10
-2.83929
 20
4.44588
 30
0.0
 10
-2.83929
 20
4.44588
 30
0.0
 10
-2.58942
 20
4.69576
 30
0.0
 10
-2.52282
 20
5.05953
 30
0.0
 10
-2.63947
 20
5.37012
 30
0.0
 10
-2.63947
 20
5.37012
 30
0.0
 10
-2.59051
 20
5.39324
 30
0.0
 10
-2.54133
 20
5.41565
 30
0.0
 10
-2.49191
 20
5.43734
 30
0.0
  0
SPLINE
  5
53
330
1F
100
AcDbEntity
  8
Layer 1
370
    53
100
AcDbSpline
210
0.0
220
0.0
230
1.0
 70
    11
 71
     3
 72
    48
 73
    44
 74
     0
 42
0.0000000001
 43
0.0000000001
 12
1.0
 22
0.0
 32
0.0
 13
1.0
 23
0.0
 33
0.0
 40
0.0
 40
0.0
 40
0.0
 40
0.0
 40
0.0833333333333333
 40
0.0833333333333333
 40
0.0833333333333333
 40
0.0833333333333333
 40
0.1666666666666667
 40
0.1666666666666667
 40
0.1666666666666667
 40
0.1666666666666667
 40
0.25
 40
0.25
 40
0.25
 40
0.25
 40
0.3333333333333333
 40
0.3333333333333333
 40
0.3333333333333333
 40
0.3333333333333333
 40
0.4166666666666667
 40
0.4166666666666667
 40
0.4166666666666667
 40
0.4166666666666667
 40
0.5
 40
0.5
 40
0.5
 40
0.5
 40
0.5833333333333334
 40
0.5833333333333334
 40
0.5833333333333334
 40
0.5833333333333334
 40
0.6666666666666666
 40
0.6666666666666666
 40
0.6666666666666666
 40
0.6666666666666666
 40
0.75
 40
0.75
 40
0.75
 40
0.75
 40
0.8333333333333334
 40
0.8333333333333334
 40
0.8333333333333334
 40
0.8333333333333334
 40
1.0
 40
1.0
 40
1.0
 40
1.0
 10
-3.72444
 20
1.68287
 30
0.0
 10
-3.72444
 20
1.68287
 30
0.0
 10
-5.52334
 20
2.428
 30
0.0
 10
-5.52334
 20
2.428
 30
0.0
 10
-5.52334
 20
2.428
 30
0.0
 10
-5.50083
 20
2.47816
 30
0.0
 10
-5.47769
 20
2.52787
 30
0.0
 10
-5.45396
 20
2.57711
 30
0.0
 10
-5.45396
 20
2.57711
 30
0.0
 10
-5.01392
 20
2.408
 30
0.0
 10
-4.51679
 20
2.61968
 30
0.0
 10
-4.33531
 20
3.05783
 30
0.0
 10
-4.33531
 20
3.05783
 30
0.0
 10
-4.20008
 20
3.38429
 30
0.0
 10
-4.27776
 20
3.74584
 30
0.0
 10
-4.50439
 20
3.98816
 30
0.0
 10
-4.50439
 20
3.98816
 30
0.0
 10
-4.46756
 20
4.02874
 30
0.0
 10
-4.43024
 20
4.06874
 30
0.0
 10
-4.39242
 20
4.10816
 30
0.0
 10
-4.39242
 20
4.10816
 30
0.0
 10
-4.39242
 20
4.10816
 30
0.0
 10
-3.00575
 20
2.72149
 30
0.0
 10
-3.00575
 20
2.72149
 30
0.0
 10
-3.00575
 20
2.72149
 30
0.0
 10
-3.02304
 20
2.69347
 30
0.0
 10
-3.03833
 20
2.66371
 30
0.0
 10
-3.05134
 20
2.63231
 30
0.0
 10
-3.05134
 20
2.63231
 30
0.0
 10
-3.14056
 20
2.4169
 30
0.0
 10
-3.10007
 20
2.18015
 30
0.0
 10
-2.96586
 20
2.00883
 30
0.0
 10
-2.96586
 20
2.00883
 30
0.0
 10
-2.98244
 20
1.98519
 30
0.0
 10
-2.99878
 20
1.96129
 30
0.0
 10
-3.01486
 20
1.93715
 30
0.0
 10
-3.01486
 20
1.93715
 30
0.0
 10
-3.02617
 20
1.92016
 30
0.0
 10
-3.03734
 20
1.90304
 30
0.0
 10
-3.04839
 20
1.8858
 30
0.0
 10
-3.04839
 20
1.8858
 30
0.0
 10
-3.29735
 20
1.96585
 30
0.0
 10
-3.56575
 20
1.88038
 30
0.0
 10
-3.72444
 20
1.68287
 30
0.0
  0
SPLINE
  5
54
330
1F
100
AcDbEntity
  8
Layer 1
370
    53
100
AcDbSpline
210
0.0
220
0.0
230
1.0
 70
    11
 71
     3
 72
    44
 73
    40
 74
     0
 42
0.0000000001
 43
0.0000000001
 12
1.0
 22
0.0
 32
0.0
 13
1.0
 23
0.0
 33
0.0
 40
0.0
 40
0.0
 40
0.0
 40
0.0
 40
0.0909090909090909
 40
0.0909090909090909
 40
0.0909090909090909
 40
0.0909090909090909
 40
0.1818181818181818
 40
0.1818181818181818
 40
0.1818181818181818
 40
0.1818181818181818
 40
0.2727272727272727
 40
0.2727272727272727
 40
0.2727272727272727
 40
0.2727272727272727
 40
0.3636363636363636
 40
0.3636363636363636
 40
0.3636363636363636
 40
0.3636363636363636
 40
0.4545454545454545
 40
0.4545454545454545
 40
0.4545454545454545
 40
0.4545454545454545
 40
0.5454545454545454
 40
0.5454545454545454
 40
0.5454545454545454
 40
0.5454545454545454
 40
0.6363636363636364
 40
0.6363636363636364
 40
0.6363636363636364
 40
0.6363636363636364
 40
0.7272727272727273
 40
0.7272727272727273
 40
0.7272727272727273
 40
0.7272727272727273
 40
0.8181818181818182
 40
0.8181818181818182
 40
0.8181818181818182
 40
0.8181818181818182
 40
1.0
 40
1.0
 40
1.0
 40
1.0
 10
-0.47872
 20
-3.90146
 30
0.0
 10
-0.47872
 20
-3.90146
 30
0.0
 10
-0.47872
 20
-5.70267
 30
0.0
 10
-0.47872
 20
-5.70267
 30
0.0
 10
-0.47872
 20
-5.70267
 30
0.0
 10
-0.59138
 20
-5.3512
 30
0.0
 10
-0.92077
 20
-5.09677
 30
0.0
 10
-1.30968
 20
-5.09677
 30
0.0
 10
-1.30968
 20
-5.09677
 30
0.0
 10
-1.66305
 20
-5.09677
 30
0.0
 10
-1.96735
 20
-5.30691
 30
0.0
 10
-2.1045
 20
-5.609
 30
0.0
 10
-2.1045
 20
-5.609
 30
0.0
 10
-2.1529
 20
-5.59165
 30
0.0
 10
-2.20098
 20
-5.5737
 30
0.0
 10
-2.24877
 20
-5.55515
 30
0.0
 10
-2.24877
 20
-5.55515
 30
0.0
 10
-2.24877
 20
-5.55515
 30
0.0
 10
-1.49744
 20
-3.74129
 30
0.0
 10
-1.49744
 20
-3.74129
 30
0.0
 10
-1.49744
 20
-3.74129
 30
0.0
 10
-1.46821
 20
-3.74551
 30
0.0
 10
-1.43832
 20
-3.7477
 30
0.0
 10
-1.40792
 20
-3.74771
 30
0.0
 10
-1.40792
 20
-3.74771
 30
0.0
 10
-1.17476
 20
-3.7477
 30
0.0
 10
-0.97153
 20
-3.61969
 30
0.0
 10
-0.86461
 20
-3.43013
 30
0.0
 10
-0.86461
 20
-3.43013
 30
0.0
 10
-0.83642
 20
-3.43641
 30
0.0
 10
-0.80808
 20
-3.44236
 30
0.0
 10
-0.77963
 20
-3.44796
 30
0.0
 10
-0.77963
 20
-3.44796
 30
0.0
 10
-0.75961
 20
-3.45191
 30
0.0
 10
-0.73951
 20
-3.45571
 30
0.0
 10
-0.71936
 20
-3.45929
 30
0.0
 10
-0.71936
 20
-3.45929
 30
0.0
 10
-0.70466
 20
-3.63911
 30
0.0
 10
-0.61362
 20
-3.7973
 30
0.0
 10
-0.47872
 20
-3.90146
 30
0.0
  0
SPLINE
  5
55
330
1F
100
AcDbEntity
  8
Layer 1
370
    53
100
AcDbSpline
210
0.0
220
0.0
230
1.0
 70
    11
 71
     3
 72
    20
 73
    16
 74
     0
 42
0.0000000001
 43
0.0000000001
 12
1.0
 22
0.0
 32
0.0
 13
1.0
 23
0.0
 33
0.0
 40
0.0
 40
0.0
 40
0.0
 40
0.0
 40
0.2
 40
0.2
 40
0.2
 40
0.2
 40
0.4
 40
0.4
 40
0.4
 40
0.4
 40
0.6
 40
0.6
 40
0.6
 40
0.6
 40
1.0
 40
1.0
 40
1.0
 40
1.0
 10
-0.47872
 20
-1.45669
 30
0.0
 10
-0.47872
 20
-1.45669
 30
0.0
 10
-0.47872
 20
-2.86101
 30
0.0
 10
-0.47872
 20
-2.86101
 30
0.0
 10
-0.47872
 20
-2.86101
 30
0.0
 10
-0.70282
 20
-2.83139
 30
0.0
 10
-0.91879
 20
-2.77598
 30
0.0
 10
-1.12355
 20
-2.69786
 30
0.0
 10
-1.12355
 20
-2.69786
 30
0.0
 10
-1.12355
 20
-2.69786
 30
0.0
 10
-0.58788
 20
-1.4227
 30
0.0
 10
-0.58788
 20
-1.4227
 30
0.0
 10
-0.58788
 20
-1.4227
 30
0.0
 10
-0.5521
 20
-1.43537
 30
0.0
 10
-0.51569
 20
-1.44671
 30
0.0
 10
-0.47872
 20
-1.45669
 30
0.0
  0
SPLINE
  5
56
330
1F
100
AcDbEntity
  8
Layer 1
370
    53
100
AcDbSpline
210
0.0
220
0.0
230
1.0
 70
    11
 71
     3
 72
    20
 73
    16
 74
     0
 42
0.0000000001
 43
0.0000000001
 12
1.0
 22
0.0
 32
0.0
 13
1.0
 23
0.0
 33
0.0
 40
0.0
 40
0.0
 40
0.0
 40
0.0
 40
0.2
 40
0.2
 40
0.2
 40
0.2
 40
0.4
 40
0.4
 40
0.4
 40
0.4
 40
0.6
 40
0.6
 40
0.6
 40
0.6
 40
1.0
 40
1.0
 40
1.0
 40
1.0
 10
-0.47872
 20
2.84409
 30
0.0
 10
-0.47872
 20
2.84409
 30
0.0
 10
-0.47872
 20
1.44059
 30
0.0
 10
-0.47872
 20
1.44059
 30
0.0
 10
-0.47872
 20
1.44059
 30
0.0
 10
-0.51294
 20
1.43183
 30
0.0
 10
-0.54705
 20
1.4218
 30
0.0
 10
-0.58101
 20
1.41049
 30
0.0
 10
-0.58101
 20
1.41049
 30
0.0
 10
-0.58101
 20
1.41049
 30
0.0
 10
-1.10905
 20
2.68528
 30
0.0
 10
-1.10905
 20
2.68528
 30
0.0
 10
-1.10905
 20
2.68528
 30
0.0
 10
-0.90146
 20
2.76331
 30
0.0
 10
-0.69017
 20
2.81575
 30
0.0
 10
-0.47872
 20
2.84409
 30
0.0
  0
SPLINE
  5
57
330
1F
100
AcDbEntity
  8
Layer 1
370
    53
100
AcDbSpline
210
0.0
220
0.0
230
1.0
 70
    11
 71
     3
 72
    40
 73
    36
 74
     0
 42
0.0000000001
 43
0.0000000001
 12
1.0
 22
0.0
 32
0.0
 13
1.0
 23
0.0
 33
0.0
 40
0.0
 40
0.0
 40
0.0
 40
0.0
 40
0.1
 40
0.1
 40
0.1
 40
0.1
 40
0.2
 40
0.2
 40
0.2
 40
0.2
 40
0.3
 40
0.3
 40
0.3
 40
0.3
 40
0.4
 40
0.4
 40
0.4
 40
0.4
 40
0.5
 40
0.5
 40
0.5
 40
0.5
 40
0.6
 40
0.6
 40
0.6
 40
0.6
 40
0.7
 40
0.7
 40
0.7
 40
0.7
 40
0.8
 40
0.8
 40
0.8
 40
0.8
 40
1.0
 40
1.0
 40
1.0
 40
1.0
 10
-0.47872
 20
5.57328
 30
0.0
 10
-0.47872
 20
5.57328
 30
0.0
 10
-0.47872
 20
3.85079
 30
0.0
 10
-0.47872
 20
3.85079
 30
0.0
 10
-0.47872
 20
3.85079
 30
0.0
 10
-0.60224
 20
3.74828
 30
0.0
 10
-0.68034
 20
3.60225
 30
0.0
 10
-0.69935
 20
3.44571
 30
0.0
 10
-0.69935
 20
3.44571
 30
0.0
 10
-0.7278
 20
3.44072
 30
0.0
 10
-0.75626
 20
3.43538
 30
0.0
 10
-0.78469
 20
3.42967
 30
0.0
 10
-0.78469
 20
3.42967
 30
0.0
 10
-0.8047
 20
3.42565
 30
0.0
 10
-0.82469
 20
3.42146
 30
0.0
 10
-0.8447
 20
3.41707
 30
0.0
 10
-0.8447
 20
3.41707
 30
0.0
 10
-0.96454
 20
3.65052
 30
0.0
 10
-1.21608
 20
3.77994
 30
0.0
 10
-1.46882
 20
3.75132
 30
0.0
 10
-1.46882
 20
3.75132
 30
0.0
 10
-1.46882
 20
3.75132
 30
0.0
 10
-2.2137
 20
5.54963
 30
0.0
 10
-2.2137
 20
5.54963
 30
0.0
 10
-2.2137
 20
5.54963
 30
0.0
 10
-2.16153
 20
5.5695
 30
0.0
 10
-2.10925
 20
5.58859
 30
0.0
 10
-2.05687
 20
5.60691
 30
0.0
 10
-2.05687
 20
5.60691
 30
0.0
 10
-1.86531
 20
5.17616
 30
0.0
 10
-1.36409
 20
4.97433
 30
0.0
 10
-0.92596
 20
5.15581
 30
0.0
 10
-0.92596
 20
5.15581
 30
0.0
 10
-0.72335
 20
5.23973
 30
0.0
 10
-0.5692
 20
5.39118
 30
0.0
 10
-0.47872
 20
5.57328
 30
0.0
  0
SPLINE
  5
58
330
1F
100
AcDbEntity
  8
Layer 1
 62
     3
370
    53
100
AcDbSpline
210
0.0
220
0.0
230
1.0
 70
    24
 71
     3
 72
     8
 73
     4
 74
     0
 42
0.0000000001
 43
0.0000000001
 12
1.0
 22
0.0
 32
0.0
 13
1.0
 23
0.0
 33
0.0
 40
0.0
 40
0.0
 40
0.0
 40
0.0
 40
1.0
 40
1.0
 40
1.0
 40
1.0
 10
-0.23179
 20
0.1504
 30
0.0
 10
-0.23179
 20
2.08078
 30
0.0
 10
-0.23179
 20
4.60663
 30
0.0
 10
-0.23179
 20
6.24961
 30
0.0
  0
SPLINE
  5
59
330
1F
100
AcDbEntity
  8
Layer 1
370
    53
100
AcDbSpline
210
0.0
220
0.0
230
1.0
 70
     8
 71
     3
 72
    48
 73
    44
 74
     0
 42
0.0000000001
 43
0.0000000001
 12
1.0
 22
0.0
 32
0.0
 13
1.0
 23
0.0
 33
0.0
 40
0.0
 40
0.0
 40
0.0
 40
0.0
 40
0.0833333333333333
 40
0.0833333333333333
 40
0.0833333333333333
 40
0.0833333333333333
 40
0.1666666666666667
 40
0.1666666666666667
 40
0.1666666666666667
 40
0.1666666666666667
 40
0.25
 40
0.25
 40
0.25
 40
0.25
 40
0.3333333333333333
 40
0.3333333333333333
 40
0.3333333333333333
 40
0.3333333333333333
 40
0.4166666666666667
 40
0.4166666666666667
 40
0.4166666666666667
 40
0.4166666666666667
 40
0.5
 40
0.5
 40
0.5
 40
0.5
 40
0.5833333333333334
 40
0.5833333333333334
 40
0.5833333333333334
 40
0.5833333333333334
 40
0.6666666666666666
 40
0.6666666666666666
 40
0.6666666666666666
 40
0.6666666666666666
 40
0.75
 40
0.75
 40
0.75
 40
0.75
 40
0.8333333333333334
 40
0.8333333333333334
 40
0.8333333333333334
 40
0.8333333333333334
 40
1.0
 40
1.0
 40
1.0
 40
1.0
 10
-0.23179
 20
-0.1496
 30
0.0
 10
-0.23179
 20
-0.1496
 30
0.0
 10
-1.5883
 20
-0.1496
 30
0.0
 10
-1.5883
 20
-0.1496
 30
0.0
 10
-1.5883
 20
-0.1496
 30
0.0
 10
-1.57826
 20
-0.26394
 30
0.0
 10
-1.55489
 20
-0.37861
 30
0.0
 10
-1.51727
 20
-0.49152
 30
0.0
 10
-1.51727
 20
-0.49152
 30
0.0
 10
-1.51727
 20
-0.49152
 30
0.0
 10
-2.79206
 20
-1.01956
 30
0.0
 10
-2.79206
 20
-1.01956
 30
0.0
 10
-2.79206
 20
-1.01956
 30
0.0
 10
-2.89959
 20
-0.73351
 30
0.0
 10
-2.95851
 20
-0.44043
 30
0.0
 10
-2.97276
 20
-0.1496
 30
0.0
 10
-2.97276
 20
-0.1496
 30
0.0
 10
-2.97276
 20
-0.1496
 30
0.0
 10
-3.29997
 20
-0.1496
 30
0.0
 10
-3.29997
 20
-0.1496
 30
0.0
 10
-3.29997
 20
-0.1496
 30
0.0
 10
-3.29997
 20
-0.1496
 30
0.0
 10
-3.29997
 20
0.1504
 30
0.0
 10
-3.29997
 20
0.1504
 30
0.0
 10
-3.29997
 20
0.1504
 30
0.0
 10
-3.29997
 20
0.1504
 30
0.0
 10
-2.97114
 20
0.1504
 30
0.0
 10
-2.97114
 20
0.1504
 30
0.0
 10
-2.97114
 20
0.1504
 30
0.0
 10
-2.95458
 20
0.45413
 30
0.0
 10
-2.89092
 20
0.74529
 30
0.0
 10
-2.78734
 20
1.01677
 30
0.0
 10
-2.78734
 20
1.01677
 30
0.0
 10
-2.78734
 20
1.01677
 30
0.0
 10
-1.51219
 20
0.4811
 30
0.0
 10
-1.51219
 20
0.4811
 30
0.0
 10
-1.51219
 20
0.4811
 30
0.0
 10
-1.54948
 20
0.37577
 30
0.0
 10
-1.57537
 20
0.26505
 30
0.0
 10
-1.58832
 20
0.1504
 30
0.0
 10
-1.58832
 20
0.1504
 30
0.0
 10
-1.58832
 20
0.1504
 30
0.0
 10
-0.23179
 20
0.1504
 30
0.0
 10
-0.23179
 20
0.1504
 30
0.0
  0
SPLINE
  5
5A
330
1F
100
AcDbEntity
  8
Layer 1
 62
     3
370
    53
100
AcDbSpline
210
0.0
220
0.0
230
1.0
 70
    24
 71
     3
 72
     8
 73
     4
 74
     0
 42
0.0000000001
 43
0.0000000001
 12
1.0
 22
0.0
 32
0.0
 13
1.0
 23
0.0
 33
0.0
 40
0.0
 40
0.0
 40
0.0
 40
0.0
 40
1.0
 40
1.0
 40
1.0
 40
1.0
 10
-0.23179
 20
-6.24891
 30
0.0
 10
-0.23179
 20
-6.24891
 30
0.0
 10
-0.23179
 20
-0.1496
 30
0.0
 10
-0.23179
 20
-0.1496
 30
0.0
  0
SPLINE
  5
5B
330
1F
100
AcDbEntity
  8
Layer 1
370
    53
100
AcDbSpline
210
0.0
220
0.0
230
1.0
 70
     8
 71
     3
 72
    16
 73
    12
 74
     0
 42
0.0000000001
 43
0.0000000001
 12
1.0
 22
0.0
 32
0.0
 13
1.0
 23
0.0
 33
0.0
 40
0.0
 40
0.0
 40
0.0
 40
0.0
 40
0.25
 40
0.25
 40
0.25
 40
0.25
 40
0.5
 40
0.5
 40
0.5
 40
0.5
 40
1.0
 40
1.0
 40
1.0
 40
1.0
 10
-0.23179
 20
6.24961
 30
0.0
 10
-0.58908
 20
6.24133
 30
0.0
 10
-0.95049
 20
6.2024
 30
0.0
 10
-1.31303
 20
6.13029
 30
0.0
 10
-1.31303
 20
6.13029
 30
0.0
 10
-4.69792
 20
5.45699
 30
0.0
 10
-6.89692
 20
2.16595
 30
0.0
 10
-6.22363
 20
-1.21893
 30
0.0
 10
-6.22363
 20
-1.21893
 30
0.0
 10
-5.64108
 20
-4.14757
 30
0.0
 10
-3.09886
 20
-6.18801
 30
0.0
 10
-0.23179
 20
-6.24891
 30
0.0
  0
SPLINE
  5
5C
330
1F
100
AcDbEntity
  8
Layer 1
370
    53
100
AcDbSpline
210
0.0
220
0.0
230
1.0
 70
    11
 71
     3
 72
    28
 73
    24
 74
     0
 42
0.0000000001
 43
0.0000000001
 12
1.0
 22
0.0
 32
0.0
 13
1.0
 23
0.0
 33
0.0
 40
0.0
 40
0.0
 40
0.0
 40
0.0
 40
0.1428571428571428
 40
0.1428571428571428
 40
0.1428571428571428
 40
0.1428571428571428
 40
0.2857142857142857
 40
0.2857142857142857
 40
0.2857142857142857
 40
0.2857142857142857
 40
0.4285714285714285
 40
0.4285714285714285
 40
0.4285714285714285
 40
0.4285714285714285
 40
0.5714285714285714
 40
0.5714285714285714
 40
0.5714285714285714
 40
0.5714285714285714
 40
0.7142857142857143
 40
0.7142857142857143
 40
0.7142857142857143
 40
0.7142857142857143
 40
1.0
 40
1.0
 40
1.0
 40
1.0
 10
1.7898
 20
5.6893
 30
0.0
 10
1.68713
 20
5.48599
 30
0.0
 10
1.47642
 20
5.34657
 30
0.0
 10
1.23309
 20
5.34657
 30
0.0
 10
1.23309
 20
5.34657
 30
0.0
 10
0.90307
 20
5.34658
 30
0.0
 10
0.63301
 20
5.60303
 30
0.0
 10
0.6112
 20
5.92752
 30
0.0
 10
0.6112
 20
5.92752
 30
0.0
 10
0.70322
 20
5.91846
 30
0.0
 10
0.79456
 20
5.90713
 30
0.0
 10
0.8853
 20
5.89394
 30
0.0
 10
0.8853
 20
5.89394
 30
0.0
 10
0.92012
 20
5.73388
 30
0.0
 10
1.0626
 20
5.61401
 30
0.0
 10
1.2331
 20
5.61401
 30
0.0
 10
1.2331
 20
5.61401
 30
0.0
 10
1.35335
 20
5.61401
 30
0.0
 10
1.45965
 20
5.67366
 30
0.0
 10
1.52408
 20
5.76497
 30
0.0
 10
1.52408
 20
5.76497
 30
0.0
 10
1.61349
 20
5.74175
 30
0.0
 10
1.7021
 20
5.71657
 30
0.0
 10
1.7898
 20
5.6893
 30
0.0
  0
SPLINE
  5
5D
330
1F
100
AcDbEntity
  8
Layer 1
370
    53
100
AcDbSpline
210
0.0
220
0.0
230
1.0
 70
    11
 71
     3
 72
    28
 73
    24
 74
     0
 42
0.0000000001
 43
0.0000000001
 12
1.0
 22
0.0
 32
0.0
 13
1.0
 23
0.0
 33
0.0
 40
0.0
 40
0.0
 40
0.0
 40
0.0
 40
0.1428571428571428
 40
0.1428571428571428
 40
0.1428571428571428
 40
0.1428571428571428
 40
0.2857142857142857
 40
0.2857142857142857
 40
0.2857142857142857
 40
0.2857142857142857
 40
0.4285714285714285
 40
0.4285714285714285
 40
0.4285714285714285
 40
0.4285714285714285
 40
0.5714285714285714
 40
0.5714285714285714
 40
0.5714285714285714
 40
0.5714285714285714
 40
0.7142857142857143
 40
0.7142857142857143
 40
0.7142857142857143
 40
0.7142857142857143
 40
1.0
 40
1.0
 40
1.0
 40
1.0
 10
3.82883
 20
4.58027
 30
0.0
 10
3.65617
 20
4.43172
 30
0.0
 10
3.40814
 20
4.38355
 30
0.0
 10
3.18334
 20
4.47667
 30
0.0
 10
3.18334
 20
4.47667
 30
0.0
 10
2.87845
 20
4.60297
 30
0.0
 10
2.72707
 20
4.94325
 30
0.0
 10
2.83111
 20
5.25138
 30
0.0
 10
2.83111
 20
5.25138
 30
0.0
 10
2.91266
 20
5.2078
 30
0.0
 10
2.9927
 20
5.16238
 30
0.0
 10
3.07149
 20
5.11547
 30
0.0
 10
3.07149
 20
5.11547
 30
0.0
 10
3.04241
 20
4.95427
 30
0.0
 10
3.12817
 20
4.789
 30
0.0
 10
3.28569
 20
4.72375
 30
0.0
 10
3.28569
 20
4.72375
 30
0.0
 10
3.39679
 20
4.67773
 30
0.0
 10
3.51782
 20
4.69216
 30
0.0
 10
3.6123
 20
4.75187
 30
0.0
 10
3.6123
 20
4.75187
 30
0.0
 10
3.68601
 20
4.6962
 30
0.0
 10
3.75824
 20
4.63903
 30
0.0
 10
3.82883
 20
4.58027
 30
0.0
  0
SPLINE
  5
5E
330
1F
100
AcDbEntity
  8
Layer 1
370
    53
100
AcDbSpline
210
0.0
220
0.0
230
1.0
 70
    11
 71
     3
 72
    28
 73
    24
 74
     0
 42
0.0000000001
 43
0.0000000001
 12
1.0
 22
0.0
 32
0.0
 13
1.0
 23
0.0
 33
0.0
 40
0.0
 40
0.0
 40
0.0
 40
0.0
 40
0.1428571428571428
 40
0.1428571428571428
 40
0.1428571428571428
 40
0.1428571428571428
 40
0.2857142857142857
 40
0.2857142857142857
 40
0.2857142857142857
 40
0.2857142857142857
 40
0.4285714285714285
 40
0.4285714285714285
 40
0.4285714285714285
 40
0.4285714285714285
 40
0.5714285714285714
 40
0.5714285714285714
 40
0.5714285714285714
 40
0.5714285714285714
 40
0.7142857142857143
 40
0.7142857142857143
 40
0.7142857142857143
 40
0.7142857142857143
 40
1.0
 40
1.0
 40
1.0
 40
1.0
 10
5.28823
 20
2.77536
 30
0.0
 10
5.07187
 20
2.7042
 30
0.0
 10
4.82429
 20
2.7546
 30
0.0
 10
4.65224
 20
2.92666
 30
0.0
 10
4.65224
 20
2.92666
 30
0.0
 10
4.41888
 20
3.16003
 30
0.0
 10
4.40925
 20
3.53233
 30
0.0
 10
4.62328
 20
3.77719
 30
0.0
 10
4.62328
 20
3.77719
 30
0.0
 10
4.68195
 20
3.70572
 30
0.0
 10
4.7385
 20
3.63312
 30
0.0
 10
4.79335
 20
3.55964
 30
0.0
 10
4.79335
 20
3.55964
 30
0.0
 10
4.70481
 20
3.42184
 30
0.0
 10
4.7208
 20
3.23632
 30
0.0
 10
4.84135
 20
3.11577
 30
0.0
 10
4.84135
 20
3.11577
 30
0.0
 10
4.92638
 20
3.03073
 30
0.0
 10
5.04372
 20
2.99775
 30
0.0
 10
5.15385
 20
3.01676
 30
0.0
 10
5.15385
 20
3.01676
 30
0.0
 10
5.20065
 20
2.93711
 30
0.0
 10
5.24551
 20
2.85665
 30
0.0
 10
5.28823
 20
2.77536
 30
0.0
  0
SPLINE
  5
5F
330
1F
100
AcDbEntity
  8
Layer 1
370
    53
100
AcDbSpline
210
0.0
220
0.0
230
1.0
 70
    11
 71
     3
 72
    28
 73
    24
 74
     0
 42
0.0000000001
 43
0.0000000001
 12
1.0
 22
0.0
 32
0.0
 13
1.0
 23
0.0
 33
0.0
 40
0.0
 40
0.0
 40
0.0
 40
0.0
 40
0.1428571428571428
 40
0.1428571428571428
 40
0.1428571428571428
 40
0.1428571428571428
 40
0.2857142857142857
 40
0.2857142857142857
 40
0.2857142857142857
 40
0.2857142857142857
 40
0.4285714285714285
 40
0.4285714285714285
 40
0.4285714285714285
 40
0.4285714285714285
 40
0.5714285714285714
 40
0.5714285714285714
 40
0.5714285714285714
 40
0.5714285714285714
 40
0.7142857142857143
 40
0.7142857142857143
 40
0.7142857142857143
 40
0.7142857142857143
 40
1.0
 40
1.0
 40
1.0
 40
1.0
 10
5.41616
 20
0.93251
 30
0.0
 10
5.28987
 20
1.2374
 30
0.0
 10
5.42345
 20
1.58507
 30
0.0
 10
5.7149
 20
1.72939
 30
0.0
 10
5.7149
 20
1.72939
 30
0.0
 10
5.74174
 20
1.6409
 30
0.0
 10
5.76622
 20
1.55219
 30
0.0
 10
5.78879
 20
1.46331
 30
0.0
 10
5.78879
 20
1.46331
 30
0.0
 10
5.65422
 20
1.36988
 30
0.0
 10
5.598
 20
1.19237
 30
0.0
 10
5.66324
 20
1.03485
 30
0.0
 10
5.66324
 20
1.03485
 30
0.0
 10
5.70926
 20
0.92376
 30
0.0
 10
5.80505
 20
0.84838
 30
0.0
 10
5.91407
 20
0.82379
 30
0.0
 10
5.91407
 20
0.82379
 30
0.0
 10
5.92682
 20
0.7323
 30
0.0
 10
5.93748
 20
0.6408
 30
0.0
 10
5.94584
 20
0.54935
 30
0.0
 10
5.94584
 20
0.54935
 30
0.0
 10
5.71872
 20
0.5664
 30
0.0
 10
5.50927
 20
0.70771
 30
0.0
 10
5.41616
 20
0.93251
 30
0.0
  0
SPLINE
  5
60
330
1F
100
AcDbEntity
  8
Layer 1
370
    53
100
AcDbSpline
210
0.0
220
0.0
230
1.0
 70
    11
 71
     3
 72
    28
 73
    24
 74
     0
 42
0.0000000001
 43
0.0000000001
 12
1.0
 22
0.0
 32
0.0
 13
1.0
 23
0.0
 33
0.0
 40
0.0
 40
0.0
 40
0.0
 40
0.0
 40
0.1428571428571428
 40
0.1428571428571428
 40
0.1428571428571428
 40
0.1428571428571428
 40
0.2857142857142857
 40
0.2857142857142857
 40
0.2857142857142857
 40
0.2857142857142857
 40
0.4285714285714285
 40
0.4285714285714285
 40
0.4285714285714285
 40
0.4285714285714285
 40
0.5714285714285714
 40
0.5714285714285714
 40
0.5714285714285714
 40
0.5714285714285714
 40
0.7142857142857143
 40
0.7142857142857143
 40
0.7142857142857143
 40
0.7142857142857143
 40
1.0
 40
1.0
 40
1.0
 40
1.0
 10
5.70153
 20
-1.75888
 30
0.0
 10
5.49822
 20
-1.65621
 30
0.0
 10
5.3588
 20
-1.4455
 30
0.0
 10
5.3588
 20
-1.20217
 30
0.0
 10
5.3588
 20
-1.20217
 30
0.0
 10
5.35881
 20
-0.87215
 30
0.0
 10
5.61526
 20
-0.60209
 30
0.0
 10
5.93975
 20
-0.58029
 30
0.0
 10
5.93975
 20
-0.58029
 30
0.0
 10
5.93069
 20
-0.6723
 30
0.0
 10
5.91936
 20
-0.76364
 30
0.0
 10
5.90617
 20
-0.85438
 30
0.0
 10
5.90617
 20
-0.85438
 30
0.0
 10
5.74611
 20
-0.8892
 30
0.0
 10
5.62624
 20
-1.03168
 30
0.0
 10
5.62624
 20
-1.20218
 30
0.0
 10
5.62624
 20
-1.20218
 30
0.0
 10
5.62624
 20
-1.32243
 30
0.0
 10
5.68589
 20
-1.42873
 30
0.0
 10
5.7772
 20
-1.49316
 30
0.0
 10
5.7772
 20
-1.49316
 30
0.0
 10
5.75398
 20
-1.58257
 30
0.0
 10
5.7288
 20
-1.67118
 30
0.0
 10
5.70153
 20
-1.75888
 30
0.0
  0
SPLINE
  5
61
330
1F
100
AcDbEntity
  8
Layer 1
370
    53
100
AcDbSpline
210
0.0
220
0.0
230
1.0
 70
    11
 71
     3
 72
    28
 73
    24
 74
     0
 42
0.0000000001
 43
0.0000000001
 12
1.0
 22
0.0
 32
0.0
 13
1.0
 23
0.0
 33
0.0
 40
0.0
 40
0.0
 40
0.0
 40
0.0
 40
0.1428571428571428
 40
0.1428571428571428
 40
0.1428571428571428
 40
0.1428571428571428
 40
0.2857142857142857
 40
0.2857142857142857
 40
0.2857142857142857
 40
0.2857142857142857
 40
0.4285714285714285
 40
0.4285714285714285
 40
0.4285714285714285
 40
0.4285714285714285
 40
0.5714285714285714
 40
0.5714285714285714
 40
0.5714285714285714
 40
0.5714285714285714
 40
0.7142857142857143
 40
0.7142857142857143
 40
0.7142857142857143
 40
0.7142857142857143
 40
1.0
 40
1.0
 40
1.0
 40
1.0
 10
4.5925
 20
-3.79791
 30
0.0
 10
4.44395
 20
-3.62525
 30
0.0
 10
4.39578
 20
-3.37722
 30
0.0
 10
4.4889
 20
-3.15243
 30
0.0
 10
4.4889
 20
-3.15243
 30
0.0
 10
4.6152
 20
-2.84753
 30
0.0
 10
4.95548
 20
-2.69615
 30
0.0
 10
5.26361
 20
-2.80019
 30
0.0
 10
5.26361
 20
-2.80019
 30
0.0
 10
5.22003
 20
-2.88174
 30
0.0
 10
5.17461
 20
-2.96178
 30
0.0
 10
5.1277
 20
-3.04057
 30
0.0
 10
5.1277
 20
-3.04057
 30
0.0
 10
4.9665
 20
-3.01149
 30
0.0
 10
4.80123
 20
-3.09725
 30
0.0
 10
4.73598
 20
-3.25477
 30
0.0
 10
4.73598
 20
-3.25477
 30
0.0
 10
4.68996
 20
-3.36587
 30
0.0
 10
4.70439
 20
-3.4869
 30
0.0
 10
4.7641
 20
-3.58138
 30
0.0
 10
4.7641
 20
-3.58138
 30
0.0
 10
4.70843
 20
-3.65509
 30
0.0
 10
4.65126
 20
-3.72732
 30
0.0
 10
4.5925
 20
-3.79791
 30
0.0
  0
SPLINE
  5
62
330
1F
100
AcDbEntity
  8
Layer 1
370
    53
100
AcDbSpline
210
0.0
220
0.0
230
1.0
 70
    11
 71
     3
 72
    20
 73
    16
 74
     0
 42
0.0000000001
 43
0.0000000001
 12
1.0
 22
0.0
 32
0.0
 13
1.0
 23
0.0
 33
0.0
 40
0.0
 40
0.0
 40
0.0
 40
0.0
 40
0.2
 40
0.2
 40
0.2
 40
0.2
 40
0.4
 40
0.4
 40
0.4
 40
0.4
 40
0.6
 40
0.6
 40
0.6
 40
0.6
 40
1.0
 40
1.0
 40
1.0
 40
1.0
 10
1.14058
 20
-0.98425
 30
0.0
 10
1.22875
 20
-0.88631
 30
0.0
 10
1.30515
 20
-0.77536
 30
0.0
 10
1.3665
 20
-0.65268
 30
0.0
 10
1.3665
 20
-0.65268
 30
0.0
 10
1.3665
 20
-0.65268
 30
0.0
 10
2.64129
 20
-1.18072
 30
0.0
 10
2.64129
 20
-1.18072
 30
0.0
 10
2.64129
 20
-1.18072
 30
0.0
 10
2.50649
 20
-1.47792
 30
0.0
 10
2.32682
 20
-1.7416
 30
0.0
 10
2.11369
 20
-1.96713
 30
0.0
 10
2.11369
 20
-1.96713
 30
0.0
 10
2.11369
 20
-1.96713
 30
0.0
 10
1.14058
 20
-0.98425
 30
0.0
 10
1.14058
 20
-0.98425
 30
0.0
  0
SPLINE
  5
63
330
1F
100
AcDbEntity
  8
Layer 1
370
    53
100
AcDbSpline
210
0.0
220
0.0
230
1.0
 70
    11
 71
     3
 72
    28
 73
    24
 74
     0
 42
0.0000000001
 43
0.0000000001
 12
1.0
 22
0.0
 32
0.0
 13
1.0
 23
0.0
 33
0.0
 40
0.0
 40
0.0
 40
0.0
 40
0.0
 40
0.1428571428571428
 40
0.1428571428571428
 40
0.1428571428571428
 40
0.1428571428571428
 40
0.2857142857142857
 40
0.2857142857142857
 40
0.2857142857142857
 40
0.2857142857142857
 40
0.4285714285714285
 40
0.4285714285714285
 40
0.4285714285714285
 40
0.4285714285714285
 40
0.5714285714285714
 40
0.5714285714285714
 40
0.5714285714285714
 40
0.5714285714285714
 40
0.7142857142857143
 40
0.7142857142857143
 40
0.7142857142857143
 40
0.7142857142857143
 40
1.0
 40
1.0
 40
1.0
 40
1.0
 10
2.78759
 20
-5.25731
 30
0.0
 10
2.71643
 20
-5.04096
 30
0.0
 10
2.76683
 20
-4.79338
 30
0.0
 10
2.93889
 20
-4.62132
 30
0.0
 10
2.93889
 20
-4.62132
 30
0.0
 10
3.17226
 20
-4.38796
 30
0.0
 10
3.54456
 20
-4.37833
 30
0.0
 10
3.78942
 20
-4.59237
 30
0.0
 10
3.78942
 20
-4.59237
 30
0.0
 10
3.71795
 20
-4.65104
 30
0.0
 10
3.64535
 20
-4.7076
 30
0.0
 10
3.57187
 20
-4.76244
 30
0.0
 10
3.57187
 20
-4.76244
 30
0.0
 10
3.43407
 20
-4.67389
 30
0.0
 10
3.24855
 20
-4.68988
 30
0.0
 10
3.12801
 20
-4.81043
 30
0.0
 10
3.12801
 20
-4.81043
 30
0.0
 10
3.04296
 20
-4.89546
 30
0.0
 10
3.00998
 20
-5.01281
 30
0.0
 10
3.02899
 20
-5.12293
 30
0.0
 10
3.02899
 20
-5.12293
 30
0.0
 10
2.94934
 20
-5.16973
 30
0.0
 10
2.86888
 20
-5.21459
 30
0.0
 10
2.78759
 20
-5.25731
 30
0.0
  0
SPLINE
  5
64
330
1F
100
AcDbEntity
  8
Layer 1
370
    53
100
AcDbSpline
210
0.0
220
0.0
230
1.0
 70
    11
 71
     3
 72
    20
 73
    16
 74
     0
 42
0.0000000001
 43
0.0000000001
 12
1.0
 22
0.0
 32
0.0
 13
1.0
 23
0.0
 33
0.0
 40
0.0
 40
0.0
 40
0.0
 40
0.0
 40
0.2
 40
0.2
 40
0.2
 40
0.2
 40
0.4
 40
0.4
 40
0.4
 40
0.4
 40
0.6
 40
0.6
 40
0.6
 40
0.6
 40
1.0
 40
1.0
 40
1.0
 40
1.0
 10
0.67516
 20
-1.33684
 30
0.0
 10
0.79411
 20
-1.2801
 30
0.0
 10
0.90715
 20
-1.20684
 30
0.0
 10
1.01079
 20
-1.11697
 30
0.0
 10
1.01079
 20
-1.11697
 30
0.0
 10
1.01079
 20
-1.11697
 30
0.0
 10
1.98646
 20
-2.09265
 30
0.0
 10
1.98646
 20
-2.09265
 30
0.0
 10
1.98646
 20
-2.09265
 30
0.0
 10
1.74818
 20
-2.31563
 30
0.0
 10
1.48129
 20
-2.49049
 30
0.0
 10
1.19806
 20
-2.61729
 30
0.0
 10
1.19806
 20
-2.61729
 30
0.0
 10
1.19806
 20
-2.61729
 30
0.0
 10
0.67516
 20
-1.33684
 30
0.0
 10
0.67516
 20
-1.33684
 30
0.0
  0
SPLINE
  5
65
330
1F
100
AcDbEntity
  8
Layer 1
370
    53
100
AcDbSpline
210
0.0
220
0.0
230
1.0
 70
    11
 71
     3
 72
    28
 73
    24
 74
     0
 42
0.0000000001
 43
0.0000000001
 12
1.0
 22
0.0
 32
0.0
 13
1.0
 23
0.0
 33
0.0
 40
0.0
 40
0.0
 40
0.0
 40
0.0
 40
0.1428571428571428
 40
0.1428571428571428
 40
0.1428571428571428
 40
0.1428571428571428
 40
0.2857142857142857
 40
0.2857142857142857
 40
0.2857142857142857
 40
0.2857142857142857
 40
0.4285714285714285
 40
0.4285714285714285
 40
0.4285714285714285
 40
0.4285714285714285
 40
0.5714285714285714
 40
0.5714285714285714
 40
0.5714285714285714
 40
0.5714285714285714
 40
0.7142857142857143
 40
0.7142857142857143
 40
0.7142857142857143
 40
0.7142857142857143
 40
1.0
 40
1.0
 40
1.0
 40
1.0
 10
0.94474
 20
-5.38524
 30
0.0
 10
1.24964
 20
-5.25895
 30
0.0
 10
1.59731
 20
-5.39253
 30
0.0
 10
1.74162
 20
-5.68398
 30
0.0
 10
1.74162
 20
-5.68398
 30
0.0
 10
1.65313
 20
-5.71083
 30
0.0
 10
1.56441
 20
-5.7353
 30
0.0
 10
1.47553
 20
-5.75785
 30
0.0
 10
1.47553
 20
-5.75785
 30
0.0
 10
1.38211
 20
-5.6233
 30
0.0
 10
1.2046
 20
-5.56708
 30
0.0
 10
1.04708
 20
-5.63232
 30
0.0
 10
1.04708
 20
-5.63232
 30
0.0
 10
0.93599
 20
-5.67834
 30
0.0
 10
0.86061
 20
-5.77413
 30
0.0
 10
0.83602
 20
-5.88315
 30
0.0
 10
0.83602
 20
-5.88315
 30
0.0
 10
0.74453
 20
-5.8959
 30
0.0
 10
0.65303
 20
-5.90656
 30
0.0
 10
0.56158
 20
-5.91492
 30
0.0
 10
0.56158
 20
-5.91492
 30
0.0
 10
0.57863
 20
-5.6878
 30
0.0
 10
0.71994
 20
-5.47836
 30
0.0
 10
0.94474
 20
-5.38524
 30
0.0
  0
SPLINE
  5
66
330
1F
100
AcDbEntity
  8
Layer 1
370
    53
100
AcDbSpline
210
0.0
220
0.0
230
1.0
 70
    11
 71
     3
 72
    48
 73
    44
 74
     0
 42
0.0000000001
 43
0.0000000001
 12
1.0
 22
0.0
 32
0.0
 13
1.0
 23
0.0
 33
0.0
 40
0.0
 40
0.0
 40
0.0
 40
0.0
 40
0.0833333333333333
 40
0.0833333333333333
 40
0.0833333333333333
 40
0.0833333333333333
 40
0.1666666666666667
 40
0.1666666666666667
 40
0.1666666666666667
 40
0.1666666666666667
 40
0.25
 40
0.25
 40
0.25
 40
0.25
 40
0.3333333333333333
 40
0.3333333333333333
 40
0.3333333333333333
 40
0.3333333333333333
 40
0.4166666666666667
 40
0.4166666666666667
 40
0.4166666666666667
 40
0.4166666666666667
 40
0.5
 40
0.5
 40
0.5
 40
0.5
 40
0.5833333333333334
 40
0.5833333333333334
 40
0.5833333333333334
 40
0.5833333333333334
 40
0.6666666666666666
 40
0.6666666666666666
 40
0.6666666666666666
 40
0.6666666666666666
 40
0.75
 40
0.75
 40
0.75
 40
0.75
 40
0.8333333333333334
 40
0.8333333333333334
 40
0.8333333333333334
 40
0.8333333333333334
 40
1.0
 40
1.0
 40
1.0
 40
1.0
 10
2.66253
 20
2.96255
 30
0.0
 10
2.44712
 20
3.05177
 30
0.0
 10
2.21037
 20
3.01128
 30
0.0
 10
2.03904
 20
2.87707
 30
0.0
 10
2.03904
 20
2.87707
 30
0.0
 10
2.0154
 20
2.89365
 30
0.0
 10
1.99151
 20
2.90998
 30
0.0
 10
1.96737
 20
2.92607
 30
0.0
 10
1.96737
 20
2.92607
 30
0.0
 10
1.95037
 20
2.93738
 30
0.0
 10
1.93326
 20
2.94855
 30
0.0
 10
1.91602
 20
2.9596
 30
0.0
 10
1.91602
 20
2.9596
 30
0.0
 10
1.99723
 20
3.21217
 30
0.0
 10
1.90806
 20
3.48475
 30
0.0
 10
1.70439
 20
3.64248
 30
0.0
 10
1.70439
 20
3.64248
 30
0.0
 10
1.70439
 20
3.64248
 30
0.0
 10
2.44849
 20
5.4389
 30
0.0
 10
2.44849
 20
5.4389
 30
0.0
 10
2.44849
 20
5.4389
 30
0.0
 10
2.50196
 20
5.41501
 30
0.0
 10
2.5549
 20
5.39043
 30
0.0
 10
2.60733
 20
5.36517
 30
0.0
 10
2.60733
 20
5.36517
 30
0.0
 10
2.43822
 20
4.92513
 30
0.0
 10
2.6499
 20
4.428
 30
0.0
 10
3.08803
 20
4.24652
 30
0.0
 10
3.08803
 20
4.24652
 30
0.0
 10
3.41451
 20
4.11129
 30
0.0
 10
3.77606
 20
4.18897
 30
0.0
 10
4.01837
 20
4.4156
 30
0.0
 10
4.01837
 20
4.4156
 30
0.0
 10
4.05741
 20
4.38017
 30
0.0
 10
4.09591
 20
4.34429
 30
0.0
 10
4.13387
 20
4.30795
 30
0.0
 10
4.13387
 20
4.30795
 30
0.0
 10
4.13387
 20
4.30795
 30
0.0
 10
2.74623
 20
2.92031
 30
0.0
 10
2.74623
 20
2.92031
 30
0.0
 10
2.74623
 20
2.92031
 30
0.0
 10
2.71981
 20
2.93623
 30
0.0
 10
2.69189
 20
2.95039
 30
0.0
 10
2.66253
 20
2.96255
 30
0.0
  0
SPLINE
  5
67
330
1F
100
AcDbEntity
  8
Layer 1
370
    53
100
AcDbSpline
210
0.0
220
0.0
230
1.0
 70
    11
 71
     3
 72
    20
 73
    16
 74
     0
 42
0.0000000001
 43
0.0000000001
 12
1.0
 22
0.0
 32
0.0
 13
1.0
 23
0.0
 33
0.0
 40
0.0
 40
0.0
 40
0.0
 40
0.0
 40
0.2
 40
0.2
 40
0.2
 40
0.2
 40
0.4
 40
0.4
 40
0.4
 40
0.4
 40
0.6
 40
0.6
 40
0.6
 40
0.6
 40
1.0
 40
1.0
 40
1.0
 40
1.0
 10
1.01517
 20
1.12835
 30
0.0
 10
0.91723
 20
1.21652
 30
0.0
 10
0.80628
 20
1.29292
 30
0.0
 10
0.6836
 20
1.35427
 30
0.0
 10
0.6836
 20
1.35427
 30
0.0
 10
0.6836
 20
1.35427
 30
0.0
 10
1.21164
 20
2.62906
 30
0.0
 10
1.21164
 20
2.62906
 30
0.0
 10
1.21164
 20
2.62906
 30
0.0
 10
1.50884
 20
2.49426
 30
0.0
 10
1.77252
 20
2.31459
 30
0.0
 10
1.99805
 20
2.10145
 30
0.0
 10
1.99805
 20
2.10145
 30
0.0
 10
1.99805
 20
2.10145
 30
0.0
 10
1.01517
 20
1.12835
 30
0.0
 10
1.01517
 20
1.12835
 30
0.0
  0
SPLINE
  5
68
330
1F
100
AcDbEntity
  8
Layer 1
370
    53
100
AcDbSpline
210
0.0
220
0.0
230
1.0
 70
    11
 71
     3
 72
    48
 73
    44
 74
     0
 42
0.0000000001
 43
0.0000000001
 12
1.0
 22
0.0
 32
0.0
 13
1.0
 23
0.0
 33
0.0
 40
0.0
 40
0.0
 40
0.0
 40
0.0
 40
0.0833333333333333
 40
0.0833333333333333
 40
0.0833333333333333
 40
0.0833333333333333
 40
0.1666666666666667
 40
0.1666666666666667
 40
0.1666666666666667
 40
0.1666666666666667
 40
0.25
 40
0.25
 40
0.25
 40
0.25
 40
0.3333333333333333
 40
0.3333333333333333
 40
0.3333333333333333
 40
0.3333333333333333
 40
0.4166666666666667
 40
0.4166666666666667
 40
0.4166666666666667
 40
0.4166666666666667
 40
0.5
 40
0.5
 40
0.5
 40
0.5
 40
0.5833333333333334
 40
0.5833333333333334
 40
0.5833333333333334
 40
0.5833333333333334
 40
0.6666666666666666
 40
0.6666666666666666
 40
0.6666666666666666
 40
0.6666666666666666
 40
0.75
 40
0.75
 40
0.75
 40
0.75
 40
0.8333333333333334
 40
0.8333333333333334
 40
0.8333333333333334
 40
0.8333333333333334
 40
1.0
 40
1.0
 40
1.0
 40
1.0
 10
3.59164
 20
1.72711
 30
0.0
 10
3.42677
 20
1.89197
 30
0.0
 10
3.19256
 20
1.94516
 30
0.0
 10
2.98291
 20
1.88672
 30
0.0
 10
2.98291
 20
1.88672
 30
0.0
 10
2.96741
 20
1.9111
 30
0.0
 10
2.95158
 20
1.93534
 30
0.0
 10
2.93543
 20
1.95942
 30
0.0
 10
2.93543
 20
1.95942
 30
0.0
 10
2.92406
 20
1.97638
 30
0.0
 10
2.91253
 20
1.99325
 30
0.0
 10
2.90082
 20
2.01005
 30
0.0
 10
2.90082
 20
2.01005
 30
0.0
 10
3.07162
 20
2.21126
 30
0.0
 10
3.0942
 20
2.49527
 30
0.0
 10
2.96861
 20
2.71842
 30
0.0
 10
2.96861
 20
2.71842
 30
0.0
 10
2.96861
 20
2.71842
 30
0.0
 10
4.34423
 20
4.09404
 30
0.0
 10
4.34423
 20
4.09404
 30
0.0
 10
4.34423
 20
4.09404
 30
0.0
 10
4.38356
 20
4.05243
 30
0.0
 10
4.42218
 20
4.0104
 30
0.0
 10
4.46009
 20
3.96796
 30
0.0
 10
4.46009
 20
3.96796
 30
0.0
 10
4.13545
 20
3.62613
 30
0.0
 10
4.14078
 20
3.08584
 30
0.0
 10
4.47611
 20
2.7505
 30
0.0
 10
4.47611
 20
2.7505
 30
0.0
 10
4.72598
 20
2.50063
 30
0.0
 10
5.08974
 20
2.43405
 30
0.0
 10
5.40034
 20
2.55068
 30
0.0
 10
5.40034
 20
2.55068
 30
0.0
 10
5.42333
 20
2.50199
 30
0.0
 10
5.44563
 20
2.45308
 30
0.0
 10
5.46721
 20
2.40393
 30
0.0
 10
5.46721
 20
2.40393
 30
0.0
 10
5.46721
 20
2.40393
 30
0.0
 10
3.65487
 20
1.65323
 30
0.0
 10
3.65487
 20
1.65323
 30
0.0
 10
3.65487
 20
1.65323
 30
0.0
 10
3.63603
 20
1.67906
 30
0.0
 10
3.61496
 20
1.70378
 30
0.0
 10
3.59164
 20
1.72711
 30
0.0
  0
SPLINE
  5
69
330
1F
100
AcDbEntity
  8
Layer 1
370
    53
100
AcDbSpline
210
0.0
220
0.0
230
1.0
 70
    11
 71
     3
 72
    20
 73
    16
 74
     0
 42
0.0000000001
 43
0.0000000001
 12
1.0
 22
0.0
 32
0.0
 13
1.0
 23
0.0
 33
0.0
 40
0.0
 40
0.0
 40
0.0
 40
0.0
 40
0.2
 40
0.2
 40
0.2
 40
0.2
 40
0.4
 40
0.4
 40
0.4
 40
0.4
 40
0.6
 40
0.6
 40
0.6
 40
0.6
 40
1.0
 40
1.0
 40
1.0
 40
1.0
 10
1.36776
 20
0.66293
 30
0.0
 10
1.31102
 20
0.78188
 30
0.0
 10
1.23776
 20
0.89492
 30
0.0
 10
1.14789
 20
0.99855
 30
0.0
 10
1.14789
 20
0.99855
 30
0.0
 10
1.14789
 20
0.99855
 30
0.0
 10
2.12357
 20
1.97423
 30
0.0
 10
2.12357
 20
1.97423
 30
0.0
 10
2.12357
 20
1.97423
 30
0.0
 10
2.34656
 20
1.73595
 30
0.0
 10
2.52141
 20
1.46906
 30
0.0
 10
2.64821
 20
1.18583
 30
0.0
 10
2.64821
 20
1.18583
 30
0.0
 10
2.64821
 20
1.18583
 30
0.0
 10
1.36776
 20
0.66293
 30
0.0
 10
1.36776
 20
0.66293
 30
0.0
  0
SPLINE
  5
6A
330
1F
100
AcDbEntity
  8
Layer 1
370
    53
100
AcDbSpline
210
0.0
220
0.0
230
1.0
 70
    11
 71
     3
 72
    48
 73
    44
 74
     0
 42
0.0000000001
 43
0.0000000001
 12
1.0
 22
0.0
 32
0.0
 13
1.0
 23
0.0
 33
0.0
 40
0.0
 40
0.0
 40
0.0
 40
0.0
 40
0.0833333333333333
 40
0.0833333333333333
 40
0.0833333333333333
 40
0.0833333333333333
 40
0.1666666666666667
 40
0.1666666666666667
 40
0.1666666666666667
 40
0.1666666666666667
 40
0.25
 40
0.25
 40
0.25
 40
0.25
 40
0.3333333333333333
 40
0.3333333333333333
 40
0.3333333333333333
 40
0.3333333333333333
 40
0.4166666666666667
 40
0.4166666666666667
 40
0.4166666666666667
 40
0.4166666666666667
 40
0.5
 40
0.5
 40
0.5
 40
0.5
 40
0.5833333333333334
 40
0.5833333333333334
 40
0.5833333333333334
 40
0.5833333333333334
 40
0.6666666666666666
 40
0.6666666666666666
 40
0.6666666666666666
 40
0.6666666666666666
 40
0.75
 40
0.75
 40
0.75
 40
0.75
 40
0.8333333333333334
 40
0.8333333333333334
 40
0.8333333333333334
 40
0.8333333333333334
 40
1.0
 40
1.0
 40
1.0
 40
1.0
 10
4.00796
 20
0.13532
 30
0.0
 10
4.00038
 20
0.1672
 30
0.0
 10
3.99019
 20
0.19889
 30
0.0
 10
3.97725
 20
0.23014
 30
0.0
 10
3.97725
 20
0.23014
 30
0.0
 10
3.88802
 20
0.44555
 30
0.0
 10
3.69198
 20
0.58432
 30
0.0
 10
3.47593
 20
0.61056
 30
0.0
 10
3.47593
 20
0.61056
 30
0.0
 10
3.47094
 20
0.63901
 30
0.0
 10
3.4656
 20
0.66747
 30
0.0
 10
3.45989
 20
0.6959
 30
0.0
 10
3.45989
 20
0.6959
 30
0.0
 10
3.45587
 20
0.71591
 30
0.0
 10
3.45169
 20
0.73592
 30
0.0
 10
3.44729
 20
0.75591
 30
0.0
 10
3.44729
 20
0.75591
 30
0.0
 10
3.68102
 20
0.8759
 30
0.0
 10
3.81046
 20
1.12788
 30
0.0
 10
3.78142
 20
1.38093
 30
0.0
 10
3.78142
 20
1.38093
 30
0.0
 10
3.78142
 20
1.38093
 30
0.0
 10
5.57954
 20
2.12574
 30
0.0
 10
5.57954
 20
2.12574
 30
0.0
 10
5.57954
 20
2.12574
 30
0.0
 10
5.59952
 20
2.0733
 30
0.0
 10
5.61871
 20
2.02074
 30
0.0
 10
5.63712
 20
1.96808
 30
0.0
 10
5.63712
 20
1.96808
 30
0.0
 10
5.20638
 20
1.77651
 30
0.0
 10
5.00455
 20
1.2753
 30
0.0
 10
5.18603
 20
0.83717
 30
0.0
 10
5.18603
 20
0.83717
 30
0.0
 10
5.32126
 20
0.51069
 30
0.0
 10
5.63184
 20
0.30996
 30
0.0
 10
5.96343
 20
0.29887
 30
0.0
 10
5.96343
 20
0.29887
 30
0.0
 10
5.96608
 20
0.24429
 30
0.0
 10
5.96797
 20
0.18977
 30
0.0
 10
5.9691
 20
0.13532
 30
0.0
 10
5.9691
 20
0.13532
 30
0.0
 10
5.9691
 20
0.13532
 30
0.0
 10
4.00796
 20
0.13532
 30
0.0
 10
4.00796
 20
0.13532
 30
0.0
  0
SPLINE
  5
6B
330
1F
100
AcDbEntity
  8
Layer 1
370
    53
100
AcDbSpline
210
0.0
220
0.0
230
1.0
 70
    11
 71
     3
 72
    48
 73
    44
 74
     0
 42
0.0000000001
 43
0.0000000001
 12
1.0
 22
0.0
 32
0.0
 13
1.0
 23
0.0
 33
0.0
 40
0.0
 40
0.0
 40
0.0
 40
0.0
 40
0.0833333333333333
 40
0.0833333333333333
 40
0.0833333333333333
 40
0.0833333333333333
 40
0.1666666666666667
 40
0.1666666666666667
 40
0.1666666666666667
 40
0.1666666666666667
 40
0.25
 40
0.25
 40
0.25
 40
0.25
 40
0.3333333333333333
 40
0.3333333333333333
 40
0.3333333333333333
 40
0.3333333333333333
 40
0.4166666666666667
 40
0.4166666666666667
 40
0.4166666666666667
 40
0.4166666666666667
 40
0.5
 40
0.5
 40
0.5
 40
0.5
 40
0.5833333333333334
 40
0.5833333333333334
 40
0.5833333333333334
 40
0.5833333333333334
 40
0.6666666666666666
 40
0.6666666666666666
 40
0.6666666666666666
 40
0.6666666666666666
 40
0.75
 40
0.75
 40
0.75
 40
0.75
 40
0.8333333333333334
 40
0.8333333333333334
 40
0.8333333333333334
 40
0.8333333333333334
 40
1.0
 40
1.0
 40
1.0
 40
1.0
 10
3.75256
 20
-1.40081
 30
0.0
 10
3.75786
 20
-1.36813
 30
0.0
 10
3.76063
 20
-1.33461
 30
0.0
 10
3.76064
 20
-1.30044
 30
0.0
 10
3.76064
 20
-1.30044
 30
0.0
 10
3.76063
 20
-1.06728
 30
0.0
 10
3.63262
 20
-0.86405
 30
0.0
 10
3.44306
 20
-0.75713
 30
0.0
 10
3.44306
 20
-0.75713
 30
0.0
 10
3.44934
 20
-0.72894
 30
0.0
 10
3.45529
 20
-0.7006
 30
0.0
 10
3.46089
 20
-0.67215
 30
0.0
 10
3.46089
 20
-0.67215
 30
0.0
 10
3.46484
 20
-0.65213
 30
0.0
 10
3.46862
 20
-0.63203
 30
0.0
 10
3.47222
 20
-0.61188
 30
0.0
 10
3.47222
 20
-0.61188
 30
0.0
 10
3.73323
 20
-0.59054
 30
0.0
 10
3.94872
 20
-0.40838
 30
0.0
 10
4.01943
 20
-0.16468
 30
0.0
 10
4.01943
 20
-0.16468
 30
0.0
 10
4.01943
 20
-0.16468
 30
0.0
 10
5.9663
 20
-0.16468
 30
0.0
 10
5.9663
 20
-0.16468
 30
0.0
 10
5.9663
 20
-0.16468
 30
0.0
 10
5.9647
 20
-0.21998
 30
0.0
 10
5.96234
 20
-0.27509
 30
0.0
 10
5.95925
 20
-0.32999
 30
0.0
 10
5.95925
 20
-0.32999
 30
0.0
 10
5.48797
 20
-0.34215
 30
0.0
 10
5.1097
 20
-0.72797
 30
0.0
 10
5.1097
 20
-1.2022
 30
0.0
 10
5.1097
 20
-1.2022
 30
0.0
 10
5.1097
 20
-1.55557
 30
0.0
 10
5.31983
 20
-1.85987
 30
0.0
 10
5.62193
 20
-1.99702
 30
0.0
 10
5.62193
 20
-1.99702
 30
0.0
 10
5.60338
 20
-2.04877
 30
0.0
 10
5.58415
 20
-2.10017
 30
0.0
 10
5.56422
 20
-2.15122
 30
0.0
 10
5.56422
 20
-2.15122
 30
0.0
 10
5.56422
 20
-2.15122
 30
0.0
 10
3.75256
 20
-1.40081
 30
0.0
 10
3.75256
 20
-1.40081
 30
0.0
  0
SPLINE
  5
6C
330
1F
100
AcDbEntity
  8
Layer 1
370
    53
100
AcDbSpline
210
0.0
220
0.0
230
1.0
 70
    11
 71
     3
 72
    48
 73
    44
 74
     0
 42
0.0000000001
 43
0.0000000001
 12
1.0
 22
0.0
 32
0.0
 13
1.0
 23
0.0
 33
0.0
 40
0.0
 40
0.0
 40
0.0
 40
0.0
 40
0.0833333333333333
 40
0.0833333333333333
 40
0.0833333333333333
 40
0.0833333333333333
 40
0.1666666666666667
 40
0.1666666666666667
 40
0.1666666666666667
 40
0.1666666666666667
 40
0.25
 40
0.25
 40
0.25
 40
0.25
 40
0.3333333333333333
 40
0.3333333333333333
 40
0.3333333333333333
 40
0.3333333333333333
 40
0.4166666666666667
 40
0.4166666666666667
 40
0.4166666666666667
 40
0.4166666666666667
 40
0.5
 40
0.5
 40
0.5
 40
0.5
 40
0.5833333333333334
 40
0.5833333333333334
 40
0.5833333333333334
 40
0.5833333333333334
 40
0.6666666666666666
 40
0.6666666666666666
 40
0.6666666666666666
 40
0.6666666666666666
 40
0.75
 40
0.75
 40
0.75
 40
0.75
 40
0.8333333333333334
 40
0.8333333333333334
 40
0.8333333333333334
 40
0.8333333333333334
 40
1.0
 40
1.0
 40
1.0
 40
1.0
 10
2.41535
 20
-5.43664
 30
0.0
 10
2.41535
 20
-5.43664
 30
0.0
 10
1.66472
 20
-3.62449
 30
0.0
 10
1.66472
 20
-3.62449
 30
0.0
 10
1.66472
 20
-3.62449
 30
0.0
 10
1.69082
 20
-3.60551
 30
0.0
 10
1.71579
 20
-3.58427
 30
0.0
 10
1.73934
 20
-3.56072
 30
0.0
 10
1.73934
 20
-3.56072
 30
0.0
 10
1.9042
 20
-3.39585
 30
0.0
 10
1.95739
 20
-3.16163
 30
0.0
 10
1.89895
 20
-2.95199
 30
0.0
 10
1.89895
 20
-2.95199
 30
0.0
 10
1.92333
 20
-2.93649
 30
0.0
 10
1.94757
 20
-2.92066
 30
0.0
 10
1.97165
 20
-2.90451
 30
0.0
 10
1.97165
 20
-2.90451
 30
0.0
 10
1.98861
 20
-2.89314
 30
0.0
 10
2.00548
 20
-2.88161
 30
0.0
 10
2.02228
 20
-2.8699
 30
0.0
 10
2.02228
 20
-2.8699
 30
0.0
 10
2.22179
 20
-3.03926
 30
0.0
 10
2.50273
 20
-3.06292
 30
0.0
 10
2.725
 20
-2.94087
 30
0.0
 10
2.725
 20
-2.94087
 30
0.0
 10
2.725
 20
-2.94087
 30
0.0
 10
4.10173
 20
-4.3176
 30
0.0
 10
4.10173
 20
-4.3176
 30
0.0
 10
4.10173
 20
-4.3176
 30
0.0
 10
4.0616
 20
-4.35545
 30
0.0
 10
4.02109
 20
-4.39264
 30
0.0
 10
3.98019
 20
-4.42917
 30
0.0
 10
3.98019
 20
-4.42917
 30
0.0
 10
3.63836
 20
-4.10453
 30
0.0
 10
3.09807
 20
-4.10986
 30
0.0
 10
2.76273
 20
-4.44518
 30
0.0
 10
2.76273
 20
-4.44518
 30
0.0
 10
2.51286
 20
-4.69506
 30
0.0
 10
2.44626
 20
-5.05883
 30
0.0
 10
2.56291
 20
-5.36942
 30
0.0
 10
2.56291
 20
-5.36942
 30
0.0
 10
2.51395
 20
-5.39254
 30
0.0
 10
2.46477
 20
-5.41495
 30
0.0
 10
2.41535
 20
-5.43664
 30
0.0
  0
SPLINE
  5
6D
330
1F
100
AcDbEntity
  8
Layer 1
370
    53
100
AcDbSpline
210
0.0
220
0.0
230
1.0
 70
    11
 71
     3
 72
    48
 73
    44
 74
     0
 42
0.0000000001
 43
0.0000000001
 12
1.0
 22
0.0
 32
0.0
 13
1.0
 23
0.0
 33
0.0
 40
0.0
 40
0.0
 40
0.0
 40
0.0
 40
0.0833333333333333
 40
0.0833333333333333
 40
0.0833333333333333
 40
0.0833333333333333
 40
0.1666666666666667
 40
0.1666666666666667
 40
0.1666666666666667
 40
0.1666666666666667
 40
0.25
 40
0.25
 40
0.25
 40
0.25
 40
0.3333333333333333
 40
0.3333333333333333
 40
0.3333333333333333
 40
0.3333333333333333
 40
0.4166666666666667
 40
0.4166666666666667
 40
0.4166666666666667
 40
0.4166666666666667
 40
0.5
 40
0.5
 40
0.5
 40
0.5
 40
0.5833333333333334
 40
0.5833333333333334
 40
0.5833333333333334
 40
0.5833333333333334
 40
0.6666666666666666
 40
0.6666666666666666
 40
0.6666666666666666
 40
0.6666666666666666
 40
0.75
 40
0.75
 40
0.75
 40
0.75
 40
0.8333333333333334
 40
0.8333333333333334
 40
0.8333333333333334
 40
0.8333333333333334
 40
1.0
 40
1.0
 40
1.0
 40
1.0
 10
3.64788
 20
-1.68217
 30
0.0
 10
3.64788
 20
-1.68217
 30
0.0
 10
5.44678
 20
-2.4273
 30
0.0
 10
5.44678
 20
-2.4273
 30
0.0
 10
5.44678
 20
-2.4273
 30
0.0
 10
5.42427
 20
-2.47746
 30
0.0
 10
5.40113
 20
-2.52717
 30
0.0
 10
5.3774
 20
-2.57641
 30
0.0
 10
5.3774
 20
-2.57641
 30
0.0
 10
4.93736
 20
-2.4073
 30
0.0
 10
4.44023
 20
-2.61898
 30
0.0
 10
4.25875
 20
-3.05713
 30
0.0
 10
4.25875
 20
-3.05713
 30
0.0
 10
4.12352
 20
-3.38359
 30
0.0
 10
4.2012
 20
-3.74514
 30
0.0
 10
4.42783
 20
-3.98746
 30
0.0
 10
4.42783
 20
-3.98746
 30
0.0
 10
4.391
 20
-4.02804
 30
0.0
 10
4.35368
 20
-4.06804
 30
0.0
 10
4.31586
 20
-4.10746
 30
0.0
 10
4.31586
 20
-4.10746
 30
0.0
 10
4.31586
 20
-4.10746
 30
0.0
 10
2.92919
 20
-2.72079
 30
0.0
 10
2.92919
 20
-2.72079
 30
0.0
 10
2.92919
 20
-2.72079
 30
0.0
 10
2.94648
 20
-2.69277
 30
0.0
 10
2.96177
 20
-2.66301
 30
0.0
 10
2.97478
 20
-2.63161
 30
0.0
 10
2.97478
 20
-2.63161
 30
0.0
 10
3.064
 20
-2.4162
 30
0.0
 10
3.02351
 20
-2.17945
 30
0.0
 10
2.8893
 20
-2.00813
 30
0.0
 10
2.8893
 20
-2.00813
 30
0.0
 10
2.90588
 20
-1.98449
 30
0.0
 10
2.92222
 20
-1.96059
 30
0.0
 10
2.9383
 20
-1.93645
 30
0.0
 10
2.9383
 20
-1.93645
 30
0.0
 10
2.94961
 20
-1.91946
 30
0.0
 10
2.96078
 20
-1.90234
 30
0.0
 10
2.97183
 20
-1.8851
 30
0.0
 10
2.97183
 20
-1.8851
 30
0.0
 10
3.22079
 20
-1.96515
 30
0.0
 10
3.48919
 20
-1.87968
 30
0.0
 10
3.64788
 20
-1.68217
 30
0.0
  0
SPLINE
  5
6E
330
1F
100
AcDbEntity
  8
Layer 1
370
    53
100
AcDbSpline
210
0.0
220
0.0
230
1.0
 70
    11
 71
     3
 72
    44
 73
    40
 74
     0
 42
0.0000000001
 43
0.0000000001
 12
1.0
 22
0.0
 32
0.0
 13
1.0
 23
0.0
 33
0.0
 40
0.0
 40
0.0
 40
0.0
 40
0.0
 40
0.0909090909090909
 40
0.0909090909090909
 40
0.0909090909090909
 40
0.0909090909090909
 40
0.1818181818181818
 40
0.1818181818181818
 40
0.1818181818181818
 40
0.1818181818181818
 40
0.2727272727272727
 40
0.2727272727272727
 40
0.2727272727272727
 40
0.2727272727272727
 40
0.3636363636363636
 40
0.3636363636363636
 40
0.3636363636363636
 40
0.3636363636363636
 40
0.4545454545454545
 40
0.4545454545454545
 40
0.4545454545454545
 40
0.4545454545454545
 40
0.5454545454545454
 40
0.5454545454545454
 40
0.5454545454545454
 40
0.5454545454545454
 40
0.6363636363636364
 40
0.6363636363636364
 40
0.6363636363636364
 40
0.6363636363636364
 40
0.7272727272727273
 40
0.7272727272727273
 40
0.7272727272727273
 40
0.7272727272727273
 40
0.8181818181818182
 40
0.8181818181818182
 40
0.8181818181818182
 40
0.8181818181818182
 40
1.0
 40
1.0
 40
1.0
 40
1.0
 10
0.40216
 20
3.90216
 30
0.0
 10
0.40216
 20
3.90216
 30
0.0
 10
0.40216
 20
5.70337
 30
0.0
 10
0.40216
 20
5.70337
 30
0.0
 10
0.40216
 20
5.70337
 30
0.0
 10
0.51482
 20
5.3519
 30
0.0
 10
0.84421
 20
5.09747
 30
0.0
 10
1.23312
 20
5.09747
 30
0.0
 10
1.23312
 20
5.09747
 30
0.0
 10
1.58649
 20
5.09747
 30
0.0
 10
1.89079
 20
5.30761
 30
0.0
 10
2.02794
 20
5.6097
 30
0.0
 10
2.02794
 20
5.6097
 30
0.0
 10
2.07634
 20
5.59235
 30
0.0
 10
2.12442
 20
5.5744
 30
0.0
 10
2.17221
 20
5.55585
 30
0.0
 10
2.17221
 20
5.55585
 30
0.0
 10
2.17221
 20
5.55585
 30
0.0
 10
1.42088
 20
3.74199
 30
0.0
 10
1.42088
 20
3.74199
 30
0.0
 10
1.42088
 20
3.74199
 30
0.0
 10
1.39165
 20
3.74621
 30
0.0
 10
1.36176
 20
3.7484
 30
0.0
 10
1.33136
 20
3.74841
 30
0.0
 10
1.33136
 20
3.74841
 30
0.0
 10
1.0982
 20
3.7484
 30
0.0
 10
0.89497
 20
3.62039
 30
0.0
 10
0.78805
 20
3.43083
 30
0.0
 10
0.78805
 20
3.43083
 30
0.0
 10
0.75986
 20
3.43711
 30
0.0
 10
0.73152
 20
3.44306
 30
0.0
 10
0.70307
 20
3.44866
 30
0.0
 10
0.70307
 20
3.44866
 30
0.0
 10
0.68305
 20
3.45261
 30
0.0
 10
0.66295
 20
3.45641
 30
0.0
 10
0.6428
 20
3.45999
 30
0.0
 10
0.6428
 20
3.45999
 30
0.0
 10
0.6281
 20
3.63981
 30
0.0
 10
0.53706
 20
3.798
 30
0.0
 10
0.40216
 20
3.90216
 30
0.0
  0
SPLINE
  5
6F
330
1F
100
AcDbEntity
  8
Layer 1
370
    53
100
AcDbSpline
210
0.0
220
0.0
230
1.0
 70
    11
 71
     3
 72
    20
 73
    16
 74
     0
 42
0.0000000001
 43
0.0000000001
 12
1.0
 22
0.0
 32
0.0
 13
1.0
 23
0.0
 33
0.0
 40
0.0
 40
0.0
 40
0.0
 40
0.0
 40
0.2
 40
0.2
 40
0.2
 40
0.2
 40
0.4
 40
0.4
 40
0.4
 40
0.4
 40
0.6
 40
0.6
 40
0.6
 40
0.6
 40
1.0
 40
1.0
 40
1.0
 40
1.0
 10
0.40216
 20
1.45739
 30
0.0
 10
0.40216
 20
1.45739
 30
0.0
 10
0.40216
 20
2.86171
 30
0.0
 10
0.40216
 20
2.86171
 30
0.0
 10
0.40216
 20
2.86171
 30
0.0
 10
0.62626
 20
2.83209
 30
0.0
 10
0.84223
 20
2.77668
 30
0.0
 10
1.04699
 20
2.69856
 30
0.0
 10
1.04699
 20
2.69856
 30
0.0
 10
1.04699
 20
2.69856
 30
0.0
 10
0.51132
 20
1.4234
 30
0.0
 10
0.51132
 20
1.4234
 30
0.0
 10
0.51132
 20
1.4234
 30
0.0
 10
0.47554
 20
1.43607
 30
0.0
 10
0.43913
 20
1.44741
 30
0.0
 10
0.40216
 20
1.45739
 30
0.0
  0
SPLINE
  5
70
330
1F
100
AcDbEntity
  8
Layer 1
370
    53
100
AcDbSpline
210
0.0
220
0.0
230
1.0
 70
    11
 71
     3
 72
    20
 73
    16
 74
     0
 42
0.0000000001
 43
0.0000000001
 12
1.0
 22
0.0
 32
0.0
 13
1.0
 23
0.0
 33
0.0
 40
0.0
 40
0.0
 40
0.0
 40
0.0
 40
0.2
 40
0.2
 40
0.2
 40
0.2
 40
0.4
 40
0.4
 40
0.4
 40
0.4
 40
0.6
 40
0.6
 40
0.6
 40
0.6
 40
1.0
 40
1.0
 40
1.0
 40
1.0
 10
0.40216
 20
-2.84339
 30
0.0
 10
0.40216
 20
-2.84339
 30
0.0
 10
0.40216
 20
-1.43989
 30
0.0
 10
0.40216
 20
-1.43989
 30
0.0
 10
0.40216
 20
-1.43989
 30
0.0
 10
0.43638
 20
-1.43113
 30
0.0
 10
0.47049
 20
-1.4211
 30
0.0
 10
0.50445
 20
-1.40979
 30
0.0
 10
0.50445
 20
-1.40979
 30
0.0
 10
0.50445
 20
-1.40979
 30
0.0
 10
1.03249
 20
-2.68458
 30
0.0
 10
1.03249
 20
-2.68458
 30
0.0
 10
1.03249
 20
-2.68458
 30
0.0
 10
0.8249
 20
-2.76261
 30
0.0
 10
0.61361
 20
-2.81505
 30
0.0
 10
0.40216
 20
-2.84339
 30
0.0
  0
SPLINE
  5
71
330
1F
100
AcDbEntity
  8
Layer 1
370
    53
100
AcDbSpline
210
0.0
220
0.0
230
1.0
 70
    11
 71
     3
 72
    40
 73
    36
 74
     0
 42
0.0000000001
 43
0.0000000001
 12
1.0
 22
0.0
 32
0.0
 13
1.0
 23
0.0
 33
0.0
 40
0.0
 40
0.0
 40
0.0
 40
0.0
 40
0.1
 40
0.1
 40
0.1
 40
0.1
 40
0.2
 40
0.2
 40
0.2
 40
0.2
 40
0.3
 40
0.3
 40
0.3
 40
0.3
 40
0.4
 40
0.4
 40
0.4
 40
0.4
 40
0.5
 40
0.5
 40
0.5
 40
0.5
 40
0.6
 40
0.6
 40
0.6
 40
0.6
 40
0.7
 40
0.7
 40
0.7
 40
0.7
 40
0.8
 40
0.8
 40
0.8
 40
0.8
 40
1.0
 40
1.0
 40
1.0
 40
1.0
 10
0.40216
 20
-5.57258
 30
0.0
 10
0.40216
 20
-5.57258
 30
0.0
 10
0.40216
 20
-3.85009
 30
0.0
 10
0.40216
 20
-3.85009
 30
0.0
 10
0.40216
 20
-3.85009
 30
0.0
 10
0.52568
 20
-3.74758
 30
0.0
 10
0.60378
 20
-3.60155
 30
0.0
 10
0.62279
 20
-3.44501
 30
0.0
 10
0.62279
 20
-3.44501
 30
0.0
 10
0.65124
 20
-3.44002
 30
0.0
 10
0.6797
 20
-3.43468
 30
0.0
 10
0.70813
 20
-3.42897
 30
0.0
 10
0.70813
 20
-3.42897
 30
0.0
 10
0.72814
 20
-3.42495
 30
0.0
 10
0.74813
 20
-3.42076
 30
0.0
 10
0.76814
 20
-3.41637
 30
0.0
 10
0.76814
 20
-3.41637
 30
0.0
 10
0.88798
 20
-3.64982
 30
0.0
 10
1.13952
 20
-3.77924
 30
0.0
 10
1.39226
 20
-3.75062
 30
0.0
 10
1.39226
 20
-3.75062
 30
0.0
 10
1.39226
 20
-3.75062
 30
0.0
 10
2.13714
 20
-5.54893
 30
0.0
 10
2.13714
 20
-5.54893
 30
0.0
 10
2.13714
 20
-5.54893
 30
0.0
 10
2.08497
 20
-5.5688
 30
0.0
 10
2.03269
 20
-5.58789
 30
0.0
 10
1.98031
 20
-5.60621
 30
0.0
 10
1.98031
 20
-5.60621
 30
0.0
 10
1.78875
 20
-5.17546
 30
0.0
 10
1.28753
 20
-4.97363
 30
0.0
 10
0.8494
 20
-5.15511
 30
0.0
 10
0.8494
 20
-5.15511
 30
0.0
 10
0.64679
 20
-5.23903
 30
0.0
 10
0.49264
 20
-5.39048
 30
0.0
 10
0.40216
 20
-5.57258
 30
0.0
  0
SPLINE
  5
72
330
1F
100
AcDbEntity
  8
Layer 1
 62
     3
370
    53
100
AcDbSpline
210
0.0
220
0.0
230
1.0
 70
    24
 71
     3
 72
     8
 73
     4
 74
     0
 42
0.0000000001
 43
0.0000000001
 12
1.0
 22
0.0
 32
0.0
 13
1.0
 23
0.0
 33
0.0
 40
0.0
 40
0.0
 40
0.0
 40
0.0
 40
1.0
 40
1.0
 40
1.0
 40
1.0
 10
0.15523
 20
-0.1497
 30
0.0
 10
0.15523
 20
-2.08008
 30
0.0
 10
0.15523
 20
-4.60593
 30
0.0
 10
0.15523
 20
-6.24891
 30
0.0
  0
SPLINE
  5
73
330
1F
100
AcDbEntity
  8
Layer 1
370
    53
100
AcDbSpline
210
0.0
220
0.0
230
1.0
 70
     8
 71
     3
 72
    48
 73
    44
 74
     0
 42
0.0000000001
 43
0.0000000001
 12
1.0
 22
0.0
 32
0.0
 13
1.0
 23
0.0
 33
0.0
 40
0.0
 40
0.0
 40
0.0
 40
0.0
 40
0.0833333333333333
 40
0.0833333333333333
 40
0.0833333333333333
 40
0.0833333333333333
 40
0.1666666666666667
 40
0.1666666666666667
 40
0.1666666666666667
 40
0.1666666666666667
 40
0.25
 40
0.25
 40
0.25
 40
0.25
 40
0.3333333333333333
 40
0.3333333333333333
 40
0.3333333333333333
 40
0.3333333333333333
 40
0.4166666666666667
 40
0.4166666666666667
 40
0.4166666666666667
 40
0.4166666666666667
 40
0.5
 40
0.5
 40
0.5
 40
0.5
 40
0.5833333333333334
 40
0.5833333333333334
 40
0.5833333333333334
 40
0.5833333333333334
 40
0.6666666666666666
 40
0.6666666666666666
 40
0.6666666666666666
 40
0.6666666666666666
 40
0.75
 40
0.75
 40
0.75
 40
0.75
 40
0.8333333333333334
 40
0.8333333333333334
 40
0.8333333333333334
 40
0.8333333333333334
 40
1.0
 40
1.0
 40
1.0
 40
1.0
 10
0.15523
 20
0.1503
 30
0.0
 10
0.15523
 20
0.1503
 30
0.0
 10
1.51174
 20
0.1503
 30
0.0
 10
1.51174
 20
0.1503
 30
0.0
 10
1.51174
 20
0.1503
 30
0.0
 10
1.5017
 20
0.26464
 30
0.0
 10
1.47833
 20
0.37931
 30
0.0
 10
1.44071
 20
0.49222
 30
0.0
 10
1.44071
 20
0.49222
 30
0.0
 10
1.44071
 20
0.49222
 30
0.0
 10
2.7155
 20
1.02026
 30
0.0
 10
2.7155
 20
1.02026
 30
0.0
 10
2.7155
 20
1.02026
 30
0.0
 10
2.82303
 20
0.73421
 30
0.0
 10
2.88195
 20
0.44113
 30
0.0
 10
2.8962
 20
0.1503
 30
0.0
 10
2.8962
 20
0.1503
 30
0.0
 10
2.8962
 20
0.1503
 30
0.0
 10
3.22341
 20
0.1503
 30
0.0
 10
3.22341
 20
0.1503
 30
0.0
 10
3.22341
 20
0.1503
 30
0.0
 10
3.22341
 20
0.1503
 30
0.0
 10
3.22341
 20
-0.1497
 30
0.0
 10
3.22341
 20
-0.1497
 30
0.0
 10
3.22341
 20
-0.1497
 30
0.0
 10
3.22341
 20
-0.1497
 30
0.0
 10
2.89458
 20
-0.1497
 30
0.0
 10
2.89458
 20
-0.1497
 30
0.0
 10
2.89458
 20
-0.1497
 30
0.0
 10
2.87802
 20
-0.45343
 30
0.0
 10
2.81436
 20
-0.74459
 30
0.0
 10
2.71078
 20
-1.01607
 30
0.0
 10
2.71078
 20
-1.01607
 30
0.0
 10
2.71078
 20
-1.01607
 30
0.0
 10
1.43563
 20
-0.4804
 30
0.0
 10
1.43563
 20
-0.4804
 30
0.0
 10
1.43563
 20
-0.4804
 30
0.0
 10
1.47292
 20
-0.37507
 30
0.0
 10
1.49881
 20
-0.26435
 30
0.0
 10
1.51176
 20
-0.1497
 30
0.0
 10
1.51176
 20
-0.1497
 30
0.0
 10
1.51176
 20
-0.1497
 30
0.0
 10
0.15523
 20
-0.1497
 30
0.0
 10
0.15523
 20
-0.1497
 30
0.0
  0
SPLINE
  5
74
330
1F
100
AcDbEntity
  8
Layer 1
 62
     3
370
    53
100
AcDbSpline
210
0.0
220
0.0
230
1.0
 70
    24
 71
     3
 72
     8
 73
     4
 74
     0
 42
0.0000000001
 43
0.0000000001
 12
1.0
 22
0.0
 32
0.0
 13
1.0
 23
0.0
 33
0.0
 40
0.0
 40
0.0
 40
0.0
 40
0.0
 40
1.0
 40
1.0
 40
1.0
 40
1.0
 10
0.15523
 20
6.24961
 30
0.0
 10
0.15523
 20
6.24961
 30
0.0
 10
0.15523
 20
0.1503
 30
0.0
 10
0.15523
 20
0.1503
 30
0.0
  0
SPLINE
  5
75
330
1F
100
AcDbEntity
  8
Layer 1
370
    53
100
AcDbSpline
210
0.0
220
0.0
230
1.0
 70
     8
 71
     3
 72
    16
 73
    12
 74
     0
 42
0.0000000001
 43
0.0000000001
 12
1.0
 22
0.0
 32
0.0
 13
1.0
 23
0.0
 33
0.0
 40
0.0
 40
0.0
 40
0.0
 40
0.0
 40
0.25
 40
0.25
 40
0.25
 40
0.25
 40
0.5
 40
0.5
 40
0.5
 40
0.5
 40
1.0
 40
1.0
 40
1.0
 40
1.0
 10
0.15523
 20
-6.24891
 30
0.0
 10
0.51252
 20
-6.24063
 30
0.0
 10
0.87393
 20
-6.2017
 30
0.0
 10
1.23647
 20
-6.12959
 30
0.0
 10
1.23647
 20
-6.12959
 30
0.0
 10
4.62136
 20
-5.45629
 30
0.0
 10
6.82036
 20
-2.16525
 30
0.0
 10
6.14707
 20
1.21963
 30
0.0
 10
6.14707
 20
1.21963
 30
0.0
 10
5.56452
 20
4.14827
 30
0.0
 10
3.0223
 20
6.18871
 30
0.0
 10
0.15523
 20
6.24961
 30
0.0
  0
ENDSEC
  0
SECTION
  2
OBJECTS
  0
DICTIONARY
  5
C
330
0
100
AcDbDictionary
281
     1
  3
ACAD_GROUP
350
D
  3
ACAD_LAYOUT
350
1A
  3
ACAD_MATERIAL
350
3B
  3
ACAD_MLEADERSTYLE
350
97
  3
ACAD_MLINESTYLE
350
17
  3
ACAD_PLOTSETTINGS
350
19
  3
ACAD_PLOTSTYLENAME
350
E
  3
ACAD_TABLESTYLE
350
96
  3
ACAD_VISUALSTYLE
350
2A
  0
DICTIONARY
  5
D
102
{ACAD_REACTORS
330
C
102
}
330
C
100
AcDbDictionary
281
     1
  0
DICTIONARY
  5
1A
102
{ACAD_REACTORS
330
C
102
}
330
C
100
AcDbDictionary
281
     1
  3
Layout1
350
1E
  3
Layout2
350
26
  3
Model
350
22
  0
DICTIONARY
  5
3B
102
{ACAD_REACTORS
330
C
102
}
330
C
100
AcDbDictionary
281
     1
  3
ByBlock
350
3D
  3
ByLayer
350
3C
  3
Global
350
3E
  0
DICTIONARY
  5
97
102
{ACAD_REACTORS
330
C
102
}
330
C
100
AcDbDictionary
281
     1
  0
DICTIONARY
  5
17
102
{ACAD_REACTORS
330
C
102
}
330
C
100
AcDbDictionary
281
     1
  3
Standard
350
18
  0
DICTIONARY
  5
19
102
{ACAD_REACTORS
330
C
102
}
330
C
100
AcDbDictionary
281
     1
  0
ACDBDICTIONARYWDFLT
  5
E
102
{ACAD_REACTORS
330
C
102
}
330
C
100
AcDbDictionary
281
     1
  3
Normal
350
F
100
AcDbDictionaryWithDefault
340
F
  0
DICTIONARY
  5
96
102
{ACAD_REACTORS
330
C
102
}
330
C
100
AcDbDictionary
281
     1
  0
DICTIONARY
  5
2A
102
{ACAD_REACTORS
330
C
102
}
330
C
100
AcDbDictionary
281
     1
  3
2dWireframe
350
2F
  3
3D Hidden
350
31
  3
3dWireframe
350
30
  3
Basic
350
32
  3
Brighten
350
36
  3
ColorChange
350
3A
  3
Conceptual
350
34
  3
Dim
350
35
  3
Facepattern
350
39
  3
Flat
350
2B
  3
FlatWithEdges
350
2C
  3
Gouraud
350
2D
  3
GouraudWithEdges
350
2E
  3
Linepattern
350
38
  3
Realistic
350
33
  3
Thicken
350
37
  0
LAYOUT
  5
1E
102
{ACAD_REACTORS
330
1A
102
}
330
1A
100
AcDbPlotSettings
  1

  2
none_device
  4

  6

 40
0.0
 41
0.0
 42
0.0
 43
0.0
 44
0.0
 45
0.0
 46
0.0
 47
0.0
 48
0.0
 49
0.0
140
0.0
141
0.0
142
1.0
143
1.0
 70
   688
 72
     0
 73
     0
 74
     5
  7

 75
    16
 76
     0
 77
     2
 78
   300
147
1.0
148
0.0
149
0.0
100
AcDbLayout
  1
Layout1
 70
     1
 71
     1
 10
0.0
 20
0.0
 11
12.0
 21
9.0
 12
0.0
 22
0.0
 32
0.0
 14
1.000000000000000E+20
 24
1.000000000000000E+20
 34
1.000000000000000E+20
 15
-1.000000000000000E+20
 25
-1.000000000000000E+20
 35
-1.000000000000000E+20
146
0.0
 13
0.0
 23
0.0
 33
0.0
 16
1.0
 26
0.0
 36
0.0
 17
0.0
 27
1.0
 37
0.0
 76
     0
330
1B
  0
LAYOUT
  5
26
102
{ACAD_REACTORS
330
1A
102
}
330
1A
100
AcDbPlotSettings
  1

  2
none_device
  4

  6

 40
0.0
 41
0.0
 42
0.0
 43
0.0
 44
0.0
 45
0.0
 46
0.0
 47
0.0
 48
0.0
 49
0.0
140
0.0
141
0.0
142
1.0
143
1.0
 70
   688
 72
     0
 73
     0
 74
     5
  7

 75
    16
 76
     0
 77
     2
 78
   300
147
1.0
148
0.0
149
0.0
100
AcDbLayout
  1
Layout2
 70
     1
 71
     2
 10
0.0
 20
0.0
 11
0.0
 21
0.0
 12
0.0
 22
0.0
 32
0.0
 14
0.0
 24
0.0
 34
0.0
 15
0.0
 25
0.0
 35
0.0
146
0.0
 13
0.0
 23
0.0
 33
0.0
 16
1.0
 26
0.0
 36
0.0
 17
0.0
 27
1.0
 37
0.0
 76
     0
330
23
  0
LAYOUT
  5
22
102
{ACAD_REACTORS
330
1A
102
}
330
1A
100
AcDbPlotSettings
  1

  2
none_device
  4

  6

 40
0.0
 41
0.0
 42
0.0
 43
0.0
 44
0.0
 45
0.0
 46
0.0
 47
0.0
 48
0.0
 49
0.0
140
0.0
141
0.0
142
1.0
143
1.0
 70
  1712
 72
     0
 73
     0
 74
     0
  7

 75
     0
 76
     0
 77
     2
 78
   300
147
1.0
148
0.0
149
0.0
100
AcDbLayout
  1
Model
 70
     1
 71
     0
 10
0.0
 20
0.0
 11
12.0
 21
9.0
 12
0.0
 22
0.0
 32
0.0
 14
-6.92646
 24
-6.92646
 34
0.0
 15
6.92646
 25
6.92646
 35
0.0
146
0.0
 13
0.0
 23
0.0
 33
0.0
 16
1.0
 26
0.0
 36
0.0
 17
0.0
 27
1.0
 37
0.0
 76
     0
330
1F
331
29
  0
MATERIAL
  5
3D
102
{ACAD_REACTORS
330
3B
102
}
330
3B
100
AcDbMaterial
  1
ByBlock
 72
     1
 94
      127
  0
MATERIAL
  5
3C
102
{ACAD_REACTORS
330
3B
102
}
330
3B
100
AcDbMaterial
  1
ByLayer
 72
     1
 94
      127
  0
MATERIAL
  5
3E
102
{ACAD_REACTORS
330
3B
102
}
330
3B
100
AcDbMaterial
  1
Global
 72
     1
 94
      127
  0
MLINESTYLE
  5
18
102
{ACAD_REACTORS
330
17
102
}
330
17
100
AcDbMlineStyle
  2
Standard
 70
     0
  3

 62
   256
 51
90.0
 52
90.0
 71
     2
 49
0.5
 62
   256
  6
BYLAYER
 49
-0.5
 62
   256
  6
BYLAYER
  0
ACDBPLACEHOLDER
  5
F
102
{ACAD_REACTORS
330
E
102
}
330
E
  0
VISUALSTYLE
  5
2F
102
{ACAD_REACTORS
330
2A
102
}
102
{ACAD_XDICTIONARY
360
7E
102
}
330
2A
100
AcDbVisualStyle
  2
2dWireframe
 70
     4
 71
     0
 72
     2
 73
     0
 90
        0
 40
-0.6
 41
-30.0
 62
     5
 63
     7
421
 16777215
 74
     1
 91
        4
 64
     7
 65
   257
 75
     1
175
     1
 42
1.0
 92
        0
 66
   257
 43
1.0
 76
     1
 77
     6
 78
     2
 67
     7
 79
     5
170
     0
171
     0
290
     0
174
     0
 93
        1
 44
0.0
173
     0
291
     0
 45
0.0
  0
VISUALSTYLE
  5
31
102
{ACAD_REACTORS
330
2A
102
}
102
{ACAD_XDICTIONARY
360
82
102
}
330
2A
100
AcDbVisualStyle
  2
3D Hidden
 70
     6
 71
     1
 72
     2
 73
     2
 90
        0
 40
-0.6
 41
-30.0
 62
     5
 63
     7
421
 16777215
 74
     2
 91
        2
 64
     7
 65
   257
 75
     2
175
     1
 42
40.0
 92
        0
 66
   257
 43
1.0
 76
     1
 77
     6
 78
     2
 67
     7
 79
     3
170
     0
171
     0
290
     0
174
     0
 93
        1
 44
0.0
173
     0
291
     0
 45
0.0
  0
VISUALSTYLE
  5
30
102
{ACAD_REACTORS
330
2A
102
}
102
{ACAD_XDICTIONARY
360
80
102
}
330
2A
100
AcDbVisualStyle
  2
3dWireframe
 70
     5
 71
     0
 72
     2
 73
     0
 90
        0
 40
-0.6
 41
-30.0
 62
     5
 63
     7
421
 16777215
 74
     1
 91
        4
 64
     7
 65
   257
 75
     1
175
     1
 42
1.0
 92
        0
 66
   257
 43
1.0
 76
     1
 77
     6
 78
     2
 67
     7
 79
     5
170
     0
171
     0
290
     0
174
     0
 93
        1
 44
0.0
173
     0
291
     0
 45
0.0
  0
VISUALSTYLE
  5
32
102
{ACAD_REACTORS
330
2A
102
}
102
{ACAD_XDICTIONARY
360
84
102
}
330
2A
100
AcDbVisualStyle
  2
Basic
 70
     7
 71
     1
 72
     0
 73
     1
 90
        0
 40
-0.6
 41
-30.0
 62
     5
 63
     7
421
 16777215
 74
     0
 91
        4
 64
     7
 65
   257
 75
     1
175
     1
 42
1.0
 92
        8
 66
     7
 43
1.0
 76
     1
 77
     6
 78
     2
 67
     7
 79
     5
170
     0
171
     0
290
     0
174
     0
 93
        1
 44
0.0
173
     0
291
     1
 45
0.0
  0
VISUALSTYLE
  5
36
102
{ACAD_REACTORS
330
2A
102
}
102
{ACAD_XDICTIONARY
360
8C
102
}
330
2A
100
AcDbVisualStyle
  2
Brighten
 70
    12
 71
     2
 72
     2
 73
     0
 90
        0
 40
-0.6
 41
-30.0
 62
     5
 63
     7
421
 16777215
 74
     1
 91
        4
 64
     7
 65
   257
 75
     1
175
     1
 42
1.0
 92
        8
 66
     7
 43
1.0
 76
     1
 77
     6
 78
     2
 67
     7
 79
     5
170
     0
171
     0
290
     0
174
     0
 93
        1
 44
50.0
173
     0
291
     1
 45
0.0
  0
VISUALSTYLE
  5
3A
102
{ACAD_REACTORS
330
2A
102
}
102
{ACAD_XDICTIONARY
360
94
102
}
330
2A
100
AcDbVisualStyle
  2
ColorChange
 70
    16
 71
     2
 72
     2
 73
     3
 90
        0
 40
-0.6
 41
-30.0
 62
     5
 63
     8
421
  8421504
 74
     1
 91
        4
 64
     7
 65
   257
 75
     1
175
     1
 42
1.0
 92
        8
 66
     8
424
  8421504
 43
1.0
 76
     1
 77
     6
 78
     2
 67
     7
 79
     5
170
     0
171
     0
290
     0
174
     0
 93
        1
 44
0.0
173
     0
291
     1
 45
0.0
  0
VISUALSTYLE
  5
34
102
{ACAD_REACTORS
330
2A
102
}
102
{ACAD_XDICTIONARY
360
88
102
}
330
2A
100
AcDbVisualStyle
  2
Conceptual
 70
     9
 71
     3
 72
     2
 73
     0
 90
        0
 40
-0.6
 41
-30.0
 62
     5
 63
     7
421
 16777215
 74
     2
 91
        2
 64
     7
 65
   257
 75
     1
175
     1
 42
40.0
 92
        8
 66
     7
 43
1.0
 76
     1
 77
     6
 78
     2
 67
     7
 79
     3
170
     0
171
     0
290
     0
174
     0
 93
        1
 44
0.0
173
     0
291
     0
 45
0.0
  0
VISUALSTYLE
  5
35
102
{ACAD_REACTORS
330
2A
102
}
102
{ACAD_XDICTIONARY
360
8A
102
}
330
2A
100
AcDbVisualStyle
  2
Dim
 70
    11
 71
     2
 72
     2
 73
     0
 90
        0
 40
-0.6
 41
-30.0
 62
     5
 63
     7
421
 16777215
 74
     1
 91
        4
 64
     7
 65
   257
 75
     1
175
     1
 42
1.0
 92
        8
 66
     7
 43
1.0
 76
     1
 77
     6
 78
     2
 67
     7
 79
     5
170
     0
171
     0
290
     0
174
     0
 93
        1
 44
-50.0
173
     0
291
     1
 45
0.0
  0
VISUALSTYLE
  5
39
102
{ACAD_REACTORS
330
2A
102
}
102
{ACAD_XDICTIONARY
360
92
102
}
330
2A
100
AcDbVisualStyle
  2
Facepattern
 70
    15
 71
     2
 72
     2
 73
     0
 90
        0
 40
-0.6
 41
-30.0
 62
     5
 63
     7
421
 16777215
 74
     1
 91
        4
 64
     7
 65
   257
 75
     1
175
     1
 42
1.0
 92
        8
 66
     7
 43
1.0
 76
     1
 77
     6
 78
     2
 67
     7
 79
     5
170
     0
171
     0
290
     0
174
     0
 93
        1
 44
0.0
173
     0
291
     1
 45
0.0
  0
VISUALSTYLE
  5
2B
102
{ACAD_REACTORS
330
2A
102
}
102
{ACAD_XDICTIONARY
360
76
102
}
330
2A
100
AcDbVisualStyle
  2
Flat
 70
     0
 71
     2
 72
     1
 73
     1
 90
        2
 40
-0.6
 41
30.0
 62
     5
 63
     7
421
 16777215
 74
     0
 91
        4
 64
     7
 65
   257
 75
     1
175
     1
 42
1.0
 92
        8
 66
     7
 43
1.0
 76
     1
 77
     6
 78
     2
 67
     7
 79
     5
170
     0
171
     0
290
     0
174
     0
 93
       13
 44
0.0
173
     0
291
     1
 45
0.0
  0
VISUALSTYLE
  5
2C
102
{ACAD_REACTORS
330
2A
102
}
102
{ACAD_XDICTIONARY
360
78
102
}
330
2A
100
AcDbVisualStyle
  2
FlatWithEdges
 70
     1
 71
     2
 72
     1
 73
     1
 90
        2
 40
-0.6
 41
30.0
 62
     5
 63
     7
421
 16777215
 74
     1
 91
        4
 64
     7
 65
   257
 75
     1
175
     1
 42
1.0
 92
        0
 66
   257
 43
1.0
 76
     1
 77
     6
 78
     2
 67
     7
 79
     5
170
     0
171
     0
290
     0
174
     0
 93
       13
 44
0.0
173
     0
291
     1
 45
0.0
  0
VISUALSTYLE
  5
2D
102
{ACAD_REACTORS
330
2A
102
}
102
{ACAD_XDICTIONARY
360
7A
102
}
330
2A
100
AcDbVisualStyle
  2
Gouraud
 70
     2
 71
     2
 72
     2
 73
     1
 90
        2
 40
-0.6
 41
30.0
 62
     5
 63
     7
421
 16777215
 74
     0
 91
        4
 64
     7
 65
   257
 75
     1
175
     1
 42
1.0
 92
        0
 66
     7
 43
1.0
 76
     1
 77
     6
 78
     2
 67
     7
 79
     5
170
     0
171
     0
290
     0
174
     0
 93
       13
 44
0.0
173
     0
291
     1
 45
0.0
  0
VISUALSTYLE
  5
2E
102
{ACAD_REACTORS
330
2A
102
}
102
{ACAD_XDICTIONARY
360
7C
102
}
330
2A
100
AcDbVisualStyle
  2
GouraudWithEdges
 70
     3
 71
     2
 72
     2
 73
     1
 90
        2
 40
-0.6
 41
30.0
 62
     5
 63
     7
421
 16777215
 74
     1
 91
        4
 64
     7
 65
   257
 75
     1
175
     1
 42
1.0
 92
        0
 66
   257
 43
1.0
 76
     1
 77
     6
 78
     2
 67
     7
 79
     5
170
     0
171
     0
290
     0
174
     0
 93
       13
 44
0.0
173
     0
291
     1
 45
0.0
  0
VISUALSTYLE
  5
38
102
{ACAD_REACTORS
330
2A
102
}
102
{ACAD_XDICTIONARY
360
90
102
}
330
2A
100
AcDbVisualStyle
  2
Linepattern
 70
    14
 71
     2
 72
     2
 73
     0
 90
        0
 40
-0.6
 41
-30.0
 62
     5
 63
     7
421
 16777215
 74
     1
 91
        4
 64
     7
 65
   257
 75
     7
175
     7
 42
1.0
 92
        8
 66
     7
 43
1.0
 76
     1
 77
     6
 78
     2
 67
     7
 79
     5
170
     0
171
     0
290
     0
174
     0
 93
        1
 44
0.0
173
     0
291
     1
 45
0.0
  0
VISUALSTYLE
  5
33
102
{ACAD_REACTORS
330
2A
102
}
102
{ACAD_XDICTIONARY
360
86
102
}
330
2A
100
AcDbVisualStyle
  2
Realistic
 70
     8
 71
     2
 72
     2
 73
     0
 90
        0
 40
-0.6
 41
-30.0
 62
     5
 63
     7
421
 16777215
 74
     1
 91
        0
 64
     7
 65
   257
 75
     1
175
     1
 42
1.0
 92
        8
 66
     8
424
  7895160
 43
1.0
 76
     1
 77
     6
 78
     2
 67
     7
 79
     5
170
     0
171
     0
290
     0
174
     0
 93
       13
 44
0.0
173
     0
291
     0
 45
0.0
  0
VISUALSTYLE
  5
37
102
{ACAD_REACTORS
330
2A
102
}
102
{ACAD_XDICTIONARY
360
8E
102
}
330
2A
100
AcDbVisualStyle
  2
Thicken
 70
    13
 71
     2
 72
     2
 73
     0
 90
        0
 40
-0.6
 41
-30.0
 62
     5
 63
     7
421
 16777215
 74
     1
 91
        4
 64
     7
 65
   257
 75
     1
175
     1
 42
1.0
 92
       12
 66
     7
 43
1.0
 76
     1
 77
     6
 78
     2
 67
     7
 79
     5
170
     0
171
     0
290
     0
174
     0
 93
        1
 44
0.0
173
     0
291
     1
 45
0.0
  0
DICTIONARY
  5
7E
330
2F
100
AcDbDictionary
280
     1
281
     1
  3
ACAD_XREC_ROUNDTRIP
360
7F
  0
DICTIONARY
  5
82
330
31
100
AcDbDictionary
280
     1
281
     1
  3
ACAD_XREC_ROUNDTRIP
360
83
  0
DICTIONARY
  5
80
330
30
100
AcDbDictionary
280
     1
281
     1
  3
ACAD_XREC_ROUNDTRIP
360
81
  0
DICTIONARY
  5
84
330
32
100
AcDbDictionary
280
     1
281
     1
  3
ACAD_XREC_ROUNDTRIP
360
85
  0
DICTIONARY
  5
8C
330
36
100
AcDbDictionary
280
     1
281
     1
  3
ACAD_XREC_ROUNDTRIP
360
8D
  0
DICTIONARY
  5
94
330
3A
100
AcDbDictionary
280
     1
281
     1
  3
ACAD_XREC_ROUNDTRIP
360
95
  0
DICTIONARY
  5
88
330
34
100
AcDbDictionary
280
     1
281
     1
  3
ACAD_XREC_ROUNDTRIP
360
89
  0
DICTIONARY
  5
8A
330
35
100
AcDbDictionary
280
     1
281
     1
  3
ACAD_XREC_ROUNDTRIP
360
8B
  0
DICTIONARY
  5
92
330
39
100
AcDbDictionary
280
     1
281
     1
  3
ACAD_XREC_ROUNDTRIP
360
93
  0
DICTIONARY
  5
76
330
2B
100
AcDbDictionary
280
     1
281
     1
  3
ACAD_XREC_ROUNDTRIP
360
77
  0
DICTIONARY
  5
78
330
2C
100
AcDbDictionary
280
     1
281
     1
  3
ACAD_XREC_ROUNDTRIP
360
79
  0
DICTIONARY
  5
7A
330
2D
100
AcDbDictionary
280
     1
281
     1
  3
ACAD_XREC_ROUNDTRIP
360
7B
  0
DICTIONARY
  5
7C
330
2E
100
AcDbDictionary
280
     1
281
     1
  3
ACAD_XREC_ROUNDTRIP
360
7D
  0
DICTIONARY
  5
90
330
38
100
AcDbDictionary
280
     1
281
     1
  3
ACAD_XREC_ROUNDTRIP
360
91
  0
DICTIONARY
  5
86
330
33
100
AcDbDictionary
280
     1
281
     1
  3
ACAD_XREC_ROUNDTRIP
360
87
  0
DICTIONARY
  5
8E
330
37
100
AcDbDictionary
280
     1
281
     1
  3
ACAD_XREC_ROUNDTRIP
360
8F
  0
XRECORD
  5
7F
102
{ACAD_REACTORS
330
7E
102
}
330
7E
100
AcDbXrecord
280
     1
102
RTVSPropertyOp0
 70
     1
102
RTVSPropertyOp1
 70
     1
102
RTVSPropertyOp2
 70
     1
102
RTVSPropertyOp3
 70
     1
102
RTVSPropertyOp4
 70
     1
102
RTVSPropertyOp5
 70
     1
102
RTVSPropertyOp6
 70
     1
102
RTVSPropertyOp7
 70
     1
102
RTVSPropertyOp8
 70
     1
102
RTVSPropertyOp9
 70
     1
102
RTVSPropertyOp10
 70
     1
102
RTVSPropertyOp11
 70
     1
102
RTVSPropertyOp12
 70
     1
102
RTVSPropertyOp13
 70
     1
102
RTVSPropertyOp14
 70
     1
102
RTVSPropertyOp15
 70
     1
102
RTVSPropertyOp16
 70
     1
102
RTVSPropertyOp17
 70
     1
102
RTVSPropertyOp18
 70
     1
102
RTVSPropertyOp19
 70
     1
102
RTVSPropertyOp20
 70
     1
102
RTVSPropertyOp21
 70
     1
102
RTVSPropertyOp22
 70
     1
102
RTVSPropertyOp23
 70
     1
102
RTVSPropertyOp24
 70
     1
102
RTVSPropertyOp25
 70
     1
102
RTVSPropertyOp26
 70
     1
102
RTVSPropertyOp27
 70
     1
102
RTVSPropertyOp28
 70
     1
102
RTVSPropertyOp29
 70
     1
102
RTVSPropertyOp30
 70
     1
102
RTVSPropertyOp31
 70
     1
102
RTVSPropertyOp32
 70
     1
  0
XRECORD
  5
83
102
{ACAD_REACTORS
330
82
102
}
330
82
100
AcDbXrecord
280
     1
102
RTVSPropertyOp0
 70
     1
102
RTVSPropertyOp1
 70
     1
102
RTVSPropertyOp2
 70
     1
102
RTVSPropertyOp3
 70
     1
102
RTVSPropertyOp4
 70
     1
102
RTVSPropertyOp5
 70
     1
102
RTVSPropertyOp6
 70
     1
102
RTVSPropertyOp7
 70
     1
102
RTVSPropertyOp8
 70
     1
102
RTVSPropertyOp9
 70
     1
102
RTVSPropertyOp10
 70
     1
102
RTVSPropertyOp11
 70
     1
102
RTVSPropertyOp12
 70
     1
102
RTVSPropertyOp13
 70
     1
102
RTVSPropertyOp14
 70
     1
102
RTVSPropertyOp15
 70
     1
102
RTVSPropertyOp16
 70
     1
102
RTVSPropertyOp17
 70
     1
102
RTVSPropertyOp18
 70
     1
102
RTVSPropertyOp19
 70
     1
102
RTVSPropertyOp20
 70
     1
102
RTVSPropertyOp21
 70
     1
102
RTVSPropertyOp22
 70
     1
102
RTVSPropertyOp23
 70
     1
102
RTVSPropertyOp24
 70
     1
102
RTVSPropertyOp25
 70
     1
102
RTVSPropertyOp26
 70
     1
102
RTVSPropertyOp27
 70
     1
102
RTVSPropertyOp28
 70
     1
102
RTVSPropertyOp29
 70
     1
102
RTVSPropertyOp30
 70
     1
102
RTVSPropertyOp31
 70
     1
102
RTVSPropertyOp32
 70
     1
  0
XRECORD
  5
81
102
{ACAD_REACTORS
330
80
102
}
330
80
100
AcDbXrecord
280
     1
102
RTVSPropertyOp0
 70
     1
102
RTVSPropertyOp1
 70
     1
102
RTVSPropertyOp2
 70
     1
102
RTVSPropertyOp3
 70
     1
102
RTVSPropertyOp4
 70
     1
102
RTVSPropertyOp5
 70
     1
102
RTVSPropertyOp6
 70
     1
102
RTVSPropertyOp7
 70
     1
102
RTVSPropertyOp8
 70
     1
102
RTVSPropertyOp9
 70
     1
102
RTVSPropertyOp10
 70
     1
102
RTVSPropertyOp11
 70
     1
102
RTVSPropertyOp12
 70
     1
102
RTVSPropertyOp13
 70
     1
102
RTVSPropertyOp14
 70
     1
102
RTVSPropertyOp15
 70
     1
102
RTVSPropertyOp16
 70
     1
102
RTVSPropertyOp17
 70
     1
102
RTVSPropertyOp18
 70
     1
102
RTVSPropertyOp19
 70
     1
102
RTVSPropertyOp20
 70
     1
102
RTVSPropertyOp21
 70
     1
102
RTVSPropertyOp22
 70
     1
102
RTVSPropertyOp23
 70
     1
102
RTVSPropertyOp24
 70
     1
102
RTVSPropertyOp25
 70
     1
102
RTVSPropertyOp26
 70
     1
102
RTVSPropertyOp27
 70
     1
102
RTVSPropertyOp28
 70
     1
102
RTVSPropertyOp29
 70
     1
102
RTVSPropertyOp30
 70
     1
102
RTVSPropertyOp31
 70
     1
102
RTVSPropertyOp32
 70
     1
  0
XRECORD
  5
85
102
{ACAD_REACTORS
330
84
102
}
330
84
100
AcDbXrecord
280
     1
102
RTVSPropertyOp0
 70
     1
102
RTVSPropertyOp1
 70
     1
102
RTVSPropertyOp2
 70
     1
102
RTVSPropertyOp3
 70
     1
102
RTVSPropertyOp4
 70
     1
102
RTVSPropertyOp5
 70
     1
102
RTVSPropertyOp6
 70
     1
102
RTVSPropertyOp7
 70
     1
102
RTVSPropertyOp8
 70
     1
102
RTVSPropertyOp9
 70
     1
102
RTVSPropertyOp10
 70
     1
102
RTVSPropertyOp11
 70
     1
102
RTVSPropertyOp12
 70
     1
102
RTVSPropertyOp13
 70
     1
102
RTVSPropertyOp14
 70
     1
102
RTVSPropertyOp15
 70
     1
102
RTVSPropertyOp16
 70
     1
102
RTVSPropertyOp17
 70
     1
102
RTVSPropertyOp18
 70
     1
102
RTVSPropertyOp19
 70
     1
102
RTVSPropertyOp20
 70
     1
102
RTVSPropertyOp21
 70
     1
102
RTVSPropertyOp22
 70
     1
102
RTVSPropertyOp23
 70
     1
102
RTVSPropertyOp24
 70
     1
102
RTVSPropertyOp25
 70
     1
102
RTVSPropertyOp26
 70
     1
102
RTVSPropertyOp27
 70
     1
102
RTVSPropertyOp28
 70
     1
102
RTVSPropertyOp29
 70
     1
102
RTVSPropertyOp30
 70
     1
102
RTVSPropertyOp31
 70
     1
102
RTVSPropertyOp32
 70
     1
  0
XRECORD
  5
8D
102
{ACAD_REACTORS
330
8C
102
}
330
8C
100
AcDbXrecord
280
     1
102
RTVSPropertyOp0
 70
     1
102
RTVSPropertyOp1
 70
     1
102
RTVSPropertyOp2
 70
     1
102
RTVSPropertyOp3
 70
     1
102
RTVSPropertyOp4
 70
     1
102
RTVSPropertyOp5
 70
     1
102
RTVSPropertyOp6
 70
     1
102
RTVSPropertyOp7
 70
     1
102
RTVSPropertyOp8
 70
     1
102
RTVSPropertyOp9
 70
     1
102
RTVSPropertyOp10
 70
     1
102
RTVSPropertyOp11
 70
     1
102
RTVSPropertyOp12
 70
     1
102
RTVSPropertyOp13
 70
     1
102
RTVSPropertyOp14
 70
     1
102
RTVSPropertyOp15
 70
     1
102
RTVSPropertyOp16
 70
     1
102
RTVSPropertyOp17
 70
     1
102
RTVSPropertyOp18
 70
     1
102
RTVSPropertyOp19
 70
     1
102
RTVSPropertyOp20
 70
     1
102
RTVSPropertyOp21
 70
     1
102
RTVSPropertyOp22
 70
     1
102
RTVSPropertyOp23
 70
     1
102
RTVSPropertyOp24
 70
     1
102
RTVSPropertyOp25
 70
     1
102
RTVSPropertyOp26
 70
     1
102
RTVSPropertyOp27
 70
     1
102
RTVSPropertyOp28
 70
     1
102
RTVSPropertyOp29
 70
     1
102
RTVSPropertyOp30
 70
     1
102
RTVSPropertyOp31
 70
     1
102
RTVSPropertyOp32
 70
     1
  0
XRECORD
  5
95
102
{ACAD_REACTORS
330
94
102
}
330
94
100
AcDbXrecord
280
     1
102
RTVSPropertyOp0
 70
     1
102
RTVSPropertyOp1
 70
     1
102
RTVSPropertyOp2
 70
     1
102
RTVSPropertyOp3
 70
     1
102
RTVSPropertyOp4
 70
     1
102
RTVSPropertyOp5
 70
     1
102
RTVSPropertyOp6
 70
     1
102
RTVSPropertyOp7
 70
     1
102
RTVSPropertyOp8
 70
     1
102
RTVSPropertyOp9
 70
     1
102
RTVSPropertyOp10
 70
     1
102
RTVSPropertyOp11
 70
     1
102
RTVSPropertyOp12
 70
     1
102
RTVSPropertyOp13
 70
     1
102
RTVSPropertyOp14
 70
     1
102
RTVSPropertyOp15
 70
     1
102
RTVSPropertyOp16
 70
     1
102
RTVSPropertyOp17
 70
     1
102
RTVSPropertyOp18
 70
     1
102
RTVSPropertyOp19
 70
     1
102
RTVSPropertyOp20
 70
     1
102
RTVSPropertyOp21
 70
     1
102
RTVSPropertyOp22
 70
     1
102
RTVSPropertyOp23
 70
     1
102
RTVSPropertyOp24
 70
     1
102
RTVSPropertyOp25
 70
     1
102
RTVSPropertyOp26
 70
     1
102
RTVSPropertyOp27
 70
     1
102
RTVSPropertyOp28
 70
     1
102
RTVSPropertyOp29
 70
     1
102
RTVSPropertyOp30
 70
     1
102
RTVSPropertyOp31
 70
     1
102
RTVSPropertyOp32
 70
     1
  0
XRECORD
  5
89
102
{ACAD_REACTORS
330
88
102
}
330
88
100
AcDbXrecord
280
     1
102
RTVSPropertyOp0
 70
     1
102
RTVSPropertyOp1
 70
     1
102
RTVSPropertyOp2
 70
     1
102
RTVSPropertyOp3
 70
     1
102
RTVSPropertyOp4
 70
     1
102
RTVSPropertyOp5
 70
     1
102
RTVSPropertyOp6
 70
     1
102
RTVSPropertyOp7
 70
     1
102
RTVSPropertyOp8
 70
     1
102
RTVSPropertyOp9
 70
     1
102
RTVSPropertyOp10
 70
     1
102
RTVSPropertyOp11
 70
     1
102
RTVSPropertyOp12
 70
     1
102
RTVSPropertyOp13
 70
     1
102
RTVSPropertyOp14
 70
     1
102
RTVSPropertyOp15
 70
     1
102
RTVSPropertyOp16
 70
     1
102
RTVSPropertyOp17
 70
     1
102
RTVSPropertyOp18
 70
     1
102
RTVSPropertyOp19
 70
     1
102
RTVSPropertyOp20
 70
     1
102
RTVSPropertyOp21
 70
     1
102
RTVSPropertyOp22
 70
     1
102
RTVSPropertyOp23
 70
     1
102
RTVSPropertyOp24
 70
     1
102
RTVSPropertyOp25
 70
     1
102
RTVSPropertyOp26
 70
     1
102
RTVSPropertyOp27
 70
     1
102
RTVSPropertyOp28
 70
     1
102
RTVSPropertyOp29
 70
     1
102
RTVSPropertyOp30
 70
     1
102
RTVSPropertyOp31
 70
     1
102
RTVSPropertyOp32
 70
     1
  0
XRECORD
  5
8B
102
{ACAD_REACTORS
330
8A
102
}
330
8A
100
AcDbXrecord
280
     1
102
RTVSPropertyOp0
 70
     1
102
RTVSPropertyOp1
 70
     1
102
RTVSPropertyOp2
 70
     1
102
RTVSPropertyOp3
 70
     1
102
RTVSPropertyOp4
 70
     1
102
RTVSPropertyOp5
 70
     1
102
RTVSPropertyOp6
 70
     1
102
RTVSPropertyOp7
 70
     1
102
RTVSPropertyOp8
 70
     1
102
RTVSPropertyOp9
 70
     1
102
RTVSPropertyOp10
 70
     1
102
RTVSPropertyOp11
 70
     1
102
RTVSPropertyOp12
 70
     1
102
RTVSPropertyOp13
 70
     1
102
RTVSPropertyOp14
 70
     1
102
RTVSPropertyOp15
 70
     1
102
RTVSPropertyOp16
 70
     1
102
RTVSPropertyOp17
 70
     1
102
RTVSPropertyOp18
 70
     1
102
RTVSPropertyOp19
 70
     1
102
RTVSPropertyOp20
 70
     1
102
RTVSPropertyOp21
 70
     1
102
RTVSPropertyOp22
 70
     1
102
RTVSPropertyOp23
 70
     1
102
RTVSPropertyOp24
 70
     1
102
RTVSPropertyOp25
 70
     1
102
RTVSPropertyOp26
 70
     1
102
RTVSPropertyOp27
 70
     1
102
RTVSPropertyOp28
 70
     1
102
RTVSPropertyOp29
 70
     1
102
RTVSPropertyOp30
 70
     1
102
RTVSPropertyOp31
 70
     1
102
RTVSPropertyOp32
 70
     1
  0
XRECORD
  5
93
102
{ACAD_REACTORS
330
92
102
}
330
92
100
AcDbXrecord
280
     1
102
RTVSPropertyOp0
 70
     1
102
RTVSPropertyOp1
 70
     1
102
RTVSPropertyOp2
 70
     1
102
RTVSPropertyOp3
 70
     1
102
RTVSPropertyOp4
 70
     1
102
RTVSPropertyOp5
 70
     1
102
RTVSPropertyOp6
 70
     1
102
RTVSPropertyOp7
 70
     1
102
RTVSPropertyOp8
 70
     1
102
RTVSPropertyOp9
 70
     1
102
RTVSPropertyOp10
 70
     1
102
RTVSPropertyOp11
 70
     1
102
RTVSPropertyOp12
 70
     1
102
RTVSPropertyOp13
 70
     1
102
RTVSPropertyOp14
 70
     1
102
RTVSPropertyOp15
 70
     1
102
RTVSPropertyOp16
 70
     1
102
RTVSPropertyOp17
 70
     1
102
RTVSPropertyOp18
 70
     1
102
RTVSPropertyOp19
 70
     1
102
RTVSPropertyOp20
 70
     1
102
RTVSPropertyOp21
 70
     1
102
RTVSPropertyOp22
 70
     1
102
RTVSPropertyOp23
 70
     1
102
RTVSPropertyOp24
 70
     1
102
RTVSPropertyOp25
 70
     1
102
RTVSPropertyOp26
 70
     1
102
RTVSPropertyOp27
 70
     1
102
RTVSPropertyOp28
 70
     1
102
RTVSPropertyOp29
 70
     1
102
RTVSPropertyOp30
 70
     1
102
RTVSPropertyOp31
 70
     1
102
RTVSPropertyOp32
 70
     1
  0
XRECORD
  5
77
102
{ACAD_REACTORS
330
76
102
}
330
76
100
AcDbXrecord
280
     1
102
RTVSPropertyOp0
 70
     1
102
RTVSPropertyOp1
 70
     1
102
RTVSPropertyOp2
 70
     1
102
RTVSPropertyOp3
 70
     1
102
RTVSPropertyOp4
 70
     1
102
RTVSPropertyOp5
 70
     1
102
RTVSPropertyOp6
 70
     1
102
RTVSPropertyOp7
 70
     1
102
RTVSPropertyOp8
 70
     1
102
RTVSPropertyOp9
 70
     1
102
RTVSPropertyOp10
 70
     1
102
RTVSPropertyOp11
 70
     1
102
RTVSPropertyOp12
 70
     1
102
RTVSPropertyOp13
 70
     1
102
RTVSPropertyOp14
 70
     1
102
RTVSPropertyOp15
 70
     1
102
RTVSPropertyOp16
 70
     1
102
RTVSPropertyOp17
 70
     1
102
RTVSPropertyOp18
 70
     1
102
RTVSPropertyOp19
 70
     1
102
RTVSPropertyOp20
 70
     1
102
RTVSPropertyOp21
 70
     1
102
RTVSPropertyOp22
 70
     1
102
RTVSPropertyOp23
 70
     1
102
RTVSPropertyOp24
 70
     1
102
RTVSPropertyOp25
 70
     1
102
RTVSPropertyOp26
 70
     1
102
RTVSPropertyOp27
 70
     1
102
RTVSPropertyOp28
 70
     1
102
RTVSPropertyOp29
 70
     1
102
RTVSPropertyOp30
 70
     1
102
RTVSPropertyOp31
 70
     1
102
RTVSPropertyOp32
 70
     1
  0
XRECORD
  5
79
102
{ACAD_REACTORS
330
78
102
}
330
78
100
AcDbXrecord
280
     1
102
RTVSPropertyOp0
 70
     1
102
RTVSPropertyOp1
 70
     1
102
RTVSPropertyOp2
 70
     1
102
RTVSPropertyOp3
 70
     1
102
RTVSPropertyOp4
 70
     1
102
RTVSPropertyOp5
 70
     1
102
RTVSPropertyOp6
 70
     1
102
RTVSPropertyOp7
 70
     1
102
RTVSPropertyOp8
 70
     1
102
RTVSPropertyOp9
 70
     1
102
RTVSPropertyOp10
 70
     1
102
RTVSPropertyOp11
 70
     1
102
RTVSPropertyOp12
 70
     1
102
RTVSPropertyOp13
 70
     1
102
RTVSPropertyOp14
 70
     1
102
RTVSPropertyOp15
 70
     1
102
RTVSPropertyOp16
 70
     1
102
RTVSPropertyOp17
 70
     1
102
RTVSPropertyOp18
 70
     1
102
RTVSPropertyOp19
 70
     1
102
RTVSPropertyOp20
 70
     1
102
RTVSPropertyOp21
 70
     1
102
RTVSPropertyOp22
 70
     1
102
RTVSPropertyOp23
 70
     1
102
RTVSPropertyOp24
 70
     1
102
RTVSPropertyOp25
 70
     1
102
RTVSPropertyOp26
 70
     1
102
RTVSPropertyOp27
 70
     1
102
RTVSPropertyOp28
 70
     1
102
RTVSPropertyOp29
 70
     1
102
RTVSPropertyOp30
 70
     1
102
RTVSPropertyOp31
 70
     1
102
RTVSPropertyOp32
 70
     1
  0
XRECORD
  5
7B
102
{ACAD_REACTORS
330
7A
102
}
330
7A
100
AcDbXrecord
280
     1
102
RTVSPropertyOp0
 70
     1
102
RTVSPropertyOp1
 70
     1
102
RTVSPropertyOp2
 70
     1
102
RTVSPropertyOp3
 70
     1
102
RTVSPropertyOp4
 70
     1
102
RTVSPropertyOp5
 70
     1
102
RTVSPropertyOp6
 70
     1
102
RTVSPropertyOp7
 70
     1
102
RTVSPropertyOp8
 70
     1
102
RTVSPropertyOp9
 70
     1
102
RTVSPropertyOp10
 70
     1
102
RTVSPropertyOp11
 70
     1
102
RTVSPropertyOp12
 70
     1
102
RTVSPropertyOp13
 70
     1
102
RTVSPropertyOp14
 70
     1
102
RTVSPropertyOp15
 70
     1
102
RTVSPropertyOp16
 70
     1
102
RTVSPropertyOp17
 70
     1
102
RTVSPropertyOp18
 70
     1
102
RTVSPropertyOp19
 70
     1
102
RTVSPropertyOp20
 70
     1
102
RTVSPropertyOp21
 70
     1
102
RTVSPropertyOp22
 70
     1
102
RTVSPropertyOp23
 70
     1
102
RTVSPropertyOp24
 70
     1
102
RTVSPropertyOp25
 70
     1
102
RTVSPropertyOp26
 70
     1
102
RTVSPropertyOp27
 70
     1
102
RTVSPropertyOp28
 70
     1
102
RTVSPropertyOp29
 70
     1
102
RTVSPropertyOp30
 70
     1
102
RTVSPropertyOp31
 70
     1
102
RTVSPropertyOp32
 70
     1
  0
XRECORD
  5
7D
102
{ACAD_REACTORS
330
7C
102
}
330
7C
100
AcDbXrecord
280
     1
102
RTVSPropertyOp0
 70
     1
102
RTVSPropertyOp1
 70
     1
102
RTVSPropertyOp2
 70
     1
102
RTVSPropertyOp3
 70
     1
102
RTVSPropertyOp4
 70
     1
102
RTVSPropertyOp5
 70
     1
102
RTVSPropertyOp6
 70
     1
102
RTVSPropertyOp7
 70
     1
102
RTVSPropertyOp8
 70
     1
102
RTVSPropertyOp9
 70
     1
102
RTVSPropertyOp10
 70
     1
102
RTVSPropertyOp11
 70
     1
102
RTVSPropertyOp12
 70
     1
102
RTVSPropertyOp13
 70
     1
102
RTVSPropertyOp14
 70
     1
102
RTVSPropertyOp15
 70
     1
102
RTVSPropertyOp16
 70
     1
102
RTVSPropertyOp17
 70
     1
102
RTVSPropertyOp18
 70
     1
102
RTVSPropertyOp19
 70
     1
102
RTVSPropertyOp20
 70
     1
102
RTVSPropertyOp21
 70
     1
102
RTVSPropertyOp22
 70
     1
102
RTVSPropertyOp23
 70
     1
102
RTVSPropertyOp24
 70
     1
102
RTVSPropertyOp25
 70
     1
102
RTVSPropertyOp26
 70
     1
102
RTVSPropertyOp27
 70
     1
102
RTVSPropertyOp28
 70
     1
102
RTVSPropertyOp29
 70
     1
102
RTVSPropertyOp30
 70
     1
102
RTVSPropertyOp31
 70
     1
102
RTVSPropertyOp32
 70
     1
  0
XRECORD
  5
91
102
{ACAD_REACTORS
330
90
102
}
330
90
100
AcDbXrecord
280
     1
102
RTVSPropertyOp0
 70
     1
102
RTVSPropertyOp1
 70
     1
102
RTVSPropertyOp2
 70
     1
102
RTVSPropertyOp3
 70
     1
102
RTVSPropertyOp4
 70
     1
102
RTVSPropertyOp5
 70
     1
102
RTVSPropertyOp6
 70
     1
102
RTVSPropertyOp7
 70
     1
102
RTVSPropertyOp8
 70
     1
102
RTVSPropertyOp9
 70
     1
102
RTVSPropertyOp10
 70
     1
102
RTVSPropertyOp11
 70
     1
102
RTVSPropertyOp12
 70
     1
102
RTVSPropertyOp13
 70
     1
102
RTVSPropertyOp14
 70
     1
102
RTVSPropertyOp15
 70
     1
102
RTVSPropertyOp16
 70
     1
102
RTVSPropertyOp17
 70
     1
102
RTVSPropertyOp18
 70
     1
102
RTVSPropertyOp19
 70
     1
102
RTVSPropertyOp20
 70
     1
102
RTVSPropertyOp21
 70
     1
102
RTVSPropertyOp22
 70
     1
102
RTVSPropertyOp23
 70
     1
102
RTVSPropertyOp24
 70
     1
102
RTVSPropertyOp25
 70
     1
102
RTVSPropertyOp26
 70
     1
102
RTVSPropertyOp27
 70
     1
102
RTVSPropertyOp28
 70
     1
102
RTVSPropertyOp29
 70
     1
102
RTVSPropertyOp30
 70
     1
102
RTVSPropertyOp31
 70
     1
102
RTVSPropertyOp32
 70
     1
  0
XRECORD
  5
87
102
{ACAD_REACTORS
330
86
102
}
330
86
100
AcDbXrecord
280
     1
102
RTVSPropertyOp0
 70
     1
102
RTVSPropertyOp1
 70
     1
102
RTVSPropertyOp2
 70
     1
102
RTVSPropertyOp3
 70
     1
102
RTVSPropertyOp4
 70
     1
102
RTVSPropertyOp5
 70
     1
102
RTVSPropertyOp6
 70
     1
102
RTVSPropertyOp7
 70
     1
102
RTVSPropertyOp8
 70
     1
102
RTVSPropertyOp9
 70
     1
102
RTVSPropertyOp10
 70
     1
102
RTVSPropertyOp11
 70
     1
102
RTVSPropertyOp12
 70
     1
102
RTVSPropertyOp13
 70
     1
102
RTVSPropertyOp14
 70
     1
102
RTVSPropertyOp15
 70
     1
102
RTVSPropertyOp16
 70
     1
102
RTVSPropertyOp17
 70
     1
102
RTVSPropertyOp18
 70
     1
102
RTVSPropertyOp19
 70
     1
102
RTVSPropertyOp20
 70
     1
102
RTVSPropertyOp21
 70
     1
102
RTVSPropertyOp22
 70
     1
102
RTVSPropertyOp23
 70
     1
102
RTVSPropertyOp24
 70
     1
102
RTVSPropertyOp25
 70
     1
102
RTVSPropertyOp26
 70
     1
102
RTVSPropertyOp27
 70
     1
102
RTVSPropertyOp28
 70
     1
102
RTVSPropertyOp29
 70
     1
102
RTVSPropertyOp30
 70
     1
102
RTVSPropertyOp31
 70
     1
102
RTVSPropertyOp32
 70
     1
  0
XRECORD
  5
8F
102
{ACAD_REACTORS
330
8E
102
}
330
8E
100
AcDbXrecord
280
     1
102
RTVSPropertyOp0
 70
     1
102
RTVSPropertyOp1
 70
     1
102
RTVSPropertyOp2
 70
     1
102
RTVSPropertyOp3
 70
     1
102
RTVSPropertyOp4
 70
     1
102
RTVSPropertyOp5
 70
     1
102
RTVSPropertyOp6
 70
     1
102
RTVSPropertyOp7
 70
     1
102
RTVSPropertyOp8
 70
     1
102
RTVSPropertyOp9
 70
     1
102
RTVSPropertyOp10
 70
     1
102
RTVSPropertyOp11
 70
     1
102
RTVSPropertyOp12
 70
     1
102
RTVSPropertyOp13
 70
     1
102
RTVSPropertyOp14
 70
     1
102
RTVSPropertyOp15
 70
     1
102
RTVSPropertyOp16
 70
     1
102
RTVSPropertyOp17
 70
     1
102
RTVSPropertyOp18
 70
     1
102
RTVSPropertyOp19
 70
     1
102
RTVSPropertyOp20
 70
     1
102
RTVSPropertyOp21
 70
     1
102
RTVSPropertyOp22
 70
     1
102
RTVSPropertyOp23
 70
     1
102
RTVSPropertyOp24
 70
     1
102
RTVSPropertyOp25
 70
     1
102
RTVSPropertyOp26
 70
     1
102
RTVSPropertyOp27
 70
     1
102
RTVSPropertyOp28
 70
     1
102
RTVSPropertyOp29
 70
     1
102
RTVSPropertyOp30
 70
     1
102
RTVSPropertyOp31
 70
     1
102
RTVSPropertyOp32
 70
     1
  0
ENDSEC
  0
EOF
