<?xml version="1.0" encoding="UTF-8"?>
<!DOCTYPE svg PUBLIC "-//W3C//DTD SVG 1.1//EN" "http://www.w3.org/Graphics/SVG/1.1/DTD/svg11.dtd">
<!-- Creator: CorelDRAW X6 -->
<svg xmlns="http://www.w3.org/2000/svg" xml:space="preserve" width="150mm" height="150mm" version="1.1" style="shape-rendering:geometricPrecision; text-rendering:geometricPrecision; image-rendering:optimizeQuality; fill-rule:evenodd; clip-rule:evenodd"
viewBox="0 0 15000 15000"
 xmlns:xlink="http://www.w3.org/1999/xlink">
 <defs>
  <style type="text/css">
   <![CDATA[
    .str1 {stroke:black;stroke-width:52.92;stroke-linecap:round;stroke-linejoin:round}
    .str2 {stroke:lime;stroke-width:52.92;stroke-linecap:round;stroke-linejoin:round}
    .str0 {stroke:red;stroke-width:52.92;stroke-linecap:round;stroke-linejoin:round}
    .fil0 {fill:none}
   ]]>
  </style>
 </defs>
 <g id="Layer_x0020_1">
  <metadata id="CorelCorpID_0Corel-Layer"/>
  <g id="_968687440">
   <path class="fil0 str0" d="M600 13900l0 -12800c0,-276 224,-500 500,-500l12800 0c276,0 500,224 500,500l0 12800c0,276 -224,500 -500,500l-12800 0c-276,0 -500,-224 -500,-500z"/>
   <path class="fil0 str1" d="M5634 13189c103,-203 313,-343 557,-343 330,0 600,256 622,581 -92,-9 -183,-20 -274,-34 -35,-160 -177,-280 -348,-280 -120,0 -227,60 -291,151 -89,-23 -178,-48 -266,-76z"/>
   <path class="fil0 str1" d="M3595 12080c173,-149 421,-197 645,-104 305,126 456,467 352,775 -82,-44 -162,-89 -240,-136 29,-161 -57,-326 -214,-392 -111,-46 -232,-32 -327,28 -74,-56 -146,-113 -217,-172z"/>
   <path class="fil0 str1" d="M2135 10275c216,-71 464,-21 636,151 233,233 243,606 29,851 -59,-71 -115,-144 -170,-218 89,-138 73,-323 -48,-444 -85,-85 -202,-118 -313,-99 -47,-80 -92,-160 -134,-241z"/>
   <path class="fil0 str1" d="M2007 8432c126,305 -7,653 -299,797 -27,-88 -51,-177 -74,-266 135,-93 191,-271 126,-428 -46,-111 -142,-186 -251,-211 -13,-91 -23,-183 -32,-274 227,17 437,158 530,383z"/>
   <path class="fil0 str1" d="M1722 5740c203,103 343,313 343,557 0,330 -256,600 -581,622 9,-92 20,-183 34,-274 160,-35 280,-177 280,-348 0,-120 -60,-227 -151,-291 23,-89 48,-178 76,-266z"/>
   <path class="fil0 str1" d="M2831 3701c149,173 197,421 104,645 -126,305 -467,456 -775,352 44,-82 89,-162 136,-240 161,29 326,-57 392,-214 46,-111 32,-232 -28,-327 56,-74 113,-146 172,-217z"/>
   <path class="fil0 str1" d="M6283 6515c-88,98 -165,209 -226,332l-1275 -528c135,-297 314,-561 528,-786l973 983z"/>
   <path class="fil0 str1" d="M4636 2242c71,216 21,464 -151,636 -233,233 -606,243 -851,29 71,-59 144,-115 218,-170 138,89 323,73 444,-48 85,-85 118,-202 99,-313 80,-47 160,-92 241,-134z"/>
   <path class="fil0 str1" d="M6748 6162c-119,57 -232,130 -336,220l-976 -976c238,-223 505,-398 788,-525l523 1280z"/>
   <path class="fil0 str1" d="M6479 2114c-305,126 -653,-7 -797,-299 88,-27 177,-51 266,-74 93,135 271,191 428,126 111,-46 186,-142 211,-251 91,-13 183,-23 274,-32 -17,227 -158,437 -383,530z"/>
   <path class="fil0 str1" d="M4761 10462c215,89 452,49 623,-85 24,17 48,33 72,49 17,11 34,22 51,34 -81,253 8,525 212,683l-744 1796c-53,-24 -106,-48 -159,-74 169,-440 -43,-937 -481,-1119 -326,-135 -688,-58 -930,169 -39,-35 -78,-71 -116,-108l1388 -1388c26,16 54,30 84,42z"/>
   <path class="fil0 str1" d="M6408 8628c98,88 209,165 332,226l-528 1275c-297,-135 -561,-314 -786,-528l983 -973z"/>
   <path class="fil0 str1" d="M3832 9226c165,165 399,218 609,160 16,24 31,49 47,73 11,17 23,34 35,51 -171,201 -193,485 -68,708l-1376 1376c-39,-42 -78,-84 -116,-126 325,-342 319,-882 -16,-1217 -250,-250 -614,-316 -924,-200 -23,-49 -45,-98 -67,-147l1812 -751c19,26 40,51 63,74z"/>
   <path class="fil0 str1" d="M6056 8162c57,119 130,232 220,336l-976 976c-223,-238 -398,-505 -525,-788l1280 -523z"/>
   <path class="fil0 str1" d="M3415 7635c8,32 18,64 31,95 89,215 285,354 501,380 5,28 10,57 16,85 4,20 8,40 13,60 -234,120 -363,372 -334,625l-1798 745c-20,-52 -39,-105 -58,-158 431,-192 633,-693 451,-1131 -135,-326 -446,-527 -777,-538 -3,-55 -5,-109 -6,-164l1961 0z"/>
   <path class="fil0 str1" d="M3671 6098c-5,33 -8,66 -8,100 0,233 128,436 318,543 -6,28 -12,57 -18,85 -4,20 -8,40 -11,60 -261,21 -477,204 -547,447l-1947 0c2,-55 4,-110 7,-165 471,-12 850,-398 850,-872 0,-353 -210,-658 -512,-795 19,-52 38,-103 58,-154l1812 750z"/>
   <path class="fil0 str1" d="M5008 2063l751 1812c-26,19 -51,40 -75,64 -165,165 -218,399 -160,609 -24,16 -49,31 -73,47 -17,11 -34,23 -51,35 -200,-169 -480,-193 -703,-71l-1377 -1377c40,-38 81,-75 122,-112 342,325 882,319 1217,-16 250,-250 316,-614 200,-924 49,-23 98,-46 148,-67z"/>
   <path class="fil0 str1" d="M3776 5817l-1799 -745c23,-50 46,-100 69,-149 440,169 937,-43 1119,-481 135,-326 58,-688 -169,-930 37,-41 74,-81 112,-120l1387 1387c-17,28 -33,58 -46,89 -89,215 -49,452 85,623 -17,24 -33,48 -49,72 -11,17 -22,34 -34,51 -249,-80 -517,5 -676,203z"/>
   <path class="fil0 str1" d="M7021 11401l0 1801c-113,-351 -442,-606 -831,-606 -353,0 -658,210 -795,512 -48,-17 -96,-35 -144,-54l751 -1814c29,4 59,6 90,6 233,0 436,-128 543,-318 28,6 57,12 85,18 20,4 40,8 60,11 15,180 106,338 241,442z"/>
   <path class="fil0 str1" d="M7021 8957l0 1404c-224,-30 -440,-85 -645,-163l536 -1275c36,13 72,24 109,34z"/>
   <path class="fil0 str1" d="M7021 4656l0 1404c-34,9 -68,19 -102,30l-528 -1275c208,-78 419,-130 630,-159z"/>
   <path class="fil0 str1" d="M7021 1927l0 1722c-124,103 -202,249 -221,405 -28,5 -57,10 -85,16 -20,4 -40,8 -60,13 -120,-233 -371,-363 -624,-334l-745 -1798c52,-20 104,-39 157,-57 192,431 693,633 1131,451 203,-84 357,-235 447,-417z"/>
   <path class="fil0 str2" d="M7268 7350c0,-1930 0,-4456 0,-6099"/>
   <path class="fil0 str1" d="M7268 7650l-1357 0c10,114 33,229 71,342l-1275 528c-108,-286 -166,-579 -181,-870l-327 0 0 -300 329 0c17,-304 80,-595 184,-866l1275 536c-37,105 -63,216 -76,331l1357 0"/>
   <line class="fil0 str2" x1="7268" y1="13749" x2="7268" y2= "7650" />
   <path class="fil0 str1" d="M7268 1250c-357,8 -719,47 -1081,119 -3385,673 -5584,3964 -4911,7349 583,2929 3125,4969 5992,5030"/>
   <path class="fil0 str1" d="M9290 1811c-103,203 -313,343 -557,343 -330,0 -600,-256 -622,-581 92,9 183,20 274,34 35,160 177,280 348,280 120,0 227,-60 291,-151 89,23 178,48 266,76z"/>
   <path class="fil0 str1" d="M11329 2920c-173,149 -421,197 -645,104 -305,-126 -456,-467 -352,-775 82,44 162,89 240,136 -29,161 57,326 214,392 111,46 232,32 327,-28 74,56 146,113 217,172z"/>
   <path class="fil0 str1" d="M12788 4725c-216,71 -464,21 -636,-151 -233,-233 -243,-606 -29,-851 59,71 115,144 170,218 -89,138 -73,323 48,444 85,85 202,118 313,99 47,80 92,160 134,241z"/>
   <path class="fil0 str1" d="M12916 6567c-126,-305 7,-653 299,-797 27,88 51,177 74,266 -135,93 -191,271 -126,428 46,111 142,186 251,211 13,91 23,183 32,274 -227,-17 -437,-158 -530,-383z"/>
   <path class="fil0 str1" d="M13202 9259c-203,-103 -343,-313 -343,-557 0,-330 256,-600 581,-622 -9,92 -20,183 -34,274 -160,35 -280,177 -280,348 0,120 60,227 151,291 -23,89 -48,178 -76,266z"/>
   <path class="fil0 str1" d="M12093 11298c-149,-173 -197,-421 -104,-645 126,-305 467,-456 775,-352 -44,82 -89,162 -136,240 -161,-29 -326,57 -392,214 -46,111 -32,232 28,327 -56,74 -113,146 -172,217z"/>
   <path class="fil0 str1" d="M8641 8484c88,-98 165,-209 226,-332l1275 528c-135,297 -314,561 -528,786l-973 -983z"/>
   <path class="fil0 str1" d="M10288 12757c-71,-216 -21,-464 151,-636 233,-233 606,-243 851,-29 -71,59 -144,115 -218,170 -138,-89 -323,-73 -444,48 -85,85 -118,202 -99,313 -80,47 -160,92 -241,134z"/>
   <path class="fil0 str1" d="M8175 8837c119,-57 232,-130 336,-220l976 976c-238,223 -505,398 -788,525l-523 -1280z"/>
   <path class="fil0 str1" d="M8445 12885c305,-126 653,7 797,299 -88,27 -177,51 -266,74 -93,-135 -271,-191 -428,-126 -111,46 -186,142 -211,251 -91,13 -183,23 -274,32 17,-227 158,-437 383,-530z"/>
   <path class="fil0 str1" d="M10163 4537c-215,-89 -452,-49 -623,85 -24,-17 -48,-33 -72,-49 -17,-11 -34,-22 -51,-34 81,-253 -8,-525 -212,-683l744 -1796c53,24 106,48 159,74 -169,440 43,937 481,1119 326,135 688,58 930,-169 39,35 78,71 116,108l-1388 1388c-26,-16 -54,-30 -84,-42z"/>
   <path class="fil0 str1" d="M8515 6372c-98,-88 -209,-165 -332,-226l528 -1275c297,135 561,314 786,528l-983 973z"/>
   <path class="fil0 str1" d="M11092 5773c-165,-165 -399,-218 -609,-160 -16,-24 -31,-49 -47,-73 -11,-17 -23,-34 -35,-51 171,-201 193,-485 68,-708l1376 -1376c39,42 78,84 116,126 -325,342 -319,882 16,1217 250,250 614,316 924,200 23,49 45,98 67,147l-1812 751c-19,-26 -40,-51 -63,-74z"/>
   <path class="fil0 str1" d="M8868 6837c-57,-119 -130,-232 -220,-336l976 -976c223,238 398,505 525,788l-1280 523z"/>
   <path class="fil0 str1" d="M11508 7365c-8,-32 -18,-64 -31,-95 -89,-215 -285,-354 -501,-380 -5,-28 -10,-57 -16,-85 -4,-20 -8,-40 -13,-60 234,-120 363,-372 334,-625l1798 -745c20,52 39,105 58,158 -431,192 -633,693 -451,1131 135,326 446,527 777,538 3,55 5,109 6,164l-1961 0z"/>
   <path class="fil0 str1" d="M11253 8901c5,-33 8,-66 8,-100 0,-233 -128,-436 -318,-543 6,-28 12,-57 18,-85 4,-20 8,-40 11,-60 261,-21 477,-204 547,-447l1947 0c-2,55 -4,110 -7,165 -471,12 -850,398 -850,872 0,353 210,658 512,795 -19,52 -38,103 -58,154l-1812 -750z"/>
   <path class="fil0 str1" d="M9915 12937l-751 -1812c26,-19 51,-40 75,-64 165,-165 218,-399 160,-609 24,-16 49,-31 73,-47 17,-11 34,-23 51,-35 200,169 480,193 703,71l1377 1377c-40,38 -81,75 -122,112 -342,-325 -882,-319 -1217,16 -250,250 -316,614 -200,924 -49,23 -98,46 -148,67z"/>
   <path class="fil0 str1" d="M11148 9182l1799 745c-23,50 -46,100 -69,149 -440,-169 -937,43 -1119,481 -135,326 -58,688 169,930 -37,41 -74,81 -112,120l-1387 -1387c17,-28 33,-58 46,-89 89,-215 49,-452 -85,-623 17,-24 33,-48 49,-72 11,-17 22,-34 34,-51 249,80 517,-5 676,-203z"/>
   <path class="fil0 str1" d="M7902 3598l0 -1801c113,351 442,606 831,606 353,0 658,-210 795,-512 48,17 96,35 144,54l-751 1814c-29,-4 -59,-6 -90,-6 -233,0 -436,128 -543,318 -28,-6 -57,-12 -85,-18 -20,-4 -40,-8 -60,-11 -15,-180 -106,-338 -241,-442z"/>
   <path class="fil0 str1" d="M7902 6043l0 -1404c224,30 440,85 645,163l-536 1275c-36,-13 -72,-24 -109,-34z"/>
   <path class="fil0 str1" d="M7902 10343l0 -1404c34,-9 68,-19 102,-30l528 1275c-208,78 -419,130 -630,159z"/>
   <path class="fil0 str1" d="M7902 13073l0 -1722c124,-103 202,-249 221,-405 28,-5 57,-10 85,-16 20,-4 40,-8 60,-13 120,233 371,363 624,334l745 1798c-52,20 -104,39 -157,57 -192,-431 -693,-633 -1131,-451 -203,84 -357,235 -447,417z"/>
   <path class="fil0 str2" d="M7655 7650c0,1930 0,4456 0,6099"/>
   <path class="fil0 str1" d="M7655 7350l1357 0c-10,-114 -33,-229 -71,-342l1275 -528c108,286 166,579 181,870l327 0 0 300 -329 0c-17,304 -80,595 -184,866l-1275 -536c37,-105 63,-216 76,-331l-1357 0"/>
   <line class="fil0 str2" x1="7655" y1="1250" x2="7655" y2= "7350" />
   <path class="fil0 str1" d="M7655 13749c357,-8 719,-47 1081,-119 3385,-673 5584,-3964 4911,-7349 -583,-2929 -3125,-4969 -5992,-5030"/>
  </g>
 </g>
</svg>
