<?xml version="1.0" encoding="UTF-8"?>
<!DOCTYPE svg PUBLIC "-//W3C//DTD SVG 1.1//EN" "http://www.w3.org/Graphics/SVG/1.1/DTD/svg11.dtd">
<!-- Creator: CorelDRAW X6 -->
<svg xmlns="http://www.w3.org/2000/svg" xml:space="preserve" width="150mm" height="150mm" version="1.1" style="shape-rendering:geometricPrecision; text-rendering:geometricPrecision; image-rendering:optimizeQuality; fill-rule:evenodd; clip-rule:evenodd"
viewBox="0 0 15000 15000"
 xmlns:xlink="http://www.w3.org/1999/xlink">
 <defs>
  <style type="text/css">
   <![CDATA[
    .str1 {stroke:black;stroke-width:52.92;stroke-linecap:round;stroke-linejoin:round}
    .str2 {stroke:lime;stroke-width:52.92;stroke-linecap:round;stroke-linejoin:round}
    .str0 {stroke:red;stroke-width:52.92;stroke-linecap:round;stroke-linejoin:round}
    .fil0 {fill:none}
   ]]>
  </style>
 </defs>
 <g id="Layer_x0020_1">
  <metadata id="CorelCorpID_0Corel-Layer"/>
  <g id="_969324928">
   <path class="fil0 str0" d="M600 13900l0 -12800c0,-276 224,-500 500,-500l12800 0c276,0 500,224 500,500l0 12800c0,276 -224,500 -500,500l-12800 0c-276,0 -500,-224 -500,-500z"/>
   <path class="fil0 str1" d="M9401 1829c-103,203 -313,343 -557,343 -330,0 -600,-256 -622,-581 92,9 183,20 274,34 35,160 177,280 348,280 120,0 227,-60 291,-151 89,23 178,48 266,76z"/>
   <path class="fil0 str1" d="M11440 2938c-173,149 -421,197 -645,104 -305,-126 -456,-467 -352,-775 82,44 162,89 240,136 -29,161 57,326 214,392 111,46 232,32 327,-28 74,56 146,113 217,172z"/>
   <path class="fil0 str1" d="M12900 4743c-216,71 -464,21 -636,-151 -233,-233 -243,-606 -29,-851 59,71 115,144 170,218 -89,138 -73,323 48,444 85,85 202,118 313,99 47,80 92,160 134,241z"/>
   <path class="fil0 str1" d="M13028 6586c-126,-305 7,-653 299,-797 27,88 51,177 74,266 -135,93 -191,271 -126,428 46,111 142,186 251,211 13,91 23,183 32,274 -227,-17 -437,-158 -530,-383z"/>
   <path class="fil0 str1" d="M13313 9277c-203,-103 -343,-313 -343,-557 0,-330 256,-600 581,-622 -9,92 -20,183 -34,274 -160,35 -280,177 -280,348 0,120 60,227 151,291 -23,89 -48,178 -76,266z"/>
   <path class="fil0 str1" d="M12204 11316c-149,-173 -197,-421 -104,-646 126,-305 467,-456 775,-352 -44,82 -89,162 -136,240 -161,-29 -326,57 -392,214 -46,111 -32,232 28,327 -56,74 -113,146 -172,217z"/>
   <path class="fil0 str1" d="M8752 8503c88,-98 165,-209 226,-332l1275 528c-135,297 -314,561 -528,786l-973 -983z"/>
   <path class="fil0 str1" d="M10399 12776c-71,-216 -21,-464 151,-636 233,-233 606,-243 851,-29 -71,59 -144,115 -218,170 -138,-89 -323,-73 -444,48 -85,85 -118,202 -99,313 -80,47 -160,92 -241,134z"/>
   <path class="fil0 str1" d="M8556 12904c305,-126 653,7 797,299 -88,27 -177,51 -266,74 -93,-135 -271,-191 -428,-126 -111,46 -186,142 -211,251 -91,13 -183,23 -274,32 17,-227 158,-437 383,-530z"/>
   <path class="fil0 str1" d="M5865 13189c103,-203 313,-343 557,-343 330,0 600,256 622,581 -92,-9 -183,-20 -274,-34 -35,-160 -177,-280 -348,-280 -120,0 -227,60 -291,151 -89,-23 -178,-48 -266,-76z"/>
   <path class="fil0 str1" d="M3826 12080c173,-149 421,-197 645,-104 305,126 456,467 352,775 -82,-44 -162,-89 -240,-136 29,-161 -57,-326 -214,-392 -111,-46 -232,-32 -327,28 -74,-56 -146,-113 -217,-172z"/>
   <path class="fil0 str1" d="M2366 10275c216,-71 464,-21 636,151 233,233 243,606 29,851 -59,-71 -115,-144 -170,-218 89,-138 73,-323 -48,-444 -85,-85 -202,-118 -313,-99 -47,-80 -92,-160 -134,-241z"/>
   <path class="fil0 str1" d="M2239 8432c126,305 -7,653 -299,797 -27,-88 -51,-177 -74,-266 135,-93 191,-271 126,-428 -46,-111 -142,-186 -251,-211 -13,-91 -23,-183 -32,-274 227,17 437,158 530,383z"/>
   <path class="fil0 str1" d="M1953 5741c203,103 343,313 343,557 0,330 -256,600 -581,622 9,-92 20,-183 34,-274 160,-35 280,-177 280,-348 0,-120 -60,-227 -151,-291 23,-89 48,-178 76,-266z"/>
   <path class="fil0 str1" d="M3062 3702c149,173 197,421 104,645 -126,305 -467,456 -775,352 44,-82 89,-162 136,-240 161,29 326,-57 392,-214 46,-111 32,-232 -28,-327 56,-74 113,-146 172,-217z"/>
   <path class="fil0 str1" d="M6514 6515c-88,98 -165,209 -226,332l-1275 -528c135,-297 314,-561 528,-786l973 983z"/>
   <path class="fil0 str1" d="M4867 2242c71,216 21,464 -151,636 -233,233 -606,243 -851,29 71,-59 144,-115 218,-170 138,89 323,73 444,-48 85,-85 118,-202 99,-313 80,-47 160,-92 241,-134z"/>
   <path class="fil0 str1" d="M6980 6163c-119,57 -232,130 -336,220l-976 -976c238,-223 505,-398 788,-525l523 1280z"/>
   <path class="fil0 str1" d="M6710 2114c-305,126 -653,-7 -797,-299 88,-27 177,-51 266,-74 93,135 271,191 428,126 111,-46 186,-142 211,-251 91,-13 183,-23 274,-32 -17,227 -158,437 -383,530z"/>
   <path class="fil0 str1" d="M11941 11612l-1390 -1390c13,-23 25,-47 36,-72 89,-215 49,-452 -85,-623 17,-24 33,-48 49,-72 11,-17 22,-34 34,-51 256,82 532,-10 689,-219l1794 743c-25,56 -51,112 -78,167 -440,-169 -937,43 -1119,481 -135,326 -58,688 169,930 -33,36 -66,71 -99,106z"/>
   <path class="fil0 str1" d="M9289 11134c22,-17 42,-35 62,-54 165,-165 218,-399 160,-609 24,-16 49,-31 73,-47 17,-11 34,-23 51,-35 205,174 495,194 720,61l1373 1373c-45,42 -90,84 -135,125 -342,-325 -882,-319 -1217,16 -250,250 -316,614 -200,924 -44,21 -89,41 -134,61l-752 -1815z"/>
   <path class="fil0 str1" d="M8287 8855c119,-57 232,-130 336,-220l976 976c-238,223 -505,398 -788,525l-523 -1280z"/>
   <path class="fil0 str1" d="M4992 10462c215,89 452,49 623,-85 24,17 48,33 72,49 17,11 34,22 51,34 -81,253 8,525 212,683l-744 1796c-53,-24 -106,-48 -159,-74 169,-440 -43,-937 -481,-1119 -326,-135 -688,-58 -930,169 -39,-35 -78,-71 -116,-108l1388 -1388c26,16 54,30 84,42z"/>
   <path class="fil0 str1" d="M6639 8628c98,88 209,165 332,226l-528 1275c-297,-135 -561,-314 -786,-528l983 -973z"/>
   <path class="fil0 str1" d="M4063 9227c165,165 399,218 609,160 16,24 31,49 47,73 11,17 23,34 35,51 -171,201 -193,485 -68,708l-1376 1376c-39,-42 -78,-84 -116,-126 325,-342 319,-882 -16,-1217 -250,-250 -614,-316 -924,-200 -23,-49 -45,-98 -67,-147l1812 -751c19,26 40,51 63,74z"/>
   <path class="fil0 str1" d="M6287 8163c57,119 130,232 220,336l-976 976c-223,-238 -398,-505 -525,-788l1280 -523z"/>
   <path class="fil0 str1" d="M5239 2063l751 1812c-26,19 -51,40 -75,64 -165,165 -218,399 -160,609 -24,16 -49,31 -73,47 -17,11 -34,23 -51,35 -200,-169 -480,-193 -703,-71l-1377 -1377c40,-38 81,-75 122,-112 342,325 882,319 1217,-16 250,-250 316,-614 200,-924 49,-23 98,-46 148,-67z"/>
   <path class="fil0 str1" d="M11741 3206l-1389 1389c-25,-15 -51,-28 -78,-39 -215,-89 -452,-49 -623,85 -24,-17 -48,-33 -72,-49 -17,-11 -34,-22 -51,-34 81,-252 -8,-524 -211,-682l744 -1797c53,24 106,48 158,73 -169,440 43,937 481,1119 326,135 688,58 930,-169 37,34 74,68 111,103z"/>
   <path class="fil0 str1" d="M8979 6855c-57,-119 -130,-232 -220,-336l976 -976c223,238 398,505 525,788l-1280 523z"/>
   <path class="fil0 str1" d="M13073 5102l-1815 752c-17,-22 -35,-43 -55,-63 -165,-165 -399,-218 -609,-160 -16,-24 -31,-49 -47,-73 -11,-17 -23,-34 -35,-51 172,-203 194,-490 64,-714l1374 -1374c41,43 81,87 120,131 -325,342 -319,882 16,1217 250,250 614,316 924,200 21,45 42,90 62,135z"/>
   <path class="fil0 str1" d="M4007 5818l-1799 -745c23,-50 46,-100 69,-149 440,169 937,-43 1119,-481 135,-326 58,-688 -169,-930 37,-41 74,-81 112,-120l1387 1387c-17,28 -33,58 -46,89 -89,215 -49,452 85,623 -17,24 -33,48 -49,72 -11,17 -22,34 -34,51 -249,-80 -517,5 -676,203z"/>
   <path class="fil0 str1" d="M7253 11402l0 1801c-113,-351 -442,-606 -831,-606 -353,0 -658,210 -795,512 -48,-17 -96,-35 -144,-54l751 -1814c29,4 59,6 90,6 233,0 436,-128 543,-318 28,6 57,12 85,18 20,4 40,8 60,11 15,180 106,338 241,442z"/>
   <path class="fil0 str1" d="M7253 8957l0 1404c-224,-30 -440,-85 -645,-163l536 -1275c36,13 72,24 109,34z"/>
   <path class="fil0 str1" d="M7253 4656l0 1404c-34,9 -68,19 -102,30l-528 -1275c208,-78 419,-130 630,-159z"/>
   <path class="fil0 str1" d="M7253 1927l0 1722c-124,103 -202,249 -221,405 -28,5 -57,10 -85,16 -20,4 -40,8 -60,13 -120,-233 -371,-363 -624,-334l-745 -1798c52,-20 104,-39 157,-57 192,431 693,633 1131,451 203,-84 357,-235 447,-417z"/>
   <path class="fil0 str1" d="M8053 3649l0 -1734c138,299 441,506 792,506 353,0 658,-210 795,-512 49,17 97,36 145,54l-751 1814c-30,-4 -60,-7 -91,-7 -233,0 -436,128 -543,318 -28,-6 -57,-12 -85,-18 -20,-4 -40,-8 -60,-11 -13,-162 -88,-306 -202,-410z"/>
   <path class="fil0 str1" d="M8053 6072l0 -1409c212,31 416,84 610,158l-536 1275c-24,-9 -49,-17 -74,-24z"/>
   <path class="fil0 str1" d="M8053 10356l0 -1409c21,-6 42,-13 63,-20l528 1275c-195,73 -393,124 -592,153z"/>
   <path class="fil0 str1" d="M8053 13021l0 -1688c101,-99 165,-231 182,-370 28,-5 57,-10 85,-16 20,-4 40,-8 60,-13 122,238 382,368 640,332l743 1795c-57,22 -114,43 -171,63 -192,-431 -693,-633 -1131,-451 -176,73 -316,197 -408,348z"/>
   <path class="fil0 str1" d="M3782 7900l-1711 0c173,92 316,242 397,437 181,438 -20,939 -451,1131 18,53 38,105 58,158l1798 -745c-29,-253 100,-505 334,-625 -4,-20 -9,-40 -13,-60 -6,-28 -11,-57 -16,-85 -152,-18 -294,-93 -396,-210z"/>
   <path class="fil0 str1" d="M6187 7900l-1405 0c29,208 81,416 157,620l1275 -528c-10,-31 -19,-61 -27,-92z"/>
   <path class="fil0 str1" d="M10484 7900l-1406 0c-9,33 -20,66 -31,99l1275 536c77,-202 132,-414 162,-634z"/>
   <path class="fil0 str1" d="M13296 7900l-1779 0c-104,129 -259,216 -434,230 -4,20 -7,40 -11,60 -6,28 -12,57 -18,85 190,107 318,310 318,543 0,27 -2,54 -5,80l1816 752c17,-45 34,-90 50,-136 -302,-137 -512,-441 -512,-795 0,-378 240,-699 575,-821z"/>
   <path class="fil0 str1" d="M11467 7100l1695 0c-159,-93 -289,-236 -365,-419 -181,-438 20,-939 451,-1131 -20,-57 -41,-114 -62,-170l-1795 744c35,258 -94,517 -332,639 4,20 9,40 13,60 6,28 11,57 16,85 144,18 279,85 380,192z"/>
   <path class="fil0 str1" d="M9075 7100l1407 0c-29,-202 -80,-404 -155,-602l-1275 528c8,25 16,49 23,74z"/>
   <path class="fil0 str1" d="M4785 7100l1408 0c8,-27 17,-54 26,-81l-1275 -536c-75,196 -129,402 -159,616z"/>
   <path class="fil0 str1" d="M2015 7100l1748 0c104,-119 252,-199 419,-212 4,-20 7,-40 11,-60 6,-28 12,-57 18,-85 -190,-107 -318,-310 -318,-543 0,-34 3,-68 8,-100l-1812 -750c-20,51 -39,102 -58,154 302,137 512,441 512,795 0,360 -218,669 -530,803z"/>
   <path class="fil0 str1" d="M1388 7643c653,-1 1945,-3 3049,-5l-6 -281 -3043 1"/>
   <path class="fil0 str2" d="M13887 7643c-63,2865 -2103,5405 -5030,5987 -3385,673 -6676,-1526 -7349,-4911 -72,-361 -111,-721 -119,-1076"/>
   <path class="fil0 str1" d="M13887 7357c-867,2 -2021,-3 -3055,-1l0 288 3055 -1"/>
   <path class="fil0 str2" d="M7786 1251c2863,66 5399,2105 5981,5030 72,361 111,721 119,1076"/>
   <path class="fil0 str1" d="M7489 1251c3,1731 8,4263 11,6249l275 0 11 -6249"/>
   <path class="fil0 str2" d="M1388 7357c63,-2865 2103,-5405 5030,-5987 359,-71 717,-110 1071,-119"/>
   <path class="fil0 str1" d="M8627 6390c-98,-88 -209,-165 -332,-226l528 -1275c297,135 561,314 786,528l-983 973z"/>
  </g>
 </g>
</svg>
