  0
SECTION
  2
HEADER
  9
$ACADVER
  1
AC1021
  9
$ACADMAINTVER
 70
    25
  9
$DWGCODEPAGE
  3
ANSI_1252
  9
$INSBASE
 10
0.0
 20
0.0
 30
0.0
  9
$EXTMIN
 10
-6.92646
 20
-6.92646
 30
0.0
  9
$EXTMAX
 10
6.92646
 20
6.92646
 30
0.0
  9
$LIMMIN
 10
0.0
 20
0.0
  9
$LIMMAX
 10
12.0
 20
9.0
  9
$ORTHOMODE
 70
     0
  9
$REGENMODE
 70
     1
  9
$FILLMODE
 70
     1
  9
$QTEXTMODE
 70
     0
  9
$MIRRTEXT
 70
     1
  9
$LTSCALE
 40
1.0
  9
$ATTMODE
 70
     1
  9
$TEXTSIZE
 40
0.2
  9
$TRACEWID
 40
0.05
  9
$TEXTSTYLE
  7
Standard
  9
$CLAYER
  8
0
  9
$CELTYPE
  6
ByLayer
  9
$CECOLOR
 62
   256
  9
$CELTSCALE
 40
1.0
  9
$DISPSILH
 70
     0
  9
$DIMSCALE
 40
1.0
  9
$DIMASZ
 40
0.18
  9
$DIMEXO
 40
0.0625
  9
$DIMDLI
 40
0.38
  9
$DIMRND
 40
0.0
  9
$DIMDLE
 40
0.0
  9
$DIMEXE
 40
0.18
  9
$DIMTP
 40
0.0
  9
$DIMTM
 40
0.0
  9
$DIMTXT
 40
0.18
  9
$DIMCEN
 40
0.09
  9
$DIMTSZ
 40
0.0
  9
$DIMTOL
 70
     0
  9
$DIMLIM
 70
     0
  9
$DIMTIH
 70
     1
  9
$DIMTOH
 70
     1
  9
$DIMSE1
 70
     0
  9
$DIMSE2
 70
     0
  9
$DIMTAD
 70
     0
  9
$DIMZIN
 70
     0
  9
$DIMBLK
  1

  9
$DIMASO
 70
     1
  9
$DIMSHO
 70
     1
  9
$DIMPOST
  1

  9
$DIMAPOST
  1

  9
$DIMALT
 70
     0
  9
$DIMALTD
 70
     2
  9
$DIMALTF
 40
25.4
  9
$DIMLFAC
 40
1.0
  9
$DIMTOFL
 70
     0
  9
$DIMTVP
 40
0.0
  9
$DIMTIX
 70
     0
  9
$DIMSOXD
 70
     0
  9
$DIMSAH
 70
     0
  9
$DIMBLK1
  1

  9
$DIMBLK2
  1

  9
$DIMSTYLE
  2
Standard
  9
$DIMCLRD
 70
     0
  9
$DIMCLRE
 70
     0
  9
$DIMCLRT
 70
     0
  9
$DIMTFAC
 40
1.0
  9
$DIMGAP
 40
0.09
  9
$DIMJUST
 70
     0
  9
$DIMSD1
 70
     0
  9
$DIMSD2
 70
     0
  9
$DIMTOLJ
 70
     1
  9
$DIMTZIN
 70
     0
  9
$DIMALTZ
 70
     0
  9
$DIMALTTZ
 70
     0
  9
$DIMUPT
 70
     0
  9
$DIMDEC
 70
     4
  9
$DIMTDEC
 70
     4
  9
$DIMALTU
 70
     2
  9
$DIMALTTD
 70
     2
  9
$DIMTXSTY
  7
Standard
  9
$DIMAUNIT
 70
     0
  9
$DIMADEC
 70
     0
  9
$DIMALTRND
 40
0.0
  9
$DIMAZIN
 70
     0
  9
$DIMDSEP
 70
    46
  9
$DIMATFIT
 70
     3
  9
$DIMFRAC
 70
     0
  9
$DIMLDRBLK
  1

  9
$DIMLUNIT
 70
     2
  9
$DIMLWD
 70
    -2
  9
$DIMLWE
 70
    -2
  9
$DIMTMOVE
 70
     0
  9
$DIMFXL
 40
1.0
  9
$DIMFXLON
 70
     0
  9
$DIMJOGANG
 40
0.7853981633974483
  9
$DIMTFILL
 70
     0
  9
$DIMTFILLCLR
 70
     0
  9
$DIMARCSYM
 70
     0
  9
$DIMLTYPE
  6

  9
$DIMLTEX1
  6

  9
$DIMLTEX2
  6

  9
$LUNITS
 70
     2
  9
$LUPREC
 70
     4
  9
$SKETCHINC
 40
0.1
  9
$FILLETRAD
 40
0.5
  9
$AUNITS
 70
     0
  9
$AUPREC
 70
     0
  9
$MENU
  1
.
  9
$ELEVATION
 40
0.0
  9
$PELEVATION
 40
0.0
  9
$THICKNESS
 40
0.0
  9
$LIMCHECK
 70
     0
  9
$CHAMFERA
 40
0.5
  9
$CHAMFERB
 40
0.5
  9
$CHAMFERC
 40
1.0
  9
$CHAMFERD
 40
0.0
  9
$SKPOLY
 70
     0
  9
$TDCREATE
 40
2460271.523655127
  9
$TDUCREATE
 40
2460271.523655127
  9
$TDUPDATE
 40
2460271.52365522
  9
$TDUUPDATE
 40
2460271.52365522
  9
$TDINDWG
 40
0.0000000116
  9
$TDUSRTIMER
 40
0.0000000116
  9
$USRTIMER
 70
     1
  9
$ANGBASE
 50
0.0
  9
$ANGDIR
 70
     0
  9
$PDMODE
 70
     0
  9
$PDSIZE
 40
0.0
  9
$PLINEWID
 40
0.0
  9
$SPLFRAME
 70
     0
  9
$SPLINETYPE
 70
     6
  9
$SPLINESEGS
 70
     8
  9
$HANDSEED
  5
99
  9
$SURFTAB1
 70
     6
  9
$SURFTAB2
 70
     6
  9
$SURFTYPE
 70
     6
  9
$SURFU
 70
     6
  9
$SURFV
 70
     6
  9
$UCSBASE
  2

  9
$UCSNAME
  2

  9
$UCSORG
 10
0.0
 20
0.0
 30
0.0
  9
$UCSXDIR
 10
1.0
 20
0.0
 30
0.0
  9
$UCSYDIR
 10
0.0
 20
1.0
 30
0.0
  9
$UCSORTHOREF
  2

  9
$UCSORTHOVIEW
 70
     0
  9
$UCSORGTOP
 10
0.0
 20
0.0
 30
0.0
  9
$UCSORGBOTTOM
 10
0.0
 20
0.0
 30
0.0
  9
$UCSORGLEFT
 10
0.0
 20
0.0
 30
0.0
  9
$UCSORGRIGHT
 10
0.0
 20
0.0
 30
0.0
  9
$UCSORGFRONT
 10
0.0
 20
0.0
 30
0.0
  9
$UCSORGBACK
 10
0.0
 20
0.0
 30
0.0
  9
$PUCSBASE
  2

  9
$PUCSNAME
  2

  9
$PUCSORG
 10
0.0
 20
0.0
 30
0.0
  9
$PUCSXDIR
 10
1.0
 20
0.0
 30
0.0
  9
$PUCSYDIR
 10
0.0
 20
1.0
 30
0.0
  9
$PUCSORTHOREF
  2

  9
$PUCSORTHOVIEW
 70
     0
  9
$PUCSORGTOP
 10
0.0
 20
0.0
 30
0.0
  9
$PUCSORGBOTTOM
 10
0.0
 20
0.0
 30
0.0
  9
$PUCSORGLEFT
 10
0.0
 20
0.0
 30
0.0
  9
$PUCSORGRIGHT
 10
0.0
 20
0.0
 30
0.0
  9
$PUCSORGFRONT
 10
0.0
 20
0.0
 30
0.0
  9
$PUCSORGBACK
 10
0.0
 20
0.0
 30
0.0
  9
$USERI1
 70
     0
  9
$USERI2
 70
     0
  9
$USERI3
 70
     0
  9
$USERI4
 70
     0
  9
$USERI5
 70
     0
  9
$USERR1
 40
0.0
  9
$USERR2
 40
0.0
  9
$USERR3
 40
0.0
  9
$USERR4
 40
0.0
  9
$USERR5
 40
0.0
  9
$WORLDVIEW
 70
     1
  9
$SHADEDGE
 70
     3
  9
$SHADEDIF
 70
    70
  9
$TILEMODE
 70
     1
  9
$MAXACTVP
 70
    64
  9
$PINSBASE
 10
0.0
 20
0.0
 30
0.0
  9
$PLIMCHECK
 70
     0
  9
$PEXTMIN
 10
1.000000000000000E+20
 20
1.000000000000000E+20
 30
1.000000000000000E+20
  9
$PEXTMAX
 10
-1.000000000000000E+20
 20
-1.000000000000000E+20
 30
-1.000000000000000E+20
  9
$PLIMMIN
 10
0.0
 20
0.0
  9
$PLIMMAX
 10
12.0
 20
9.0
  9
$UNITMODE
 70
     0
  9
$VISRETAIN
 70
     1
  9
$PLINEGEN
 70
     0
  9
$PSLTSCALE
 70
     1
  9
$TREEDEPTH
 70
  3020
  9
$CMLSTYLE
  2
Standard
  9
$CMLJUST
 70
     0
  9
$CMLSCALE
 40
1.0
  9
$PROXYGRAPHICS
 70
     1
  9
$MEASUREMENT
 70
     0
  9
$CELWEIGHT
370
    -1
  9
$ENDCAPS
280
     0
  9
$JOINSTYLE
280
     0
  9
$LWDISPLAY
290
     0
  9
$INSUNITS
 70
     5
  9
$HYPERLINKBASE
  1

  9
$STYLESHEET
  1

  9
$XEDIT
290
     1
  9
$CEPSNTYPE
380
     0
  9
$PSTYLEMODE
290
     1
  9
$FINGERPRINTGUID
  2
{11764101-A8B0-4362-B951-C6CEFAAF453A}
  9
$VERSIONGUID
  2
{FAEB1C32-E019-11D5-929B-00C0DF256EC4}
  9
$EXTNAMES
290
     1
  9
$PSVPSCALE
 40
0.0
  9
$OLESTARTUP
290
     0
  9
$SORTENTS
280
   127
  9
$INDEXCTL
280
     0
  9
$HIDETEXT
280
     1
  9
$XCLIPFRAME
290
     0
  9
$HALOGAP
280
     0
  9
$OBSCOLOR
 70
   257
  9
$OBSLTYPE
280
     0
  9
$INTERSECTIONDISPLAY
280
     0
  9
$INTERSECTIONCOLOR
 70
   257
  9
$DIMASSOC
280
     2
  9
$PROJECTNAME
  1

  9
$CAMERADISPLAY
290
     0
  9
$LENSLENGTH
 40
50.0
  9
$CAMERAHEIGHT
 40
0.0
  9
$STEPSPERSEC
 40
2.0
  9
$STEPSIZE
 40
6.0
  9
$3DDWFPREC
 40
2.0
  9
$PSOLWIDTH
 40
0.25
  9
$PSOLHEIGHT
 40
4.0
  9
$LOFTANG1
 40
1.570796326794897
  9
$LOFTANG2
 40
1.570796326794897
  9
$LOFTMAG1
 40
0.0
  9
$LOFTMAG2
 40
0.0
  9
$LOFTPARAM
 70
     7
  9
$LOFTNORMALS
280
     1
  9
$LATITUDE
 40
37.795
  9
$LONGITUDE
 40
-122.394
  9
$NORTHDIRECTION
 40
0.0
  9
$TIMEZONE
 70
 -8000
  9
$LIGHTGLYPHDISPLAY
280
     1
  9
$TILEMODELIGHTSYNCH
280
     1
  9
$SOLIDHIST
280
     1
  9
$SHOWHIST
280
     1
  9
$DWFFRAME
280
     2
  9
$DGNFRAME
280
     2
  9
$REALWORLDSCALE
290
     1
  9
$INTERFERECOLOR
 62
   256
  9
$CSHADOW
280
     0
  9
$SHADOWPLANELOCATION
 40
0.0
  0
ENDSEC
  0
SECTION
  2
CLASSES
  0
CLASS
  1
ACDBDICTIONARYWDFLT
  2
AcDbDictionaryWithDefault
  3
ObjectDBX Classes
 90
        0
 91
        4
280
     0
281
     0
  0
CLASS
  1
VISUALSTYLE
  2
AcDbVisualStyle
  3
ObjectDBX Classes
 90
     4095
 91
        4
280
     0
281
     0
  0
CLASS
  1
MATERIAL
  2
AcDbMaterial
  3
ObjectDBX Classes
 90
     1153
 91
        4
280
     0
281
     0
  0
ENDSEC
  0
SECTION
  2
TABLES
  0
TABLE
  2
VPORT
  5
8
330
0
100
AcDbSymbolTable
 70
     1
  0
VPORT
  5
29
330
8
100
AcDbSymbolTableRecord
100
AcDbViewportTableRecord
  2
*Active
 70
     0
 10
0.0
 20
0.0
 11
1.0
 21
1.0
 12
10.42990654205607
 22
4.5
 13
0.0
 23
0.0
 14
0.5
 24
0.5
 15
0.5
 25
0.5
 16
0.0
 26
0.0
 36
1.0
 17
0.0
 27
0.0
 37
0.0
 40
9.0
 41
1.972972972850329
 42
50.0
 43
0.0
 44
0.0
 50
0.0
 51
0.0
 71
     0
 72
   100
 73
     1
 74
     3
 75
     0
 76
     0
 77
     0
 78
     0
281
     0
 65
     1
110
0.0
120
0.0
130
0.0
111
1.0
121
0.0
131
0.0
112
0.0
122
1.0
132
0.0
 79
     0
146
0.0
 60
     3
 61
     5
292
     1
282
     1
141
0.0
142
0.0
 63
   250
  0
ENDTAB
  0
TABLE
  2
LTYPE
  5
5
330
0
100
AcDbSymbolTable
 70
     1
  0
LTYPE
  5
14
330
5
100
AcDbSymbolTableRecord
100
AcDbLinetypeTableRecord
  2
ByBlock
 70
     0
  3

 72
    65
 73
     0
 40
0.0
  0
LTYPE
  5
15
330
5
100
AcDbSymbolTableRecord
100
AcDbLinetypeTableRecord
  2
ByLayer
 70
     0
  3

 72
    65
 73
     0
 40
0.0
  0
LTYPE
  5
16
330
5
100
AcDbSymbolTableRecord
100
AcDbLinetypeTableRecord
  2
Continuous
 70
     0
  3
Solid line
 72
    65
 73
     0
 40
0.0
  0
ENDTAB
  0
TABLE
  2
LAYER
  5
2
330
0
100
AcDbSymbolTable
 70
     2
  0
LAYER
  5
10
330
2
100
AcDbSymbolTableRecord
100
AcDbLayerTableRecord
  2
0
 70
     0
 62
     7
  6
Continuous
370
    -3
390
F
347
3E
  0
LAYER
  5
40
330
2
100
AcDbSymbolTableRecord
100
AcDbLayerTableRecord
  2
Layer 1
 70
     0
 62
     7
  6
Continuous
370
    -3
390
F
347
3E
  0
ENDTAB
  0
TABLE
  2
STYLE
  5
3
330
0
100
AcDbSymbolTable
 70
     1
  0
STYLE
  5
11
330
3
100
AcDbSymbolTableRecord
100
AcDbTextStyleTableRecord
  2
Standard
 70
     0
 40
0.0
 41
1.0
 50
0.0
 71
     0
 42
0.2
  3
txt
  4

  0
ENDTAB
  0
TABLE
  2
VIEW
  5
6
330
0
100
AcDbSymbolTable
 70
     0
  0
ENDTAB
  0
TABLE
  2
UCS
  5
7
330
0
100
AcDbSymbolTable
 70
     0
  0
ENDTAB
  0
TABLE
  2
APPID
  5
9
330
0
100
AcDbSymbolTable
 70
     2
  0
APPID
  5
12
330
9
100
AcDbSymbolTableRecord
100
AcDbRegAppTableRecord
  2
ACAD
 70
     0
  0
APPID
  5
3F
330
9
100
AcDbSymbolTableRecord
100
AcDbRegAppTableRecord
  2
ODA
 70
     0
  0
ENDTAB
  0
TABLE
  2
DIMSTYLE
  5
A
330
0
100
AcDbSymbolTable
 70
     1
100
AcDbDimStyleTable
  0
DIMSTYLE
105
27
330
A
100
AcDbSymbolTableRecord
100
AcDbDimStyleTableRecord
  2
Standard
 70
     0
178
     0
340
11
  0
ENDTAB
  0
TABLE
  2
BLOCK_RECORD
  5
1
330
0
100
AcDbSymbolTable
 70
     1
  0
BLOCK_RECORD
  5
1F
330
1
100
AcDbSymbolTableRecord
100
AcDbBlockTableRecord
  2
*Model_Space
340
22
 70
     0
280
     1
281
     0
  0
BLOCK_RECORD
  5
1B
330
1
100
AcDbSymbolTableRecord
100
AcDbBlockTableRecord
  2
*Paper_Space
340
1E
 70
     0
280
     1
281
     0
  0
BLOCK_RECORD
  5
23
330
1
100
AcDbSymbolTableRecord
100
AcDbBlockTableRecord
  2
*Paper_Space0
340
26
 70
     0
280
     1
281
     0
  0
ENDTAB
  0
ENDSEC
  0
SECTION
  2
BLOCKS
  0
BLOCK
  5
20
330
1F
100
AcDbEntity
  8
0
100
AcDbBlockBegin
  2
*Model_Space
 70
     0
 10
0.0
 20
0.0
 30
0.0
  3
*Model_Space
  1

  0
ENDBLK
  5
21
330
1F
100
AcDbEntity
  8
0
100
AcDbBlockEnd
  0
BLOCK
  5
1C
330
1B
100
AcDbEntity
 67
     1
  8
0
100
AcDbBlockBegin
  2
*Paper_Space
 70
     0
 10
0.0
 20
0.0
 30
0.0
  3
*Paper_Space
  1

  0
ENDBLK
  5
1D
330
1B
100
AcDbEntity
 67
     1
  8
0
100
AcDbBlockEnd
  0
BLOCK
  5
24
330
23
100
AcDbEntity
  8
0
100
AcDbBlockBegin
  2
*Paper_Space0
 70
     0
 10
0.0
 20
0.0
 30
0.0
  3
*Paper_Space0
  1

  0
ENDBLK
  5
25
330
23
100
AcDbEntity
  8
0
100
AcDbBlockEnd
  0
ENDSEC
  0
SECTION
  2
ENTITIES
  0
SPLINE
  5
41
330
1F
100
AcDbEntity
  8
Layer 1
 62
     1
370
    53
100
AcDbSpline
210
0.0
220
0.0
230
1.0
 70
    11
 71
     3
 72
    36
 73
    32
 74
     0
 42
0.0000000001
 43
0.0000000001
 12
1.0
 22
0.0
 32
0.0
 13
1.0
 23
0.0
 33
0.0
 40
0.0
 40
0.0
 40
0.0
 40
0.0
 40
0.1111111111111111
 40
0.1111111111111111
 40
0.1111111111111111
 40
0.1111111111111111
 40
0.2222222222222222
 40
0.2222222222222222
 40
0.2222222222222222
 40
0.2222222222222222
 40
0.3333333333333333
 40
0.3333333333333333
 40
0.3333333333333333
 40
0.3333333333333333
 40
0.4444444444444444
 40
0.4444444444444444
 40
0.4444444444444444
 40
0.4444444444444444
 40
0.5555555555555556
 40
0.5555555555555556
 40
0.5555555555555556
 40
0.5555555555555556
 40
0.6666666666666666
 40
0.6666666666666666
 40
0.6666666666666666
 40
0.6666666666666666
 40
0.7777777777777778
 40
0.7777777777777778
 40
0.7777777777777778
 40
0.7777777777777778
 40
1.0
 40
1.0
 40
1.0
 40
1.0
 10
-6.9
 20
-6.4
 30
0.0
 10
-6.9
 20
-6.4
 30
0.0
 10
-6.9
 20
6.4
 30
0.0
 10
-6.9
 20
6.4
 30
0.0
 10
-6.9
 20
6.4
 30
0.0
 10
-6.9
 20
6.67609
 30
0.0
 10
-6.67609
 20
6.9
 30
0.0
 10
-6.4
 20
6.9
 30
0.0
 10
-6.4
 20
6.9
 30
0.0
 10
-6.4
 20
6.9
 30
0.0
 10
6.4
 20
6.9
 30
0.0
 10
6.4
 20
6.9
 30
0.0
 10
6.4
 20
6.9
 30
0.0
 10
6.67609
 20
6.9
 30
0.0
 10
6.9
 20
6.67609
 30
0.0
 10
6.9
 20
6.4
 30
0.0
 10
6.9
 20
6.4
 30
0.0
 10
6.9
 20
6.4
 30
0.0
 10
6.9
 20
-6.4
 30
0.0
 10
6.9
 20
-6.4
 30
0.0
 10
6.9
 20
-6.4
 30
0.0
 10
6.9
 20
-6.67609
 30
0.0
 10
6.67609
 20
-6.9
 30
0.0
 10
6.4
 20
-6.9
 30
0.0
 10
6.4
 20
-6.9
 30
0.0
 10
6.4
 20
-6.9
 30
0.0
 10
-6.4
 20
-6.9
 30
0.0
 10
-6.4
 20
-6.9
 30
0.0
 10
-6.4
 20
-6.9
 30
0.0
 10
-6.67609
 20
-6.9
 30
0.0
 10
-6.9
 20
-6.67609
 30
0.0
 10
-6.9
 20
-6.4
 30
0.0
  0
SPLINE
  5
42
330
1F
100
AcDbEntity
  8
Layer 1
 62
     3
370
    53
100
AcDbSpline
210
0.0
220
0.0
230
1.0
 70
     8
 71
     3
 72
    16
 73
    12
 74
     0
 42
0.0000000001
 43
0.0000000001
 12
1.0
 22
0.0
 32
0.0
 13
1.0
 23
0.0
 33
0.0
 40
0.0
 40
0.0
 40
0.0
 40
0.0
 40
0.25
 40
0.25
 40
0.25
 40
0.25
 40
0.5
 40
0.5
 40
0.5
 40
0.5
 40
1.0
 40
1.0
 40
1.0
 40
1.0
 10
4.52467
 20
-4.31255
 30
0.0
 10
4.76829
 20
-4.05638
 30
0.0
 10
4.99361
 20
-3.77625
 30
0.0
 10
5.19668
 20
-3.47233
 30
0.0
 10
5.19668
 20
-3.47233
 30
0.0
 10
7.11407
 20
-0.60276
 30
0.0
 10
6.34188
 20
3.27929
 30
0.0
 10
3.47232
 20
5.19667
 30
0.0
 10
3.47232
 20
5.19667
 30
0.0
 10
1.24516
 20
6.68481
 30
0.0
 10
-1.59176
 20
6.55254
 30
0.0
 10
-3.64675
 20
5.07719
 30
0.0
  0
SPLINE
  5
43
330
1F
100
AcDbEntity
  8
Layer 1
370
    53
100
AcDbSpline
210
0.0
220
0.0
230
1.0
 70
     8
 71
     3
 72
    16
 73
    12
 74
     0
 42
0.0000000001
 43
0.0000000001
 12
1.0
 22
0.0
 32
0.0
 13
1.0
 23
0.0
 33
0.0
 40
0.0
 40
0.0
 40
0.0
 40
0.0
 40
0.25
 40
0.25
 40
0.25
 40
0.25
 40
0.5
 40
0.5
 40
0.5
 40
0.5
 40
1.0
 40
1.0
 40
1.0
 40
1.0
 10
4.31269
 20
-4.52484
 30
0.0
 10
4.31269
 20
-4.52484
 30
0.0
 10
-0.10607
 20
-0.10608
 30
0.0
 10
-0.10607
 20
-0.10608
 30
0.0
 10
-0.10607
 20
-0.10608
 30
0.0
 10
-0.10607
 20
-0.10608
 30
0.0
 10
0.10607
 20
0.10607
 30
0.0
 10
0.10607
 20
0.10607
 30
0.0
 10
0.10607
 20
0.10607
 30
0.0
 10
0.10607
 20
0.10607
 30
0.0
 10
4.52467
 20
-4.31255
 30
0.0
 10
4.52467
 20
-4.31255
 30
0.0
  0
SPLINE
  5
44
330
1F
100
AcDbEntity
  8
Layer 1
 62
     3
370
    53
100
AcDbSpline
210
0.0
220
0.0
230
1.0
 70
     8
 71
     3
 72
    16
 73
    12
 74
     0
 42
0.0000000001
 43
0.0000000001
 12
1.0
 22
0.0
 32
0.0
 13
1.0
 23
0.0
 33
0.0
 40
0.0
 40
0.0
 40
0.0
 40
0.0
 40
0.25
 40
0.25
 40
0.25
 40
0.25
 40
0.5
 40
0.5
 40
0.5
 40
0.5
 40
1.0
 40
1.0
 40
1.0
 40
1.0
 10
-5.07625
 20
3.64548
 30
0.0
 10
-5.11711
 20
3.58853
 30
0.0
 10
-5.15745
 20
3.53103
 30
0.0
 10
-5.19668
 20
3.47231
 30
0.0
 10
-5.19668
 20
3.47231
 30
0.0
 10
-7.11407
 20
0.60273
 30
0.0
 10
-6.34188
 20
-3.27931
 30
0.0
 10
-3.47232
 20
-5.19669
 30
0.0
 10
-3.47232
 20
-5.19669
 30
0.0
 10
-0.99298
 20
-6.85332
 30
0.0
 10
2.24196
 20
-6.50185
 30
0.0
 10
4.31269
 20
-4.52484
 30
0.0
  0
SPLINE
  5
45
330
1F
100
AcDbEntity
  8
Layer 1
370
    53
100
AcDbSpline
210
0.0
220
0.0
230
1.0
 70
     8
 71
     3
 72
    44
 73
    40
 74
     0
 42
0.0000000001
 43
0.0000000001
 12
1.0
 22
0.0
 32
0.0
 13
1.0
 23
0.0
 33
0.0
 40
0.0
 40
0.0
 40
0.0
 40
0.0
 40
0.0909090909090909
 40
0.0909090909090909
 40
0.0909090909090909
 40
0.0909090909090909
 40
0.1818181818181818
 40
0.1818181818181818
 40
0.1818181818181818
 40
0.1818181818181818
 40
0.2727272727272727
 40
0.2727272727272727
 40
0.2727272727272727
 40
0.2727272727272727
 40
0.3636363636363636
 40
0.3636363636363636
 40
0.3636363636363636
 40
0.3636363636363636
 40
0.4545454545454545
 40
0.4545454545454545
 40
0.4545454545454545
 40
0.4545454545454545
 40
0.5454545454545454
 40
0.5454545454545454
 40
0.5454545454545454
 40
0.5454545454545454
 40
0.6363636363636364
 40
0.6363636363636364
 40
0.6363636363636364
 40
0.6363636363636364
 40
0.7272727272727273
 40
0.7272727272727273
 40
0.7272727272727273
 40
0.7272727272727273
 40
0.8181818181818182
 40
0.8181818181818182
 40
0.8181818181818182
 40
0.8181818181818182
 40
1.0
 40
1.0
 40
1.0
 40
1.0
 10
-3.64675
 20
5.07719
 30
0.0
 10
-3.64675
 20
5.07719
 30
0.0
 10
-4.11494
 20
5.42309
 30
0.0
 10
-4.11494
 20
5.42309
 30
0.0
 10
-4.11494
 20
5.42309
 30
0.0
 10
-4.11494
 20
5.42309
 30
0.0
 10
-4.44446
 20
5.2138
 30
0.0
 10
-4.44446
 20
5.2138
 30
0.0
 10
-4.44446
 20
5.2138
 30
0.0
 10
-4.44446
 20
5.2138
 30
0.0
 10
-4.47244
 20
5.18583
 30
0.0
 10
-4.47244
 20
5.18583
 30
0.0
 10
-4.47244
 20
5.18583
 30
0.0
 10
-4.49679
 20
5.29186
 30
0.0
 10
-4.55022
 20
5.39258
 30
0.0
 10
-4.63282
 20
5.47517
 30
0.0
 10
-4.63282
 20
5.47517
 30
0.0
 10
-4.86709
 20
5.70944
 30
0.0
 10
-5.24706
 20
5.70943
 30
0.0
 10
-5.48135
 20
5.47515
 30
0.0
 10
-5.48135
 20
5.47515
 30
0.0
 10
-5.71561
 20
5.24088
 30
0.0
 10
-5.71561
 20
4.86091
 30
0.0
 10
-5.48135
 20
4.62665
 30
0.0
 10
-5.48135
 20
4.62665
 30
0.0
 10
-5.39875
 20
4.54405
 30
0.0
 10
-5.29804
 20
4.49061
 30
0.0
 10
-5.192
 20
4.46626
 30
0.0
 10
-5.192
 20
4.46626
 30
0.0
 10
-5.192
 20
4.46626
 30
0.0
 10
-5.21377
 20
4.44449
 30
0.0
 10
-5.21377
 20
4.44449
 30
0.0
 10
-5.21377
 20
4.44449
 30
0.0
 10
-5.21377
 20
4.44449
 30
0.0
 10
-5.42309
 20
4.11493
 30
0.0
 10
-5.42309
 20
4.11493
 30
0.0
 10
-5.42309
 20
4.11493
 30
0.0
 10
-5.42309
 20
4.11493
 30
0.0
 10
-5.07625
 20
3.64548
 30
0.0
 10
-5.07625
 20
3.64548
 30
0.0
  0
SPLINE
  5
46
330
1F
100
AcDbEntity
  8
Layer 1
370
    53
100
AcDbSpline
210
0.0
220
0.0
230
1.0
 70
    11
 71
     3
 72
    28
 73
    24
 74
     0
 42
0.0000000001
 43
0.0000000001
 12
1.0
 22
0.0
 32
0.0
 13
1.0
 23
0.0
 33
0.0
 40
0.0
 40
0.0
 40
0.0
 40
0.0
 40
0.1428571428571428
 40
0.1428571428571428
 40
0.1428571428571428
 40
0.1428571428571428
 40
0.2857142857142857
 40
0.2857142857142857
 40
0.2857142857142857
 40
0.2857142857142857
 40
0.4285714285714285
 40
0.4285714285714285
 40
0.4285714285714285
 40
0.4285714285714285
 40
0.5714285714285714
 40
0.5714285714285714
 40
0.5714285714285714
 40
0.5714285714285714
 40
0.7142857142857143
 40
0.7142857142857143
 40
0.7142857142857143
 40
0.7142857142857143
 40
1.0
 40
1.0
 40
1.0
 40
1.0
 10
-2.76275
 20
5.25714
 30
0.0
 10
-2.69159
 20
5.04078
 30
0.0
 10
-2.742
 20
4.7932
 30
0.0
 10
-2.91406
 20
4.62114
 30
0.0
 10
-2.91406
 20
4.62114
 30
0.0
 10
-3.10841
 20
4.4268
 30
0.0
 10
-3.39912
 20
4.38767
 30
0.0
 10
-3.63233
 20
4.50364
 30
0.0
 10
-3.63233
 20
4.50364
 30
0.0
 10
-3.63233
 20
4.50364
 30
0.0
 10
-3.42298
 20
4.71257
 30
0.0
 10
-3.42298
 20
4.71257
 30
0.0
 10
-3.42298
 20
4.71257
 30
0.0
 10
-3.31076
 20
4.69079
 30
0.0
 10
-3.19008
 20
4.72334
 30
0.0
 10
-3.10316
 20
4.81026
 30
0.0
 10
-3.10316
 20
4.81026
 30
0.0
 10
-3.01813
 20
4.89529
 30
0.0
 10
-2.98514
 20
5.01264
 30
0.0
 10
-3.00415
 20
5.12276
 30
0.0
 10
-3.00415
 20
5.12276
 30
0.0
 10
-2.92451
 20
5.16956
 30
0.0
 10
-2.84405
 20
5.21441
 30
0.0
 10
-2.76275
 20
5.25714
 30
0.0
  0
SPLINE
  5
47
330
1F
100
AcDbEntity
  8
Layer 1
370
    53
100
AcDbSpline
210
0.0
220
0.0
230
1.0
 70
    11
 71
     3
 72
    28
 73
    24
 74
     0
 42
0.0000000001
 43
0.0000000001
 12
1.0
 22
0.0
 32
0.0
 13
1.0
 23
0.0
 33
0.0
 40
0.0
 40
0.0
 40
0.0
 40
0.0
 40
0.1428571428571428
 40
0.1428571428571428
 40
0.1428571428571428
 40
0.1428571428571428
 40
0.2857142857142857
 40
0.2857142857142857
 40
0.2857142857142857
 40
0.2857142857142857
 40
0.4285714285714285
 40
0.4285714285714285
 40
0.4285714285714285
 40
0.4285714285714285
 40
0.5714285714285714
 40
0.5714285714285714
 40
0.5714285714285714
 40
0.5714285714285714
 40
0.7142857142857143
 40
0.7142857142857143
 40
0.7142857142857143
 40
0.7142857142857143
 40
1.0
 40
1.0
 40
1.0
 40
1.0
 10
-0.53674
 20
5.91475
 30
0.0
 10
-0.55378
 20
5.68762
 30
0.0
 10
-0.69511
 20
5.47818
 30
0.0
 10
-0.91989
 20
5.38506
 30
0.0
 10
-0.91989
 20
5.38506
 30
0.0
 10
-1.22481
 20
5.25879
 30
0.0
 10
-1.57248
 20
5.39237
 30
0.0
 10
-1.71678
 20
5.68381
 30
0.0
 10
-1.71678
 20
5.68381
 30
0.0
 10
-1.6283
 20
5.71065
 30
0.0
 10
-1.53958
 20
5.73513
 30
0.0
 10
-1.4507
 20
5.75768
 30
0.0
 10
-1.4507
 20
5.75768
 30
0.0
 10
-1.35728
 20
5.62313
 30
0.0
 10
-1.17977
 20
5.56691
 30
0.0
 10
-1.02225
 20
5.63215
 30
0.0
 10
-1.02225
 20
5.63215
 30
0.0
 10
-0.91115
 20
5.67817
 30
0.0
 10
-0.83577
 20
5.77396
 30
0.0
 10
-0.81119
 20
5.88298
 30
0.0
 10
-0.81119
 20
5.88298
 30
0.0
 10
-0.7197
 20
5.89574
 30
0.0
 10
-0.6282
 20
5.90639
 30
0.0
 10
-0.53674
 20
5.91475
 30
0.0
  0
SPLINE
  5
48
330
1F
100
AcDbEntity
  8
Layer 1
370
    53
100
AcDbSpline
210
0.0
220
0.0
230
1.0
 70
    11
 71
     3
 72
    28
 73
    24
 74
     0
 42
0.0000000001
 43
0.0000000001
 12
1.0
 22
0.0
 32
0.0
 13
1.0
 23
0.0
 33
0.0
 40
0.0
 40
0.0
 40
0.0
 40
0.0
 40
0.1428571428571428
 40
0.1428571428571428
 40
0.1428571428571428
 40
0.1428571428571428
 40
0.2857142857142857
 40
0.2857142857142857
 40
0.2857142857142857
 40
0.2857142857142857
 40
0.4285714285714285
 40
0.4285714285714285
 40
0.4285714285714285
 40
0.4285714285714285
 40
0.5714285714285714
 40
0.5714285714285714
 40
0.5714285714285714
 40
0.5714285714285714
 40
0.7142857142857143
 40
0.7142857142857143
 40
0.7142857142857143
 40
0.7142857142857143
 40
1.0
 40
1.0
 40
1.0
 40
1.0
 10
1.77148
 20
5.67044
 30
0.0
 10
1.66881
 20
5.46714
 30
0.0
 10
1.45811
 20
5.32771
 30
0.0
 10
1.21478
 20
5.32771
 30
0.0
 10
1.21478
 20
5.32771
 30
0.0
 10
0.88475
 20
5.32772
 30
0.0
 10
0.61469
 20
5.58417
 30
0.0
 10
0.5929
 20
5.90866
 30
0.0
 10
0.5929
 20
5.90866
 30
0.0
 10
0.68492
 20
5.89962
 30
0.0
 10
0.77626
 20
5.88826
 30
0.0
 10
0.86698
 20
5.87509
 30
0.0
 10
0.86698
 20
5.87509
 30
0.0
 10
0.90181
 20
5.71503
 30
0.0
 10
1.0443
 20
5.59516
 30
0.0
 10
1.21478
 20
5.59516
 30
0.0
 10
1.21478
 20
5.59516
 30
0.0
 10
1.33504
 20
5.59515
 30
0.0
 10
1.44134
 20
5.65481
 30
0.0
 10
1.50576
 20
5.74612
 30
0.0
 10
1.50576
 20
5.74612
 30
0.0
 10
1.59518
 20
5.72289
 30
0.0
 10
1.68379
 20
5.69771
 30
0.0
 10
1.77148
 20
5.67044
 30
0.0
  0
SPLINE
  5
49
330
1F
100
AcDbEntity
  8
Layer 1
370
    53
100
AcDbSpline
210
0.0
220
0.0
230
1.0
 70
    11
 71
     3
 72
    28
 73
    24
 74
     0
 42
0.0000000001
 43
0.0000000001
 12
1.0
 22
0.0
 32
0.0
 13
1.0
 23
0.0
 33
0.0
 40
0.0
 40
0.0
 40
0.0
 40
0.0
 40
0.1428571428571428
 40
0.1428571428571428
 40
0.1428571428571428
 40
0.1428571428571428
 40
0.2857142857142857
 40
0.2857142857142857
 40
0.2857142857142857
 40
0.2857142857142857
 40
0.4285714285714285
 40
0.4285714285714285
 40
0.4285714285714285
 40
0.4285714285714285
 40
0.5714285714285714
 40
0.5714285714285714
 40
0.5714285714285714
 40
0.5714285714285714
 40
0.7142857142857143
 40
0.7142857142857143
 40
0.7142857142857143
 40
0.7142857142857143
 40
1.0
 40
1.0
 40
1.0
 40
1.0
 10
3.16503
 20
4.45781
 30
0.0
 10
2.86013
 20
4.58411
 30
0.0
 10
2.70876
 20
4.92439
 30
0.0
 10
2.81279
 20
5.23253
 30
0.0
 10
2.81279
 20
5.23253
 30
0.0
 10
2.89435
 20
5.18896
 30
0.0
 10
2.97438
 20
5.14352
 30
0.0
 10
3.05317
 20
5.09662
 30
0.0
 10
3.05317
 20
5.09662
 30
0.0
 10
3.0241
 20
4.93541
 30
0.0
 10
3.10986
 20
4.77014
 30
0.0
 10
3.26738
 20
4.70489
 30
0.0
 10
3.26738
 20
4.70489
 30
0.0
 10
3.37847
 20
4.65888
 30
0.0
 10
3.49951
 20
4.67331
 30
0.0
 10
3.59398
 20
4.73301
 30
0.0
 10
3.59398
 20
4.73301
 30
0.0
 10
3.66769
 20
4.67733
 30
0.0
 10
3.73993
 20
4.62017
 30
0.0
 10
3.81051
 20
4.56142
 30
0.0
 10
3.81051
 20
4.56142
 30
0.0
 10
3.63785
 20
4.41287
 30
0.0
 10
3.38983
 20
4.3647
 30
0.0
 10
3.16503
 20
4.45781
 30
0.0
  0
SPLINE
  5
4A
330
1F
100
AcDbEntity
  8
Layer 1
370
    53
100
AcDbSpline
210
0.0
220
0.0
230
1.0
 70
    11
 71
     3
 72
    28
 73
    24
 74
     0
 42
0.0000000001
 43
0.0000000001
 12
1.0
 22
0.0
 32
0.0
 13
1.0
 23
0.0
 33
0.0
 40
0.0
 40
0.0
 40
0.0
 40
0.0
 40
0.1428571428571428
 40
0.1428571428571428
 40
0.1428571428571428
 40
0.1428571428571428
 40
0.2857142857142857
 40
0.2857142857142857
 40
0.2857142857142857
 40
0.2857142857142857
 40
0.4285714285714285
 40
0.4285714285714285
 40
0.4285714285714285
 40
0.4285714285714285
 40
0.5714285714285714
 40
0.5714285714285714
 40
0.5714285714285714
 40
0.5714285714285714
 40
0.7142857142857143
 40
0.7142857142857143
 40
0.7142857142857143
 40
0.7142857142857143
 40
1.0
 40
1.0
 40
1.0
 40
1.0
 10
5.26992
 20
2.7565
 30
0.0
 10
5.05356
 20
2.68533
 30
0.0
 10
4.80598
 20
2.73574
 30
0.0
 10
4.63392
 20
2.9078
 30
0.0
 10
4.63392
 20
2.9078
 30
0.0
 10
4.40057
 20
3.14117
 30
0.0
 10
4.39094
 20
3.51347
 30
0.0
 10
4.60498
 20
3.75833
 30
0.0
 10
4.60498
 20
3.75833
 30
0.0
 10
4.66363
 20
3.68687
 30
0.0
 10
4.72021
 20
3.61427
 30
0.0
 10
4.77504
 20
3.54078
 30
0.0
 10
4.77504
 20
3.54078
 30
0.0
 10
4.68648
 20
3.40298
 30
0.0
 10
4.70247
 20
3.21747
 30
0.0
 10
4.82303
 20
3.09691
 30
0.0
 10
4.82303
 20
3.09691
 30
0.0
 10
4.90806
 20
3.01188
 30
0.0
 10
5.02541
 20
2.97889
 30
0.0
 10
5.13553
 20
2.9979
 30
0.0
 10
5.13553
 20
2.9979
 30
0.0
 10
5.18234
 20
2.91825
 30
0.0
 10
5.22719
 20
2.83779
 30
0.0
 10
5.26992
 20
2.7565
 30
0.0
  0
SPLINE
  5
4B
330
1F
100
AcDbEntity
  8
Layer 1
370
    53
100
AcDbSpline
210
0.0
220
0.0
230
1.0
 70
    11
 71
     3
 72
    28
 73
    24
 74
     0
 42
0.0000000001
 43
0.0000000001
 12
1.0
 22
0.0
 32
0.0
 13
1.0
 23
0.0
 33
0.0
 40
0.0
 40
0.0
 40
0.0
 40
0.0
 40
0.1428571428571428
 40
0.1428571428571428
 40
0.1428571428571428
 40
0.1428571428571428
 40
0.2857142857142857
 40
0.2857142857142857
 40
0.2857142857142857
 40
0.2857142857142857
 40
0.4285714285714285
 40
0.4285714285714285
 40
0.4285714285714285
 40
0.4285714285714285
 40
0.5714285714285714
 40
0.5714285714285714
 40
0.5714285714285714
 40
0.5714285714285714
 40
0.7142857142857143
 40
0.7142857142857143
 40
0.7142857142857143
 40
0.7142857142857143
 40
1.0
 40
1.0
 40
1.0
 40
1.0
 10
5.92753
 20
0.53048
 30
0.0
 10
5.7004
 20
0.54753
 30
0.0
 10
5.49095
 20
0.68885
 30
0.0
 10
5.39783
 20
0.91367
 30
0.0
 10
5.39783
 20
0.91367
 30
0.0
 10
5.27156
 20
1.21855
 30
0.0
 10
5.40514
 20
1.56622
 30
0.0
 10
5.69658
 20
1.71052
 30
0.0
 10
5.69658
 20
1.71052
 30
0.0
 10
5.72343
 20
1.62204
 30
0.0
 10
5.74791
 20
1.53333
 30
0.0
 10
5.77045
 20
1.44445
 30
0.0
 10
5.77045
 20
1.44445
 30
0.0
 10
5.6359
 20
1.35102
 30
0.0
 10
5.57968
 20
1.17352
 30
0.0
 10
5.64493
 20
1.016
 30
0.0
 10
5.64493
 20
1.016
 30
0.0
 10
5.69094
 20
0.9049
 30
0.0
 10
5.78673
 20
0.82952
 30
0.0
 10
5.89576
 20
0.80493
 30
0.0
 10
5.89576
 20
0.80493
 30
0.0
 10
5.90851
 20
0.71345
 30
0.0
 10
5.91916
 20
0.62195
 30
0.0
 10
5.92753
 20
0.53048
 30
0.0
  0
SPLINE
  5
4C
330
1F
100
AcDbEntity
  8
Layer 1
370
    53
100
AcDbSpline
210
0.0
220
0.0
230
1.0
 70
    11
 71
     3
 72
    20
 73
    16
 74
     0
 42
0.0000000001
 43
0.0000000001
 12
1.0
 22
0.0
 32
0.0
 13
1.0
 23
0.0
 33
0.0
 40
0.0
 40
0.0
 40
0.0
 40
0.0
 40
0.2
 40
0.2
 40
0.2
 40
0.2
 40
0.4
 40
0.4
 40
0.4
 40
0.4
 40
0.6
 40
0.6
 40
0.6
 40
0.6
 40
1.0
 40
1.0
 40
1.0
 40
1.0
 10
1.49709
 20
0.07916
 30
0.0
 10
1.49018
 20
0.21076
 30
0.0
 10
1.46575
 20
0.34324
 30
0.0
 10
1.42239
 20
0.47337
 30
0.0
 10
1.42239
 20
0.47337
 30
0.0
 10
1.42239
 20
0.47337
 30
0.0
 10
2.69718
 20
1.0014
 30
0.0
 10
2.69718
 20
1.0014
 30
0.0
 10
2.69718
 20
1.0014
 30
0.0
 10
2.81202
 20
0.69593
 30
0.0
 10
2.87142
 20
0.38244
 30
0.0
 10
2.88018
 20
0.07225
 30
0.0
 10
2.88018
 20
0.07225
 30
0.0
 10
2.88018
 20
0.07225
 30
0.0
 10
1.49709
 20
0.07916
 30
0.0
 10
1.49709
 20
0.07916
 30
0.0
  0
SPLINE
  5
4D
330
1F
100
AcDbEntity
  8
Layer 1
370
    53
100
AcDbSpline
210
0.0
220
0.0
230
1.0
 70
    11
 71
     3
 72
    28
 73
    24
 74
     0
 42
0.0000000001
 43
0.0000000001
 12
1.0
 22
0.0
 32
0.0
 13
1.0
 23
0.0
 33
0.0
 40
0.0
 40
0.0
 40
0.0
 40
0.0
 40
0.1428571428571428
 40
0.1428571428571428
 40
0.1428571428571428
 40
0.1428571428571428
 40
0.2857142857142857
 40
0.2857142857142857
 40
0.2857142857142857
 40
0.2857142857142857
 40
0.4285714285714285
 40
0.4285714285714285
 40
0.4285714285714285
 40
0.4285714285714285
 40
0.5714285714285714
 40
0.5714285714285714
 40
0.5714285714285714
 40
0.5714285714285714
 40
0.7142857142857143
 40
0.7142857142857143
 40
0.7142857142857143
 40
0.7142857142857143
 40
1.0
 40
1.0
 40
1.0
 40
1.0
 10
5.68322
 20
-1.77773
 30
0.0
 10
5.47991
 20
-1.67506
 30
0.0
 10
5.34049
 20
-1.46436
 30
0.0
 10
5.34049
 20
-1.22104
 30
0.0
 10
5.34049
 20
-1.22104
 30
0.0
 10
5.34049
 20
-0.89101
 30
0.0
 10
5.59694
 20
-0.62094
 30
0.0
 10
5.92142
 20
-0.59913
 30
0.0
 10
5.92142
 20
-0.59913
 30
0.0
 10
5.91239
 20
-0.69115
 30
0.0
 10
5.90104
 20
-0.78249
 30
0.0
 10
5.88785
 20
-0.87323
 30
0.0
 10
5.88785
 20
-0.87323
 30
0.0
 10
5.72781
 20
-0.90806
 30
0.0
 10
5.60793
 20
-1.05055
 30
0.0
 10
5.60793
 20
-1.22104
 30
0.0
 10
5.60793
 20
-1.22104
 30
0.0
 10
5.60792
 20
-1.34129
 30
0.0
 10
5.66758
 20
-1.44759
 30
0.0
 10
5.75889
 20
-1.51202
 30
0.0
 10
5.75889
 20
-1.51202
 30
0.0
 10
5.73566
 20
-1.60143
 30
0.0
 10
5.71049
 20
-1.69004
 30
0.0
 10
5.68322
 20
-1.77773
 30
0.0
  0
SPLINE
  5
4E
330
1F
100
AcDbEntity
  8
Layer 1
370
    53
100
AcDbSpline
210
0.0
220
0.0
230
1.0
 70
    11
 71
     3
 72
    28
 73
    24
 74
     0
 42
0.0000000001
 43
0.0000000001
 12
1.0
 22
0.0
 32
0.0
 13
1.0
 23
0.0
 33
0.0
 40
0.0
 40
0.0
 40
0.0
 40
0.0
 40
0.1428571428571428
 40
0.1428571428571428
 40
0.1428571428571428
 40
0.1428571428571428
 40
0.2857142857142857
 40
0.2857142857142857
 40
0.2857142857142857
 40
0.2857142857142857
 40
0.4285714285714285
 40
0.4285714285714285
 40
0.4285714285714285
 40
0.4285714285714285
 40
0.5714285714285714
 40
0.5714285714285714
 40
0.5714285714285714
 40
0.5714285714285714
 40
0.7142857142857143
 40
0.7142857142857143
 40
0.7142857142857143
 40
0.7142857142857143
 40
1.0
 40
1.0
 40
1.0
 40
1.0
 10
4.47059
 20
-3.17128
 30
0.0
 10
4.59689
 20
-2.86638
 30
0.0
 10
4.93717
 20
-2.71501
 30
0.0
 10
5.2453
 20
-2.81905
 30
0.0
 10
5.2453
 20
-2.81905
 30
0.0
 10
5.20173
 20
-2.90058
 30
0.0
 10
5.15629
 20
-2.98064
 30
0.0
 10
5.10939
 20
-3.05943
 30
0.0
 10
5.10939
 20
-3.05943
 30
0.0
 10
4.94819
 20
-3.03035
 30
0.0
 10
4.78291
 20
-3.11612
 30
0.0
 10
4.71767
 20
-3.27362
 30
0.0
 10
4.71767
 20
-3.27362
 30
0.0
 10
4.67165
 20
-3.38473
 30
0.0
 10
4.68609
 20
-3.50577
 30
0.0
 10
4.74578
 20
-3.60024
 30
0.0
 10
4.74578
 20
-3.60024
 30
0.0
 10
4.69011
 20
-3.67395
 30
0.0
 10
4.63294
 20
-3.74618
 30
0.0
 10
4.57419
 20
-3.81676
 30
0.0
 10
4.57419
 20
-3.81676
 30
0.0
 10
4.42565
 20
-3.64411
 30
0.0
 10
4.37746
 20
-3.39607
 30
0.0
 10
4.47059
 20
-3.17128
 30
0.0
  0
SPLINE
  5
4F
330
1F
100
AcDbEntity
  8
Layer 1
370
    53
100
AcDbSpline
210
0.0
220
0.0
230
1.0
 70
    11
 71
     3
 72
    28
 73
    24
 74
     0
 42
0.0000000001
 43
0.0000000001
 12
1.0
 22
0.0
 32
0.0
 13
1.0
 23
0.0
 33
0.0
 40
0.0
 40
0.0
 40
0.0
 40
0.0
 40
0.1428571428571428
 40
0.1428571428571428
 40
0.1428571428571428
 40
0.1428571428571428
 40
0.2857142857142857
 40
0.2857142857142857
 40
0.2857142857142857
 40
0.2857142857142857
 40
0.4285714285714285
 40
0.4285714285714285
 40
0.4285714285714285
 40
0.4285714285714285
 40
0.5714285714285714
 40
0.5714285714285714
 40
0.5714285714285714
 40
0.5714285714285714
 40
0.7142857142857143
 40
0.7142857142857143
 40
0.7142857142857143
 40
0.7142857142857143
 40
1.0
 40
1.0
 40
1.0
 40
1.0
 10
2.76927
 20
-5.27617
 30
0.0
 10
2.69811
 20
-5.05981
 30
0.0
 10
2.74852
 20
-4.81223
 30
0.0
 10
2.92058
 20
-4.64017
 30
0.0
 10
2.92058
 20
-4.64017
 30
0.0
 10
3.15394
 20
-4.40682
 30
0.0
 10
3.52624
 20
-4.3972
 30
0.0
 10
3.77111
 20
-4.61122
 30
0.0
 10
3.77111
 20
-4.61122
 30
0.0
 10
3.69964
 20
-4.66988
 30
0.0
 10
3.62704
 20
-4.72646
 30
0.0
 10
3.55355
 20
-4.7813
 30
0.0
 10
3.55355
 20
-4.7813
 30
0.0
 10
3.41575
 20
-4.69274
 30
0.0
 10
3.23024
 20
-4.70873
 30
0.0
 10
3.10968
 20
-4.82929
 30
0.0
 10
3.10968
 20
-4.82929
 30
0.0
 10
3.02465
 20
-4.91432
 30
0.0
 10
2.99166
 20
-5.03166
 30
0.0
 10
3.01067
 20
-5.14179
 30
0.0
 10
3.01067
 20
-5.14179
 30
0.0
 10
2.93103
 20
-5.18859
 30
0.0
 10
2.85057
 20
-5.23344
 30
0.0
 10
2.76927
 20
-5.27617
 30
0.0
  0
SPLINE
  5
50
330
1F
100
AcDbEntity
  8
Layer 1
370
    53
100
AcDbSpline
210
0.0
220
0.0
230
1.0
 70
    11
 71
     3
 72
    28
 73
    24
 74
     0
 42
0.0000000001
 43
0.0000000001
 12
1.0
 22
0.0
 32
0.0
 13
1.0
 23
0.0
 33
0.0
 40
0.0
 40
0.0
 40
0.0
 40
0.0
 40
0.1428571428571428
 40
0.1428571428571428
 40
0.1428571428571428
 40
0.1428571428571428
 40
0.2857142857142857
 40
0.2857142857142857
 40
0.2857142857142857
 40
0.2857142857142857
 40
0.4285714285714285
 40
0.4285714285714285
 40
0.4285714285714285
 40
0.4285714285714285
 40
0.5714285714285714
 40
0.5714285714285714
 40
0.5714285714285714
 40
0.5714285714285714
 40
0.7142857142857143
 40
0.7142857142857143
 40
0.7142857142857143
 40
0.7142857142857143
 40
1.0
 40
1.0
 40
1.0
 40
1.0
 10
0.54326
 20
-5.93378
 30
0.0
 10
0.5603
 20
-5.70665
 30
0.0
 10
0.70163
 20
-5.49721
 30
0.0
 10
0.92643
 20
-5.4041
 30
0.0
 10
0.92643
 20
-5.4041
 30
0.0
 10
1.23133
 20
-5.27781
 30
0.0
 10
1.57898
 20
-5.41139
 30
0.0
 10
1.7233
 20
-5.70283
 30
0.0
 10
1.7233
 20
-5.70283
 30
0.0
 10
1.63482
 20
-5.72968
 30
0.0
 10
1.5461
 20
-5.75416
 30
0.0
 10
1.45722
 20
-5.7767
 30
0.0
 10
1.45722
 20
-5.7767
 30
0.0
 10
1.3638
 20
-5.64216
 30
0.0
 10
1.18629
 20
-5.58593
 30
0.0
 10
1.02877
 20
-5.65118
 30
0.0
 10
1.02877
 20
-5.65118
 30
0.0
 10
0.91767
 20
-5.6972
 30
0.0
 10
0.84229
 20
-5.79298
 30
0.0
 10
0.81771
 20
-5.90201
 30
0.0
 10
0.81771
 20
-5.90201
 30
0.0
 10
0.72622
 20
-5.91477
 30
0.0
 10
0.63472
 20
-5.92542
 30
0.0
 10
0.54326
 20
-5.93378
 30
0.0
  0
SPLINE
  5
51
330
1F
100
AcDbEntity
  8
Layer 1
370
    53
100
AcDbSpline
210
0.0
220
0.0
230
1.0
 70
    11
 71
     3
 72
    28
 73
    24
 74
     0
 42
0.0000000001
 43
0.0000000001
 12
1.0
 22
0.0
 32
0.0
 13
1.0
 23
0.0
 33
0.0
 40
0.0
 40
0.0
 40
0.0
 40
0.0
 40
0.1428571428571428
 40
0.1428571428571428
 40
0.1428571428571428
 40
0.1428571428571428
 40
0.2857142857142857
 40
0.2857142857142857
 40
0.2857142857142857
 40
0.2857142857142857
 40
0.4285714285714285
 40
0.4285714285714285
 40
0.4285714285714285
 40
0.4285714285714285
 40
0.5714285714285714
 40
0.5714285714285714
 40
0.5714285714285714
 40
0.5714285714285714
 40
0.7142857142857143
 40
0.7142857142857143
 40
0.7142857142857143
 40
0.7142857142857143
 40
1.0
 40
1.0
 40
1.0
 40
1.0
 10
-1.76496
 20
-5.68947
 30
0.0
 10
-1.66229
 20
-5.48616
 30
0.0
 10
-1.45158
 20
-5.34673
 30
0.0
 10
-1.20826
 20
-5.34674
 30
0.0
 10
-1.20826
 20
-5.34674
 30
0.0
 10
-0.87823
 20
-5.34675
 30
0.0
 10
-0.60817
 20
-5.6032
 30
0.0
 10
-0.58637
 20
-5.92768
 30
0.0
 10
-0.58637
 20
-5.92768
 30
0.0
 10
-0.67839
 20
-5.91863
 30
0.0
 10
-0.76971
 20
-5.90728
 30
0.0
 10
-0.86046
 20
-5.89411
 30
0.0
 10
-0.86046
 20
-5.89411
 30
0.0
 10
-0.89529
 20
-5.73406
 30
0.0
 10
-1.03778
 20
-5.61418
 30
0.0
 10
-1.20826
 20
-5.61418
 30
0.0
 10
-1.20826
 20
-5.61418
 30
0.0
 10
-1.32852
 20
-5.61418
 30
0.0
 10
-1.43481
 20
-5.67383
 30
0.0
 10
-1.49924
 20
-5.76514
 30
0.0
 10
-1.49924
 20
-5.76514
 30
0.0
 10
-1.58866
 20
-5.74192
 30
0.0
 10
-1.67727
 20
-5.71674
 30
0.0
 10
-1.76496
 20
-5.68947
 30
0.0
  0
SPLINE
  5
52
330
1F
100
AcDbEntity
  8
Layer 1
370
    53
100
AcDbSpline
210
0.0
220
0.0
230
1.0
 70
    11
 71
     3
 72
    28
 73
    24
 74
     0
 42
0.0000000001
 43
0.0000000001
 12
1.0
 22
0.0
 32
0.0
 13
1.0
 23
0.0
 33
0.0
 40
0.0
 40
0.0
 40
0.0
 40
0.0
 40
0.1428571428571428
 40
0.1428571428571428
 40
0.1428571428571428
 40
0.1428571428571428
 40
0.2857142857142857
 40
0.2857142857142857
 40
0.2857142857142857
 40
0.2857142857142857
 40
0.4285714285714285
 40
0.4285714285714285
 40
0.4285714285714285
 40
0.4285714285714285
 40
0.5714285714285714
 40
0.5714285714285714
 40
0.5714285714285714
 40
0.5714285714285714
 40
0.7142857142857143
 40
0.7142857142857143
 40
0.7142857142857143
 40
0.7142857142857143
 40
1.0
 40
1.0
 40
1.0
 40
1.0
 10
-3.15851
 20
-4.47684
 30
0.0
 10
-2.85362
 20
-4.60313
 30
0.0
 10
-2.70224
 20
-4.94342
 30
0.0
 10
-2.80627
 20
-5.25156
 30
0.0
 10
-2.80627
 20
-5.25156
 30
0.0
 10
-2.88782
 20
-5.20796
 30
0.0
 10
-2.96786
 20
-5.16255
 30
0.0
 10
-3.04667
 20
-5.11566
 30
0.0
 10
-3.04667
 20
-5.11566
 30
0.0
 10
-3.01758
 20
-4.95444
 30
0.0
 10
-3.10334
 20
-4.78917
 30
0.0
 10
-3.26086
 20
-4.72391
 30
0.0
 10
-3.26086
 20
-4.72391
 30
0.0
 10
-3.37195
 20
-4.6779
 30
0.0
 10
-3.49299
 20
-4.69234
 30
0.0
 10
-3.58746
 20
-4.75204
 30
0.0
 10
-3.58746
 20
-4.75204
 30
0.0
 10
-3.66117
 20
-4.69636
 30
0.0
 10
-3.73341
 20
-4.6392
 30
0.0
 10
-3.80399
 20
-4.58044
 30
0.0
 10
-3.80399
 20
-4.58044
 30
0.0
 10
-3.63133
 20
-4.4319
 30
0.0
 10
-3.38331
 20
-4.38372
 30
0.0
 10
-3.15851
 20
-4.47684
 30
0.0
  0
SPLINE
  5
53
330
1F
100
AcDbEntity
  8
Layer 1
370
    53
100
AcDbSpline
210
0.0
220
0.0
230
1.0
 70
    11
 71
     3
 72
    28
 73
    24
 74
     0
 42
0.0000000001
 43
0.0000000001
 12
1.0
 22
0.0
 32
0.0
 13
1.0
 23
0.0
 33
0.0
 40
0.0
 40
0.0
 40
0.0
 40
0.0
 40
0.1428571428571428
 40
0.1428571428571428
 40
0.1428571428571428
 40
0.1428571428571428
 40
0.2857142857142857
 40
0.2857142857142857
 40
0.2857142857142857
 40
0.2857142857142857
 40
0.4285714285714285
 40
0.4285714285714285
 40
0.4285714285714285
 40
0.4285714285714285
 40
0.5714285714285714
 40
0.5714285714285714
 40
0.5714285714285714
 40
0.5714285714285714
 40
0.7142857142857143
 40
0.7142857142857143
 40
0.7142857142857143
 40
0.7142857142857143
 40
1.0
 40
1.0
 40
1.0
 40
1.0
 10
-5.2634
 20
-2.77552
 30
0.0
 10
-5.04704
 20
-2.70436
 30
0.0
 10
-4.79946
 20
-2.75477
 30
0.0
 10
-4.6274
 20
-2.92683
 30
0.0
 10
-4.6274
 20
-2.92683
 30
0.0
 10
-4.39405
 20
-3.1602
 30
0.0
 10
-4.38442
 20
-3.5325
 30
0.0
 10
-4.59846
 20
-3.77736
 30
0.0
 10
-4.59846
 20
-3.77736
 30
0.0
 10
-4.65711
 20
-3.70589
 30
0.0
 10
-4.71369
 20
-3.63329
 30
0.0
 10
-4.76852
 20
-3.5598
 30
0.0
 10
-4.76852
 20
-3.5598
 30
0.0
 10
-4.67996
 20
-3.422
 30
0.0
 10
-4.69595
 20
-3.23649
 30
0.0
 10
-4.81651
 20
-3.11593
 30
0.0
 10
-4.81651
 20
-3.11593
 30
0.0
 10
-4.90154
 20
-3.0309
 30
0.0
 10
-5.01889
 20
-2.99792
 30
0.0
 10
-5.12901
 20
-3.01692
 30
0.0
 10
-5.12901
 20
-3.01692
 30
0.0
 10
-5.17582
 20
-2.93728
 30
0.0
 10
-5.22067
 20
-2.85682
 30
0.0
 10
-5.2634
 20
-2.77552
 30
0.0
  0
SPLINE
  5
54
330
1F
100
AcDbEntity
  8
Layer 1
370
    53
100
AcDbSpline
210
0.0
220
0.0
230
1.0
 70
    11
 71
     3
 72
    28
 73
    24
 74
     0
 42
0.0000000001
 43
0.0000000001
 12
1.0
 22
0.0
 32
0.0
 13
1.0
 23
0.0
 33
0.0
 40
0.0
 40
0.0
 40
0.0
 40
0.0
 40
0.1428571428571428
 40
0.1428571428571428
 40
0.1428571428571428
 40
0.1428571428571428
 40
0.2857142857142857
 40
0.2857142857142857
 40
0.2857142857142857
 40
0.2857142857142857
 40
0.4285714285714285
 40
0.4285714285714285
 40
0.4285714285714285
 40
0.4285714285714285
 40
0.5714285714285714
 40
0.5714285714285714
 40
0.5714285714285714
 40
0.5714285714285714
 40
0.7142857142857143
 40
0.7142857142857143
 40
0.7142857142857143
 40
0.7142857142857143
 40
1.0
 40
1.0
 40
1.0
 40
1.0
 10
-5.92101
 20
-0.54951
 30
0.0
 10
-5.69388
 20
-0.56656
 30
0.0
 10
-5.48443
 20
-0.70788
 30
0.0
 10
-5.39133
 20
-0.93268
 30
0.0
 10
-5.39133
 20
-0.93268
 30
0.0
 10
-5.26504
 20
-1.23758
 30
0.0
 10
-5.39861
 20
-1.58524
 30
0.0
 10
-5.69006
 20
-1.72955
 30
0.0
 10
-5.69006
 20
-1.72955
 30
0.0
 10
-5.71691
 20
-1.64107
 30
0.0
 10
-5.74139
 20
-1.55236
 30
0.0
 10
-5.76393
 20
-1.46347
 30
0.0
 10
-5.76393
 20
-1.46347
 30
0.0
 10
-5.62938
 20
-1.37005
 30
0.0
 10
-5.57316
 20
-1.19255
 30
0.0
 10
-5.63841
 20
-1.03502
 30
0.0
 10
-5.63841
 20
-1.03502
 30
0.0
 10
-5.68442
 20
-0.92392
 30
0.0
 10
-5.78021
 20
-0.84855
 30
0.0
 10
-5.88924
 20
-0.82396
 30
0.0
 10
-5.88924
 20
-0.82396
 30
0.0
 10
-5.90199
 20
-0.73247
 30
0.0
 10
-5.91264
 20
-0.64097
 30
0.0
 10
-5.92101
 20
-0.54951
 30
0.0
  0
SPLINE
  5
55
330
1F
100
AcDbEntity
  8
Layer 1
370
    53
100
AcDbSpline
210
0.0
220
0.0
230
1.0
 70
    11
 71
     3
 72
    20
 73
    16
 74
     0
 42
0.0000000001
 43
0.0000000001
 12
1.0
 22
0.0
 32
0.0
 13
1.0
 23
0.0
 33
0.0
 40
0.0
 40
0.0
 40
0.0
 40
0.0
 40
0.2
 40
0.2
 40
0.2
 40
0.2
 40
0.4
 40
0.4
 40
0.4
 40
0.4
 40
0.6
 40
0.6
 40
0.6
 40
0.6
 40
1.0
 40
1.0
 40
1.0
 40
1.0
 10
-1.49057
 20
-0.09819
 30
0.0
 10
-1.48367
 20
-0.22979
 30
0.0
 10
-1.45923
 20
-0.36227
 30
0.0
 10
-1.41587
 20
-0.4924
 30
0.0
 10
-1.41587
 20
-0.4924
 30
0.0
 10
-1.41587
 20
-0.4924
 30
0.0
 10
-2.69066
 20
-1.02043
 30
0.0
 10
-2.69066
 20
-1.02043
 30
0.0
 10
-2.69066
 20
-1.02043
 30
0.0
 10
-2.8055
 20
-0.71496
 30
0.0
 10
-2.8649
 20
-0.40146
 30
0.0
 10
-2.87367
 20
-0.09128
 30
0.0
 10
-2.87367
 20
-0.09128
 30
0.0
 10
-2.87367
 20
-0.09128
 30
0.0
 10
-1.49057
 20
-0.09819
 30
0.0
 10
-1.49057
 20
-0.09819
 30
0.0
  0
SPLINE
  5
56
330
1F
100
AcDbEntity
  8
Layer 1
370
    53
100
AcDbSpline
210
0.0
220
0.0
230
1.0
 70
    11
 71
     3
 72
    28
 73
    24
 74
     0
 42
0.0000000001
 43
0.0000000001
 12
1.0
 22
0.0
 32
0.0
 13
1.0
 23
0.0
 33
0.0
 40
0.0
 40
0.0
 40
0.0
 40
0.0
 40
0.1428571428571428
 40
0.1428571428571428
 40
0.1428571428571428
 40
0.1428571428571428
 40
0.2857142857142857
 40
0.2857142857142857
 40
0.2857142857142857
 40
0.2857142857142857
 40
0.4285714285714285
 40
0.4285714285714285
 40
0.4285714285714285
 40
0.4285714285714285
 40
0.5714285714285714
 40
0.5714285714285714
 40
0.5714285714285714
 40
0.5714285714285714
 40
0.7142857142857143
 40
0.7142857142857143
 40
0.7142857142857143
 40
0.7142857142857143
 40
1.0
 40
1.0
 40
1.0
 40
1.0
 10
-5.6767
 20
1.75871
 30
0.0
 10
-5.4734
 20
1.65604
 30
0.0
 10
-5.33397
 20
1.44534
 30
0.0
 10
-5.33397
 20
1.20201
 30
0.0
 10
-5.33397
 20
1.20201
 30
0.0
 10
-5.33397
 20
0.87198
 30
0.0
 10
-5.59042
 20
0.60191
 30
0.0
 10
-5.91491
 20
0.58012
 30
0.0
 10
-5.91491
 20
0.58012
 30
0.0
 10
-5.90586
 20
0.67214
 30
0.0
 10
-5.89452
 20
0.76347
 30
0.0
 10
-5.88134
 20
0.85421
 30
0.0
 10
-5.88134
 20
0.85421
 30
0.0
 10
-5.72129
 20
0.88904
 30
0.0
 10
-5.60141
 20
1.03152
 30
0.0
 10
-5.60142
 20
1.202
 30
0.0
 10
-5.60142
 20
1.202
 30
0.0
 10
-5.6014
 20
1.32227
 30
0.0
 10
-5.66106
 20
1.42856
 30
0.0
 10
-5.75237
 20
1.49299
 30
0.0
 10
-5.75237
 20
1.49299
 30
0.0
 10
-5.72914
 20
1.5824
 30
0.0
 10
-5.70397
 20
1.67102
 30
0.0
 10
-5.6767
 20
1.75871
 30
0.0
  0
SPLINE
  5
57
330
1F
100
AcDbEntity
  8
Layer 1
370
    53
100
AcDbSpline
210
0.0
220
0.0
230
1.0
 70
    11
 71
     3
 72
    20
 73
    16
 74
     0
 42
0.0000000001
 43
0.0000000001
 12
1.0
 22
0.0
 32
0.0
 13
1.0
 23
0.0
 33
0.0
 40
0.0
 40
0.0
 40
0.0
 40
0.0
 40
0.2
 40
0.2
 40
0.2
 40
0.2
 40
0.4
 40
0.4
 40
0.4
 40
0.4
 40
0.6
 40
0.6
 40
0.6
 40
0.6
 40
1.0
 40
1.0
 40
1.0
 40
1.0
 10
-1.41079
 20
0.48023
 30
0.0
 10
-1.45478
 20
0.356
 30
0.0
 10
-1.48291
 20
0.22426
 30
0.0
 10
-1.49265
 20
0.08743
 30
0.0
 10
-1.49265
 20
0.08743
 30
0.0
 10
-1.49265
 20
0.08743
 30
0.0
 10
-2.87246
 20
0.08744
 30
0.0
 10
-2.87246
 20
0.08744
 30
0.0
 10
-2.87246
 20
0.08744
 30
0.0
 10
-2.86164
 20
0.4136
 30
0.0
 10
-2.79656
 20
0.72596
 30
0.0
 10
-2.68595
 20
1.0159
 30
0.0
 10
-2.68595
 20
1.0159
 30
0.0
 10
-2.68595
 20
1.0159
 30
0.0
 10
-1.41079
 20
0.48023
 30
0.0
 10
-1.41079
 20
0.48023
 30
0.0
  0
SPLINE
  5
58
330
1F
100
AcDbEntity
  8
Layer 1
370
    53
100
AcDbSpline
210
0.0
220
0.0
230
1.0
 70
    11
 71
     3
 72
    28
 73
    24
 74
     0
 42
0.0000000001
 43
0.0000000001
 12
1.0
 22
0.0
 32
0.0
 13
1.0
 23
0.0
 33
0.0
 40
0.0
 40
0.0
 40
0.0
 40
0.0
 40
0.1428571428571428
 40
0.1428571428571428
 40
0.1428571428571428
 40
0.1428571428571428
 40
0.2857142857142857
 40
0.2857142857142857
 40
0.2857142857142857
 40
0.2857142857142857
 40
0.4285714285714285
 40
0.4285714285714285
 40
0.4285714285714285
 40
0.4285714285714285
 40
0.5714285714285714
 40
0.5714285714285714
 40
0.5714285714285714
 40
0.5714285714285714
 40
0.7142857142857143
 40
0.7142857142857143
 40
0.7142857142857143
 40
0.7142857142857143
 40
1.0
 40
1.0
 40
1.0
 40
1.0
 10
-4.46406
 20
3.15226
 30
0.0
 10
-4.59036
 20
2.84736
 30
0.0
 10
-4.93066
 20
2.69598
 30
0.0
 10
-5.23878
 20
2.80002
 30
0.0
 10
-5.23878
 20
2.80002
 30
0.0
 10
-5.1952
 20
2.88158
 30
0.0
 10
-5.14977
 20
2.96161
 30
0.0
 10
-5.10286
 20
3.04041
 30
0.0
 10
-5.10286
 20
3.04041
 30
0.0
 10
-4.94166
 20
3.01132
 30
0.0
 10
-4.77639
 20
3.09709
 30
0.0
 10
-4.71114
 20
3.2546
 30
0.0
 10
-4.71114
 20
3.2546
 30
0.0
 10
-4.68467
 20
3.31852
 30
0.0
 10
-4.67822
 20
3.38573
 30
0.0
 10
-4.68887
 20
3.44927
 30
0.0
 10
-4.68887
 20
3.44927
 30
0.0
 10
-4.68887
 20
3.44927
 30
0.0
 10
-4.47777
 20
3.65992
 30
0.0
 10
-4.47777
 20
3.65992
 30
0.0
 10
-4.47777
 20
3.65992
 30
0.0
 10
-4.40408
 20
3.5059
 30
0.0
 10
-4.39357
 20
3.32244
 30
0.0
 10
-4.46406
 20
3.15226
 30
0.0
  0
SPLINE
  5
59
330
1F
100
AcDbEntity
  8
Layer 1
370
    53
100
AcDbSpline
210
0.0
220
0.0
230
1.0
 70
    11
 71
     3
 72
    48
 73
    44
 74
     0
 42
0.0000000001
 43
0.0000000001
 12
1.0
 22
0.0
 32
0.0
 13
1.0
 23
0.0
 33
0.0
 40
0.0
 40
0.0
 40
0.0
 40
0.0
 40
0.0833333333333333
 40
0.0833333333333333
 40
0.0833333333333333
 40
0.0833333333333333
 40
0.1666666666666667
 40
0.1666666666666667
 40
0.1666666666666667
 40
0.1666666666666667
 40
0.25
 40
0.25
 40
0.25
 40
0.25
 40
0.3333333333333333
 40
0.3333333333333333
 40
0.3333333333333333
 40
0.3333333333333333
 40
0.4166666666666667
 40
0.4166666666666667
 40
0.4166666666666667
 40
0.4166666666666667
 40
0.5
 40
0.5
 40
0.5
 40
0.5
 40
0.5833333333333334
 40
0.5833333333333334
 40
0.5833333333333334
 40
0.5833333333333334
 40
0.6666666666666666
 40
0.6666666666666666
 40
0.6666666666666666
 40
0.6666666666666666
 40
0.75
 40
0.75
 40
0.75
 40
0.75
 40
0.8333333333333334
 40
0.8333333333333334
 40
0.8333333333333334
 40
0.8333333333333334
 40
1.0
 40
1.0
 40
1.0
 40
1.0
 10
5.95037
 20
0.13499
 30
0.0
 10
5.95037
 20
0.13499
 30
0.0
 10
3.98493
 20
0.13499
 30
0.0
 10
3.98493
 20
0.13499
 30
0.0
 10
3.98493
 20
0.13499
 30
0.0
 10
3.978
 20
0.16063
 30
0.0
 10
3.96936
 20
0.1861
 30
0.0
 10
3.95894
 20
0.21129
 30
0.0
 10
3.95894
 20
0.21129
 30
0.0
 10
3.86971
 20
0.42669
 30
0.0
 10
3.67366
 20
0.56546
 30
0.0
 10
3.45762
 20
0.5917
 30
0.0
 10
3.45762
 20
0.5917
 30
0.0
 10
3.45262
 20
0.62015
 30
0.0
 10
3.44729
 20
0.6486
 30
0.0
 10
3.44159
 20
0.67704
 30
0.0
 10
3.44159
 20
0.67704
 30
0.0
 10
3.43757
 20
0.69704
 30
0.0
 10
3.43336
 20
0.71705
 30
0.0
 10
3.42898
 20
0.73706
 30
0.0
 10
3.42898
 20
0.73706
 30
0.0
 10
3.66798
 20
0.85975
 30
0.0
 10
3.79793
 20
1.12047
 30
0.0
 10
3.7609
 20
1.37921
 30
0.0
 10
3.7609
 20
1.37921
 30
0.0
 10
3.7609
 20
1.37921
 30
0.0
 10
5.55526
 20
2.12246
 30
0.0
 10
5.55526
 20
2.12246
 30
0.0
 10
5.55526
 20
2.12246
 30
0.0
 10
5.5774
 20
2.06483
 30
0.0
 10
5.59857
 20
2.00709
 30
0.0
 10
5.61881
 20
1.94922
 30
0.0
 10
5.61881
 20
1.94922
 30
0.0
 10
5.18807
 20
1.75765
 30
0.0
 10
4.98623
 20
1.25644
 30
0.0
 10
5.16771
 20
0.81831
 30
0.0
 10
5.16771
 20
0.81831
 30
0.0
 10
5.30294
 20
0.49183
 30
0.0
 10
5.61352
 20
0.29111
 30
0.0
 10
5.94511
 20
0.28002
 30
0.0
 10
5.94511
 20
0.28002
 30
0.0
 10
5.94746
 20
0.23162
 30
0.0
 10
5.94922
 20
0.18328
 30
0.0
 10
5.95037
 20
0.13499
 30
0.0
  0
SPLINE
  5
5A
330
1F
100
AcDbEntity
  8
Layer 1
370
    53
100
AcDbSpline
210
0.0
220
0.0
230
1.0
 70
    11
 71
     3
 72
    48
 73
    44
 74
     0
 42
0.0000000001
 43
0.0000000001
 12
1.0
 22
0.0
 32
0.0
 13
1.0
 23
0.0
 33
0.0
 40
0.0
 40
0.0
 40
0.0
 40
0.0
 40
0.0833333333333333
 40
0.0833333333333333
 40
0.0833333333333333
 40
0.0833333333333333
 40
0.1666666666666667
 40
0.1666666666666667
 40
0.1666666666666667
 40
0.1666666666666667
 40
0.25
 40
0.25
 40
0.25
 40
0.25
 40
0.3333333333333333
 40
0.3333333333333333
 40
0.3333333333333333
 40
0.3333333333333333
 40
0.4166666666666667
 40
0.4166666666666667
 40
0.4166666666666667
 40
0.4166666666666667
 40
0.5
 40
0.5
 40
0.5
 40
0.5
 40
0.5833333333333334
 40
0.5833333333333334
 40
0.5833333333333334
 40
0.5833333333333334
 40
0.6666666666666666
 40
0.6666666666666666
 40
0.6666666666666666
 40
0.6666666666666666
 40
0.75
 40
0.75
 40
0.75
 40
0.75
 40
0.8333333333333334
 40
0.8333333333333334
 40
0.8333333333333334
 40
0.8333333333333334
 40
1.0
 40
1.0
 40
1.0
 40
1.0
 10
3.73688
 20
-1.40176
 30
0.0
 10
3.74047
 20
-1.37478
 30
0.0
 10
3.74231
 20
-1.34725
 30
0.0
 10
3.74232
 20
-1.31929
 30
0.0
 10
3.74232
 20
-1.31929
 30
0.0
 10
3.74231
 20
-1.08613
 30
0.0
 10
3.61431
 20
-0.8829
 30
0.0
 10
3.42474
 20
-0.77599
 30
0.0
 10
3.42474
 20
-0.77599
 30
0.0
 10
3.43102
 20
-0.74779
 30
0.0
 10
3.43697
 20
-0.71946
 30
0.0
 10
3.44258
 20
-0.69101
 30
0.0
 10
3.44258
 20
-0.69101
 30
0.0
 10
3.44653
 20
-0.67098
 30
0.0
 10
3.45031
 20
-0.65089
 30
0.0
 10
3.45391
 20
-0.63074
 30
0.0
 10
3.45391
 20
-0.63074
 30
0.0
 10
3.72148
 20
-0.60886
 30
0.0
 10
3.94119
 20
-0.41797
 30
0.0
 10
4.00616
 20
-0.16501
 30
0.0
 10
4.00616
 20
-0.16501
 30
0.0
 10
4.00616
 20
-0.16501
 30
0.0
 10
5.9485
 20
-0.16501
 30
0.0
 10
5.9485
 20
-0.16501
 30
0.0
 10
5.9485
 20
-0.16501
 30
0.0
 10
5.9469
 20
-0.22653
 30
0.0
 10
5.94437
 20
-0.28782
 30
0.0
 10
5.94093
 20
-0.34885
 30
0.0
 10
5.94093
 20
-0.34885
 30
0.0
 10
5.46966
 20
-0.36101
 30
0.0
 10
5.09139
 20
-0.74682
 30
0.0
 10
5.09138
 20
-1.22106
 30
0.0
 10
5.09138
 20
-1.22106
 30
0.0
 10
5.09138
 20
-1.57443
 30
0.0
 10
5.30151
 20
-1.87873
 30
0.0
 10
5.60362
 20
-2.01588
 30
0.0
 10
5.60362
 20
-2.01588
 30
0.0
 10
5.58705
 20
-2.0621
 30
0.0
 10
5.56993
 20
-2.10804
 30
0.0
 10
5.55227
 20
-2.15371
 30
0.0
 10
5.55227
 20
-2.15371
 30
0.0
 10
5.55227
 20
-2.15371
 30
0.0
 10
3.73688
 20
-1.40176
 30
0.0
 10
3.73688
 20
-1.40176
 30
0.0
  0
SPLINE
  5
5B
330
1F
100
AcDbEntity
  8
Layer 1
370
    53
100
AcDbSpline
210
0.0
220
0.0
230
1.0
 70
    11
 71
     3
 72
    20
 73
    16
 74
     0
 42
0.0000000001
 43
0.0000000001
 12
1.0
 22
0.0
 32
0.0
 13
1.0
 23
0.0
 33
0.0
 40
0.0
 40
0.0
 40
0.0
 40
0.0
 40
0.2
 40
0.2
 40
0.2
 40
0.2
 40
0.4
 40
0.4
 40
0.4
 40
0.4
 40
0.6
 40
0.6
 40
0.6
 40
0.6
 40
1.0
 40
1.0
 40
1.0
 40
1.0
 10
1.41731
 20
-0.49926
 30
0.0
 10
1.4613
 20
-0.37502
 30
0.0
 10
1.48943
 20
-0.24329
 30
0.0
 10
1.49916
 20
-0.10647
 30
0.0
 10
1.49916
 20
-0.10647
 30
0.0
 10
1.49916
 20
-0.10647
 30
0.0
 10
2.87898
 20
-0.10647
 30
0.0
 10
2.87898
 20
-0.10647
 30
0.0
 10
2.87898
 20
-0.10647
 30
0.0
 10
2.86817
 20
-0.43263
 30
0.0
 10
2.80308
 20
-0.74499
 30
0.0
 10
2.69247
 20
-1.03492
 30
0.0
 10
2.69247
 20
-1.03492
 30
0.0
 10
2.69247
 20
-1.03492
 30
0.0
 10
1.41731
 20
-0.49926
 30
0.0
 10
1.41731
 20
-0.49926
 30
0.0
  0
SPLINE
  5
5C
330
1F
100
AcDbEntity
  8
Layer 1
370
    53
100
AcDbSpline
210
0.0
220
0.0
230
1.0
 70
    11
 71
     3
 72
    48
 73
    44
 74
     0
 42
0.0000000001
 43
0.0000000001
 12
1.0
 22
0.0
 32
0.0
 13
1.0
 23
0.0
 33
0.0
 40
0.0
 40
0.0
 40
0.0
 40
0.0
 40
0.0833333333333333
 40
0.0833333333333333
 40
0.0833333333333333
 40
0.0833333333333333
 40
0.1666666666666667
 40
0.1666666666666667
 40
0.1666666666666667
 40
0.1666666666666667
 40
0.25
 40
0.25
 40
0.25
 40
0.25
 40
0.3333333333333333
 40
0.3333333333333333
 40
0.3333333333333333
 40
0.3333333333333333
 40
0.4166666666666667
 40
0.4166666666666667
 40
0.4166666666666667
 40
0.4166666666666667
 40
0.5
 40
0.5
 40
0.5
 40
0.5
 40
0.5833333333333334
 40
0.5833333333333334
 40
0.5833333333333334
 40
0.5833333333333334
 40
0.6666666666666666
 40
0.6666666666666666
 40
0.6666666666666666
 40
0.6666666666666666
 40
0.75
 40
0.75
 40
0.75
 40
0.75
 40
0.8333333333333334
 40
0.8333333333333334
 40
0.8333333333333334
 40
0.8333333333333334
 40
1.0
 40
1.0
 40
1.0
 40
1.0
 10
0.22405
 20
-3.96518
 30
0.0
 10
0.43946
 20
-3.87595
 30
0.0
 10
0.57824
 20
-3.67991
 30
0.0
 10
0.60448
 20
-3.46386
 30
0.0
 10
0.60448
 20
-3.46386
 30
0.0
 10
0.63292
 20
-3.45887
 30
0.0
 10
0.66136
 20
-3.45353
 30
0.0
 10
0.68981
 20
-3.44783
 30
0.0
 10
0.68981
 20
-3.44783
 30
0.0
 10
0.70983
 20
-3.44381
 30
0.0
 10
0.72983
 20
-3.43961
 30
0.0
 10
0.74983
 20
-3.43523
 30
0.0
 10
0.74983
 20
-3.43523
 30
0.0
 10
0.871
 20
-3.67125
 30
0.0
 10
1.1268
 20
-3.80094
 30
0.0
 10
1.38234
 20
-3.76846
 30
0.0
 10
1.38234
 20
-3.76846
 30
0.0
 10
1.38234
 20
-3.76846
 30
0.0
 10
2.12645
 20
-5.56488
 30
0.0
 10
2.12645
 20
-5.56488
 30
0.0
 10
2.12645
 20
-5.56488
 30
0.0
 10
2.07175
 20
-5.58579
 30
0.0
 10
2.01693
 20
-5.60585
 30
0.0
 10
1.962
 20
-5.62506
 30
0.0
 10
1.962
 20
-5.62506
 30
0.0
 10
1.77042
 20
-5.19432
 30
0.0
 10
1.26921
 20
-4.99248
 30
0.0
 10
0.83108
 20
-5.17396
 30
0.0
 10
0.83108
 20
-5.17396
 30
0.0
 10
0.50461
 20
-5.30919
 30
0.0
 10
0.30388
 20
-5.61978
 30
0.0
 10
0.29279
 20
-5.95137
 30
0.0
 10
0.29279
 20
-5.95137
 30
0.0
 10
0.24013
 20
-5.95392
 30
0.0
 10
0.18754
 20
-5.95577
 30
0.0
 10
0.135
 20
-5.95692
 30
0.0
 10
0.135
 20
-5.95692
 30
0.0
 10
0.135
 20
-5.95692
 30
0.0
 10
0.135
 20
-3.9945
 30
0.0
 10
0.135
 20
-3.9945
 30
0.0
 10
0.135
 20
-3.9945
 30
0.0
 10
0.16494
 20
-3.98707
 30
0.0
 10
0.1947
 20
-3.97734
 30
0.0
 10
0.22405
 20
-3.96518
 30
0.0
  0
SPLINE
  5
5D
330
1F
100
AcDbEntity
  8
Layer 1
370
    53
100
AcDbSpline
210
0.0
220
0.0
230
1.0
 70
    11
 71
     3
 72
    20
 73
    16
 74
     0
 42
0.0000000001
 43
0.0000000001
 12
1.0
 22
0.0
 32
0.0
 13
1.0
 23
0.0
 33
0.0
 40
0.0
 40
0.0
 40
0.0
 40
0.0
 40
0.2
 40
0.2
 40
0.2
 40
0.2
 40
0.4
 40
0.4
 40
0.4
 40
0.4
 40
0.6
 40
0.6
 40
0.6
 40
0.6
 40
1.0
 40
1.0
 40
1.0
 40
1.0
 10
0.09194
 20
-1.50335
 30
0.0
 10
0.22354
 20
-1.49644
 30
0.0
 10
0.35601
 20
-1.47201
 30
0.0
 10
0.48614
 20
-1.42864
 30
0.0
 10
0.48614
 20
-1.42864
 30
0.0
 10
0.48614
 20
-1.42864
 30
0.0
 10
1.01418
 20
-2.70344
 30
0.0
 10
1.01418
 20
-2.70344
 30
0.0
 10
1.01418
 20
-2.70344
 30
0.0
 10
0.70871
 20
-2.81827
 30
0.0
 10
0.39521
 20
-2.87767
 30
0.0
 10
0.08502
 20
-2.88643
 30
0.0
 10
0.08502
 20
-2.88643
 30
0.0
 10
0.08502
 20
-2.88643
 30
0.0
 10
0.09194
 20
-1.50335
 30
0.0
 10
0.09194
 20
-1.50335
 30
0.0
  0
SPLINE
  5
5E
330
1F
100
AcDbEntity
  8
Layer 1
370
    53
100
AcDbSpline
210
0.0
220
0.0
230
1.0
 70
    11
 71
     3
 72
    48
 73
    44
 74
     0
 42
0.0000000001
 43
0.0000000001
 12
1.0
 22
0.0
 32
0.0
 13
1.0
 23
0.0
 33
0.0
 40
0.0
 40
0.0
 40
0.0
 40
0.0
 40
0.0833333333333333
 40
0.0833333333333333
 40
0.0833333333333333
 40
0.0833333333333333
 40
0.1666666666666667
 40
0.1666666666666667
 40
0.1666666666666667
 40
0.1666666666666667
 40
0.25
 40
0.25
 40
0.25
 40
0.25
 40
0.3333333333333333
 40
0.3333333333333333
 40
0.3333333333333333
 40
0.3333333333333333
 40
0.4166666666666667
 40
0.4166666666666667
 40
0.4166666666666667
 40
0.4166666666666667
 40
0.5
 40
0.5
 40
0.5
 40
0.5
 40
0.5833333333333334
 40
0.5833333333333334
 40
0.5833333333333334
 40
0.5833333333333334
 40
0.6666666666666666
 40
0.6666666666666666
 40
0.6666666666666666
 40
0.6666666666666666
 40
0.75
 40
0.75
 40
0.75
 40
0.75
 40
0.8333333333333334
 40
0.8333333333333334
 40
0.8333333333333334
 40
0.8333333333333334
 40
1.0
 40
1.0
 40
1.0
 40
1.0
 10
-1.30651
 20
-3.74857
 30
0.0
 10
-1.07336
 20
-3.74857
 30
0.0
 10
-0.87014
 20
-3.62057
 30
0.0
 10
-0.76322
 20
-3.431
 30
0.0
 10
-0.76322
 20
-3.431
 30
0.0
 10
-0.73502
 20
-3.43728
 30
0.0
 10
-0.70668
 20
-3.44322
 30
0.0
 10
-0.67824
 20
-3.44883
 30
0.0
 10
-0.67824
 20
-3.44883
 30
0.0
 10
-0.6582
 20
-3.45278
 30
0.0
 10
-0.63812
 20
-3.45656
 30
0.0
 10
-0.61796
 20
-3.46016
 30
0.0
 10
-0.61796
 20
-3.46016
 30
0.0
 10
-0.59646
 20
-3.72321
 30
0.0
 10
-0.4116
 20
-3.94
 30
0.0
 10
-0.165
 20
-4.00899
 30
0.0
 10
-0.165
 20
-4.00899
 30
0.0
 10
-0.165
 20
-4.00899
 30
0.0
 10
-0.165
 20
-5.95441
 30
0.0
 10
-0.165
 20
-5.95441
 30
0.0
 10
-0.165
 20
-5.95441
 30
0.0
 10
-0.22224
 20
-5.9528
 30
0.0
 10
-0.27926
 20
-5.95038
 30
0.0
 10
-0.33608
 20
-5.94718
 30
0.0
 10
-0.33608
 20
-5.94718
 30
0.0
 10
-0.34824
 20
-5.47592
 30
0.0
 10
-0.73405
 20
-5.09764
 30
0.0
 10
-1.20828
 20
-5.09763
 30
0.0
 10
-1.20828
 20
-5.09763
 30
0.0
 10
-1.56165
 20
-5.09763
 30
0.0
 10
-1.86595
 20
-5.30777
 30
0.0
 10
-2.00311
 20
-5.60987
 30
0.0
 10
-2.00311
 20
-5.60987
 30
0.0
 10
-2.05379
 20
-5.5917
 30
0.0
 10
-2.10414
 20
-5.57288
 30
0.0
 10
-2.15416
 20
-5.55339
 30
0.0
 10
-2.15416
 20
-5.55339
 30
0.0
 10
-2.15416
 20
-5.55339
 30
0.0
 10
-1.40347
 20
-3.74104
 30
0.0
 10
-1.40347
 20
-3.74104
 30
0.0
 10
-1.40347
 20
-3.74104
 30
0.0
 10
-1.37188
 20
-3.74599
 30
0.0
 10
-1.3395
 20
-3.74857
 30
0.0
 10
-1.30651
 20
-3.74857
 30
0.0
  0
SPLINE
  5
5F
330
1F
100
AcDbEntity
  8
Layer 1
370
    53
100
AcDbSpline
210
0.0
220
0.0
230
1.0
 70
    11
 71
     3
 72
    20
 73
    16
 74
     0
 42
0.0000000001
 43
0.0000000001
 12
1.0
 22
0.0
 32
0.0
 13
1.0
 23
0.0
 33
0.0
 40
0.0
 40
0.0
 40
0.0
 40
0.0
 40
0.2
 40
0.2
 40
0.2
 40
0.2
 40
0.4
 40
0.4
 40
0.4
 40
0.4
 40
0.6
 40
0.6
 40
0.6
 40
0.6
 40
1.0
 40
1.0
 40
1.0
 40
1.0
 10
-0.48648
 20
-1.42356
 30
0.0
 10
-0.36225
 20
-1.46755
 30
0.0
 10
-0.23052
 20
-1.49568
 30
0.0
 10
-0.09369
 20
-1.50541
 30
0.0
 10
-0.09369
 20
-1.50541
 30
0.0
 10
-0.09369
 20
-1.50541
 30
0.0
 10
-0.09369
 20
-2.88523
 30
0.0
 10
-0.09369
 20
-2.88523
 30
0.0
 10
-0.09369
 20
-2.88523
 30
0.0
 10
-0.41986
 20
-2.87442
 30
0.0
 10
-0.73222
 20
-2.80934
 30
0.0
 10
-1.02215
 20
-2.69873
 30
0.0
 10
-1.02215
 20
-2.69873
 30
0.0
 10
-1.02215
 20
-2.69873
 30
0.0
 10
-0.48648
 20
-1.42356
 30
0.0
 10
-0.48648
 20
-1.42356
 30
0.0
  0
SPLINE
  5
60
330
1F
100
AcDbEntity
  8
Layer 1
370
    53
100
AcDbSpline
210
0.0
220
0.0
230
1.0
 70
    11
 71
     3
 72
    48
 73
    44
 74
     0
 42
0.0000000001
 43
0.0000000001
 12
1.0
 22
0.0
 32
0.0
 13
1.0
 23
0.0
 33
0.0
 40
0.0
 40
0.0
 40
0.0
 40
0.0
 40
0.0833333333333333
 40
0.0833333333333333
 40
0.0833333333333333
 40
0.0833333333333333
 40
0.1666666666666667
 40
0.1666666666666667
 40
0.1666666666666667
 40
0.1666666666666667
 40
0.25
 40
0.25
 40
0.25
 40
0.25
 40
0.3333333333333333
 40
0.3333333333333333
 40
0.3333333333333333
 40
0.3333333333333333
 40
0.4166666666666667
 40
0.4166666666666667
 40
0.4166666666666667
 40
0.4166666666666667
 40
0.5
 40
0.5
 40
0.5
 40
0.5
 40
0.5833333333333334
 40
0.5833333333333334
 40
0.5833333333333334
 40
0.5833333333333334
 40
0.6666666666666666
 40
0.6666666666666666
 40
0.6666666666666666
 40
0.6666666666666666
 40
0.75
 40
0.75
 40
0.75
 40
0.75
 40
0.8333333333333334
 40
0.8333333333333334
 40
0.8333333333333334
 40
0.8333333333333334
 40
1.0
 40
1.0
 40
1.0
 40
1.0
 10
-2.72646
 20
-2.91739
 30
0.0
 10
-2.69856
 20
-2.93457
 30
0.0
 10
-2.66895
 20
-2.94978
 30
0.0
 10
-2.6377
 20
-2.96272
 30
0.0
 10
-2.6377
 20
-2.96272
 30
0.0
 10
-2.42229
 20
-3.05195
 30
0.0
 10
-2.18554
 20
-3.01145
 30
0.0
 10
-2.01421
 20
-2.87723
 30
0.0
 10
-2.01421
 20
-2.87723
 30
0.0
 10
-1.99057
 20
-2.89382
 30
0.0
 10
-1.96667
 20
-2.91017
 30
0.0
 10
-1.94253
 20
-2.92624
 30
0.0
 10
-1.94253
 20
-2.92624
 30
0.0
 10
-1.92554
 20
-2.93754
 30
0.0
 10
-1.90843
 20
-2.94874
 30
0.0
 10
-1.89119
 20
-2.95976
 30
0.0
 10
-1.89119
 20
-2.95976
 30
0.0
 10
-1.97161
 20
-3.20988
 30
0.0
 10
-1.88496
 20
-3.47958
 30
0.0
 10
-1.68549
 20
-3.63798
 30
0.0
 10
-1.68549
 20
-3.63798
 30
0.0
 10
-1.68549
 20
-3.63798
 30
0.0
 10
-2.4303
 20
-5.43611
 30
0.0
 10
-2.4303
 20
-5.43611
 30
0.0
 10
-2.4303
 20
-5.43611
 30
0.0
 10
-2.48151
 20
-5.41315
 30
0.0
 10
-2.53224
 20
-5.38956
 30
0.0
 10
-2.5825
 20
-5.36534
 30
0.0
 10
-2.5825
 20
-5.36534
 30
0.0
 10
-2.41338
 20
-4.9253
 30
0.0
 10
-2.62507
 20
-4.42817
 30
0.0
 10
-3.0632
 20
-4.2467
 30
0.0
 10
-3.0632
 20
-4.2467
 30
0.0
 10
-3.38968
 20
-4.11146
 30
0.0
 10
-3.75123
 20
-4.18914
 30
0.0
 10
-3.99354
 20
-4.41576
 30
0.0
 10
-3.99354
 20
-4.41576
 30
0.0
 10
-4.03401
 20
-4.37904
 30
0.0
 10
-4.0739
 20
-4.34183
 30
0.0
 10
-4.1132
 20
-4.30413
 30
0.0
 10
-4.1132
 20
-4.30413
 30
0.0
 10
-4.1132
 20
-4.30413
 30
0.0
 10
-2.72646
 20
-2.91739
 30
0.0
 10
-2.72646
 20
-2.91739
 30
0.0
  0
SPLINE
  5
61
330
1F
100
AcDbEntity
  8
Layer 1
370
    53
100
AcDbSpline
210
0.0
220
0.0
230
1.0
 70
    11
 71
     3
 72
    20
 73
    16
 74
     0
 42
0.0000000001
 43
0.0000000001
 12
1.0
 22
0.0
 32
0.0
 13
1.0
 23
0.0
 33
0.0
 40
0.0
 40
0.0
 40
0.0
 40
0.0
 40
0.2
 40
0.2
 40
0.2
 40
0.2
 40
0.4
 40
0.4
 40
0.4
 40
0.4
 40
0.6
 40
0.6
 40
0.6
 40
0.6
 40
1.0
 40
1.0
 40
1.0
 40
1.0
 10
-0.99034
 20
-1.12852
 30
0.0
 10
-0.8924
 20
-1.21669
 30
0.0
 10
-0.78145
 20
-1.29308
 30
0.0
 10
-0.65878
 20
-1.35444
 30
0.0
 10
-0.65878
 20
-1.35444
 30
0.0
 10
-0.65878
 20
-1.35444
 30
0.0
 10
-1.18681
 20
-2.62923
 30
0.0
 10
-1.18681
 20
-2.62923
 30
0.0
 10
-1.18681
 20
-2.62923
 30
0.0
 10
-1.484
 20
-2.49443
 30
0.0
 10
-1.74768
 20
-2.31476
 30
0.0
 10
-1.97322
 20
-2.10161
 30
0.0
 10
-1.97322
 20
-2.10161
 30
0.0
 10
-1.97322
 20
-2.10161
 30
0.0
 10
-0.99034
 20
-1.12852
 30
0.0
 10
-0.99034
 20
-1.12852
 30
0.0
  0
SPLINE
  5
62
330
1F
100
AcDbEntity
  8
Layer 1
370
    53
100
AcDbSpline
210
0.0
220
0.0
230
1.0
 70
    11
 71
     3
 72
    48
 73
    44
 74
     0
 42
0.0000000001
 43
0.0000000001
 12
1.0
 22
0.0
 32
0.0
 13
1.0
 23
0.0
 33
0.0
 40
0.0
 40
0.0
 40
0.0
 40
0.0
 40
0.0833333333333333
 40
0.0833333333333333
 40
0.0833333333333333
 40
0.0833333333333333
 40
0.1666666666666667
 40
0.1666666666666667
 40
0.1666666666666667
 40
0.1666666666666667
 40
0.25
 40
0.25
 40
0.25
 40
0.25
 40
0.3333333333333333
 40
0.3333333333333333
 40
0.3333333333333333
 40
0.3333333333333333
 40
0.4166666666666667
 40
0.4166666666666667
 40
0.4166666666666667
 40
0.4166666666666667
 40
0.5
 40
0.5
 40
0.5
 40
0.5
 40
0.5833333333333334
 40
0.5833333333333334
 40
0.5833333333333334
 40
0.5833333333333334
 40
0.6666666666666666
 40
0.6666666666666666
 40
0.6666666666666666
 40
0.6666666666666666
 40
0.75
 40
0.75
 40
0.75
 40
0.75
 40
0.8333333333333334
 40
0.8333333333333334
 40
0.8333333333333334
 40
0.8333333333333334
 40
1.0
 40
1.0
 40
1.0
 40
1.0
 10
-3.63207
 20
-1.65059
 30
0.0
 10
-3.61271
 20
-1.67744
 30
0.0
 10
-3.59097
 20
-1.70311
 30
0.0
 10
-3.56682
 20
-1.72727
 30
0.0
 10
-3.56682
 20
-1.72727
 30
0.0
 10
-3.40194
 20
-1.89214
 30
0.0
 10
-3.16772
 20
-1.94532
 30
0.0
 10
-2.95807
 20
-1.88689
 30
0.0
 10
-2.95807
 20
-1.88689
 30
0.0
 10
-2.94258
 20
-1.91126
 30
0.0
 10
-2.92675
 20
-1.93551
 30
0.0
 10
-2.91059
 20
-1.95959
 30
0.0
 10
-2.91059
 20
-1.95959
 30
0.0
 10
-2.89923
 20
-1.97654
 30
0.0
 10
-2.88769
 20
-1.99342
 30
0.0
 10
-2.87599
 20
-2.01022
 30
0.0
 10
-2.87599
 20
-2.01022
 30
0.0
 10
-3.04546
 20
-2.20987
 30
0.0
 10
-3.06903
 20
-2.49105
 30
0.0
 10
-2.9467
 20
-2.71337
 30
0.0
 10
-2.9467
 20
-2.71337
 30
0.0
 10
-2.9467
 20
-2.71337
 30
0.0
 10
-4.32335
 20
-4.09001
 30
0.0
 10
-4.32335
 20
-4.09001
 30
0.0
 10
-4.32335
 20
-4.09001
 30
0.0
 10
-4.36132
 20
-4.04978
 30
0.0
 10
-4.39862
 20
-4.00914
 30
0.0
 10
-4.43526
 20
-3.96814
 30
0.0
 10
-4.43526
 20
-3.96814
 30
0.0
 10
-4.11061
 20
-3.62629
 30
0.0
 10
-4.11595
 20
-3.086
 30
0.0
 10
-4.45128
 20
-2.75067
 30
0.0
 10
-4.45128
 20
-2.75067
 30
0.0
 10
-4.70115
 20
-2.5008
 30
0.0
 10
-5.06491
 20
-2.43421
 30
0.0
 10
-5.3755
 20
-2.55085
 30
0.0
 10
-5.3755
 20
-2.55085
 30
0.0
 10
-5.39898
 20
-2.50114
 30
0.0
 10
-5.42173
 20
-2.4512
 30
0.0
 10
-5.44373
 20
-2.40101
 30
0.0
 10
-5.44373
 20
-2.40101
 30
0.0
 10
-5.44373
 20
-2.40101
 30
0.0
 10
-3.63207
 20
-1.65059
 30
0.0
 10
-3.63207
 20
-1.65059
 30
0.0
  0
SPLINE
  5
63
330
1F
100
AcDbEntity
  8
Layer 1
370
    53
100
AcDbSpline
210
0.0
220
0.0
230
1.0
 70
    11
 71
     3
 72
    20
 73
    16
 74
     0
 42
0.0000000001
 43
0.0000000001
 12
1.0
 22
0.0
 32
0.0
 13
1.0
 23
0.0
 33
0.0
 40
0.0
 40
0.0
 40
0.0
 40
0.0
 40
0.2
 40
0.2
 40
0.2
 40
0.2
 40
0.4
 40
0.4
 40
0.4
 40
0.4
 40
0.6
 40
0.6
 40
0.6
 40
0.6
 40
1.0
 40
1.0
 40
1.0
 40
1.0
 10
-1.34293
 20
-0.6631
 30
0.0
 10
-1.28618
 20
-0.78204
 30
0.0
 10
-1.21291
 20
-0.89508
 30
0.0
 10
-1.12306
 20
-0.99871
 30
0.0
 10
-1.12306
 20
-0.99871
 30
0.0
 10
-1.12306
 20
-0.99871
 30
0.0
 10
-2.09874
 20
-1.9744
 30
0.0
 10
-2.09874
 20
-1.9744
 30
0.0
 10
-2.09874
 20
-1.9744
 30
0.0
 10
-2.32173
 20
-1.73613
 30
0.0
 10
-2.49658
 20
-1.46922
 30
0.0
 10
-2.62337
 20
-1.18599
 30
0.0
 10
-2.62337
 20
-1.18599
 30
0.0
 10
-2.62337
 20
-1.18599
 30
0.0
 10
-1.34293
 20
-0.6631
 30
0.0
 10
-1.34293
 20
-0.6631
 30
0.0
  0
SPLINE
  5
64
330
1F
100
AcDbEntity
  8
Layer 1
370
    53
100
AcDbSpline
210
0.0
220
0.0
230
1.0
 70
    11
 71
     3
 72
    48
 73
    44
 74
     0
 42
0.0000000001
 43
0.0000000001
 12
1.0
 22
0.0
 32
0.0
 13
1.0
 23
0.0
 33
0.0
 40
0.0
 40
0.0
 40
0.0
 40
0.0
 40
0.0833333333333333
 40
0.0833333333333333
 40
0.0833333333333333
 40
0.0833333333333333
 40
0.1666666666666667
 40
0.1666666666666667
 40
0.1666666666666667
 40
0.1666666666666667
 40
0.25
 40
0.25
 40
0.25
 40
0.25
 40
0.3333333333333333
 40
0.3333333333333333
 40
0.3333333333333333
 40
0.3333333333333333
 40
0.4166666666666667
 40
0.4166666666666667
 40
0.4166666666666667
 40
0.4166666666666667
 40
0.5
 40
0.5
 40
0.5
 40
0.5
 40
0.5833333333333334
 40
0.5833333333333334
 40
0.5833333333333334
 40
0.5833333333333334
 40
0.6666666666666666
 40
0.6666666666666666
 40
0.6666666666666666
 40
0.6666666666666666
 40
0.75
 40
0.75
 40
0.75
 40
0.75
 40
0.8333333333333334
 40
0.8333333333333334
 40
0.8333333333333334
 40
0.8333333333333334
 40
1.0
 40
1.0
 40
1.0
 40
1.0
 10
-5.54029
 20
2.14872
 30
0.0
 10
-5.54029
 20
2.14872
 30
0.0
 10
-3.72813
 20
1.39812
 30
0.0
 10
-3.72813
 20
1.39812
 30
0.0
 10
-3.72813
 20
1.39812
 30
0.0
 10
-3.73316
 20
1.36624
 30
0.0
 10
-3.7358
 20
1.33356
 30
0.0
 10
-3.7358
 20
1.30026
 30
0.0
 10
-3.7358
 20
1.30026
 30
0.0
 10
-3.73579
 20
1.06711
 30
0.0
 10
-3.60779
 20
0.86388
 30
0.0
 10
-3.41822
 20
0.75696
 30
0.0
 10
-3.41822
 20
0.75696
 30
0.0
 10
-3.4245
 20
0.72876
 30
0.0
 10
-3.43045
 20
0.70043
 30
0.0
 10
-3.43606
 20
0.67198
 30
0.0
 10
-3.43606
 20
0.67198
 30
0.0
 10
-3.44001
 20
0.65195
 30
0.0
 10
-3.44379
 20
0.63187
 30
0.0
 10
-3.44739
 20
0.61171
 30
0.0
 10
-3.44739
 20
0.61171
 30
0.0
 10
-3.70822
 20
0.59039
 30
0.0
 10
-3.9236
 20
0.40846
 30
0.0
 10
-3.99447
 20
0.16499
 30
0.0
 10
-3.99447
 20
0.16499
 30
0.0
 10
-3.99447
 20
0.16499
 30
0.0
 10
-5.94146
 20
0.16499
 30
0.0
 10
-5.94146
 20
0.16499
 30
0.0
 10
-5.94146
 20
0.16499
 30
0.0
 10
-5.93985
 20
0.22013
 30
0.0
 10
-5.9375
 20
0.27508
 30
0.0
 10
-5.93441
 20
0.32983
 30
0.0
 10
-5.93441
 20
0.32983
 30
0.0
 10
-5.46314
 20
0.34198
 30
0.0
 10
-5.08487
 20
0.72779
 30
0.0
 10
-5.08485
 20
1.20202
 30
0.0
 10
-5.08485
 20
1.20202
 30
0.0
 10
-5.08486
 20
1.5554
 30
0.0
 10
-5.29499
 20
1.85972
 30
0.0
 10
-5.5971
 20
1.99685
 30
0.0
 10
-5.5971
 20
1.99685
 30
0.0
 10
-5.57882
 20
2.04782
 30
0.0
 10
-5.5599
 20
2.09844
 30
0.0
 10
-5.54029
 20
2.14872
 30
0.0
  0
SPLINE
  5
65
330
1F
100
AcDbEntity
  8
Layer 1
370
    53
100
AcDbSpline
210
0.0
220
0.0
230
1.0
 70
    11
 71
     3
 72
    48
 73
    44
 74
     0
 42
0.0000000001
 43
0.0000000001
 12
1.0
 22
0.0
 32
0.0
 13
1.0
 23
0.0
 33
0.0
 40
0.0
 40
0.0
 40
0.0
 40
0.0
 40
0.0833333333333333
 40
0.0833333333333333
 40
0.0833333333333333
 40
0.0833333333333333
 40
0.1666666666666667
 40
0.1666666666666667
 40
0.1666666666666667
 40
0.1666666666666667
 40
0.25
 40
0.25
 40
0.25
 40
0.25
 40
0.3333333333333333
 40
0.3333333333333333
 40
0.3333333333333333
 40
0.3333333333333333
 40
0.4166666666666667
 40
0.4166666666666667
 40
0.4166666666666667
 40
0.4166666666666667
 40
0.5
 40
0.5
 40
0.5
 40
0.5
 40
0.5833333333333334
 40
0.5833333333333334
 40
0.5833333333333334
 40
0.5833333333333334
 40
0.6666666666666666
 40
0.6666666666666666
 40
0.6666666666666666
 40
0.6666666666666666
 40
0.75
 40
0.75
 40
0.75
 40
0.75
 40
0.8333333333333334
 40
0.8333333333333334
 40
0.8333333333333334
 40
0.8333333333333334
 40
1.0
 40
1.0
 40
1.0
 40
1.0
 10
-0.135
 20
5.93775
 30
0.0
 10
-0.135
 20
5.93775
 30
0.0
 10
-0.135
 20
3.97382
 30
0.0
 10
-0.135
 20
3.97382
 30
0.0
 10
-0.135
 20
3.97382
 30
0.0
 10
-0.16273
 20
3.96662
 30
0.0
 10
-0.1903
 20
3.95743
 30
0.0
 10
-0.21753
 20
3.94615
 30
0.0
 10
-0.21753
 20
3.94615
 30
0.0
 10
-0.43295
 20
3.85693
 30
0.0
 10
-0.57172
 20
3.66089
 30
0.0
 10
-0.59796
 20
3.44484
 30
0.0
 10
-0.59796
 20
3.44484
 30
0.0
 10
-0.6264
 20
3.43985
 30
0.0
 10
-0.65486
 20
3.43451
 30
0.0
 10
-0.68328
 20
3.4288
 30
0.0
 10
-0.68328
 20
3.4288
 30
0.0
 10
-0.7033
 20
3.42479
 30
0.0
 10
-0.72331
 20
3.42058
 30
0.0
 10
-0.74331
 20
3.41621
 30
0.0
 10
-0.74331
 20
3.41621
 30
0.0
 10
-0.86427
 20
3.65184
 30
0.0
 10
-1.11941
 20
3.78148
 30
0.0
 10
-1.37454
 20
3.74959
 30
0.0
 10
-1.37454
 20
3.74959
 30
0.0
 10
-1.37454
 20
3.74959
 30
0.0
 10
-2.11876
 20
5.54629
 30
0.0
 10
-2.11876
 20
5.54629
 30
0.0
 10
-2.11876
 20
5.54629
 30
0.0
 10
-2.06445
 20
5.56705
 30
0.0
 10
-2.01001
 20
5.58696
 30
0.0
 10
-1.95548
 20
5.60603
 30
0.0
 10
-1.95548
 20
5.60603
 30
0.0
 10
-1.7639
 20
5.1753
 30
0.0
 10
-1.26269
 20
4.97345
 30
0.0
 10
-0.82456
 20
5.15494
 30
0.0
 10
-0.82456
 20
5.15494
 30
0.0
 10
-0.49809
 20
5.29017
 30
0.0
 10
-0.29736
 20
5.60075
 30
0.0
 10
-0.28626
 20
5.93235
 30
0.0
 10
-0.28626
 20
5.93235
 30
0.0
 10
-0.23579
 20
5.93479
 30
0.0
 10
-0.18537
 20
5.9366
 30
0.0
 10
-0.135
 20
5.93775
 30
0.0
  0
SPLINE
  5
66
330
1F
100
AcDbEntity
  8
Layer 1
370
    53
100
AcDbSpline
210
0.0
220
0.0
230
1.0
 70
    11
 71
     3
 72
    20
 73
    16
 74
     0
 42
0.0000000001
 43
0.0000000001
 12
1.0
 22
0.0
 32
0.0
 13
1.0
 23
0.0
 33
0.0
 40
0.0
 40
0.0
 40
0.0
 40
0.0
 40
0.2
 40
0.2
 40
0.2
 40
0.2
 40
0.4
 40
0.4
 40
0.4
 40
0.4
 40
0.6
 40
0.6
 40
0.6
 40
0.6
 40
1.0
 40
1.0
 40
1.0
 40
1.0
 10
0.493
 20
1.40454
 30
0.0
 10
0.36877
 20
1.44853
 30
0.0
 10
0.23704
 20
1.47665
 30
0.0
 10
0.10021
 20
1.48638
 30
0.0
 10
0.10021
 20
1.48638
 30
0.0
 10
0.10021
 20
1.48638
 30
0.0
 10
0.10022
 20
2.86621
 30
0.0
 10
0.10022
 20
2.86621
 30
0.0
 10
0.10022
 20
2.86621
 30
0.0
 10
0.42639
 20
2.85539
 30
0.0
 10
0.73874
 20
2.79031
 30
0.0
 10
1.02866
 20
2.67969
 30
0.0
 10
1.02866
 20
2.67969
 30
0.0
 10
1.02866
 20
2.67969
 30
0.0
 10
0.493
 20
1.40454
 30
0.0
 10
0.493
 20
1.40454
 30
0.0
  0
SPLINE
  5
67
330
1F
100
AcDbEntity
  8
Layer 1
370
    53
100
AcDbSpline
210
0.0
220
0.0
230
1.0
 70
    11
 71
     3
 72
    48
 73
    44
 74
     0
 42
0.0000000001
 43
0.0000000001
 12
1.0
 22
0.0
 32
0.0
 13
1.0
 23
0.0
 33
0.0
 40
0.0
 40
0.0
 40
0.0
 40
0.0
 40
0.0833333333333333
 40
0.0833333333333333
 40
0.0833333333333333
 40
0.0833333333333333
 40
0.1666666666666667
 40
0.1666666666666667
 40
0.1666666666666667
 40
0.1666666666666667
 40
0.25
 40
0.25
 40
0.25
 40
0.25
 40
0.3333333333333333
 40
0.3333333333333333
 40
0.3333333333333333
 40
0.3333333333333333
 40
0.4166666666666667
 40
0.4166666666666667
 40
0.4166666666666667
 40
0.4166666666666667
 40
0.5
 40
0.5
 40
0.5
 40
0.5
 40
0.5833333333333334
 40
0.5833333333333334
 40
0.5833333333333334
 40
0.5833333333333334
 40
0.6666666666666666
 40
0.6666666666666666
 40
0.6666666666666666
 40
0.6666666666666666
 40
0.75
 40
0.75
 40
0.75
 40
0.75
 40
0.8333333333333334
 40
0.8333333333333334
 40
0.8333333333333334
 40
0.8333333333333334
 40
1.0
 40
1.0
 40
1.0
 40
1.0
 10
2.14828
 20
5.53917
 30
0.0
 10
2.14828
 20
5.53917
 30
0.0
 10
1.39642
 20
3.72399
 30
0.0
 10
1.39642
 20
3.72399
 30
0.0
 10
1.39642
 20
3.72399
 30
0.0
 10
1.36914
 20
3.72764
 30
0.0
 10
1.34132
 20
3.72955
 30
0.0
 10
1.31303
 20
3.72955
 30
0.0
 10
1.31303
 20
3.72955
 30
0.0
 10
1.07988
 20
3.72954
 30
0.0
 10
0.87665
 20
3.60153
 30
0.0
 10
0.76974
 20
3.41197
 30
0.0
 10
0.76974
 20
3.41197
 30
0.0
 10
0.74154
 20
3.41825
 30
0.0
 10
0.7132
 20
3.4242
 30
0.0
 10
0.68476
 20
3.4298
 30
0.0
 10
0.68476
 20
3.4298
 30
0.0
 10
0.66472
 20
3.43376
 30
0.0
 10
0.64464
 20
3.43753
 30
0.0
 10
0.62448
 20
3.44113
 30
0.0
 10
0.62448
 20
3.44113
 30
0.0
 10
0.60279
 20
3.7065
 30
0.0
 10
0.41486
 20
3.92483
 30
0.0
 10
0.165
 20
3.99178
 30
0.0
 10
0.165
 20
3.99178
 30
0.0
 10
0.165
 20
3.99178
 30
0.0
 10
0.165
 20
5.93556
 30
0.0
 10
0.165
 20
5.93556
 30
0.0
 10
0.165
 20
5.93556
 30
0.0
 10
0.22444
 20
5.93396
 30
0.0
 10
0.28363
 20
5.93148
 30
0.0
 10
0.3426
 20
5.92815
 30
0.0
 10
0.3426
 20
5.92815
 30
0.0
 10
0.35476
 20
5.45689
 30
0.0
 10
0.74057
 20
5.07861
 30
0.0
 10
1.21481
 20
5.07861
 30
0.0
 10
1.21481
 20
5.07861
 30
0.0
 10
1.56817
 20
5.07861
 30
0.0
 10
1.87249
 20
5.28875
 30
0.0
 10
2.00963
 20
5.59084
 30
0.0
 10
2.00963
 20
5.59084
 30
0.0
 10
2.05613
 20
5.57417
 30
0.0
 10
2.10234
 20
5.55694
 30
0.0
 10
2.14828
 20
5.53917
 30
0.0
  0
SPLINE
  5
68
330
1F
100
AcDbEntity
  8
Layer 1
370
    53
100
AcDbSpline
210
0.0
220
0.0
230
1.0
 70
    11
 71
     3
 72
    20
 73
    16
 74
     0
 42
0.0000000001
 43
0.0000000001
 12
1.0
 22
0.0
 32
0.0
 13
1.0
 23
0.0
 33
0.0
 40
0.0
 40
0.0
 40
0.0
 40
0.0
 40
0.2
 40
0.2
 40
0.2
 40
0.2
 40
0.4
 40
0.4
 40
0.4
 40
0.4
 40
0.6
 40
0.6
 40
0.6
 40
0.6
 40
1.0
 40
1.0
 40
1.0
 40
1.0
 10
0.99686
 20
1.10949
 30
0.0
 10
0.89892
 20
1.19766
 30
0.0
 10
0.78797
 20
1.27405
 30
0.0
 10
0.6653
 20
1.33541
 30
0.0
 10
0.6653
 20
1.33541
 30
0.0
 10
0.6653
 20
1.33541
 30
0.0
 10
1.19333
 20
2.6102
 30
0.0
 10
1.19333
 20
2.6102
 30
0.0
 10
1.19333
 20
2.6102
 30
0.0
 10
1.49052
 20
2.4754
 30
0.0
 10
1.7542
 20
2.29573
 30
0.0
 10
1.97972
 20
2.0826
 30
0.0
 10
1.97972
 20
2.0826
 30
0.0
 10
1.97972
 20
2.0826
 30
0.0
 10
0.99686
 20
1.10949
 30
0.0
 10
0.99686
 20
1.10949
 30
0.0
  0
SPLINE
  5
69
330
1F
100
AcDbEntity
  8
Layer 1
370
    53
100
AcDbSpline
210
0.0
220
0.0
230
1.0
 70
    11
 71
     3
 72
    48
 73
    44
 74
     0
 42
0.0000000001
 43
0.0000000001
 12
1.0
 22
0.0
 32
0.0
 13
1.0
 23
0.0
 33
0.0
 40
0.0
 40
0.0
 40
0.0
 40
0.0
 40
0.0833333333333333
 40
0.0833333333333333
 40
0.0833333333333333
 40
0.0833333333333333
 40
0.1666666666666667
 40
0.1666666666666667
 40
0.1666666666666667
 40
0.1666666666666667
 40
0.25
 40
0.25
 40
0.25
 40
0.25
 40
0.3333333333333333
 40
0.3333333333333333
 40
0.3333333333333333
 40
0.3333333333333333
 40
0.4166666666666667
 40
0.4166666666666667
 40
0.4166666666666667
 40
0.4166666666666667
 40
0.5
 40
0.5
 40
0.5
 40
0.5
 40
0.5833333333333334
 40
0.5833333333333334
 40
0.5833333333333334
 40
0.5833333333333334
 40
0.6666666666666666
 40
0.6666666666666666
 40
0.6666666666666666
 40
0.6666666666666666
 40
0.75
 40
0.75
 40
0.75
 40
0.75
 40
0.8333333333333334
 40
0.8333333333333334
 40
0.8333333333333334
 40
0.8333333333333334
 40
1.0
 40
1.0
 40
1.0
 40
1.0
 10
2.88251
 20
1.99119
 30
0.0
 10
3.05614
 20
2.19573
 30
0.0
 10
3.0766
 20
2.48586
 30
0.0
 10
2.94395
 20
2.71059
 30
0.0
 10
2.94395
 20
2.71059
 30
0.0
 10
2.94395
 20
2.71059
 30
0.0
 10
4.31746
 20
4.0841
 30
0.0
 10
4.31746
 20
4.0841
 30
0.0
 10
4.31746
 20
4.0841
 30
0.0
 10
4.35972
 20
4.03958
 30
0.0
 10
4.40116
 20
3.99458
 30
0.0
 10
4.44178
 20
3.94911
 30
0.0
 10
4.44178
 20
3.94911
 30
0.0
 10
4.11713
 20
3.60727
 30
0.0
 10
4.12248
 20
3.06698
 30
0.0
 10
4.4578
 20
2.73164
 30
0.0
 10
4.4578
 20
2.73164
 30
0.0
 10
4.70767
 20
2.48177
 30
0.0
 10
5.07143
 20
2.41518
 30
0.0
 10
5.38202
 20
2.53182
 30
0.0
 10
5.38202
 20
2.53182
 30
0.0
 10
5.40263
 20
2.48818
 30
0.0
 10
5.42267
 20
2.44434
 30
0.0
 10
5.44216
 20
2.40033
 30
0.0
 10
5.44216
 20
2.40033
 30
0.0
 10
5.44216
 20
2.40033
 30
0.0
 10
3.62621
 20
1.64814
 30
0.0
 10
3.62621
 20
1.64814
 30
0.0
 10
3.62621
 20
1.64814
 30
0.0
 10
3.61011
 20
1.66902
 30
0.0
 10
3.59247
 20
1.6891
 30
0.0
 10
3.57334
 20
1.70825
 30
0.0
 10
3.57334
 20
1.70825
 30
0.0
 10
3.40846
 20
1.87311
 30
0.0
 10
3.17424
 20
1.9263
 30
0.0
 10
2.96459
 20
1.86786
 30
0.0
 10
2.96459
 20
1.86786
 30
0.0
 10
2.9491
 20
1.89224
 30
0.0
 10
2.93327
 20
1.91648
 30
0.0
 10
2.91711
 20
1.94056
 30
0.0
 10
2.91711
 20
1.94056
 30
0.0
 10
2.90575
 20
1.95751
 30
0.0
 10
2.89422
 20
1.9744
 30
0.0
 10
2.88251
 20
1.99119
 30
0.0
  0
SPLINE
  5
6A
330
1F
100
AcDbEntity
  8
Layer 1
370
    53
100
AcDbSpline
210
0.0
220
0.0
230
1.0
 70
    11
 71
     3
 72
    48
 73
    44
 74
     0
 42
0.0000000001
 43
0.0000000001
 12
1.0
 22
0.0
 32
0.0
 13
1.0
 23
0.0
 33
0.0
 40
0.0
 40
0.0
 40
0.0
 40
0.0
 40
0.0833333333333333
 40
0.0833333333333333
 40
0.0833333333333333
 40
0.0833333333333333
 40
0.1666666666666667
 40
0.1666666666666667
 40
0.1666666666666667
 40
0.1666666666666667
 40
0.25
 40
0.25
 40
0.25
 40
0.25
 40
0.3333333333333333
 40
0.3333333333333333
 40
0.3333333333333333
 40
0.3333333333333333
 40
0.4166666666666667
 40
0.4166666666666667
 40
0.4166666666666667
 40
0.4166666666666667
 40
0.5
 40
0.5
 40
0.5
 40
0.5
 40
0.5833333333333334
 40
0.5833333333333334
 40
0.5833333333333334
 40
0.5833333333333334
 40
0.6666666666666666
 40
0.6666666666666666
 40
0.6666666666666666
 40
0.6666666666666666
 40
0.75
 40
0.75
 40
0.75
 40
0.75
 40
0.8333333333333334
 40
0.8333333333333334
 40
0.8333333333333334
 40
0.8333333333333334
 40
1.0
 40
1.0
 40
1.0
 40
1.0
 10
4.10667
 20
4.29758
 30
0.0
 10
4.10667
 20
4.29758
 30
0.0
 10
2.71698
 20
2.90789
 30
0.0
 10
2.71698
 20
2.90789
 30
0.0
 10
2.71698
 20
2.90789
 30
0.0
 10
2.69383
 20
2.92121
 30
0.0
 10
2.66955
 20
2.9332
 30
0.0
 10
2.64422
 20
2.9437
 30
0.0
 10
2.64422
 20
2.9437
 30
0.0
 10
2.42881
 20
3.03292
 30
0.0
 10
2.19206
 20
2.99242
 30
0.0
 10
2.02073
 20
2.85821
 30
0.0
 10
2.02073
 20
2.85821
 30
0.0
 10
1.99709
 20
2.8748
 30
0.0
 10
1.97319
 20
2.89114
 30
0.0
 10
1.94905
 20
2.90721
 30
0.0
 10
1.94905
 20
2.90721
 30
0.0
 10
1.93206
 20
2.91852
 30
0.0
 10
1.91494
 20
2.9297
 30
0.0
 10
1.89771
 20
2.94073
 30
0.0
 10
1.89771
 20
2.94073
 30
0.0
 10
1.97959
 20
3.19536
 30
0.0
 10
1.8883
 20
3.47029
 30
0.0
 10
1.68112
 20
3.62742
 30
0.0
 10
1.68112
 20
3.62742
 30
0.0
 10
1.68112
 20
3.62742
 30
0.0
 10
2.42468
 20
5.4225
 30
0.0
 10
2.42468
 20
5.4225
 30
0.0
 10
2.42468
 20
5.4225
 30
0.0
 10
2.48001
 20
5.39784
 30
0.0
 10
2.53479
 20
5.37245
 30
0.0
 10
2.58902
 20
5.34632
 30
0.0
 10
2.58902
 20
5.34632
 30
0.0
 10
2.4199
 20
4.90627
 30
0.0
 10
2.63159
 20
4.40915
 30
0.0
 10
3.06972
 20
4.22767
 30
0.0
 10
3.06972
 20
4.22767
 30
0.0
 10
3.39619
 20
4.09244
 30
0.0
 10
3.75775
 20
4.17011
 30
0.0
 10
4.00006
 20
4.39674
 30
0.0
 10
4.00006
 20
4.39674
 30
0.0
 10
4.03606
 20
4.36408
 30
0.0
 10
4.0716
 20
4.33103
 30
0.0
 10
4.10667
 20
4.29758
 30
0.0
  0
SPLINE
  5
6B
330
1F
100
AcDbEntity
  8
Layer 1
370
    53
100
AcDbSpline
210
0.0
220
0.0
230
1.0
 70
    11
 71
     3
 72
    20
 73
    16
 74
     0
 42
0.0000000001
 43
0.0000000001
 12
1.0
 22
0.0
 32
0.0
 13
1.0
 23
0.0
 33
0.0
 40
0.0
 40
0.0
 40
0.0
 40
0.0
 40
0.2
 40
0.2
 40
0.2
 40
0.2
 40
0.4
 40
0.4
 40
0.4
 40
0.4
 40
0.6
 40
0.6
 40
0.6
 40
0.6
 40
1.0
 40
1.0
 40
1.0
 40
1.0
 10
1.34945
 20
0.64407
 30
0.0
 10
1.2927
 20
0.76301
 30
0.0
 10
1.21943
 20
0.87605
 30
0.0
 10
1.12958
 20
0.97969
 30
0.0
 10
1.12958
 20
0.97969
 30
0.0
 10
1.12958
 20
0.97969
 30
0.0
 10
2.10526
 20
1.95537
 30
0.0
 10
2.10526
 20
1.95537
 30
0.0
 10
2.10526
 20
1.95537
 30
0.0
 10
2.32825
 20
1.7171
 30
0.0
 10
2.5031
 20
1.4502
 30
0.0
 10
2.6299
 20
1.16697
 30
0.0
 10
2.6299
 20
1.16697
 30
0.0
 10
2.6299
 20
1.16697
 30
0.0
 10
1.34945
 20
0.64407
 30
0.0
 10
1.34945
 20
0.64407
 30
0.0
  0
SPLINE
  5
6C
330
1F
100
AcDbEntity
  8
Layer 1
370
    53
100
AcDbSpline
210
0.0
220
0.0
230
1.0
 70
    11
 71
     3
 72
    48
 73
    44
 74
     0
 42
0.0000000001
 43
0.0000000001
 12
1.0
 22
0.0
 32
0.0
 13
1.0
 23
0.0
 33
0.0
 40
0.0
 40
0.0
 40
0.0
 40
0.0
 40
0.0833333333333333
 40
0.0833333333333333
 40
0.0833333333333333
 40
0.0833333333333333
 40
0.1666666666666667
 40
0.1666666666666667
 40
0.1666666666666667
 40
0.1666666666666667
 40
0.25
 40
0.25
 40
0.25
 40
0.25
 40
0.3333333333333333
 40
0.3333333333333333
 40
0.3333333333333333
 40
0.3333333333333333
 40
0.4166666666666667
 40
0.4166666666666667
 40
0.4166666666666667
 40
0.4166666666666667
 40
0.5
 40
0.5
 40
0.5
 40
0.5
 40
0.5833333333333334
 40
0.5833333333333334
 40
0.5833333333333334
 40
0.5833333333333334
 40
0.6666666666666666
 40
0.6666666666666666
 40
0.6666666666666666
 40
0.6666666666666666
 40
0.75
 40
0.75
 40
0.75
 40
0.75
 40
0.8333333333333334
 40
0.8333333333333334
 40
0.8333333333333334
 40
0.8333333333333334
 40
1.0
 40
1.0
 40
1.0
 40
1.0
 10
-3.75701
 20
-1.37762
 30
0.0
 10
-3.75701
 20
-1.37762
 30
0.0
 10
-5.55591
 20
-2.12274
 30
0.0
 10
-5.55591
 20
-2.12274
 30
0.0
 10
-5.55591
 20
-2.12274
 30
0.0
 10
-5.57546
 20
-2.07136
 30
0.0
 10
-5.59425
 20
-2.01985
 30
0.0
 10
-5.61229
 20
-1.96825
 30
0.0
 10
-5.61229
 20
-1.96825
 30
0.0
 10
-5.18155
 20
-1.77667
 30
0.0
 10
-4.97971
 20
-1.27547
 30
0.0
 10
-5.1612
 20
-0.83732
 30
0.0
 10
-5.1612
 20
-0.83732
 30
0.0
 10
-5.29642
 20
-0.51086
 30
0.0
 10
-5.607
 20
-0.31013
 30
0.0
 10
-5.9386
 20
-0.29904
 30
0.0
 10
-5.9386
 20
-0.29904
 30
0.0
 10
-5.94125
 20
-0.2443
 30
0.0
 10
-5.94315
 20
-0.18963
 30
0.0
 10
-5.94428
 20
-0.13501
 30
0.0
 10
-5.94428
 20
-0.13501
 30
0.0
 10
-5.94428
 20
-0.13501
 30
0.0
 10
-3.98323
 20
-0.13501
 30
0.0
 10
-3.98323
 20
-0.13501
 30
0.0
 10
-3.98323
 20
-0.13501
 30
0.0
 10
-3.97564
 20
-0.16705
 30
0.0
 10
-3.96541
 20
-0.19891
 30
0.0
 10
-3.95241
 20
-0.23031
 30
0.0
 10
-3.95241
 20
-0.23031
 30
0.0
 10
-3.86318
 20
-0.44571
 30
0.0
 10
-3.66714
 20
-0.58449
 30
0.0
 10
-3.4511
 20
-0.61073
 30
0.0
 10
-3.4511
 20
-0.61073
 30
0.0
 10
-3.44611
 20
-0.63917
 30
0.0
 10
-3.44076
 20
-0.66763
 30
0.0
 10
-3.43506
 20
-0.69606
 30
0.0
 10
-3.43506
 20
-0.69606
 30
0.0
 10
-3.43104
 20
-0.71608
 30
0.0
 10
-3.42684
 20
-0.73608
 30
0.0
 10
-3.42246
 20
-0.75608
 30
0.0
 10
-3.42246
 20
-0.75608
 30
0.0
 10
-3.65511
 20
-0.87552
 30
0.0
 10
-3.78446
 20
-1.12575
 30
0.0
 10
-3.75701
 20
-1.37762
 30
0.0
  0
SPLINE
  5
6D
330
1F
100
AcDbEntity
  8
Layer 1
370
    53
100
AcDbSpline
210
0.0
220
0.0
230
1.0
 70
    11
 71
     3
 72
    44
 73
    40
 74
     0
 42
0.0000000001
 43
0.0000000001
 12
1.0
 22
0.0
 32
0.0
 13
1.0
 23
0.0
 33
0.0
 40
0.0
 40
0.0
 40
0.0
 40
0.0
 40
0.0909090909090909
 40
0.0909090909090909
 40
0.0909090909090909
 40
0.0909090909090909
 40
0.1818181818181818
 40
0.1818181818181818
 40
0.1818181818181818
 40
0.1818181818181818
 40
0.2727272727272727
 40
0.2727272727272727
 40
0.2727272727272727
 40
0.2727272727272727
 40
0.3636363636363636
 40
0.3636363636363636
 40
0.3636363636363636
 40
0.3636363636363636
 40
0.4545454545454545
 40
0.4545454545454545
 40
0.4545454545454545
 40
0.4545454545454545
 40
0.5454545454545454
 40
0.5454545454545454
 40
0.5454545454545454
 40
0.5454545454545454
 40
0.6363636363636364
 40
0.6363636363636364
 40
0.6363636363636364
 40
0.6363636363636364
 40
0.7272727272727273
 40
0.7272727272727273
 40
0.7272727272727273
 40
0.7272727272727273
 40
0.8181818181818182
 40
0.8181818181818182
 40
0.8181818181818182
 40
0.8181818181818182
 40
1.0
 40
1.0
 40
1.0
 40
1.0
 10
2.48678
 20
-3.03126
 30
0.0
 10
2.48678
 20
-3.03126
 30
0.0
 10
3.76043
 20
-4.30491
 30
0.0
 10
3.76043
 20
-4.30491
 30
0.0
 10
3.76043
 20
-4.30491
 30
0.0
 10
3.43224
 20
-4.13605
 30
0.0
 10
3.01942
 20
-4.18905
 30
0.0
 10
2.74442
 20
-4.46405
 30
0.0
 10
2.74442
 20
-4.46405
 30
0.0
 10
2.49455
 20
-4.71392
 30
0.0
 10
2.42796
 20
-5.07769
 30
0.0
 10
2.54459
 20
-5.38828
 30
0.0
 10
2.54459
 20
-5.38828
 30
0.0
 10
2.4981
 20
-5.41023
 30
0.0
 10
2.45141
 20
-5.43154
 30
0.0
 10
2.4045
 20
-5.45221
 30
0.0
 10
2.4045
 20
-5.45221
 30
0.0
 10
2.4045
 20
-5.45221
 30
0.0
 10
1.65318
 20
-3.63835
 30
0.0
 10
1.65318
 20
-3.63835
 30
0.0
 10
1.65318
 20
-3.63835
 30
0.0
 10
1.67683
 20
-3.62067
 30
0.0
 10
1.69952
 20
-3.60108
 30
0.0
 10
1.72102
 20
-3.57959
 30
0.0
 10
1.72102
 20
-3.57959
 30
0.0
 10
1.88588
 20
-3.41471
 30
0.0
 10
1.93907
 20
-3.18049
 30
0.0
 10
1.88064
 20
-2.97085
 30
0.0
 10
1.88064
 20
-2.97085
 30
0.0
 10
1.90501
 20
-2.95536
 30
0.0
 10
1.92926
 20
-2.93952
 30
0.0
 10
1.95333
 20
-2.92337
 30
0.0
 10
1.95333
 20
-2.92337
 30
0.0
 10
1.97028
 20
-2.912
 30
0.0
 10
1.98718
 20
-2.90048
 30
0.0
 10
2.00396
 20
-2.88876
 30
0.0
 10
2.00396
 20
-2.88876
 30
0.0
 10
2.14151
 20
-3.00552
 30
0.0
 10
2.31774
 20
-3.053
 30
0.0
 10
2.48678
 20
-3.03126
 30
0.0
  0
SPLINE
  5
6E
330
1F
100
AcDbEntity
  8
Layer 1
370
    53
100
AcDbSpline
210
0.0
220
0.0
230
1.0
 70
    11
 71
     3
 72
    20
 73
    16
 74
     0
 42
0.0000000001
 43
0.0000000001
 12
1.0
 22
0.0
 32
0.0
 13
1.0
 23
0.0
 33
0.0
 40
0.0
 40
0.0
 40
0.0
 40
0.0
 40
0.2
 40
0.2
 40
0.2
 40
0.2
 40
0.4
 40
0.4
 40
0.4
 40
0.4
 40
0.6
 40
0.6
 40
0.6
 40
0.6
 40
1.0
 40
1.0
 40
1.0
 40
1.0
 10
0.75807
 20
-1.30255
 30
0.0
 10
0.75807
 20
-1.30255
 30
0.0
 10
1.75107
 20
-2.29555
 30
0.0
 10
1.75107
 20
-2.29555
 30
0.0
 10
1.75107
 20
-2.29555
 30
0.0
 10
1.57167
 20
-2.43307
 30
0.0
 10
1.37977
 20
-2.54661
 30
0.0
 10
1.17974
 20
-2.63615
 30
0.0
 10
1.17974
 20
-2.63615
 30
0.0
 10
1.17974
 20
-2.63615
 30
0.0
 10
0.65685
 20
-1.3557
 30
0.0
 10
0.65685
 20
-1.3557
 30
0.0
 10
0.65685
 20
-1.3557
 30
0.0
 10
0.69111
 20
-1.33936
 30
0.0
 10
0.72487
 20
-1.32164
 30
0.0
 10
0.75807
 20
-1.30255
 30
0.0
  0
SPLINE
  5
6F
330
1F
100
AcDbEntity
  8
Layer 1
370
    53
100
AcDbSpline
210
0.0
220
0.0
230
1.0
 70
    11
 71
     3
 72
    20
 73
    16
 74
     0
 42
0.0000000001
 43
0.0000000001
 12
1.0
 22
0.0
 32
0.0
 13
1.0
 23
0.0
 33
0.0
 40
0.0
 40
0.0
 40
0.0
 40
0.0
 40
0.2
 40
0.2
 40
0.2
 40
0.2
 40
0.4
 40
0.4
 40
0.4
 40
0.4
 40
0.6
 40
0.6
 40
0.6
 40
0.6
 40
1.0
 40
1.0
 40
1.0
 40
1.0
 10
-2.28304
 20
1.73856
 30
0.0
 10
-2.28304
 20
1.73856
 30
0.0
 10
-1.29062
 20
0.74614
 30
0.0
 10
-1.29062
 20
0.74614
 30
0.0
 10
-1.29062
 20
0.74614
 30
0.0
 10
-1.30862
 20
0.71574
 30
0.0
 10
-1.32565
 20
0.68453
 30
0.0
 10
-1.34166
 20
0.65252
 30
0.0
 10
-1.34166
 20
0.65252
 30
0.0
 10
-1.34166
 20
0.65252
 30
0.0
 10
-2.61646
 20
1.18055
 30
0.0
 10
-2.61646
 20
1.18055
 30
0.0
 10
-2.61646
 20
1.18055
 30
0.0
 10
-2.52484
 20
1.38252
 30
0.0
 10
-2.41252
 20
1.569
 30
0.0
 10
-2.28304
 20
1.73856
 30
0.0
  0
SPLINE
  5
70
330
1F
100
AcDbEntity
  8
Layer 1
370
    53
100
AcDbSpline
210
0.0
220
0.0
230
1.0
 70
    11
 71
     3
 72
    40
 73
    36
 74
     0
 42
0.0000000001
 43
0.0000000001
 12
1.0
 22
0.0
 32
0.0
 13
1.0
 23
0.0
 33
0.0
 40
0.0
 40
0.0
 40
0.0
 40
0.0
 40
0.1
 40
0.1
 40
0.1
 40
0.1
 40
0.2
 40
0.2
 40
0.2
 40
0.2
 40
0.3
 40
0.3
 40
0.3
 40
0.3
 40
0.4
 40
0.4
 40
0.4
 40
0.4
 40
0.5
 40
0.5
 40
0.5
 40
0.5
 40
0.6
 40
0.6
 40
0.6
 40
0.6
 40
0.7
 40
0.7
 40
0.7
 40
0.7
 40
0.8
 40
0.8
 40
0.8
 40
0.8
 40
1.0
 40
1.0
 40
1.0
 40
1.0
 10
-4.21287
 20
3.66839
 30
0.0
 10
-4.21287
 20
3.66839
 30
0.0
 10
-2.99489
 20
2.4504
 30
0.0
 10
-2.99489
 20
2.4504
 30
0.0
 10
-2.99489
 20
2.4504
 30
0.0
 10
-3.00974
 20
2.29058
 30
0.0
 10
-2.96171
 20
2.13209
 30
0.0
 10
-2.86446
 20
2.00796
 30
0.0
 10
-2.86446
 20
2.00796
 30
0.0
 10
-2.88105
 20
1.98432
 30
0.0
 10
-2.8974
 20
1.96042
 30
0.0
 10
-2.91346
 20
1.93627
 30
0.0
 10
-2.91346
 20
1.93627
 30
0.0
 10
-2.92477
 20
1.91928
 30
0.0
 10
-2.93594
 20
1.90218
 30
0.0
 10
-2.94699
 20
1.88493
 30
0.0
 10
-2.94699
 20
1.88493
 30
0.0
 10
-3.1968
 20
1.96527
 30
0.0
 10
-3.46618
 20
1.87891
 30
0.0
 10
-3.62466
 20
1.67996
 30
0.0
 10
-3.62466
 20
1.67996
 30
0.0
 10
-3.62466
 20
1.67996
 30
0.0
 10
-5.42296
 20
2.42485
 30
0.0
 10
-5.42296
 20
2.42485
 30
0.0
 10
-5.42296
 20
2.42485
 30
0.0
 10
-5.40012
 20
2.47579
 30
0.0
 10
-5.37666
 20
2.52626
 30
0.0
 10
-5.35257
 20
2.57625
 30
0.0
 10
-5.35257
 20
2.57625
 30
0.0
 10
-4.91253
 20
2.40712
 30
0.0
 10
-4.4154
 20
2.61882
 30
0.0
 10
-4.23392
 20
3.05695
 30
0.0
 10
-4.23392
 20
3.05695
 30
0.0
 10
-4.15
 20
3.25955
 30
0.0
 10
-4.14809
 20
3.47565
 30
0.0
 10
-4.21287
 20
3.66839
 30
0.0
  0
SPLINE
  5
71
330
1F
100
AcDbEntity
  8
Layer 1
370
    53
100
AcDbSpline
210
0.0
220
0.0
230
1.0
 70
    11
 71
     3
 72
    48
 73
    44
 74
     0
 42
0.0000000001
 43
0.0000000001
 12
1.0
 22
0.0
 32
0.0
 13
1.0
 23
0.0
 33
0.0
 40
0.0
 40
0.0
 40
0.0
 40
0.0
 40
0.0833333333333333
 40
0.0833333333333333
 40
0.0833333333333333
 40
0.0833333333333333
 40
0.1666666666666667
 40
0.1666666666666667
 40
0.1666666666666667
 40
0.1666666666666667
 40
0.25
 40
0.25
 40
0.25
 40
0.25
 40
0.3333333333333333
 40
0.3333333333333333
 40
0.3333333333333333
 40
0.3333333333333333
 40
0.4166666666666667
 40
0.4166666666666667
 40
0.4166666666666667
 40
0.4166666666666667
 40
0.5
 40
0.5
 40
0.5
 40
0.5
 40
0.5833333333333334
 40
0.5833333333333334
 40
0.5833333333333334
 40
0.5833333333333334
 40
0.6666666666666666
 40
0.6666666666666666
 40
0.6666666666666666
 40
0.6666666666666666
 40
0.75
 40
0.75
 40
0.75
 40
0.75
 40
0.8333333333333334
 40
0.8333333333333334
 40
0.8333333333333334
 40
0.8333333333333334
 40
1.0
 40
1.0
 40
1.0
 40
1.0
 10
-2.42975
 20
3.01664
 30
0.0
 10
-2.42975
 20
3.01664
 30
0.0
 10
-3.64719
 20
4.23407
 30
0.0
 10
-3.64719
 20
4.23407
 30
0.0
 10
-3.64719
 20
4.23407
 30
0.0
 10
-3.64719
 20
4.23407
 30
0.0
 10
-3.65605
 20
4.24294
 30
0.0
 10
-3.65605
 20
4.24294
 30
0.0
 10
-3.65605
 20
4.24294
 30
0.0
 10
-3.34679
 20
4.12942
 30
0.0
 10
-2.98618
 20
4.19675
 30
0.0
 10
-2.7379
 20
4.44503
 30
0.0
 10
-2.7379
 20
4.44503
 30
0.0
 10
-2.48803
 20
4.6949
 30
0.0
 10
-2.42144
 20
5.05865
 30
0.0
 10
-2.53807
 20
5.36925
 30
0.0
 10
-2.53807
 20
5.36925
 30
0.0
 10
-2.49121
 20
5.39138
 30
0.0
 10
-2.44413
 20
5.41286
 30
0.0
 10
-2.39684
 20
5.4337
 30
0.0
 10
-2.39684
 20
5.4337
 30
0.0
 10
-2.39684
 20
5.4337
 30
0.0
 10
-1.64562
 20
3.62009
 30
0.0
 10
-1.64562
 20
3.62009
 30
0.0
 10
-1.64562
 20
3.62009
 30
0.0
 10
-1.66965
 20
3.6022
 30
0.0
 10
-1.69268
 20
3.58237
 30
0.0
 10
-1.7145
 20
3.56056
 30
0.0
 10
-1.7145
 20
3.56056
 30
0.0
 10
-1.87936
 20
3.39569
 30
0.0
 10
-1.93255
 20
3.16146
 30
0.0
 10
-1.87412
 20
2.95182
 30
0.0
 10
-1.87412
 20
2.95182
 30
0.0
 10
-1.89849
 20
2.93633
 30
0.0
 10
-1.92274
 20
2.9205
 30
0.0
 10
-1.94681
 20
2.90434
 30
0.0
 10
-1.94681
 20
2.90434
 30
0.0
 10
-1.96376
 20
2.89298
 30
0.0
 10
-1.98066
 20
2.88144
 30
0.0
 10
-1.99745
 20
2.86973
 30
0.0
 10
-1.99745
 20
2.86973
 30
0.0
 10
-2.12133
 20
2.9749
 30
0.0
 10
-2.27661
 20
3.02385
 30
0.0
 10
-2.42975
 20
3.01664
 30
0.0
  0
SPLINE
  5
72
330
1F
100
AcDbEntity
  8
Layer 1
370
    53
100
AcDbSpline
210
0.0
220
0.0
230
1.0
 70
    11
 71
     3
 72
    20
 73
    16
 74
     0
 42
0.0000000001
 43
0.0000000001
 12
1.0
 22
0.0
 32
0.0
 13
1.0
 23
0.0
 33
0.0
 40
0.0
 40
0.0
 40
0.0
 40
0.0
 40
0.2
 40
0.2
 40
0.2
 40
0.2
 40
0.4
 40
0.4
 40
0.4
 40
0.4
 40
0.6
 40
0.6
 40
0.6
 40
0.6
 40
1.0
 40
1.0
 40
1.0
 40
1.0
 10
-0.71638
 20
1.30327
 30
0.0
 10
-0.71638
 20
1.30327
 30
0.0
 10
-1.71296
 20
2.29985
 30
0.0
 10
-1.71296
 20
2.29985
 30
0.0
 10
-1.71296
 20
2.29985
 30
0.0
 10
-1.5417
 20
2.42781
 30
0.0
 10
-1.35942
 20
2.53423
 30
0.0
 10
-1.16984
 20
2.6191
 30
0.0
 10
-1.16984
 20
2.6191
 30
0.0
 10
-1.16984
 20
2.6191
 30
0.0
 10
-0.64694
 20
1.33865
 30
0.0
 10
-0.64694
 20
1.33865
 30
0.0
 10
-0.64694
 20
1.33865
 30
0.0
 10
-0.67032
 20
1.3275
 30
0.0
 10
-0.69347
 20
1.3157
 30
0.0
 10
-0.71638
 20
1.30327
 30
0.0
  0
SPLINE
  5
73
330
1F
100
AcDbEntity
  8
Layer 1
370
    53
100
AcDbSpline
210
0.0
220
0.0
230
1.0
 70
    11
 71
     3
 72
    20
 73
    16
 74
     0
 42
0.0000000001
 43
0.0000000001
 12
1.0
 22
0.0
 32
0.0
 13
1.0
 23
0.0
 33
0.0
 40
0.0
 40
0.0
 40
0.0
 40
0.0
 40
0.2
 40
0.2
 40
0.2
 40
0.2
 40
0.4
 40
0.4
 40
0.4
 40
0.4
 40
0.6
 40
0.6
 40
0.6
 40
0.6
 40
1.0
 40
1.0
 40
1.0
 40
1.0
 10
2.31314
 20
-1.72626
 30
0.0
 10
2.31314
 20
-1.72626
 30
0.0
 10
1.31717
 20
-0.73028
 30
0.0
 10
1.31717
 20
-0.73028
 30
0.0
 10
1.31717
 20
-0.73028
 30
0.0
 10
1.3279
 20
-0.71101
 30
0.0
 10
1.33824
 20
-0.69144
 30
0.0
 10
1.34818
 20
-0.67155
 30
0.0
 10
1.34818
 20
-0.67155
 30
0.0
 10
1.34818
 20
-0.67155
 30
0.0
 10
2.62298
 20
-1.19958
 30
0.0
 10
2.62298
 20
-1.19958
 30
0.0
 10
2.62298
 20
-1.19958
 30
0.0
 10
2.53698
 20
-1.38919
 30
0.0
 10
2.43271
 20
-1.56514
 30
0.0
 10
2.31314
 20
-1.72626
 30
0.0
  0
SPLINE
  5
74
330
1F
100
AcDbEntity
  8
Layer 1
370
    53
100
AcDbSpline
210
0.0
220
0.0
230
1.0
 70
    11
 71
     3
 72
    40
 73
    36
 74
     0
 42
0.0000000001
 43
0.0000000001
 12
1.0
 22
0.0
 32
0.0
 13
1.0
 23
0.0
 33
0.0
 40
0.0
 40
0.0
 40
0.0
 40
0.0
 40
0.1
 40
0.1
 40
0.1
 40
0.1
 40
0.2
 40
0.2
 40
0.2
 40
0.2
 40
0.3
 40
0.3
 40
0.3
 40
0.3
 40
0.4
 40
0.4
 40
0.4
 40
0.4
 40
0.5
 40
0.5
 40
0.5
 40
0.5
 40
0.6
 40
0.6
 40
0.6
 40
0.6
 40
0.7
 40
0.7
 40
0.7
 40
0.7
 40
0.8
 40
0.8
 40
0.8
 40
0.8
 40
1.0
 40
1.0
 40
1.0
 40
1.0
 10
4.19741
 20
-3.61053
 30
0.0
 10
4.19741
 20
-3.61053
 30
0.0
 10
3.00404
 20
-2.41715
 30
0.0
 10
3.00404
 20
-2.41715
 30
0.0
 10
3.00404
 20
-2.41715
 30
0.0
 10
3.00517
 20
-2.27539
 30
0.0
 10
2.9576
 20
-2.13757
 30
0.0
 10
2.87098
 20
-2.02699
 30
0.0
 10
2.87098
 20
-2.02699
 30
0.0
 10
2.88757
 20
-2.00334
 30
0.0
 10
2.90392
 20
-1.97944
 30
0.0
 10
2.91998
 20
-1.9553
 30
0.0
 10
2.91998
 20
-1.9553
 30
0.0
 10
2.93129
 20
-1.93831
 30
0.0
 10
2.94248
 20
-1.9212
 30
0.0
 10
2.95351
 20
-1.90396
 30
0.0
 10
2.95351
 20
-1.90396
 30
0.0
 10
3.20843
 20
-1.98593
 30
0.0
 10
3.48369
 20
-1.89434
 30
0.0
 10
3.64073
 20
-1.68664
 30
0.0
 10
3.64073
 20
-1.68664
 30
0.0
 10
3.64073
 20
-1.68664
 30
0.0
 10
5.43564
 20
-2.43012
 30
0.0
 10
5.43564
 20
-2.43012
 30
0.0
 10
5.43564
 20
-2.43012
 30
0.0
 10
5.41087
 20
-2.48573
 30
0.0
 10
5.38534
 20
-2.54079
 30
0.0
 10
5.35909
 20
-2.59528
 30
0.0
 10
5.35909
 20
-2.59528
 30
0.0
 10
4.91905
 20
-2.42615
 30
0.0
 10
4.42192
 20
-2.63784
 30
0.0
 10
4.24044
 20
-3.07597
 30
0.0
 10
4.24044
 20
-3.07597
 30
0.0
 10
4.16752
 20
-3.25202
 30
0.0
 10
4.15654
 20
-3.43827
 30
0.0
 10
4.19741
 20
-3.61053
 30
0.0
  0
SPLINE
  5
75
330
1F
100
AcDbEntity
  8
Layer 1
370
    53
100
AcDbSpline
210
0.0
220
0.0
230
1.0
 70
    11
 71
     3
 72
    20
 73
    16
 74
     0
 42
0.0000000001
 43
0.0000000001
 12
1.0
 22
0.0
 32
0.0
 13
1.0
 23
0.0
 33
0.0
 40
0.0
 40
0.0
 40
0.0
 40
0.0
 40
0.2
 40
0.2
 40
0.2
 40
0.2
 40
0.4
 40
0.4
 40
0.4
 40
0.4
 40
0.6
 40
0.6
 40
0.6
 40
0.6
 40
1.0
 40
1.0
 40
1.0
 40
1.0
 10
-0.08542
 20
1.48432
 30
0.0
 10
-0.21702
 20
1.47741
 30
0.0
 10
-0.34949
 20
1.45298
 30
0.0
 10
-0.47962
 20
1.40961
 30
0.0
 10
-0.47962
 20
1.40961
 30
0.0
 10
-0.47962
 20
1.40961
 30
0.0
 10
-1.00766
 20
2.68441
 30
0.0
 10
-1.00766
 20
2.68441
 30
0.0
 10
-1.00766
 20
2.68441
 30
0.0
 10
-0.70219
 20
2.79924
 30
0.0
 10
-0.38869
 20
2.85865
 30
0.0
 10
-0.0785
 20
2.86741
 30
0.0
 10
-0.0785
 20
2.86741
 30
0.0
 10
-0.0785
 20
2.86741
 30
0.0
 10
-0.08542
 20
1.48432
 30
0.0
 10
-0.08542
 20
1.48432
 30
0.0
  0
SPLINE
  5
76
330
1F
100
AcDbEntity
  8
Layer 1
370
    53
100
AcDbSpline
210
0.0
220
0.0
230
1.0
 70
    11
 71
     3
 72
    20
 73
    16
 74
     0
 42
0.0000000001
 43
0.0000000001
 12
1.0
 22
0.0
 32
0.0
 13
1.0
 23
0.0
 33
0.0
 40
0.0
 40
0.0
 40
0.0
 40
0.0
 40
0.2
 40
0.2
 40
0.2
 40
0.2
 40
0.4
 40
0.4
 40
0.4
 40
0.4
 40
0.6
 40
0.6
 40
0.6
 40
0.6
 40
1.0
 40
1.0
 40
1.0
 40
1.0
 10
-5.26922
 20
5.26303
 30
0.0
 10
-5.15208
 20
5.38017
 30
0.0
 10
-4.96209
 20
5.38016
 30
0.0
 10
-4.84495
 20
5.26303
 30
0.0
 10
-4.84495
 20
5.26303
 30
0.0
 10
-4.72781
 20
5.14589
 30
0.0
 10
-4.72781
 20
4.9559
 30
0.0
 10
-4.84495
 20
4.83876
 30
0.0
 10
-4.84495
 20
4.83876
 30
0.0
 10
-4.96209
 20
4.72163
 30
0.0
 10
-5.15208
 20
4.72162
 30
0.0
 10
-5.26922
 20
4.83876
 30
0.0
 10
-5.26922
 20
4.83876
 30
0.0
 10
-5.38635
 20
4.9559
 30
0.0
 10
-5.38635
 20
5.1459
 30
0.0
 10
-5.26922
 20
5.26303
 30
0.0
  0
ENDSEC
  0
SECTION
  2
OBJECTS
  0
DICTIONARY
  5
C
330
0
100
AcDbDictionary
281
     1
  3
ACAD_GROUP
350
D
  3
ACAD_LAYOUT
350
1A
  3
ACAD_MATERIAL
350
3B
  3
ACAD_MLEADERSTYLE
350
98
  3
ACAD_MLINESTYLE
350
17
  3
ACAD_PLOTSETTINGS
350
19
  3
ACAD_PLOTSTYLENAME
350
E
  3
ACAD_TABLESTYLE
350
97
  3
ACAD_VISUALSTYLE
350
2A
  0
DICTIONARY
  5
D
102
{ACAD_REACTORS
330
C
102
}
330
C
100
AcDbDictionary
281
     1
  0
DICTIONARY
  5
1A
102
{ACAD_REACTORS
330
C
102
}
330
C
100
AcDbDictionary
281
     1
  3
Layout1
350
1E
  3
Layout2
350
26
  3
Model
350
22
  0
DICTIONARY
  5
3B
102
{ACAD_REACTORS
330
C
102
}
330
C
100
AcDbDictionary
281
     1
  3
ByBlock
350
3D
  3
ByLayer
350
3C
  3
Global
350
3E
  0
DICTIONARY
  5
98
102
{ACAD_REACTORS
330
C
102
}
330
C
100
AcDbDictionary
281
     1
  0
DICTIONARY
  5
17
102
{ACAD_REACTORS
330
C
102
}
330
C
100
AcDbDictionary
281
     1
  3
Standard
350
18
  0
DICTIONARY
  5
19
102
{ACAD_REACTORS
330
C
102
}
330
C
100
AcDbDictionary
281
     1
  0
ACDBDICTIONARYWDFLT
  5
E
102
{ACAD_REACTORS
330
C
102
}
330
C
100
AcDbDictionary
281
     1
  3
Normal
350
F
100
AcDbDictionaryWithDefault
340
F
  0
DICTIONARY
  5
97
102
{ACAD_REACTORS
330
C
102
}
330
C
100
AcDbDictionary
281
     1
  0
DICTIONARY
  5
2A
102
{ACAD_REACTORS
330
C
102
}
330
C
100
AcDbDictionary
281
     1
  3
2dWireframe
350
2F
  3
3D Hidden
350
31
  3
3dWireframe
350
30
  3
Basic
350
32
  3
Brighten
350
36
  3
ColorChange
350
3A
  3
Conceptual
350
34
  3
Dim
350
35
  3
Facepattern
350
39
  3
Flat
350
2B
  3
FlatWithEdges
350
2C
  3
Gouraud
350
2D
  3
GouraudWithEdges
350
2E
  3
Linepattern
350
38
  3
Realistic
350
33
  3
Thicken
350
37
  0
LAYOUT
  5
1E
102
{ACAD_REACTORS
330
1A
102
}
330
1A
100
AcDbPlotSettings
  1

  2
none_device
  4

  6

 40
0.0
 41
0.0
 42
0.0
 43
0.0
 44
0.0
 45
0.0
 46
0.0
 47
0.0
 48
0.0
 49
0.0
140
0.0
141
0.0
142
1.0
143
1.0
 70
   688
 72
     0
 73
     0
 74
     5
  7

 75
    16
 76
     0
 77
     2
 78
   300
147
1.0
148
0.0
149
0.0
100
AcDbLayout
  1
Layout1
 70
     1
 71
     1
 10
0.0
 20
0.0
 11
12.0
 21
9.0
 12
0.0
 22
0.0
 32
0.0
 14
1.000000000000000E+20
 24
1.000000000000000E+20
 34
1.000000000000000E+20
 15
-1.000000000000000E+20
 25
-1.000000000000000E+20
 35
-1.000000000000000E+20
146
0.0
 13
0.0
 23
0.0
 33
0.0
 16
1.0
 26
0.0
 36
0.0
 17
0.0
 27
1.0
 37
0.0
 76
     0
330
1B
  0
LAYOUT
  5
26
102
{ACAD_REACTORS
330
1A
102
}
330
1A
100
AcDbPlotSettings
  1

  2
none_device
  4

  6

 40
0.0
 41
0.0
 42
0.0
 43
0.0
 44
0.0
 45
0.0
 46
0.0
 47
0.0
 48
0.0
 49
0.0
140
0.0
141
0.0
142
1.0
143
1.0
 70
   688
 72
     0
 73
     0
 74
     5
  7

 75
    16
 76
     0
 77
     2
 78
   300
147
1.0
148
0.0
149
0.0
100
AcDbLayout
  1
Layout2
 70
     1
 71
     2
 10
0.0
 20
0.0
 11
0.0
 21
0.0
 12
0.0
 22
0.0
 32
0.0
 14
0.0
 24
0.0
 34
0.0
 15
0.0
 25
0.0
 35
0.0
146
0.0
 13
0.0
 23
0.0
 33
0.0
 16
1.0
 26
0.0
 36
0.0
 17
0.0
 27
1.0
 37
0.0
 76
     0
330
23
  0
LAYOUT
  5
22
102
{ACAD_REACTORS
330
1A
102
}
330
1A
100
AcDbPlotSettings
  1

  2
none_device
  4

  6

 40
0.0
 41
0.0
 42
0.0
 43
0.0
 44
0.0
 45
0.0
 46
0.0
 47
0.0
 48
0.0
 49
0.0
140
0.0
141
0.0
142
1.0
143
1.0
 70
  1712
 72
     0
 73
     0
 74
     0
  7

 75
     0
 76
     0
 77
     2
 78
   300
147
1.0
148
0.0
149
0.0
100
AcDbLayout
  1
Model
 70
     1
 71
     0
 10
0.0
 20
0.0
 11
12.0
 21
9.0
 12
0.0
 22
0.0
 32
0.0
 14
-6.92646
 24
-6.92646
 34
0.0
 15
6.92646
 25
6.92646
 35
0.0
146
0.0
 13
0.0
 23
0.0
 33
0.0
 16
1.0
 26
0.0
 36
0.0
 17
0.0
 27
1.0
 37
0.0
 76
     0
330
1F
331
29
  0
MATERIAL
  5
3D
102
{ACAD_REACTORS
330
3B
102
}
330
3B
100
AcDbMaterial
  1
ByBlock
 72
     1
 94
      127
  0
MATERIAL
  5
3C
102
{ACAD_REACTORS
330
3B
102
}
330
3B
100
AcDbMaterial
  1
ByLayer
 72
     1
 94
      127
  0
MATERIAL
  5
3E
102
{ACAD_REACTORS
330
3B
102
}
330
3B
100
AcDbMaterial
  1
Global
 72
     1
 94
      127
  0
MLINESTYLE
  5
18
102
{ACAD_REACTORS
330
17
102
}
330
17
100
AcDbMlineStyle
  2
Standard
 70
     0
  3

 62
   256
 51
90.0
 52
90.0
 71
     2
 49
0.5
 62
   256
  6
BYLAYER
 49
-0.5
 62
   256
  6
BYLAYER
  0
ACDBPLACEHOLDER
  5
F
102
{ACAD_REACTORS
330
E
102
}
330
E
  0
VISUALSTYLE
  5
2F
102
{ACAD_REACTORS
330
2A
102
}
102
{ACAD_XDICTIONARY
360
7F
102
}
330
2A
100
AcDbVisualStyle
  2
2dWireframe
 70
     4
 71
     0
 72
     2
 73
     0
 90
        0
 40
-0.6
 41
-30.0
 62
     5
 63
     7
421
 16777215
 74
     1
 91
        4
 64
     7
 65
   257
 75
     1
175
     1
 42
1.0
 92
        0
 66
   257
 43
1.0
 76
     1
 77
     6
 78
     2
 67
     7
 79
     5
170
     0
171
     0
290
     0
174
     0
 93
        1
 44
0.0
173
     0
291
     0
 45
0.0
  0
VISUALSTYLE
  5
31
102
{ACAD_REACTORS
330
2A
102
}
102
{ACAD_XDICTIONARY
360
83
102
}
330
2A
100
AcDbVisualStyle
  2
3D Hidden
 70
     6
 71
     1
 72
     2
 73
     2
 90
        0
 40
-0.6
 41
-30.0
 62
     5
 63
     7
421
 16777215
 74
     2
 91
        2
 64
     7
 65
   257
 75
     2
175
     1
 42
40.0
 92
        0
 66
   257
 43
1.0
 76
     1
 77
     6
 78
     2
 67
     7
 79
     3
170
     0
171
     0
290
     0
174
     0
 93
        1
 44
0.0
173
     0
291
     0
 45
0.0
  0
VISUALSTYLE
  5
30
102
{ACAD_REACTORS
330
2A
102
}
102
{ACAD_XDICTIONARY
360
81
102
}
330
2A
100
AcDbVisualStyle
  2
3dWireframe
 70
     5
 71
     0
 72
     2
 73
     0
 90
        0
 40
-0.6
 41
-30.0
 62
     5
 63
     7
421
 16777215
 74
     1
 91
        4
 64
     7
 65
   257
 75
     1
175
     1
 42
1.0
 92
        0
 66
   257
 43
1.0
 76
     1
 77
     6
 78
     2
 67
     7
 79
     5
170
     0
171
     0
290
     0
174
     0
 93
        1
 44
0.0
173
     0
291
     0
 45
0.0
  0
VISUALSTYLE
  5
32
102
{ACAD_REACTORS
330
2A
102
}
102
{ACAD_XDICTIONARY
360
85
102
}
330
2A
100
AcDbVisualStyle
  2
Basic
 70
     7
 71
     1
 72
     0
 73
     1
 90
        0
 40
-0.6
 41
-30.0
 62
     5
 63
     7
421
 16777215
 74
     0
 91
        4
 64
     7
 65
   257
 75
     1
175
     1
 42
1.0
 92
        8
 66
     7
 43
1.0
 76
     1
 77
     6
 78
     2
 67
     7
 79
     5
170
     0
171
     0
290
     0
174
     0
 93
        1
 44
0.0
173
     0
291
     1
 45
0.0
  0
VISUALSTYLE
  5
36
102
{ACAD_REACTORS
330
2A
102
}
102
{ACAD_XDICTIONARY
360
8D
102
}
330
2A
100
AcDbVisualStyle
  2
Brighten
 70
    12
 71
     2
 72
     2
 73
     0
 90
        0
 40
-0.6
 41
-30.0
 62
     5
 63
     7
421
 16777215
 74
     1
 91
        4
 64
     7
 65
   257
 75
     1
175
     1
 42
1.0
 92
        8
 66
     7
 43
1.0
 76
     1
 77
     6
 78
     2
 67
     7
 79
     5
170
     0
171
     0
290
     0
174
     0
 93
        1
 44
50.0
173
     0
291
     1
 45
0.0
  0
VISUALSTYLE
  5
3A
102
{ACAD_REACTORS
330
2A
102
}
102
{ACAD_XDICTIONARY
360
95
102
}
330
2A
100
AcDbVisualStyle
  2
ColorChange
 70
    16
 71
     2
 72
     2
 73
     3
 90
        0
 40
-0.6
 41
-30.0
 62
     5
 63
     8
421
  8421504
 74
     1
 91
        4
 64
     7
 65
   257
 75
     1
175
     1
 42
1.0
 92
        8
 66
     8
424
  8421504
 43
1.0
 76
     1
 77
     6
 78
     2
 67
     7
 79
     5
170
     0
171
     0
290
     0
174
     0
 93
        1
 44
0.0
173
     0
291
     1
 45
0.0
  0
VISUALSTYLE
  5
34
102
{ACAD_REACTORS
330
2A
102
}
102
{ACAD_XDICTIONARY
360
89
102
}
330
2A
100
AcDbVisualStyle
  2
Conceptual
 70
     9
 71
     3
 72
     2
 73
     0
 90
        0
 40
-0.6
 41
-30.0
 62
     5
 63
     7
421
 16777215
 74
     2
 91
        2
 64
     7
 65
   257
 75
     1
175
     1
 42
40.0
 92
        8
 66
     7
 43
1.0
 76
     1
 77
     6
 78
     2
 67
     7
 79
     3
170
     0
171
     0
290
     0
174
     0
 93
        1
 44
0.0
173
     0
291
     0
 45
0.0
  0
VISUALSTYLE
  5
35
102
{ACAD_REACTORS
330
2A
102
}
102
{ACAD_XDICTIONARY
360
8B
102
}
330
2A
100
AcDbVisualStyle
  2
Dim
 70
    11
 71
     2
 72
     2
 73
     0
 90
        0
 40
-0.6
 41
-30.0
 62
     5
 63
     7
421
 16777215
 74
     1
 91
        4
 64
     7
 65
   257
 75
     1
175
     1
 42
1.0
 92
        8
 66
     7
 43
1.0
 76
     1
 77
     6
 78
     2
 67
     7
 79
     5
170
     0
171
     0
290
     0
174
     0
 93
        1
 44
-50.0
173
     0
291
     1
 45
0.0
  0
VISUALSTYLE
  5
39
102
{ACAD_REACTORS
330
2A
102
}
102
{ACAD_XDICTIONARY
360
93
102
}
330
2A
100
AcDbVisualStyle
  2
Facepattern
 70
    15
 71
     2
 72
     2
 73
     0
 90
        0
 40
-0.6
 41
-30.0
 62
     5
 63
     7
421
 16777215
 74
     1
 91
        4
 64
     7
 65
   257
 75
     1
175
     1
 42
1.0
 92
        8
 66
     7
 43
1.0
 76
     1
 77
     6
 78
     2
 67
     7
 79
     5
170
     0
171
     0
290
     0
174
     0
 93
        1
 44
0.0
173
     0
291
     1
 45
0.0
  0
VISUALSTYLE
  5
2B
102
{ACAD_REACTORS
330
2A
102
}
102
{ACAD_XDICTIONARY
360
77
102
}
330
2A
100
AcDbVisualStyle
  2
Flat
 70
     0
 71
     2
 72
     1
 73
     1
 90
        2
 40
-0.6
 41
30.0
 62
     5
 63
     7
421
 16777215
 74
     0
 91
        4
 64
     7
 65
   257
 75
     1
175
     1
 42
1.0
 92
        8
 66
     7
 43
1.0
 76
     1
 77
     6
 78
     2
 67
     7
 79
     5
170
     0
171
     0
290
     0
174
     0
 93
       13
 44
0.0
173
     0
291
     1
 45
0.0
  0
VISUALSTYLE
  5
2C
102
{ACAD_REACTORS
330
2A
102
}
102
{ACAD_XDICTIONARY
360
79
102
}
330
2A
100
AcDbVisualStyle
  2
FlatWithEdges
 70
     1
 71
     2
 72
     1
 73
     1
 90
        2
 40
-0.6
 41
30.0
 62
     5
 63
     7
421
 16777215
 74
     1
 91
        4
 64
     7
 65
   257
 75
     1
175
     1
 42
1.0
 92
        0
 66
   257
 43
1.0
 76
     1
 77
     6
 78
     2
 67
     7
 79
     5
170
     0
171
     0
290
     0
174
     0
 93
       13
 44
0.0
173
     0
291
     1
 45
0.0
  0
VISUALSTYLE
  5
2D
102
{ACAD_REACTORS
330
2A
102
}
102
{ACAD_XDICTIONARY
360
7B
102
}
330
2A
100
AcDbVisualStyle
  2
Gouraud
 70
     2
 71
     2
 72
     2
 73
     1
 90
        2
 40
-0.6
 41
30.0
 62
     5
 63
     7
421
 16777215
 74
     0
 91
        4
 64
     7
 65
   257
 75
     1
175
     1
 42
1.0
 92
        0
 66
     7
 43
1.0
 76
     1
 77
     6
 78
     2
 67
     7
 79
     5
170
     0
171
     0
290
     0
174
     0
 93
       13
 44
0.0
173
     0
291
     1
 45
0.0
  0
VISUALSTYLE
  5
2E
102
{ACAD_REACTORS
330
2A
102
}
102
{ACAD_XDICTIONARY
360
7D
102
}
330
2A
100
AcDbVisualStyle
  2
GouraudWithEdges
 70
     3
 71
     2
 72
     2
 73
     1
 90
        2
 40
-0.6
 41
30.0
 62
     5
 63
     7
421
 16777215
 74
     1
 91
        4
 64
     7
 65
   257
 75
     1
175
     1
 42
1.0
 92
        0
 66
   257
 43
1.0
 76
     1
 77
     6
 78
     2
 67
     7
 79
     5
170
     0
171
     0
290
     0
174
     0
 93
       13
 44
0.0
173
     0
291
     1
 45
0.0
  0
VISUALSTYLE
  5
38
102
{ACAD_REACTORS
330
2A
102
}
102
{ACAD_XDICTIONARY
360
91
102
}
330
2A
100
AcDbVisualStyle
  2
Linepattern
 70
    14
 71
     2
 72
     2
 73
     0
 90
        0
 40
-0.6
 41
-30.0
 62
     5
 63
     7
421
 16777215
 74
     1
 91
        4
 64
     7
 65
   257
 75
     7
175
     7
 42
1.0
 92
        8
 66
     7
 43
1.0
 76
     1
 77
     6
 78
     2
 67
     7
 79
     5
170
     0
171
     0
290
     0
174
     0
 93
        1
 44
0.0
173
     0
291
     1
 45
0.0
  0
VISUALSTYLE
  5
33
102
{ACAD_REACTORS
330
2A
102
}
102
{ACAD_XDICTIONARY
360
87
102
}
330
2A
100
AcDbVisualStyle
  2
Realistic
 70
     8
 71
     2
 72
     2
 73
     0
 90
        0
 40
-0.6
 41
-30.0
 62
     5
 63
     7
421
 16777215
 74
     1
 91
        0
 64
     7
 65
   257
 75
     1
175
     1
 42
1.0
 92
        8
 66
     8
424
  7895160
 43
1.0
 76
     1
 77
     6
 78
     2
 67
     7
 79
     5
170
     0
171
     0
290
     0
174
     0
 93
       13
 44
0.0
173
     0
291
     0
 45
0.0
  0
VISUALSTYLE
  5
37
102
{ACAD_REACTORS
330
2A
102
}
102
{ACAD_XDICTIONARY
360
8F
102
}
330
2A
100
AcDbVisualStyle
  2
Thicken
 70
    13
 71
     2
 72
     2
 73
     0
 90
        0
 40
-0.6
 41
-30.0
 62
     5
 63
     7
421
 16777215
 74
     1
 91
        4
 64
     7
 65
   257
 75
     1
175
     1
 42
1.0
 92
       12
 66
     7
 43
1.0
 76
     1
 77
     6
 78
     2
 67
     7
 79
     5
170
     0
171
     0
290
     0
174
     0
 93
        1
 44
0.0
173
     0
291
     1
 45
0.0
  0
DICTIONARY
  5
7F
330
2F
100
AcDbDictionary
280
     1
281
     1
  3
ACAD_XREC_ROUNDTRIP
360
80
  0
DICTIONARY
  5
83
330
31
100
AcDbDictionary
280
     1
281
     1
  3
ACAD_XREC_ROUNDTRIP
360
84
  0
DICTIONARY
  5
81
330
30
100
AcDbDictionary
280
     1
281
     1
  3
ACAD_XREC_ROUNDTRIP
360
82
  0
DICTIONARY
  5
85
330
32
100
AcDbDictionary
280
     1
281
     1
  3
ACAD_XREC_ROUNDTRIP
360
86
  0
DICTIONARY
  5
8D
330
36
100
AcDbDictionary
280
     1
281
     1
  3
ACAD_XREC_ROUNDTRIP
360
8E
  0
DICTIONARY
  5
95
330
3A
100
AcDbDictionary
280
     1
281
     1
  3
ACAD_XREC_ROUNDTRIP
360
96
  0
DICTIONARY
  5
89
330
34
100
AcDbDictionary
280
     1
281
     1
  3
ACAD_XREC_ROUNDTRIP
360
8A
  0
DICTIONARY
  5
8B
330
35
100
AcDbDictionary
280
     1
281
     1
  3
ACAD_XREC_ROUNDTRIP
360
8C
  0
DICTIONARY
  5
93
330
39
100
AcDbDictionary
280
     1
281
     1
  3
ACAD_XREC_ROUNDTRIP
360
94
  0
DICTIONARY
  5
77
330
2B
100
AcDbDictionary
280
     1
281
     1
  3
ACAD_XREC_ROUNDTRIP
360
78
  0
DICTIONARY
  5
79
330
2C
100
AcDbDictionary
280
     1
281
     1
  3
ACAD_XREC_ROUNDTRIP
360
7A
  0
DICTIONARY
  5
7B
330
2D
100
AcDbDictionary
280
     1
281
     1
  3
ACAD_XREC_ROUNDTRIP
360
7C
  0
DICTIONARY
  5
7D
330
2E
100
AcDbDictionary
280
     1
281
     1
  3
ACAD_XREC_ROUNDTRIP
360
7E
  0
DICTIONARY
  5
91
330
38
100
AcDbDictionary
280
     1
281
     1
  3
ACAD_XREC_ROUNDTRIP
360
92
  0
DICTIONARY
  5
87
330
33
100
AcDbDictionary
280
     1
281
     1
  3
ACAD_XREC_ROUNDTRIP
360
88
  0
DICTIONARY
  5
8F
330
37
100
AcDbDictionary
280
     1
281
     1
  3
ACAD_XREC_ROUNDTRIP
360
90
  0
XRECORD
  5
80
102
{ACAD_REACTORS
330
7F
102
}
330
7F
100
AcDbXrecord
280
     1
102
RTVSPropertyOp0
 70
     1
102
RTVSPropertyOp1
 70
     1
102
RTVSPropertyOp2
 70
     1
102
RTVSPropertyOp3
 70
     1
102
RTVSPropertyOp4
 70
     1
102
RTVSPropertyOp5
 70
     1
102
RTVSPropertyOp6
 70
     1
102
RTVSPropertyOp7
 70
     1
102
RTVSPropertyOp8
 70
     1
102
RTVSPropertyOp9
 70
     1
102
RTVSPropertyOp10
 70
     1
102
RTVSPropertyOp11
 70
     1
102
RTVSPropertyOp12
 70
     1
102
RTVSPropertyOp13
 70
     1
102
RTVSPropertyOp14
 70
     1
102
RTVSPropertyOp15
 70
     1
102
RTVSPropertyOp16
 70
     1
102
RTVSPropertyOp17
 70
     1
102
RTVSPropertyOp18
 70
     1
102
RTVSPropertyOp19
 70
     1
102
RTVSPropertyOp20
 70
     1
102
RTVSPropertyOp21
 70
     1
102
RTVSPropertyOp22
 70
     1
102
RTVSPropertyOp23
 70
     1
102
RTVSPropertyOp24
 70
     1
102
RTVSPropertyOp25
 70
     1
102
RTVSPropertyOp26
 70
     1
102
RTVSPropertyOp27
 70
     1
102
RTVSPropertyOp28
 70
     1
102
RTVSPropertyOp29
 70
     1
102
RTVSPropertyOp30
 70
     1
102
RTVSPropertyOp31
 70
     1
102
RTVSPropertyOp32
 70
     1
  0
XRECORD
  5
84
102
{ACAD_REACTORS
330
83
102
}
330
83
100
AcDbXrecord
280
     1
102
RTVSPropertyOp0
 70
     1
102
RTVSPropertyOp1
 70
     1
102
RTVSPropertyOp2
 70
     1
102
RTVSPropertyOp3
 70
     1
102
RTVSPropertyOp4
 70
     1
102
RTVSPropertyOp5
 70
     1
102
RTVSPropertyOp6
 70
     1
102
RTVSPropertyOp7
 70
     1
102
RTVSPropertyOp8
 70
     1
102
RTVSPropertyOp9
 70
     1
102
RTVSPropertyOp10
 70
     1
102
RTVSPropertyOp11
 70
     1
102
RTVSPropertyOp12
 70
     1
102
RTVSPropertyOp13
 70
     1
102
RTVSPropertyOp14
 70
     1
102
RTVSPropertyOp15
 70
     1
102
RTVSPropertyOp16
 70
     1
102
RTVSPropertyOp17
 70
     1
102
RTVSPropertyOp18
 70
     1
102
RTVSPropertyOp19
 70
     1
102
RTVSPropertyOp20
 70
     1
102
RTVSPropertyOp21
 70
     1
102
RTVSPropertyOp22
 70
     1
102
RTVSPropertyOp23
 70
     1
102
RTVSPropertyOp24
 70
     1
102
RTVSPropertyOp25
 70
     1
102
RTVSPropertyOp26
 70
     1
102
RTVSPropertyOp27
 70
     1
102
RTVSPropertyOp28
 70
     1
102
RTVSPropertyOp29
 70
     1
102
RTVSPropertyOp30
 70
     1
102
RTVSPropertyOp31
 70
     1
102
RTVSPropertyOp32
 70
     1
  0
XRECORD
  5
82
102
{ACAD_REACTORS
330
81
102
}
330
81
100
AcDbXrecord
280
     1
102
RTVSPropertyOp0
 70
     1
102
RTVSPropertyOp1
 70
     1
102
RTVSPropertyOp2
 70
     1
102
RTVSPropertyOp3
 70
     1
102
RTVSPropertyOp4
 70
     1
102
RTVSPropertyOp5
 70
     1
102
RTVSPropertyOp6
 70
     1
102
RTVSPropertyOp7
 70
     1
102
RTVSPropertyOp8
 70
     1
102
RTVSPropertyOp9
 70
     1
102
RTVSPropertyOp10
 70
     1
102
RTVSPropertyOp11
 70
     1
102
RTVSPropertyOp12
 70
     1
102
RTVSPropertyOp13
 70
     1
102
RTVSPropertyOp14
 70
     1
102
RTVSPropertyOp15
 70
     1
102
RTVSPropertyOp16
 70
     1
102
RTVSPropertyOp17
 70
     1
102
RTVSPropertyOp18
 70
     1
102
RTVSPropertyOp19
 70
     1
102
RTVSPropertyOp20
 70
     1
102
RTVSPropertyOp21
 70
     1
102
RTVSPropertyOp22
 70
     1
102
RTVSPropertyOp23
 70
     1
102
RTVSPropertyOp24
 70
     1
102
RTVSPropertyOp25
 70
     1
102
RTVSPropertyOp26
 70
     1
102
RTVSPropertyOp27
 70
     1
102
RTVSPropertyOp28
 70
     1
102
RTVSPropertyOp29
 70
     1
102
RTVSPropertyOp30
 70
     1
102
RTVSPropertyOp31
 70
     1
102
RTVSPropertyOp32
 70
     1
  0
XRECORD
  5
86
102
{ACAD_REACTORS
330
85
102
}
330
85
100
AcDbXrecord
280
     1
102
RTVSPropertyOp0
 70
     1
102
RTVSPropertyOp1
 70
     1
102
RTVSPropertyOp2
 70
     1
102
RTVSPropertyOp3
 70
     1
102
RTVSPropertyOp4
 70
     1
102
RTVSPropertyOp5
 70
     1
102
RTVSPropertyOp6
 70
     1
102
RTVSPropertyOp7
 70
     1
102
RTVSPropertyOp8
 70
     1
102
RTVSPropertyOp9
 70
     1
102
RTVSPropertyOp10
 70
     1
102
RTVSPropertyOp11
 70
     1
102
RTVSPropertyOp12
 70
     1
102
RTVSPropertyOp13
 70
     1
102
RTVSPropertyOp14
 70
     1
102
RTVSPropertyOp15
 70
     1
102
RTVSPropertyOp16
 70
     1
102
RTVSPropertyOp17
 70
     1
102
RTVSPropertyOp18
 70
     1
102
RTVSPropertyOp19
 70
     1
102
RTVSPropertyOp20
 70
     1
102
RTVSPropertyOp21
 70
     1
102
RTVSPropertyOp22
 70
     1
102
RTVSPropertyOp23
 70
     1
102
RTVSPropertyOp24
 70
     1
102
RTVSPropertyOp25
 70
     1
102
RTVSPropertyOp26
 70
     1
102
RTVSPropertyOp27
 70
     1
102
RTVSPropertyOp28
 70
     1
102
RTVSPropertyOp29
 70
     1
102
RTVSPropertyOp30
 70
     1
102
RTVSPropertyOp31
 70
     1
102
RTVSPropertyOp32
 70
     1
  0
XRECORD
  5
8E
102
{ACAD_REACTORS
330
8D
102
}
330
8D
100
AcDbXrecord
280
     1
102
RTVSPropertyOp0
 70
     1
102
RTVSPropertyOp1
 70
     1
102
RTVSPropertyOp2
 70
     1
102
RTVSPropertyOp3
 70
     1
102
RTVSPropertyOp4
 70
     1
102
RTVSPropertyOp5
 70
     1
102
RTVSPropertyOp6
 70
     1
102
RTVSPropertyOp7
 70
     1
102
RTVSPropertyOp8
 70
     1
102
RTVSPropertyOp9
 70
     1
102
RTVSPropertyOp10
 70
     1
102
RTVSPropertyOp11
 70
     1
102
RTVSPropertyOp12
 70
     1
102
RTVSPropertyOp13
 70
     1
102
RTVSPropertyOp14
 70
     1
102
RTVSPropertyOp15
 70
     1
102
RTVSPropertyOp16
 70
     1
102
RTVSPropertyOp17
 70
     1
102
RTVSPropertyOp18
 70
     1
102
RTVSPropertyOp19
 70
     1
102
RTVSPropertyOp20
 70
     1
102
RTVSPropertyOp21
 70
     1
102
RTVSPropertyOp22
 70
     1
102
RTVSPropertyOp23
 70
     1
102
RTVSPropertyOp24
 70
     1
102
RTVSPropertyOp25
 70
     1
102
RTVSPropertyOp26
 70
     1
102
RTVSPropertyOp27
 70
     1
102
RTVSPropertyOp28
 70
     1
102
RTVSPropertyOp29
 70
     1
102
RTVSPropertyOp30
 70
     1
102
RTVSPropertyOp31
 70
     1
102
RTVSPropertyOp32
 70
     1
  0
XRECORD
  5
96
102
{ACAD_REACTORS
330
95
102
}
330
95
100
AcDbXrecord
280
     1
102
RTVSPropertyOp0
 70
     1
102
RTVSPropertyOp1
 70
     1
102
RTVSPropertyOp2
 70
     1
102
RTVSPropertyOp3
 70
     1
102
RTVSPropertyOp4
 70
     1
102
RTVSPropertyOp5
 70
     1
102
RTVSPropertyOp6
 70
     1
102
RTVSPropertyOp7
 70
     1
102
RTVSPropertyOp8
 70
     1
102
RTVSPropertyOp9
 70
     1
102
RTVSPropertyOp10
 70
     1
102
RTVSPropertyOp11
 70
     1
102
RTVSPropertyOp12
 70
     1
102
RTVSPropertyOp13
 70
     1
102
RTVSPropertyOp14
 70
     1
102
RTVSPropertyOp15
 70
     1
102
RTVSPropertyOp16
 70
     1
102
RTVSPropertyOp17
 70
     1
102
RTVSPropertyOp18
 70
     1
102
RTVSPropertyOp19
 70
     1
102
RTVSPropertyOp20
 70
     1
102
RTVSPropertyOp21
 70
     1
102
RTVSPropertyOp22
 70
     1
102
RTVSPropertyOp23
 70
     1
102
RTVSPropertyOp24
 70
     1
102
RTVSPropertyOp25
 70
     1
102
RTVSPropertyOp26
 70
     1
102
RTVSPropertyOp27
 70
     1
102
RTVSPropertyOp28
 70
     1
102
RTVSPropertyOp29
 70
     1
102
RTVSPropertyOp30
 70
     1
102
RTVSPropertyOp31
 70
     1
102
RTVSPropertyOp32
 70
     1
  0
XRECORD
  5
8A
102
{ACAD_REACTORS
330
89
102
}
330
89
100
AcDbXrecord
280
     1
102
RTVSPropertyOp0
 70
     1
102
RTVSPropertyOp1
 70
     1
102
RTVSPropertyOp2
 70
     1
102
RTVSPropertyOp3
 70
     1
102
RTVSPropertyOp4
 70
     1
102
RTVSPropertyOp5
 70
     1
102
RTVSPropertyOp6
 70
     1
102
RTVSPropertyOp7
 70
     1
102
RTVSPropertyOp8
 70
     1
102
RTVSPropertyOp9
 70
     1
102
RTVSPropertyOp10
 70
     1
102
RTVSPropertyOp11
 70
     1
102
RTVSPropertyOp12
 70
     1
102
RTVSPropertyOp13
 70
     1
102
RTVSPropertyOp14
 70
     1
102
RTVSPropertyOp15
 70
     1
102
RTVSPropertyOp16
 70
     1
102
RTVSPropertyOp17
 70
     1
102
RTVSPropertyOp18
 70
     1
102
RTVSPropertyOp19
 70
     1
102
RTVSPropertyOp20
 70
     1
102
RTVSPropertyOp21
 70
     1
102
RTVSPropertyOp22
 70
     1
102
RTVSPropertyOp23
 70
     1
102
RTVSPropertyOp24
 70
     1
102
RTVSPropertyOp25
 70
     1
102
RTVSPropertyOp26
 70
     1
102
RTVSPropertyOp27
 70
     1
102
RTVSPropertyOp28
 70
     1
102
RTVSPropertyOp29
 70
     1
102
RTVSPropertyOp30
 70
     1
102
RTVSPropertyOp31
 70
     1
102
RTVSPropertyOp32
 70
     1
  0
XRECORD
  5
8C
102
{ACAD_REACTORS
330
8B
102
}
330
8B
100
AcDbXrecord
280
     1
102
RTVSPropertyOp0
 70
     1
102
RTVSPropertyOp1
 70
     1
102
RTVSPropertyOp2
 70
     1
102
RTVSPropertyOp3
 70
     1
102
RTVSPropertyOp4
 70
     1
102
RTVSPropertyOp5
 70
     1
102
RTVSPropertyOp6
 70
     1
102
RTVSPropertyOp7
 70
     1
102
RTVSPropertyOp8
 70
     1
102
RTVSPropertyOp9
 70
     1
102
RTVSPropertyOp10
 70
     1
102
RTVSPropertyOp11
 70
     1
102
RTVSPropertyOp12
 70
     1
102
RTVSPropertyOp13
 70
     1
102
RTVSPropertyOp14
 70
     1
102
RTVSPropertyOp15
 70
     1
102
RTVSPropertyOp16
 70
     1
102
RTVSPropertyOp17
 70
     1
102
RTVSPropertyOp18
 70
     1
102
RTVSPropertyOp19
 70
     1
102
RTVSPropertyOp20
 70
     1
102
RTVSPropertyOp21
 70
     1
102
RTVSPropertyOp22
 70
     1
102
RTVSPropertyOp23
 70
     1
102
RTVSPropertyOp24
 70
     1
102
RTVSPropertyOp25
 70
     1
102
RTVSPropertyOp26
 70
     1
102
RTVSPropertyOp27
 70
     1
102
RTVSPropertyOp28
 70
     1
102
RTVSPropertyOp29
 70
     1
102
RTVSPropertyOp30
 70
     1
102
RTVSPropertyOp31
 70
     1
102
RTVSPropertyOp32
 70
     1
  0
XRECORD
  5
94
102
{ACAD_REACTORS
330
93
102
}
330
93
100
AcDbXrecord
280
     1
102
RTVSPropertyOp0
 70
     1
102
RTVSPropertyOp1
 70
     1
102
RTVSPropertyOp2
 70
     1
102
RTVSPropertyOp3
 70
     1
102
RTVSPropertyOp4
 70
     1
102
RTVSPropertyOp5
 70
     1
102
RTVSPropertyOp6
 70
     1
102
RTVSPropertyOp7
 70
     1
102
RTVSPropertyOp8
 70
     1
102
RTVSPropertyOp9
 70
     1
102
RTVSPropertyOp10
 70
     1
102
RTVSPropertyOp11
 70
     1
102
RTVSPropertyOp12
 70
     1
102
RTVSPropertyOp13
 70
     1
102
RTVSPropertyOp14
 70
     1
102
RTVSPropertyOp15
 70
     1
102
RTVSPropertyOp16
 70
     1
102
RTVSPropertyOp17
 70
     1
102
RTVSPropertyOp18
 70
     1
102
RTVSPropertyOp19
 70
     1
102
RTVSPropertyOp20
 70
     1
102
RTVSPropertyOp21
 70
     1
102
RTVSPropertyOp22
 70
     1
102
RTVSPropertyOp23
 70
     1
102
RTVSPropertyOp24
 70
     1
102
RTVSPropertyOp25
 70
     1
102
RTVSPropertyOp26
 70
     1
102
RTVSPropertyOp27
 70
     1
102
RTVSPropertyOp28
 70
     1
102
RTVSPropertyOp29
 70
     1
102
RTVSPropertyOp30
 70
     1
102
RTVSPropertyOp31
 70
     1
102
RTVSPropertyOp32
 70
     1
  0
XRECORD
  5
78
102
{ACAD_REACTORS
330
77
102
}
330
77
100
AcDbXrecord
280
     1
102
RTVSPropertyOp0
 70
     1
102
RTVSPropertyOp1
 70
     1
102
RTVSPropertyOp2
 70
     1
102
RTVSPropertyOp3
 70
     1
102
RTVSPropertyOp4
 70
     1
102
RTVSPropertyOp5
 70
     1
102
RTVSPropertyOp6
 70
     1
102
RTVSPropertyOp7
 70
     1
102
RTVSPropertyOp8
 70
     1
102
RTVSPropertyOp9
 70
     1
102
RTVSPropertyOp10
 70
     1
102
RTVSPropertyOp11
 70
     1
102
RTVSPropertyOp12
 70
     1
102
RTVSPropertyOp13
 70
     1
102
RTVSPropertyOp14
 70
     1
102
RTVSPropertyOp15
 70
     1
102
RTVSPropertyOp16
 70
     1
102
RTVSPropertyOp17
 70
     1
102
RTVSPropertyOp18
 70
     1
102
RTVSPropertyOp19
 70
     1
102
RTVSPropertyOp20
 70
     1
102
RTVSPropertyOp21
 70
     1
102
RTVSPropertyOp22
 70
     1
102
RTVSPropertyOp23
 70
     1
102
RTVSPropertyOp24
 70
     1
102
RTVSPropertyOp25
 70
     1
102
RTVSPropertyOp26
 70
     1
102
RTVSPropertyOp27
 70
     1
102
RTVSPropertyOp28
 70
     1
102
RTVSPropertyOp29
 70
     1
102
RTVSPropertyOp30
 70
     1
102
RTVSPropertyOp31
 70
     1
102
RTVSPropertyOp32
 70
     1
  0
XRECORD
  5
7A
102
{ACAD_REACTORS
330
79
102
}
330
79
100
AcDbXrecord
280
     1
102
RTVSPropertyOp0
 70
     1
102
RTVSPropertyOp1
 70
     1
102
RTVSPropertyOp2
 70
     1
102
RTVSPropertyOp3
 70
     1
102
RTVSPropertyOp4
 70
     1
102
RTVSPropertyOp5
 70
     1
102
RTVSPropertyOp6
 70
     1
102
RTVSPropertyOp7
 70
     1
102
RTVSPropertyOp8
 70
     1
102
RTVSPropertyOp9
 70
     1
102
RTVSPropertyOp10
 70
     1
102
RTVSPropertyOp11
 70
     1
102
RTVSPropertyOp12
 70
     1
102
RTVSPropertyOp13
 70
     1
102
RTVSPropertyOp14
 70
     1
102
RTVSPropertyOp15
 70
     1
102
RTVSPropertyOp16
 70
     1
102
RTVSPropertyOp17
 70
     1
102
RTVSPropertyOp18
 70
     1
102
RTVSPropertyOp19
 70
     1
102
RTVSPropertyOp20
 70
     1
102
RTVSPropertyOp21
 70
     1
102
RTVSPropertyOp22
 70
     1
102
RTVSPropertyOp23
 70
     1
102
RTVSPropertyOp24
 70
     1
102
RTVSPropertyOp25
 70
     1
102
RTVSPropertyOp26
 70
     1
102
RTVSPropertyOp27
 70
     1
102
RTVSPropertyOp28
 70
     1
102
RTVSPropertyOp29
 70
     1
102
RTVSPropertyOp30
 70
     1
102
RTVSPropertyOp31
 70
     1
102
RTVSPropertyOp32
 70
     1
  0
XRECORD
  5
7C
102
{ACAD_REACTORS
330
7B
102
}
330
7B
100
AcDbXrecord
280
     1
102
RTVSPropertyOp0
 70
     1
102
RTVSPropertyOp1
 70
     1
102
RTVSPropertyOp2
 70
     1
102
RTVSPropertyOp3
 70
     1
102
RTVSPropertyOp4
 70
     1
102
RTVSPropertyOp5
 70
     1
102
RTVSPropertyOp6
 70
     1
102
RTVSPropertyOp7
 70
     1
102
RTVSPropertyOp8
 70
     1
102
RTVSPropertyOp9
 70
     1
102
RTVSPropertyOp10
 70
     1
102
RTVSPropertyOp11
 70
     1
102
RTVSPropertyOp12
 70
     1
102
RTVSPropertyOp13
 70
     1
102
RTVSPropertyOp14
 70
     1
102
RTVSPropertyOp15
 70
     1
102
RTVSPropertyOp16
 70
     1
102
RTVSPropertyOp17
 70
     1
102
RTVSPropertyOp18
 70
     1
102
RTVSPropertyOp19
 70
     1
102
RTVSPropertyOp20
 70
     1
102
RTVSPropertyOp21
 70
     1
102
RTVSPropertyOp22
 70
     1
102
RTVSPropertyOp23
 70
     1
102
RTVSPropertyOp24
 70
     1
102
RTVSPropertyOp25
 70
     1
102
RTVSPropertyOp26
 70
     1
102
RTVSPropertyOp27
 70
     1
102
RTVSPropertyOp28
 70
     1
102
RTVSPropertyOp29
 70
     1
102
RTVSPropertyOp30
 70
     1
102
RTVSPropertyOp31
 70
     1
102
RTVSPropertyOp32
 70
     1
  0
XRECORD
  5
7E
102
{ACAD_REACTORS
330
7D
102
}
330
7D
100
AcDbXrecord
280
     1
102
RTVSPropertyOp0
 70
     1
102
RTVSPropertyOp1
 70
     1
102
RTVSPropertyOp2
 70
     1
102
RTVSPropertyOp3
 70
     1
102
RTVSPropertyOp4
 70
     1
102
RTVSPropertyOp5
 70
     1
102
RTVSPropertyOp6
 70
     1
102
RTVSPropertyOp7
 70
     1
102
RTVSPropertyOp8
 70
     1
102
RTVSPropertyOp9
 70
     1
102
RTVSPropertyOp10
 70
     1
102
RTVSPropertyOp11
 70
     1
102
RTVSPropertyOp12
 70
     1
102
RTVSPropertyOp13
 70
     1
102
RTVSPropertyOp14
 70
     1
102
RTVSPropertyOp15
 70
     1
102
RTVSPropertyOp16
 70
     1
102
RTVSPropertyOp17
 70
     1
102
RTVSPropertyOp18
 70
     1
102
RTVSPropertyOp19
 70
     1
102
RTVSPropertyOp20
 70
     1
102
RTVSPropertyOp21
 70
     1
102
RTVSPropertyOp22
 70
     1
102
RTVSPropertyOp23
 70
     1
102
RTVSPropertyOp24
 70
     1
102
RTVSPropertyOp25
 70
     1
102
RTVSPropertyOp26
 70
     1
102
RTVSPropertyOp27
 70
     1
102
RTVSPropertyOp28
 70
     1
102
RTVSPropertyOp29
 70
     1
102
RTVSPropertyOp30
 70
     1
102
RTVSPropertyOp31
 70
     1
102
RTVSPropertyOp32
 70
     1
  0
XRECORD
  5
92
102
{ACAD_REACTORS
330
91
102
}
330
91
100
AcDbXrecord
280
     1
102
RTVSPropertyOp0
 70
     1
102
RTVSPropertyOp1
 70
     1
102
RTVSPropertyOp2
 70
     1
102
RTVSPropertyOp3
 70
     1
102
RTVSPropertyOp4
 70
     1
102
RTVSPropertyOp5
 70
     1
102
RTVSPropertyOp6
 70
     1
102
RTVSPropertyOp7
 70
     1
102
RTVSPropertyOp8
 70
     1
102
RTVSPropertyOp9
 70
     1
102
RTVSPropertyOp10
 70
     1
102
RTVSPropertyOp11
 70
     1
102
RTVSPropertyOp12
 70
     1
102
RTVSPropertyOp13
 70
     1
102
RTVSPropertyOp14
 70
     1
102
RTVSPropertyOp15
 70
     1
102
RTVSPropertyOp16
 70
     1
102
RTVSPropertyOp17
 70
     1
102
RTVSPropertyOp18
 70
     1
102
RTVSPropertyOp19
 70
     1
102
RTVSPropertyOp20
 70
     1
102
RTVSPropertyOp21
 70
     1
102
RTVSPropertyOp22
 70
     1
102
RTVSPropertyOp23
 70
     1
102
RTVSPropertyOp24
 70
     1
102
RTVSPropertyOp25
 70
     1
102
RTVSPropertyOp26
 70
     1
102
RTVSPropertyOp27
 70
     1
102
RTVSPropertyOp28
 70
     1
102
RTVSPropertyOp29
 70
     1
102
RTVSPropertyOp30
 70
     1
102
RTVSPropertyOp31
 70
     1
102
RTVSPropertyOp32
 70
     1
  0
XRECORD
  5
88
102
{ACAD_REACTORS
330
87
102
}
330
87
100
AcDbXrecord
280
     1
102
RTVSPropertyOp0
 70
     1
102
RTVSPropertyOp1
 70
     1
102
RTVSPropertyOp2
 70
     1
102
RTVSPropertyOp3
 70
     1
102
RTVSPropertyOp4
 70
     1
102
RTVSPropertyOp5
 70
     1
102
RTVSPropertyOp6
 70
     1
102
RTVSPropertyOp7
 70
     1
102
RTVSPropertyOp8
 70
     1
102
RTVSPropertyOp9
 70
     1
102
RTVSPropertyOp10
 70
     1
102
RTVSPropertyOp11
 70
     1
102
RTVSPropertyOp12
 70
     1
102
RTVSPropertyOp13
 70
     1
102
RTVSPropertyOp14
 70
     1
102
RTVSPropertyOp15
 70
     1
102
RTVSPropertyOp16
 70
     1
102
RTVSPropertyOp17
 70
     1
102
RTVSPropertyOp18
 70
     1
102
RTVSPropertyOp19
 70
     1
102
RTVSPropertyOp20
 70
     1
102
RTVSPropertyOp21
 70
     1
102
RTVSPropertyOp22
 70
     1
102
RTVSPropertyOp23
 70
     1
102
RTVSPropertyOp24
 70
     1
102
RTVSPropertyOp25
 70
     1
102
RTVSPropertyOp26
 70
     1
102
RTVSPropertyOp27
 70
     1
102
RTVSPropertyOp28
 70
     1
102
RTVSPropertyOp29
 70
     1
102
RTVSPropertyOp30
 70
     1
102
RTVSPropertyOp31
 70
     1
102
RTVSPropertyOp32
 70
     1
  0
XRECORD
  5
90
102
{ACAD_REACTORS
330
8F
102
}
330
8F
100
AcDbXrecord
280
     1
102
RTVSPropertyOp0
 70
     1
102
RTVSPropertyOp1
 70
     1
102
RTVSPropertyOp2
 70
     1
102
RTVSPropertyOp3
 70
     1
102
RTVSPropertyOp4
 70
     1
102
RTVSPropertyOp5
 70
     1
102
RTVSPropertyOp6
 70
     1
102
RTVSPropertyOp7
 70
     1
102
RTVSPropertyOp8
 70
     1
102
RTVSPropertyOp9
 70
     1
102
RTVSPropertyOp10
 70
     1
102
RTVSPropertyOp11
 70
     1
102
RTVSPropertyOp12
 70
     1
102
RTVSPropertyOp13
 70
     1
102
RTVSPropertyOp14
 70
     1
102
RTVSPropertyOp15
 70
     1
102
RTVSPropertyOp16
 70
     1
102
RTVSPropertyOp17
 70
     1
102
RTVSPropertyOp18
 70
     1
102
RTVSPropertyOp19
 70
     1
102
RTVSPropertyOp20
 70
     1
102
RTVSPropertyOp21
 70
     1
102
RTVSPropertyOp22
 70
     1
102
RTVSPropertyOp23
 70
     1
102
RTVSPropertyOp24
 70
     1
102
RTVSPropertyOp25
 70
     1
102
RTVSPropertyOp26
 70
     1
102
RTVSPropertyOp27
 70
     1
102
RTVSPropertyOp28
 70
     1
102
RTVSPropertyOp29
 70
     1
102
RTVSPropertyOp30
 70
     1
102
RTVSPropertyOp31
 70
     1
102
RTVSPropertyOp32
 70
     1
  0
ENDSEC
  0
EOF
