  0
SECTION
  2
HEADER
  9
$ACADVER
  1
AC1021
  9
$ACADMAINTVER
 70
    25
  9
$DWGCODEPAGE
  3
ANSI_1252
  9
$INSBASE
 10
0.0
 20
0.0
 30
0.0
  9
$EXTMIN
 10
-6.92646
 20
-6.92646
 30
0.0
  9
$EXTMAX
 10
6.92646
 20
6.92646
 30
0.0
  9
$LIMMIN
 10
0.0
 20
0.0
  9
$LIMMAX
 10
12.0
 20
9.0
  9
$ORTHOMODE
 70
     0
  9
$REGENMODE
 70
     1
  9
$FILLMODE
 70
     1
  9
$QTEXTMODE
 70
     0
  9
$MIRRTEXT
 70
     1
  9
$LTSCALE
 40
1.0
  9
$ATTMODE
 70
     1
  9
$TEXTSIZE
 40
0.2
  9
$TRACEWID
 40
0.05
  9
$TEXTSTYLE
  7
Standard
  9
$CLAYER
  8
0
  9
$CELTYPE
  6
ByLayer
  9
$CECOLOR
 62
   256
  9
$CELTSCALE
 40
1.0
  9
$DISPSILH
 70
     0
  9
$DIMSCALE
 40
1.0
  9
$DIMASZ
 40
0.18
  9
$DIMEXO
 40
0.0625
  9
$DIMDLI
 40
0.38
  9
$DIMRND
 40
0.0
  9
$DIMDLE
 40
0.0
  9
$DIMEXE
 40
0.18
  9
$DIMTP
 40
0.0
  9
$DIMTM
 40
0.0
  9
$DIMTXT
 40
0.18
  9
$DIMCEN
 40
0.09
  9
$DIMTSZ
 40
0.0
  9
$DIMTOL
 70
     0
  9
$DIMLIM
 70
     0
  9
$DIMTIH
 70
     1
  9
$DIMTOH
 70
     1
  9
$DIMSE1
 70
     0
  9
$DIMSE2
 70
     0
  9
$DIMTAD
 70
     0
  9
$DIMZIN
 70
     0
  9
$DIMBLK
  1

  9
$DIMASO
 70
     1
  9
$DIMSHO
 70
     1
  9
$DIMPOST
  1

  9
$DIMAPOST
  1

  9
$DIMALT
 70
     0
  9
$DIMALTD
 70
     2
  9
$DIMALTF
 40
25.4
  9
$DIMLFAC
 40
1.0
  9
$DIMTOFL
 70
     0
  9
$DIMTVP
 40
0.0
  9
$DIMTIX
 70
     0
  9
$DIMSOXD
 70
     0
  9
$DIMSAH
 70
     0
  9
$DIMBLK1
  1

  9
$DIMBLK2
  1

  9
$DIMSTYLE
  2
Standard
  9
$DIMCLRD
 70
     0
  9
$DIMCLRE
 70
     0
  9
$DIMCLRT
 70
     0
  9
$DIMTFAC
 40
1.0
  9
$DIMGAP
 40
0.09
  9
$DIMJUST
 70
     0
  9
$DIMSD1
 70
     0
  9
$DIMSD2
 70
     0
  9
$DIMTOLJ
 70
     1
  9
$DIMTZIN
 70
     0
  9
$DIMALTZ
 70
     0
  9
$DIMALTTZ
 70
     0
  9
$DIMUPT
 70
     0
  9
$DIMDEC
 70
     4
  9
$DIMTDEC
 70
     4
  9
$DIMALTU
 70
     2
  9
$DIMALTTD
 70
     2
  9
$DIMTXSTY
  7
Standard
  9
$DIMAUNIT
 70
     0
  9
$DIMADEC
 70
     0
  9
$DIMALTRND
 40
0.0
  9
$DIMAZIN
 70
     0
  9
$DIMDSEP
 70
    46
  9
$DIMATFIT
 70
     3
  9
$DIMFRAC
 70
     0
  9
$DIMLDRBLK
  1

  9
$DIMLUNIT
 70
     2
  9
$DIMLWD
 70
    -2
  9
$DIMLWE
 70
    -2
  9
$DIMTMOVE
 70
     0
  9
$DIMFXL
 40
1.0
  9
$DIMFXLON
 70
     0
  9
$DIMJOGANG
 40
0.7853981633974483
  9
$DIMTFILL
 70
     0
  9
$DIMTFILLCLR
 70
     0
  9
$DIMARCSYM
 70
     0
  9
$DIMLTYPE
  6

  9
$DIMLTEX1
  6

  9
$DIMLTEX2
  6

  9
$LUNITS
 70
     2
  9
$LUPREC
 70
     4
  9
$SKETCHINC
 40
0.1
  9
$FILLETRAD
 40
0.5
  9
$AUNITS
 70
     0
  9
$AUPREC
 70
     0
  9
$MENU
  1
.
  9
$ELEVATION
 40
0.0
  9
$PELEVATION
 40
0.0
  9
$THICKNESS
 40
0.0
  9
$LIMCHECK
 70
     0
  9
$CHAMFERA
 40
0.5
  9
$CHAMFERB
 40
0.5
  9
$CHAMFERC
 40
1.0
  9
$CHAMFERD
 40
0.0
  9
$SKPOLY
 70
     0
  9
$TDCREATE
 40
2460269.535396493
  9
$TDUCREATE
 40
2460269.535396493
  9
$TDUPDATE
 40
2460269.535396562
  9
$TDUUPDATE
 40
2460269.535396562
  9
$TDINDWG
 40
0.0000000116
  9
$TDUSRTIMER
 40
0.0000000116
  9
$USRTIMER
 70
     1
  9
$ANGBASE
 50
0.0
  9
$ANGDIR
 70
     0
  9
$PDMODE
 70
     0
  9
$PDSIZE
 40
0.0
  9
$PLINEWID
 40
0.0
  9
$SPLFRAME
 70
     0
  9
$SPLINETYPE
 70
     6
  9
$SPLINESEGS
 70
     8
  9
$HANDSEED
  5
9A
  9
$SURFTAB1
 70
     6
  9
$SURFTAB2
 70
     6
  9
$SURFTYPE
 70
     6
  9
$SURFU
 70
     6
  9
$SURFV
 70
     6
  9
$UCSBASE
  2

  9
$UCSNAME
  2

  9
$UCSORG
 10
0.0
 20
0.0
 30
0.0
  9
$UCSXDIR
 10
1.0
 20
0.0
 30
0.0
  9
$UCSYDIR
 10
0.0
 20
1.0
 30
0.0
  9
$UCSORTHOREF
  2

  9
$UCSORTHOVIEW
 70
     0
  9
$UCSORGTOP
 10
0.0
 20
0.0
 30
0.0
  9
$UCSORGBOTTOM
 10
0.0
 20
0.0
 30
0.0
  9
$UCSORGLEFT
 10
0.0
 20
0.0
 30
0.0
  9
$UCSORGRIGHT
 10
0.0
 20
0.0
 30
0.0
  9
$UCSORGFRONT
 10
0.0
 20
0.0
 30
0.0
  9
$UCSORGBACK
 10
0.0
 20
0.0
 30
0.0
  9
$PUCSBASE
  2

  9
$PUCSNAME
  2

  9
$PUCSORG
 10
0.0
 20
0.0
 30
0.0
  9
$PUCSXDIR
 10
1.0
 20
0.0
 30
0.0
  9
$PUCSYDIR
 10
0.0
 20
1.0
 30
0.0
  9
$PUCSORTHOREF
  2

  9
$PUCSORTHOVIEW
 70
     0
  9
$PUCSORGTOP
 10
0.0
 20
0.0
 30
0.0
  9
$PUCSORGBOTTOM
 10
0.0
 20
0.0
 30
0.0
  9
$PUCSORGLEFT
 10
0.0
 20
0.0
 30
0.0
  9
$PUCSORGRIGHT
 10
0.0
 20
0.0
 30
0.0
  9
$PUCSORGFRONT
 10
0.0
 20
0.0
 30
0.0
  9
$PUCSORGBACK
 10
0.0
 20
0.0
 30
0.0
  9
$USERI1
 70
     0
  9
$USERI2
 70
     0
  9
$USERI3
 70
     0
  9
$USERI4
 70
     0
  9
$USERI5
 70
     0
  9
$USERR1
 40
0.0
  9
$USERR2
 40
0.0
  9
$USERR3
 40
0.0
  9
$USERR4
 40
0.0
  9
$USERR5
 40
0.0
  9
$WORLDVIEW
 70
     1
  9
$SHADEDGE
 70
     3
  9
$SHADEDIF
 70
    70
  9
$TILEMODE
 70
     1
  9
$MAXACTVP
 70
    64
  9
$PINSBASE
 10
0.0
 20
0.0
 30
0.0
  9
$PLIMCHECK
 70
     0
  9
$PEXTMIN
 10
1.000000000000000E+20
 20
1.000000000000000E+20
 30
1.000000000000000E+20
  9
$PEXTMAX
 10
-1.000000000000000E+20
 20
-1.000000000000000E+20
 30
-1.000000000000000E+20
  9
$PLIMMIN
 10
0.0
 20
0.0
  9
$PLIMMAX
 10
12.0
 20
9.0
  9
$UNITMODE
 70
     0
  9
$VISRETAIN
 70
     1
  9
$PLINEGEN
 70
     0
  9
$PSLTSCALE
 70
     1
  9
$TREEDEPTH
 70
  3020
  9
$CMLSTYLE
  2
Standard
  9
$CMLJUST
 70
     0
  9
$CMLSCALE
 40
1.0
  9
$PROXYGRAPHICS
 70
     1
  9
$MEASUREMENT
 70
     0
  9
$CELWEIGHT
370
    -1
  9
$ENDCAPS
280
     0
  9
$JOINSTYLE
280
     0
  9
$LWDISPLAY
290
     0
  9
$INSUNITS
 70
     5
  9
$HYPERLINKBASE
  1

  9
$STYLESHEET
  1

  9
$XEDIT
290
     1
  9
$CEPSNTYPE
380
     0
  9
$PSTYLEMODE
290
     1
  9
$FINGERPRINTGUID
  2
{7ACCA0B3-F5E9-4544-BD75-DBF15159CCB3}
  9
$VERSIONGUID
  2
{FAEB1C32-E019-11D5-929B-00C0DF256EC4}
  9
$EXTNAMES
290
     1
  9
$PSVPSCALE
 40
0.0
  9
$OLESTARTUP
290
     0
  9
$SORTENTS
280
   127
  9
$INDEXCTL
280
     0
  9
$HIDETEXT
280
     1
  9
$XCLIPFRAME
290
     0
  9
$HALOGAP
280
     0
  9
$OBSCOLOR
 70
   257
  9
$OBSLTYPE
280
     0
  9
$INTERSECTIONDISPLAY
280
     0
  9
$INTERSECTIONCOLOR
 70
   257
  9
$DIMASSOC
280
     2
  9
$PROJECTNAME
  1

  9
$CAMERADISPLAY
290
     0
  9
$LENSLENGTH
 40
50.0
  9
$CAMERAHEIGHT
 40
0.0
  9
$STEPSPERSEC
 40
2.0
  9
$STEPSIZE
 40
6.0
  9
$3DDWFPREC
 40
2.0
  9
$PSOLWIDTH
 40
0.25
  9
$PSOLHEIGHT
 40
4.0
  9
$LOFTANG1
 40
1.570796326794897
  9
$LOFTANG2
 40
1.570796326794897
  9
$LOFTMAG1
 40
0.0
  9
$LOFTMAG2
 40
0.0
  9
$LOFTPARAM
 70
     7
  9
$LOFTNORMALS
280
     1
  9
$LATITUDE
 40
37.795
  9
$LONGITUDE
 40
-122.394
  9
$NORTHDIRECTION
 40
0.0
  9
$TIMEZONE
 70
 -8000
  9
$LIGHTGLYPHDISPLAY
280
     1
  9
$TILEMODELIGHTSYNCH
280
     1
  9
$SOLIDHIST
280
     1
  9
$SHOWHIST
280
     1
  9
$DWFFRAME
280
     2
  9
$DGNFRAME
280
     2
  9
$REALWORLDSCALE
290
     1
  9
$INTERFERECOLOR
 62
   256
  9
$CSHADOW
280
     0
  9
$SHADOWPLANELOCATION
 40
0.0
  0
ENDSEC
  0
SECTION
  2
CLASSES
  0
CLASS
  1
ACDBDICTIONARYWDFLT
  2
AcDbDictionaryWithDefault
  3
ObjectDBX Classes
 90
        0
 91
        4
280
     0
281
     0
  0
CLASS
  1
VISUALSTYLE
  2
AcDbVisualStyle
  3
ObjectDBX Classes
 90
     4095
 91
        4
280
     0
281
     0
  0
CLASS
  1
MATERIAL
  2
AcDbMaterial
  3
ObjectDBX Classes
 90
     1153
 91
        4
280
     0
281
     0
  0
ENDSEC
  0
SECTION
  2
TABLES
  0
TABLE
  2
VPORT
  5
8
330
0
100
AcDbSymbolTable
 70
     1
  0
VPORT
  5
29
330
8
100
AcDbSymbolTableRecord
100
AcDbViewportTableRecord
  2
*Active
 70
     0
 10
0.0
 20
0.0
 11
1.0
 21
1.0
 12
10.42990654205607
 22
4.5
 13
0.0
 23
0.0
 14
0.5
 24
0.5
 15
0.5
 25
0.5
 16
0.0
 26
0.0
 36
1.0
 17
0.0
 27
0.0
 37
0.0
 40
9.0
 41
1.972972972850329
 42
50.0
 43
0.0
 44
0.0
 50
0.0
 51
0.0
 71
     0
 72
   100
 73
     1
 74
     3
 75
     0
 76
     0
 77
     0
 78
     0
281
     0
 65
     1
110
0.0
120
0.0
130
0.0
111
1.0
121
0.0
131
0.0
112
0.0
122
1.0
132
0.0
 79
     0
146
0.0
 60
     3
 61
     5
292
     1
282
     1
141
0.0
142
0.0
 63
   250
  0
ENDTAB
  0
TABLE
  2
LTYPE
  5
5
330
0
100
AcDbSymbolTable
 70
     1
  0
LTYPE
  5
14
330
5
100
AcDbSymbolTableRecord
100
AcDbLinetypeTableRecord
  2
ByBlock
 70
     0
  3

 72
    65
 73
     0
 40
0.0
  0
LTYPE
  5
15
330
5
100
AcDbSymbolTableRecord
100
AcDbLinetypeTableRecord
  2
ByLayer
 70
     0
  3

 72
    65
 73
     0
 40
0.0
  0
LTYPE
  5
16
330
5
100
AcDbSymbolTableRecord
100
AcDbLinetypeTableRecord
  2
Continuous
 70
     0
  3
Solid line
 72
    65
 73
     0
 40
0.0
  0
ENDTAB
  0
TABLE
  2
LAYER
  5
2
330
0
100
AcDbSymbolTable
 70
     2
  0
LAYER
  5
10
330
2
100
AcDbSymbolTableRecord
100
AcDbLayerTableRecord
  2
0
 70
     0
 62
     7
  6
Continuous
370
    -3
390
F
347
3E
  0
LAYER
  5
40
330
2
100
AcDbSymbolTableRecord
100
AcDbLayerTableRecord
  2
Layer 1
 70
     0
 62
     7
  6
Continuous
370
    -3
390
F
347
3E
  0
ENDTAB
  0
TABLE
  2
STYLE
  5
3
330
0
100
AcDbSymbolTable
 70
     1
  0
STYLE
  5
11
330
3
100
AcDbSymbolTableRecord
100
AcDbTextStyleTableRecord
  2
Standard
 70
     0
 40
0.0
 41
1.0
 50
0.0
 71
     0
 42
0.2
  3
txt
  4

  0
ENDTAB
  0
TABLE
  2
VIEW
  5
6
330
0
100
AcDbSymbolTable
 70
     0
  0
ENDTAB
  0
TABLE
  2
UCS
  5
7
330
0
100
AcDbSymbolTable
 70
     0
  0
ENDTAB
  0
TABLE
  2
APPID
  5
9
330
0
100
AcDbSymbolTable
 70
     2
  0
APPID
  5
12
330
9
100
AcDbSymbolTableRecord
100
AcDbRegAppTableRecord
  2
ACAD
 70
     0
  0
APPID
  5
3F
330
9
100
AcDbSymbolTableRecord
100
AcDbRegAppTableRecord
  2
ODA
 70
     0
  0
ENDTAB
  0
TABLE
  2
DIMSTYLE
  5
A
330
0
100
AcDbSymbolTable
 70
     1
100
AcDbDimStyleTable
  0
DIMSTYLE
105
27
330
A
100
AcDbSymbolTableRecord
100
AcDbDimStyleTableRecord
  2
Standard
 70
     0
178
     0
340
11
  0
ENDTAB
  0
TABLE
  2
BLOCK_RECORD
  5
1
330
0
100
AcDbSymbolTable
 70
     1
  0
BLOCK_RECORD
  5
1F
330
1
100
AcDbSymbolTableRecord
100
AcDbBlockTableRecord
  2
*Model_Space
340
22
 70
     0
280
     1
281
     0
  0
BLOCK_RECORD
  5
1B
330
1
100
AcDbSymbolTableRecord
100
AcDbBlockTableRecord
  2
*Paper_Space
340
1E
 70
     0
280
     1
281
     0
  0
BLOCK_RECORD
  5
23
330
1
100
AcDbSymbolTableRecord
100
AcDbBlockTableRecord
  2
*Paper_Space0
340
26
 70
     0
280
     1
281
     0
  0
ENDTAB
  0
ENDSEC
  0
SECTION
  2
BLOCKS
  0
BLOCK
  5
20
330
1F
100
AcDbEntity
  8
0
100
AcDbBlockBegin
  2
*Model_Space
 70
     0
 10
0.0
 20
0.0
 30
0.0
  3
*Model_Space
  1

  0
ENDBLK
  5
21
330
1F
100
AcDbEntity
  8
0
100
AcDbBlockEnd
  0
BLOCK
  5
1C
330
1B
100
AcDbEntity
 67
     1
  8
0
100
AcDbBlockBegin
  2
*Paper_Space
 70
     0
 10
0.0
 20
0.0
 30
0.0
  3
*Paper_Space
  1

  0
ENDBLK
  5
1D
330
1B
100
AcDbEntity
 67
     1
  8
0
100
AcDbBlockEnd
  0
BLOCK
  5
24
330
23
100
AcDbEntity
  8
0
100
AcDbBlockBegin
  2
*Paper_Space0
 70
     0
 10
0.0
 20
0.0
 30
0.0
  3
*Paper_Space0
  1

  0
ENDBLK
  5
25
330
23
100
AcDbEntity
  8
0
100
AcDbBlockEnd
  0
ENDSEC
  0
SECTION
  2
ENTITIES
  0
SPLINE
  5
41
330
1F
100
AcDbEntity
  8
Layer 1
 62
     1
370
    53
100
AcDbSpline
210
0.0
220
0.0
230
1.0
 70
    11
 71
     3
 72
    36
 73
    32
 74
     0
 42
0.0000000001
 43
0.0000000001
 12
1.0
 22
0.0
 32
0.0
 13
1.0
 23
0.0
 33
0.0
 40
0.0
 40
0.0
 40
0.0
 40
0.0
 40
0.1111111111111111
 40
0.1111111111111111
 40
0.1111111111111111
 40
0.1111111111111111
 40
0.2222222222222222
 40
0.2222222222222222
 40
0.2222222222222222
 40
0.2222222222222222
 40
0.3333333333333333
 40
0.3333333333333333
 40
0.3333333333333333
 40
0.3333333333333333
 40
0.4444444444444444
 40
0.4444444444444444
 40
0.4444444444444444
 40
0.4444444444444444
 40
0.5555555555555556
 40
0.5555555555555556
 40
0.5555555555555556
 40
0.5555555555555556
 40
0.6666666666666666
 40
0.6666666666666666
 40
0.6666666666666666
 40
0.6666666666666666
 40
0.7777777777777778
 40
0.7777777777777778
 40
0.7777777777777778
 40
0.7777777777777778
 40
1.0
 40
1.0
 40
1.0
 40
1.0
 10
-6.9
 20
-6.4
 30
0.0
 10
-6.9
 20
-6.4
 30
0.0
 10
-6.9
 20
6.4
 30
0.0
 10
-6.9
 20
6.4
 30
0.0
 10
-6.9
 20
6.4
 30
0.0
 10
-6.9
 20
6.67609
 30
0.0
 10
-6.67609
 20
6.9
 30
0.0
 10
-6.4
 20
6.9
 30
0.0
 10
-6.4
 20
6.9
 30
0.0
 10
-6.4
 20
6.9
 30
0.0
 10
6.4
 20
6.9
 30
0.0
 10
6.4
 20
6.9
 30
0.0
 10
6.4
 20
6.9
 30
0.0
 10
6.67609
 20
6.9
 30
0.0
 10
6.9
 20
6.67609
 30
0.0
 10
6.9
 20
6.4
 30
0.0
 10
6.9
 20
6.4
 30
0.0
 10
6.9
 20
6.4
 30
0.0
 10
6.9
 20
-6.4
 30
0.0
 10
6.9
 20
-6.4
 30
0.0
 10
6.9
 20
-6.4
 30
0.0
 10
6.9
 20
-6.67609
 30
0.0
 10
6.67609
 20
-6.9
 30
0.0
 10
6.4
 20
-6.9
 30
0.0
 10
6.4
 20
-6.9
 30
0.0
 10
6.4
 20
-6.9
 30
0.0
 10
-6.4
 20
-6.9
 30
0.0
 10
-6.4
 20
-6.9
 30
0.0
 10
-6.4
 20
-6.9
 30
0.0
 10
-6.67609
 20
-6.9
 30
0.0
 10
-6.9
 20
-6.67609
 30
0.0
 10
-6.9
 20
-6.4
 30
0.0
  0
SPLINE
  5
42
330
1F
100
AcDbEntity
  8
Layer 1
370
    53
100
AcDbSpline
210
0.0
220
0.0
230
1.0
 70
    11
 71
     3
 72
    28
 73
    24
 74
     0
 42
0.0000000001
 43
0.0000000001
 12
1.0
 22
0.0
 32
0.0
 13
1.0
 23
0.0
 33
0.0
 40
0.0
 40
0.0
 40
0.0
 40
0.0
 40
0.1428571428571428
 40
0.1428571428571428
 40
0.1428571428571428
 40
0.1428571428571428
 40
0.2857142857142857
 40
0.2857142857142857
 40
0.2857142857142857
 40
0.2857142857142857
 40
0.4285714285714285
 40
0.4285714285714285
 40
0.4285714285714285
 40
0.4285714285714285
 40
0.5714285714285714
 40
0.5714285714285714
 40
0.5714285714285714
 40
0.5714285714285714
 40
0.7142857142857143
 40
0.7142857142857143
 40
0.7142857142857143
 40
0.7142857142857143
 40
1.0
 40
1.0
 40
1.0
 40
1.0
 10
1.90131
 20
5.67091
 30
0.0
 10
1.79864
 20
5.4676
 30
0.0
 10
1.58793
 20
5.32818
 30
0.0
 10
1.3446
 20
5.32818
 30
0.0
 10
1.3446
 20
5.32818
 30
0.0
 10
1.01458
 20
5.32819
 30
0.0
 10
0.74452
 20
5.58464
 30
0.0
 10
0.72272
 20
5.90913
 30
0.0
 10
0.72272
 20
5.90913
 30
0.0
 10
0.81473
 20
5.90007
 30
0.0
 10
0.90607
 20
5.88874
 30
0.0
 10
0.99681
 20
5.87555
 30
0.0
 10
0.99681
 20
5.87555
 30
0.0
 10
1.03163
 20
5.71549
 30
0.0
 10
1.17411
 20
5.59562
 30
0.0
 10
1.34461
 20
5.59562
 30
0.0
 10
1.34461
 20
5.59562
 30
0.0
 10
1.46486
 20
5.59562
 30
0.0
 10
1.57117
 20
5.65527
 30
0.0
 10
1.63559
 20
5.74658
 30
0.0
 10
1.63559
 20
5.74658
 30
0.0
 10
1.725
 20
5.72336
 30
0.0
 10
1.81361
 20
5.69818
 30
0.0
 10
1.90131
 20
5.67091
 30
0.0
  0
SPLINE
  5
43
330
1F
100
AcDbEntity
  8
Layer 1
370
    53
100
AcDbSpline
210
0.0
220
0.0
230
1.0
 70
    11
 71
     3
 72
    28
 73
    24
 74
     0
 42
0.0000000001
 43
0.0000000001
 12
1.0
 22
0.0
 32
0.0
 13
1.0
 23
0.0
 33
0.0
 40
0.0
 40
0.0
 40
0.0
 40
0.0
 40
0.1428571428571428
 40
0.1428571428571428
 40
0.1428571428571428
 40
0.1428571428571428
 40
0.2857142857142857
 40
0.2857142857142857
 40
0.2857142857142857
 40
0.2857142857142857
 40
0.4285714285714285
 40
0.4285714285714285
 40
0.4285714285714285
 40
0.4285714285714285
 40
0.5714285714285714
 40
0.5714285714285714
 40
0.5714285714285714
 40
0.5714285714285714
 40
0.7142857142857143
 40
0.7142857142857143
 40
0.7142857142857143
 40
0.7142857142857143
 40
1.0
 40
1.0
 40
1.0
 40
1.0
 10
3.94034
 20
4.56188
 30
0.0
 10
3.76768
 20
4.41333
 30
0.0
 10
3.51965
 20
4.36516
 30
0.0
 10
3.29486
 20
4.45826
 30
0.0
 10
3.29486
 20
4.45826
 30
0.0
 10
2.98996
 20
4.58458
 30
0.0
 10
2.83858
 20
4.92488
 30
0.0
 10
2.94262
 20
5.23299
 30
0.0
 10
2.94262
 20
5.23299
 30
0.0
 10
3.02417
 20
5.18941
 30
0.0
 10
3.10421
 20
5.14399
 30
0.0
 10
3.183
 20
5.09708
 30
0.0
 10
3.183
 20
5.09708
 30
0.0
 10
3.15392
 20
4.93588
 30
0.0
 10
3.23968
 20
4.77061
 30
0.0
 10
3.3972
 20
4.70536
 30
0.0
 10
3.3972
 20
4.70536
 30
0.0
 10
3.5083
 20
4.65934
 30
0.0
 10
3.62933
 20
4.67377
 30
0.0
 10
3.72381
 20
4.73348
 30
0.0
 10
3.72381
 20
4.73348
 30
0.0
 10
3.79752
 20
4.67781
 30
0.0
 10
3.86975
 20
4.62064
 30
0.0
 10
3.94034
 20
4.56188
 30
0.0
  0
SPLINE
  5
44
330
1F
100
AcDbEntity
  8
Layer 1
370
    53
100
AcDbSpline
210
0.0
220
0.0
230
1.0
 70
    11
 71
     3
 72
    28
 73
    24
 74
     0
 42
0.0000000001
 43
0.0000000001
 12
1.0
 22
0.0
 32
0.0
 13
1.0
 23
0.0
 33
0.0
 40
0.0
 40
0.0
 40
0.0
 40
0.0
 40
0.1428571428571428
 40
0.1428571428571428
 40
0.1428571428571428
 40
0.1428571428571428
 40
0.2857142857142857
 40
0.2857142857142857
 40
0.2857142857142857
 40
0.2857142857142857
 40
0.4285714285714285
 40
0.4285714285714285
 40
0.4285714285714285
 40
0.4285714285714285
 40
0.5714285714285714
 40
0.5714285714285714
 40
0.5714285714285714
 40
0.5714285714285714
 40
0.7142857142857143
 40
0.7142857142857143
 40
0.7142857142857143
 40
0.7142857142857143
 40
1.0
 40
1.0
 40
1.0
 40
1.0
 10
5.39974
 20
2.75697
 30
0.0
 10
5.18339
 20
2.68581
 30
0.0
 10
4.93581
 20
2.73621
 30
0.0
 10
4.76375
 20
2.90827
 30
0.0
 10
4.76375
 20
2.90827
 30
0.0
 10
4.53039
 20
3.14164
 30
0.0
 10
4.52076
 20
3.51394
 30
0.0
 10
4.7348
 20
3.7588
 30
0.0
 10
4.7348
 20
3.7588
 30
0.0
 10
4.79348
 20
3.68734
 30
0.0
 10
4.85003
 20
3.61472
 30
0.0
 10
4.90487
 20
3.54125
 30
0.0
 10
4.90487
 20
3.54125
 30
0.0
 10
4.81632
 20
3.40345
 30
0.0
 10
4.83231
 20
3.21793
 30
0.0
 10
4.95286
 20
3.09738
 30
0.0
 10
4.95286
 20
3.09738
 30
0.0
 10
5.03789
 20
3.01234
 30
0.0
 10
5.15524
 20
2.97936
 30
0.0
 10
5.26536
 20
2.99837
 30
0.0
 10
5.26536
 20
2.99837
 30
0.0
 10
5.31216
 20
2.91872
 30
0.0
 10
5.35702
 20
2.83826
 30
0.0
 10
5.39974
 20
2.75697
 30
0.0
  0
SPLINE
  5
45
330
1F
100
AcDbEntity
  8
Layer 1
370
    53
100
AcDbSpline
210
0.0
220
0.0
230
1.0
 70
    11
 71
     3
 72
    28
 73
    24
 74
     0
 42
0.0000000001
 43
0.0000000001
 12
1.0
 22
0.0
 32
0.0
 13
1.0
 23
0.0
 33
0.0
 40
0.0
 40
0.0
 40
0.0
 40
0.0
 40
0.1428571428571428
 40
0.1428571428571428
 40
0.1428571428571428
 40
0.1428571428571428
 40
0.2857142857142857
 40
0.2857142857142857
 40
0.2857142857142857
 40
0.2857142857142857
 40
0.4285714285714285
 40
0.4285714285714285
 40
0.4285714285714285
 40
0.4285714285714285
 40
0.5714285714285714
 40
0.5714285714285714
 40
0.5714285714285714
 40
0.5714285714285714
 40
0.7142857142857143
 40
0.7142857142857143
 40
0.7142857142857143
 40
0.7142857142857143
 40
1.0
 40
1.0
 40
1.0
 40
1.0
 10
5.52767
 20
0.91412
 30
0.0
 10
5.40138
 20
1.21903
 30
0.0
 10
5.53496
 20
1.56668
 30
0.0
 10
5.82641
 20
1.711
 30
0.0
 10
5.82641
 20
1.711
 30
0.0
 10
5.85327
 20
1.62252
 30
0.0
 10
5.87773
 20
1.5338
 30
0.0
 10
5.90028
 20
1.44492
 30
0.0
 10
5.90028
 20
1.44492
 30
0.0
 10
5.76573
 20
1.35149
 30
0.0
 10
5.70951
 20
1.17398
 30
0.0
 10
5.77475
 20
1.01646
 30
0.0
 10
5.77475
 20
1.01646
 30
0.0
 10
5.82077
 20
0.90537
 30
0.0
 10
5.91656
 20
0.82999
 30
0.0
 10
6.02558
 20
0.8054
 30
0.0
 10
6.02558
 20
0.8054
 30
0.0
 10
6.03833
 20
0.71391
 30
0.0
 10
6.04899
 20
0.62241
 30
0.0
 10
6.05735
 20
0.53096
 30
0.0
 10
6.05735
 20
0.53096
 30
0.0
 10
5.83023
 20
0.54801
 30
0.0
 10
5.62079
 20
0.68932
 30
0.0
 10
5.52767
 20
0.91412
 30
0.0
  0
SPLINE
  5
46
330
1F
100
AcDbEntity
  8
Layer 1
370
    53
100
AcDbSpline
210
0.0
220
0.0
230
1.0
 70
    11
 71
     3
 72
    28
 73
    24
 74
     0
 42
0.0000000001
 43
0.0000000001
 12
1.0
 22
0.0
 32
0.0
 13
1.0
 23
0.0
 33
0.0
 40
0.0
 40
0.0
 40
0.0
 40
0.0
 40
0.1428571428571428
 40
0.1428571428571428
 40
0.1428571428571428
 40
0.1428571428571428
 40
0.2857142857142857
 40
0.2857142857142857
 40
0.2857142857142857
 40
0.2857142857142857
 40
0.4285714285714285
 40
0.4285714285714285
 40
0.4285714285714285
 40
0.4285714285714285
 40
0.5714285714285714
 40
0.5714285714285714
 40
0.5714285714285714
 40
0.5714285714285714
 40
0.7142857142857143
 40
0.7142857142857143
 40
0.7142857142857143
 40
0.7142857142857143
 40
1.0
 40
1.0
 40
1.0
 40
1.0
 10
5.81304
 20
-1.77727
 30
0.0
 10
5.60973
 20
-1.6746
 30
0.0
 10
5.47031
 20
-1.46389
 30
0.0
 10
5.47031
 20
-1.22056
 30
0.0
 10
5.47031
 20
-1.22056
 30
0.0
 10
5.47032
 20
-0.89054
 30
0.0
 10
5.72677
 20
-0.62048
 30
0.0
 10
6.05126
 20
-0.59868
 30
0.0
 10
6.05126
 20
-0.59868
 30
0.0
 10
6.0422
 20
-0.69069
 30
0.0
 10
6.03087
 20
-0.78203
 30
0.0
 10
6.01768
 20
-0.87277
 30
0.0
 10
6.01768
 20
-0.87277
 30
0.0
 10
5.85762
 20
-0.90759
 30
0.0
 10
5.73775
 20
-1.05007
 30
0.0
 10
5.73775
 20
-1.22057
 30
0.0
 10
5.73775
 20
-1.22057
 30
0.0
 10
5.73775
 20
-1.34082
 30
0.0
 10
5.7974
 20
-1.44712
 30
0.0
 10
5.88871
 20
-1.51155
 30
0.0
 10
5.88871
 20
-1.51155
 30
0.0
 10
5.86549
 20
-1.60096
 30
0.0
 10
5.84031
 20
-1.68957
 30
0.0
 10
5.81304
 20
-1.77727
 30
0.0
  0
SPLINE
  5
47
330
1F
100
AcDbEntity
  8
Layer 1
370
    53
100
AcDbSpline
210
0.0
220
0.0
230
1.0
 70
    11
 71
     3
 72
    28
 73
    24
 74
     0
 42
0.0000000001
 43
0.0000000001
 12
1.0
 22
0.0
 32
0.0
 13
1.0
 23
0.0
 33
0.0
 40
0.0
 40
0.0
 40
0.0
 40
0.0
 40
0.1428571428571428
 40
0.1428571428571428
 40
0.1428571428571428
 40
0.1428571428571428
 40
0.2857142857142857
 40
0.2857142857142857
 40
0.2857142857142857
 40
0.2857142857142857
 40
0.4285714285714285
 40
0.4285714285714285
 40
0.4285714285714285
 40
0.4285714285714285
 40
0.5714285714285714
 40
0.5714285714285714
 40
0.5714285714285714
 40
0.5714285714285714
 40
0.7142857142857143
 40
0.7142857142857143
 40
0.7142857142857143
 40
0.7142857142857143
 40
1.0
 40
1.0
 40
1.0
 40
1.0
 10
4.70401
 20
-3.8163
 30
0.0
 10
4.55546
 20
-3.64364
 30
0.0
 10
4.50729
 20
-3.39561
 30
0.0
 10
4.60041
 20
-3.17079
 30
0.0
 10
4.60041
 20
-3.17079
 30
0.0
 10
4.72671
 20
-2.86592
 30
0.0
 10
5.067
 20
-2.71454
 30
0.0
 10
5.37512
 20
-2.81858
 30
0.0
 10
5.37512
 20
-2.81858
 30
0.0
 10
5.33154
 20
-2.90013
 30
0.0
 10
5.28612
 20
-2.98017
 30
0.0
 10
5.23921
 20
-3.05896
 30
0.0
 10
5.23921
 20
-3.05896
 30
0.0
 10
5.07801
 20
-3.02988
 30
0.0
 10
4.91274
 20
-3.11564
 30
0.0
 10
4.84749
 20
-3.27316
 30
0.0
 10
4.84749
 20
-3.27316
 30
0.0
 10
4.80147
 20
-3.38426
 30
0.0
 10
4.8159
 20
-3.50529
 30
0.0
 10
4.87561
 20
-3.59977
 30
0.0
 10
4.87561
 20
-3.59977
 30
0.0
 10
4.81994
 20
-3.67348
 30
0.0
 10
4.76277
 20
-3.74571
 30
0.0
 10
4.70401
 20
-3.8163
 30
0.0
  0
SPLINE
  5
48
330
1F
100
AcDbEntity
  8
Layer 1
370
    53
100
AcDbSpline
210
0.0
220
0.0
230
1.0
 70
    11
 71
     3
 72
    20
 73
    16
 74
     0
 42
0.0000000001
 43
0.0000000001
 12
1.0
 22
0.0
 32
0.0
 13
1.0
 23
0.0
 33
0.0
 40
0.0
 40
0.0
 40
0.0
 40
0.0
 40
0.2
 40
0.2
 40
0.2
 40
0.2
 40
0.4
 40
0.4
 40
0.4
 40
0.4
 40
0.6
 40
0.6
 40
0.6
 40
0.6
 40
1.0
 40
1.0
 40
1.0
 40
1.0
 10
1.25209
 20
-1.00264
 30
0.0
 10
1.34025
 20
-0.9047
 30
0.0
 10
1.41666
 20
-0.79375
 30
0.0
 10
1.47801
 20
-0.67107
 30
0.0
 10
1.47801
 20
-0.67107
 30
0.0
 10
1.47801
 20
-0.67107
 30
0.0
 10
2.7528
 20
-1.19911
 30
0.0
 10
2.7528
 20
-1.19911
 30
0.0
 10
2.7528
 20
-1.19911
 30
0.0
 10
2.618
 20
-1.49631
 30
0.0
 10
2.43833
 20
-1.75999
 30
0.0
 10
2.22519
 20
-1.98552
 30
0.0
 10
2.22519
 20
-1.98552
 30
0.0
 10
2.22519
 20
-1.98552
 30
0.0
 10
1.25209
 20
-1.00264
 30
0.0
 10
1.25209
 20
-1.00264
 30
0.0
  0
SPLINE
  5
49
330
1F
100
AcDbEntity
  8
Layer 1
370
    53
100
AcDbSpline
210
0.0
220
0.0
230
1.0
 70
    11
 71
     3
 72
    28
 73
    24
 74
     0
 42
0.0000000001
 43
0.0000000001
 12
1.0
 22
0.0
 32
0.0
 13
1.0
 23
0.0
 33
0.0
 40
0.0
 40
0.0
 40
0.0
 40
0.0
 40
0.1428571428571428
 40
0.1428571428571428
 40
0.1428571428571428
 40
0.1428571428571428
 40
0.2857142857142857
 40
0.2857142857142857
 40
0.2857142857142857
 40
0.2857142857142857
 40
0.4285714285714285
 40
0.4285714285714285
 40
0.4285714285714285
 40
0.4285714285714285
 40
0.5714285714285714
 40
0.5714285714285714
 40
0.5714285714285714
 40
0.5714285714285714
 40
0.7142857142857143
 40
0.7142857142857143
 40
0.7142857142857143
 40
0.7142857142857143
 40
1.0
 40
1.0
 40
1.0
 40
1.0
 10
2.8991
 20
-5.2757
 30
0.0
 10
2.82794
 20
-5.05934
 30
0.0
 10
2.87834
 20
-4.81177
 30
0.0
 10
3.0504
 20
-4.63971
 30
0.0
 10
3.0504
 20
-4.63971
 30
0.0
 10
3.28377
 20
-4.40635
 30
0.0
 10
3.65607
 20
-4.39672
 30
0.0
 10
3.90093
 20
-4.61074
 30
0.0
 10
3.90093
 20
-4.61074
 30
0.0
 10
3.82948
 20
-4.66942
 30
0.0
 10
3.75687
 20
-4.72598
 30
0.0
 10
3.68338
 20
-4.78082
 30
0.0
 10
3.68338
 20
-4.78082
 30
0.0
 10
3.54558
 20
-4.69228
 30
0.0
 10
3.36006
 20
-4.70827
 30
0.0
 10
3.23951
 20
-4.82882
 30
0.0
 10
3.23951
 20
-4.82882
 30
0.0
 10
3.15447
 20
-4.91385
 30
0.0
 10
3.12149
 20
-5.0312
 30
0.0
 10
3.1405
 20
-5.14132
 30
0.0
 10
3.1405
 20
-5.14132
 30
0.0
 10
3.06085
 20
-5.18812
 30
0.0
 10
2.98039
 20
-5.23298
 30
0.0
 10
2.8991
 20
-5.2757
 30
0.0
  0
SPLINE
  5
4A
330
1F
100
AcDbEntity
  8
Layer 1
370
    53
100
AcDbSpline
210
0.0
220
0.0
230
1.0
 70
    11
 71
     3
 72
    28
 73
    24
 74
     0
 42
0.0000000001
 43
0.0000000001
 12
1.0
 22
0.0
 32
0.0
 13
1.0
 23
0.0
 33
0.0
 40
0.0
 40
0.0
 40
0.0
 40
0.0
 40
0.1428571428571428
 40
0.1428571428571428
 40
0.1428571428571428
 40
0.1428571428571428
 40
0.2857142857142857
 40
0.2857142857142857
 40
0.2857142857142857
 40
0.2857142857142857
 40
0.4285714285714285
 40
0.4285714285714285
 40
0.4285714285714285
 40
0.4285714285714285
 40
0.5714285714285714
 40
0.5714285714285714
 40
0.5714285714285714
 40
0.5714285714285714
 40
0.7142857142857143
 40
0.7142857142857143
 40
0.7142857142857143
 40
0.7142857142857143
 40
1.0
 40
1.0
 40
1.0
 40
1.0
 10
1.05626
 20
-5.40363
 30
0.0
 10
1.36116
 20
-5.27734
 30
0.0
 10
1.70881
 20
-5.41092
 30
0.0
 10
1.85313
 20
-5.70237
 30
0.0
 10
1.85313
 20
-5.70237
 30
0.0
 10
1.76467
 20
-5.72921
 30
0.0
 10
1.67593
 20
-5.75369
 30
0.0
 10
1.58705
 20
-5.77624
 30
0.0
 10
1.58705
 20
-5.77624
 30
0.0
 10
1.49362
 20
-5.64169
 30
0.0
 10
1.31611
 20
-5.58547
 30
0.0
 10
1.1586
 20
-5.65071
 30
0.0
 10
1.1586
 20
-5.65071
 30
0.0
 10
1.0475
 20
-5.69673
 30
0.0
 10
0.97212
 20
-5.79253
 30
0.0
 10
0.94753
 20
-5.90154
 30
0.0
 10
0.94753
 20
-5.90154
 30
0.0
 10
0.85604
 20
-5.91429
 30
0.0
 10
0.76454
 20
-5.92495
 30
0.0
 10
0.67309
 20
-5.93331
 30
0.0
 10
0.67309
 20
-5.93331
 30
0.0
 10
0.69014
 20
-5.70619
 30
0.0
 10
0.83145
 20
-5.49673
 30
0.0
 10
1.05626
 20
-5.40363
 30
0.0
  0
SPLINE
  5
4B
330
1F
100
AcDbEntity
  8
Layer 1
370
    53
100
AcDbSpline
210
0.0
220
0.0
230
1.0
 70
    11
 71
     3
 72
    28
 73
    24
 74
     0
 42
0.0000000001
 43
0.0000000001
 12
1.0
 22
0.0
 32
0.0
 13
1.0
 23
0.0
 33
0.0
 40
0.0
 40
0.0
 40
0.0
 40
0.0
 40
0.1428571428571428
 40
0.1428571428571428
 40
0.1428571428571428
 40
0.1428571428571428
 40
0.2857142857142857
 40
0.2857142857142857
 40
0.2857142857142857
 40
0.2857142857142857
 40
0.4285714285714285
 40
0.4285714285714285
 40
0.4285714285714285
 40
0.4285714285714285
 40
0.5714285714285714
 40
0.5714285714285714
 40
0.5714285714285714
 40
0.5714285714285714
 40
0.7142857142857143
 40
0.7142857142857143
 40
0.7142857142857143
 40
0.7142857142857143
 40
1.0
 40
1.0
 40
1.0
 40
1.0
 10
-1.63514
 20
-5.689
 30
0.0
 10
-1.53247
 20
-5.48569
 30
0.0
 10
-1.32176
 20
-5.34627
 30
0.0
 10
-1.07843
 20
-5.34627
 30
0.0
 10
-1.07843
 20
-5.34627
 30
0.0
 10
-0.74841
 20
-5.34628
 30
0.0
 10
-0.47835
 20
-5.60273
 30
0.0
 10
-0.45654
 20
-5.92722
 30
0.0
 10
-0.45654
 20
-5.92722
 30
0.0
 10
-0.54856
 20
-5.91816
 30
0.0
 10
-0.6399
 20
-5.90683
 30
0.0
 10
-0.73064
 20
-5.89364
 30
0.0
 10
-0.73064
 20
-5.89364
 30
0.0
 10
-0.76546
 20
-5.73358
 30
0.0
 10
-0.90794
 20
-5.61371
 30
0.0
 10
-1.07844
 20
-5.61371
 30
0.0
 10
-1.07844
 20
-5.61371
 30
0.0
 10
-1.19869
 20
-5.61371
 30
0.0
 10
-1.30499
 20
-5.67336
 30
0.0
 10
-1.36942
 20
-5.76467
 30
0.0
 10
-1.36942
 20
-5.76467
 30
0.0
 10
-1.45883
 20
-5.74145
 30
0.0
 10
-1.54744
 20
-5.71627
 30
0.0
 10
-1.63514
 20
-5.689
 30
0.0
  0
SPLINE
  5
4C
330
1F
100
AcDbEntity
  8
Layer 1
370
    53
100
AcDbSpline
210
0.0
220
0.0
230
1.0
 70
    11
 71
     3
 72
    28
 73
    24
 74
     0
 42
0.0000000001
 43
0.0000000001
 12
1.0
 22
0.0
 32
0.0
 13
1.0
 23
0.0
 33
0.0
 40
0.0
 40
0.0
 40
0.0
 40
0.0
 40
0.1428571428571428
 40
0.1428571428571428
 40
0.1428571428571428
 40
0.1428571428571428
 40
0.2857142857142857
 40
0.2857142857142857
 40
0.2857142857142857
 40
0.2857142857142857
 40
0.4285714285714285
 40
0.4285714285714285
 40
0.4285714285714285
 40
0.4285714285714285
 40
0.5714285714285714
 40
0.5714285714285714
 40
0.5714285714285714
 40
0.5714285714285714
 40
0.7142857142857143
 40
0.7142857142857143
 40
0.7142857142857143
 40
0.7142857142857143
 40
1.0
 40
1.0
 40
1.0
 40
1.0
 10
-3.67417
 20
-4.57997
 30
0.0
 10
-3.50151
 20
-4.43142
 30
0.0
 10
-3.25348
 20
-4.38325
 30
0.0
 10
-3.02868
 20
-4.47637
 30
0.0
 10
-3.02868
 20
-4.47637
 30
0.0
 10
-2.72379
 20
-4.60267
 30
0.0
 10
-2.57241
 20
-4.94295
 30
0.0
 10
-2.67645
 20
-5.25108
 30
0.0
 10
-2.67645
 20
-5.25108
 30
0.0
 10
-2.758
 20
-5.2075
 30
0.0
 10
-2.83804
 20
-5.16208
 30
0.0
 10
-2.91683
 20
-5.11517
 30
0.0
 10
-2.91683
 20
-5.11517
 30
0.0
 10
-2.88775
 20
-4.95397
 30
0.0
 10
-2.97351
 20
-4.7887
 30
0.0
 10
-3.13103
 20
-4.72345
 30
0.0
 10
-3.13103
 20
-4.72345
 30
0.0
 10
-3.24213
 20
-4.67743
 30
0.0
 10
-3.36316
 20
-4.69186
 30
0.0
 10
-3.45764
 20
-4.75157
 30
0.0
 10
-3.45764
 20
-4.75157
 30
0.0
 10
-3.53135
 20
-4.6959
 30
0.0
 10
-3.60358
 20
-4.63873
 30
0.0
 10
-3.67417
 20
-4.57997
 30
0.0
  0
SPLINE
  5
4D
330
1F
100
AcDbEntity
  8
Layer 1
370
    53
100
AcDbSpline
210
0.0
220
0.0
230
1.0
 70
    11
 71
     3
 72
    28
 73
    24
 74
     0
 42
0.0000000001
 43
0.0000000001
 12
1.0
 22
0.0
 32
0.0
 13
1.0
 23
0.0
 33
0.0
 40
0.0
 40
0.0
 40
0.0
 40
0.0
 40
0.1428571428571428
 40
0.1428571428571428
 40
0.1428571428571428
 40
0.1428571428571428
 40
0.2857142857142857
 40
0.2857142857142857
 40
0.2857142857142857
 40
0.2857142857142857
 40
0.4285714285714285
 40
0.4285714285714285
 40
0.4285714285714285
 40
0.4285714285714285
 40
0.5714285714285714
 40
0.5714285714285714
 40
0.5714285714285714
 40
0.5714285714285714
 40
0.7142857142857143
 40
0.7142857142857143
 40
0.7142857142857143
 40
0.7142857142857143
 40
1.0
 40
1.0
 40
1.0
 40
1.0
 10
-5.13357
 20
-2.77506
 30
0.0
 10
-4.91721
 20
-2.7039
 30
0.0
 10
-4.66963
 20
-2.7543
 30
0.0
 10
-4.49758
 20
-2.92636
 30
0.0
 10
-4.49758
 20
-2.92636
 30
0.0
 10
-4.26422
 20
-3.15973
 30
0.0
 10
-4.25459
 20
-3.53203
 30
0.0
 10
-4.46862
 20
-3.77689
 30
0.0
 10
-4.46862
 20
-3.77689
 30
0.0
 10
-4.52729
 20
-3.70542
 30
0.0
 10
-4.58384
 20
-3.63282
 30
0.0
 10
-4.63869
 20
-3.55934
 30
0.0
 10
-4.63869
 20
-3.55934
 30
0.0
 10
-4.55015
 20
-3.42154
 30
0.0
 10
-4.56614
 20
-3.23602
 30
0.0
 10
-4.68669
 20
-3.11547
 30
0.0
 10
-4.68669
 20
-3.11547
 30
0.0
 10
-4.77172
 20
-3.03043
 30
0.0
 10
-4.88906
 20
-2.99745
 30
0.0
 10
-4.99919
 20
-3.01646
 30
0.0
 10
-4.99919
 20
-3.01646
 30
0.0
 10
-5.04599
 20
-2.93681
 30
0.0
 10
-5.09085
 20
-2.85635
 30
0.0
 10
-5.13357
 20
-2.77506
 30
0.0
  0
SPLINE
  5
4E
330
1F
100
AcDbEntity
  8
Layer 1
370
    53
100
AcDbSpline
210
0.0
220
0.0
230
1.0
 70
    11
 71
     3
 72
    28
 73
    24
 74
     0
 42
0.0000000001
 43
0.0000000001
 12
1.0
 22
0.0
 32
0.0
 13
1.0
 23
0.0
 33
0.0
 40
0.0
 40
0.0
 40
0.0
 40
0.0
 40
0.1428571428571428
 40
0.1428571428571428
 40
0.1428571428571428
 40
0.1428571428571428
 40
0.2857142857142857
 40
0.2857142857142857
 40
0.2857142857142857
 40
0.2857142857142857
 40
0.4285714285714285
 40
0.4285714285714285
 40
0.4285714285714285
 40
0.4285714285714285
 40
0.5714285714285714
 40
0.5714285714285714
 40
0.5714285714285714
 40
0.5714285714285714
 40
0.7142857142857143
 40
0.7142857142857143
 40
0.7142857142857143
 40
0.7142857142857143
 40
1.0
 40
1.0
 40
1.0
 40
1.0
 10
-5.2615
 20
-0.93221
 30
0.0
 10
-5.13521
 20
-1.2371
 30
0.0
 10
-5.26879
 20
-1.58477
 30
0.0
 10
-5.56024
 20
-1.72909
 30
0.0
 10
-5.56024
 20
-1.72909
 30
0.0
 10
-5.58708
 20
-1.6406
 30
0.0
 10
-5.61156
 20
-1.55189
 30
0.0
 10
-5.63413
 20
-1.46301
 30
0.0
 10
-5.63413
 20
-1.46301
 30
0.0
 10
-5.49956
 20
-1.36958
 30
0.0
 10
-5.44334
 20
-1.19207
 30
0.0
 10
-5.50858
 20
-1.03455
 30
0.0
 10
-5.50858
 20
-1.03455
 30
0.0
 10
-5.5546
 20
-0.92346
 30
0.0
 10
-5.65039
 20
-0.84808
 30
0.0
 10
-5.75941
 20
-0.82349
 30
0.0
 10
-5.75941
 20
-0.82349
 30
0.0
 10
-5.77216
 20
-0.732
 30
0.0
 10
-5.78282
 20
-0.6405
 30
0.0
 10
-5.79118
 20
-0.54905
 30
0.0
 10
-5.79118
 20
-0.54905
 30
0.0
 10
-5.56406
 20
-0.5661
 30
0.0
 10
-5.35461
 20
-0.70741
 30
0.0
 10
-5.2615
 20
-0.93221
 30
0.0
  0
SPLINE
  5
4F
330
1F
100
AcDbEntity
  8
Layer 1
370
    53
100
AcDbSpline
210
0.0
220
0.0
230
1.0
 70
    11
 71
     3
 72
    28
 73
    24
 74
     0
 42
0.0000000001
 43
0.0000000001
 12
1.0
 22
0.0
 32
0.0
 13
1.0
 23
0.0
 33
0.0
 40
0.0
 40
0.0
 40
0.0
 40
0.0
 40
0.1428571428571428
 40
0.1428571428571428
 40
0.1428571428571428
 40
0.1428571428571428
 40
0.2857142857142857
 40
0.2857142857142857
 40
0.2857142857142857
 40
0.2857142857142857
 40
0.4285714285714285
 40
0.4285714285714285
 40
0.4285714285714285
 40
0.4285714285714285
 40
0.5714285714285714
 40
0.5714285714285714
 40
0.5714285714285714
 40
0.5714285714285714
 40
0.7142857142857143
 40
0.7142857142857143
 40
0.7142857142857143
 40
0.7142857142857143
 40
1.0
 40
1.0
 40
1.0
 40
1.0
 10
-5.54687
 20
1.75918
 30
0.0
 10
-5.34356
 20
1.65651
 30
0.0
 10
-5.20414
 20
1.4458
 30
0.0
 10
-5.20414
 20
1.20247
 30
0.0
 10
-5.20414
 20
1.20247
 30
0.0
 10
-5.20415
 20
0.87245
 30
0.0
 10
-5.4606
 20
0.60239
 30
0.0
 10
-5.78509
 20
0.58059
 30
0.0
 10
-5.78509
 20
0.58059
 30
0.0
 10
-5.77603
 20
0.6726
 30
0.0
 10
-5.7647
 20
0.76394
 30
0.0
 10
-5.75151
 20
0.85468
 30
0.0
 10
-5.75151
 20
0.85468
 30
0.0
 10
-5.59145
 20
0.8895
 30
0.0
 10
-5.47158
 20
1.03198
 30
0.0
 10
-5.47158
 20
1.20248
 30
0.0
 10
-5.47158
 20
1.20248
 30
0.0
 10
-5.47158
 20
1.32273
 30
0.0
 10
-5.53123
 20
1.42903
 30
0.0
 10
-5.62254
 20
1.49346
 30
0.0
 10
-5.62254
 20
1.49346
 30
0.0
 10
-5.59932
 20
1.58287
 30
0.0
 10
-5.57414
 20
1.67148
 30
0.0
 10
-5.54687
 20
1.75918
 30
0.0
  0
SPLINE
  5
50
330
1F
100
AcDbEntity
  8
Layer 1
370
    53
100
AcDbSpline
210
0.0
220
0.0
230
1.0
 70
    11
 71
     3
 72
    28
 73
    24
 74
     0
 42
0.0000000001
 43
0.0000000001
 12
1.0
 22
0.0
 32
0.0
 13
1.0
 23
0.0
 33
0.0
 40
0.0
 40
0.0
 40
0.0
 40
0.0
 40
0.1428571428571428
 40
0.1428571428571428
 40
0.1428571428571428
 40
0.1428571428571428
 40
0.2857142857142857
 40
0.2857142857142857
 40
0.2857142857142857
 40
0.2857142857142857
 40
0.4285714285714285
 40
0.4285714285714285
 40
0.4285714285714285
 40
0.4285714285714285
 40
0.5714285714285714
 40
0.5714285714285714
 40
0.5714285714285714
 40
0.5714285714285714
 40
0.7142857142857143
 40
0.7142857142857143
 40
0.7142857142857143
 40
0.7142857142857143
 40
1.0
 40
1.0
 40
1.0
 40
1.0
 10
-4.43784
 20
3.79821
 30
0.0
 10
-4.28929
 20
3.62555
 30
0.0
 10
-4.24112
 20
3.37752
 30
0.0
 10
-4.33424
 20
3.15273
 30
0.0
 10
-4.33424
 20
3.15273
 30
0.0
 10
-4.46054
 20
2.84783
 30
0.0
 10
-4.80082
 20
2.69645
 30
0.0
 10
-5.10895
 20
2.80049
 30
0.0
 10
-5.10895
 20
2.80049
 30
0.0
 10
-5.06537
 20
2.88204
 30
0.0
 10
-5.01995
 20
2.96208
 30
0.0
 10
-4.97304
 20
3.04087
 30
0.0
 10
-4.97304
 20
3.04087
 30
0.0
 10
-4.81184
 20
3.01179
 30
0.0
 10
-4.64657
 20
3.09755
 30
0.0
 10
-4.58132
 20
3.25507
 30
0.0
 10
-4.58132
 20
3.25507
 30
0.0
 10
-4.5353
 20
3.36617
 30
0.0
 10
-4.54973
 20
3.4872
 30
0.0
 10
-4.60944
 20
3.58168
 30
0.0
 10
-4.60944
 20
3.58168
 30
0.0
 10
-4.55377
 20
3.65539
 30
0.0
 10
-4.4966
 20
3.72762
 30
0.0
 10
-4.43784
 20
3.79821
 30
0.0
  0
SPLINE
  5
51
330
1F
100
AcDbEntity
  8
Layer 1
370
    53
100
AcDbSpline
210
0.0
220
0.0
230
1.0
 70
    11
 71
     3
 72
    20
 73
    16
 74
     0
 42
0.0000000001
 43
0.0000000001
 12
1.0
 22
0.0
 32
0.0
 13
1.0
 23
0.0
 33
0.0
 40
0.0
 40
0.0
 40
0.0
 40
0.0
 40
0.2
 40
0.2
 40
0.2
 40
0.2
 40
0.4
 40
0.4
 40
0.4
 40
0.4
 40
0.6
 40
0.6
 40
0.6
 40
0.6
 40
1.0
 40
1.0
 40
1.0
 40
1.0
 10
-0.98592
 20
0.98455
 30
0.0
 10
-1.07409
 20
0.88661
 30
0.0
 10
-1.15049
 20
0.77566
 30
0.0
 10
-1.21184
 20
0.65298
 30
0.0
 10
-1.21184
 20
0.65298
 30
0.0
 10
-1.21184
 20
0.65298
 30
0.0
 10
-2.48663
 20
1.18102
 30
0.0
 10
-2.48663
 20
1.18102
 30
0.0
 10
-2.48663
 20
1.18102
 30
0.0
 10
-2.35183
 20
1.47822
 30
0.0
 10
-2.17216
 20
1.7419
 30
0.0
 10
-1.95903
 20
1.96743
 30
0.0
 10
-1.95903
 20
1.96743
 30
0.0
 10
-1.95903
 20
1.96743
 30
0.0
 10
-0.98592
 20
0.98455
 30
0.0
 10
-0.98592
 20
0.98455
 30
0.0
  0
SPLINE
  5
52
330
1F
100
AcDbEntity
  8
Layer 1
370
    53
100
AcDbSpline
210
0.0
220
0.0
230
1.0
 70
    11
 71
     3
 72
    28
 73
    24
 74
     0
 42
0.0000000001
 43
0.0000000001
 12
1.0
 22
0.0
 32
0.0
 13
1.0
 23
0.0
 33
0.0
 40
0.0
 40
0.0
 40
0.0
 40
0.0
 40
0.1428571428571428
 40
0.1428571428571428
 40
0.1428571428571428
 40
0.1428571428571428
 40
0.2857142857142857
 40
0.2857142857142857
 40
0.2857142857142857
 40
0.2857142857142857
 40
0.4285714285714285
 40
0.4285714285714285
 40
0.4285714285714285
 40
0.4285714285714285
 40
0.5714285714285714
 40
0.5714285714285714
 40
0.5714285714285714
 40
0.5714285714285714
 40
0.7142857142857143
 40
0.7142857142857143
 40
0.7142857142857143
 40
0.7142857142857143
 40
1.0
 40
1.0
 40
1.0
 40
1.0
 10
-2.63293
 20
5.25761
 30
0.0
 10
-2.56177
 20
5.04126
 30
0.0
 10
-2.61217
 20
4.79368
 30
0.0
 10
-2.78423
 20
4.62162
 30
0.0
 10
-2.78423
 20
4.62162
 30
0.0
 10
-3.0176
 20
4.38826
 30
0.0
 10
-3.3899
 20
4.37863
 30
0.0
 10
-3.63476
 20
4.59267
 30
0.0
 10
-3.63476
 20
4.59267
 30
0.0
 10
-3.56329
 20
4.65134
 30
0.0
 10
-3.49069
 20
4.7079
 30
0.0
 10
-3.41721
 20
4.76274
 30
0.0
 10
-3.41721
 20
4.76274
 30
0.0
 10
-3.27941
 20
4.67419
 30
0.0
 10
-3.09389
 20
4.69018
 30
0.0
 10
-2.97335
 20
4.81073
 30
0.0
 10
-2.97335
 20
4.81073
 30
0.0
 10
-2.8883
 20
4.89576
 30
0.0
 10
-2.85532
 20
5.01311
 30
0.0
 10
-2.87433
 20
5.12323
 30
0.0
 10
-2.87433
 20
5.12323
 30
0.0
 10
-2.79468
 20
5.17003
 30
0.0
 10
-2.71422
 20
5.21489
 30
0.0
 10
-2.63293
 20
5.25761
 30
0.0
  0
SPLINE
  5
53
330
1F
100
AcDbEntity
  8
Layer 1
370
    53
100
AcDbSpline
210
0.0
220
0.0
230
1.0
 70
    11
 71
     3
 72
    20
 73
    16
 74
     0
 42
0.0000000001
 43
0.0000000001
 12
1.0
 22
0.0
 32
0.0
 13
1.0
 23
0.0
 33
0.0
 40
0.0
 40
0.0
 40
0.0
 40
0.0
 40
0.2
 40
0.2
 40
0.2
 40
0.2
 40
0.4
 40
0.4
 40
0.4
 40
0.4
 40
0.6
 40
0.6
 40
0.6
 40
0.6
 40
1.0
 40
1.0
 40
1.0
 40
1.0
 10
-0.5205
 20
1.33714
 30
0.0
 10
-0.63945
 20
1.2804
 30
0.0
 10
-0.75249
 20
1.20714
 30
0.0
 10
-0.85613
 20
1.11727
 30
0.0
 10
-0.85613
 20
1.11727
 30
0.0
 10
-0.85613
 20
1.11727
 30
0.0
 10
-1.8318
 20
2.09295
 30
0.0
 10
-1.8318
 20
2.09295
 30
0.0
 10
-1.8318
 20
2.09295
 30
0.0
 10
-1.59352
 20
2.31593
 30
0.0
 10
-1.32663
 20
2.49079
 30
0.0
 10
-1.0434
 20
2.61759
 30
0.0
 10
-1.0434
 20
2.61759
 30
0.0
 10
-1.0434
 20
2.61759
 30
0.0
 10
-0.5205
 20
1.33714
 30
0.0
 10
-0.5205
 20
1.33714
 30
0.0
  0
SPLINE
  5
54
330
1F
100
AcDbEntity
  8
Layer 1
370
    53
100
AcDbSpline
210
0.0
220
0.0
230
1.0
 70
    11
 71
     3
 72
    28
 73
    24
 74
     0
 42
0.0000000001
 43
0.0000000001
 12
1.0
 22
0.0
 32
0.0
 13
1.0
 23
0.0
 33
0.0
 40
0.0
 40
0.0
 40
0.0
 40
0.0
 40
0.1428571428571428
 40
0.1428571428571428
 40
0.1428571428571428
 40
0.1428571428571428
 40
0.2857142857142857
 40
0.2857142857142857
 40
0.2857142857142857
 40
0.2857142857142857
 40
0.4285714285714285
 40
0.4285714285714285
 40
0.4285714285714285
 40
0.4285714285714285
 40
0.5714285714285714
 40
0.5714285714285714
 40
0.5714285714285714
 40
0.5714285714285714
 40
0.7142857142857143
 40
0.7142857142857143
 40
0.7142857142857143
 40
0.7142857142857143
 40
1.0
 40
1.0
 40
1.0
 40
1.0
 10
-0.79008
 20
5.38554
 30
0.0
 10
-1.09498
 20
5.25925
 30
0.0
 10
-1.44265
 20
5.39283
 30
0.0
 10
-1.58696
 20
5.68428
 30
0.0
 10
-1.58696
 20
5.68428
 30
0.0
 10
-1.49847
 20
5.71113
 30
0.0
 10
-1.40975
 20
5.7356
 30
0.0
 10
-1.32087
 20
5.75815
 30
0.0
 10
-1.32087
 20
5.75815
 30
0.0
 10
-1.22745
 20
5.6236
 30
0.0
 10
-1.04994
 20
5.56738
 30
0.0
 10
-0.89242
 20
5.63262
 30
0.0
 10
-0.89242
 20
5.63262
 30
0.0
 10
-0.78133
 20
5.67864
 30
0.0
 10
-0.70595
 20
5.77443
 30
0.0
 10
-0.68136
 20
5.88345
 30
0.0
 10
-0.68136
 20
5.88345
 30
0.0
 10
-0.58987
 20
5.8962
 30
0.0
 10
-0.49837
 20
5.90686
 30
0.0
 10
-0.40692
 20
5.91522
 30
0.0
 10
-0.40692
 20
5.91522
 30
0.0
 10
-0.42397
 20
5.6881
 30
0.0
 10
-0.56528
 20
5.47866
 30
0.0
 10
-0.79008
 20
5.38554
 30
0.0
  0
SPLINE
  5
55
330
1F
100
AcDbEntity
  8
Layer 1
370
    53
100
AcDbSpline
210
0.0
220
0.0
230
1.0
 70
    11
 71
     3
 72
    48
 73
    44
 74
     0
 42
0.0000000001
 43
0.0000000001
 12
1.0
 22
0.0
 32
0.0
 13
1.0
 23
0.0
 33
0.0
 40
0.0
 40
0.0
 40
0.0
 40
0.0
 40
0.0833333333333333
 40
0.0833333333333333
 40
0.0833333333333333
 40
0.0833333333333333
 40
0.1666666666666667
 40
0.1666666666666667
 40
0.1666666666666667
 40
0.1666666666666667
 40
0.25
 40
0.25
 40
0.25
 40
0.25
 40
0.3333333333333333
 40
0.3333333333333333
 40
0.3333333333333333
 40
0.3333333333333333
 40
0.4166666666666667
 40
0.4166666666666667
 40
0.4166666666666667
 40
0.4166666666666667
 40
0.5
 40
0.5
 40
0.5
 40
0.5
 40
0.5833333333333334
 40
0.5833333333333334
 40
0.5833333333333334
 40
0.5833333333333334
 40
0.6666666666666666
 40
0.6666666666666666
 40
0.6666666666666666
 40
0.6666666666666666
 40
0.75
 40
0.75
 40
0.75
 40
0.75
 40
0.8333333333333334
 40
0.8333333333333334
 40
0.8333333333333334
 40
0.8333333333333334
 40
1.0
 40
1.0
 40
1.0
 40
1.0
 10
4.44051
 20
-4.11211
 30
0.0
 10
4.44051
 20
-4.11211
 30
0.0
 10
3.05073
 20
-2.72233
 30
0.0
 10
3.05073
 20
-2.72233
 30
0.0
 10
3.05073
 20
-2.72233
 30
0.0
 10
3.06396
 20
-2.6993
 30
0.0
 10
3.07586
 20
-2.67518
 30
0.0
 10
3.0863
 20
-2.65
 30
0.0
 10
3.0863
 20
-2.65
 30
0.0
 10
3.17552
 20
-2.43459
 30
0.0
 10
3.13502
 20
-2.19784
 30
0.0
 10
3.00081
 20
-2.02652
 30
0.0
 10
3.00081
 20
-2.02652
 30
0.0
 10
3.01739
 20
-2.00287
 30
0.0
 10
3.03374
 20
-1.97898
 30
0.0
 10
3.04982
 20
-1.95484
 30
0.0
 10
3.04982
 20
-1.95484
 30
0.0
 10
3.06112
 20
-1.93786
 30
0.0
 10
3.07229
 20
-1.92073
 30
0.0
 10
3.08334
 20
-1.90349
 30
0.0
 10
3.08334
 20
-1.90349
 30
0.0
 10
3.33909
 20
-1.98573
 30
0.0
 10
3.61534
 20
-1.89326
 30
0.0
 10
3.77211
 20
-1.68412
 30
0.0
 10
3.77211
 20
-1.68412
 30
0.0
 10
3.77211
 20
-1.68412
 30
0.0
 10
5.56647
 20
-2.42737
 30
0.0
 10
5.56647
 20
-2.42737
 30
0.0
 10
5.56647
 20
-2.42737
 30
0.0
 10
5.54138
 20
-2.48377
 30
0.0
 10
5.51552
 20
-2.53957
 30
0.0
 10
5.48891
 20
-2.5948
 30
0.0
 10
5.48891
 20
-2.5948
 30
0.0
 10
5.04887
 20
-2.42569
 30
0.0
 10
4.55174
 20
-2.63737
 30
0.0
 10
4.37026
 20
-3.0755
 30
0.0
 10
4.37026
 20
-3.0755
 30
0.0
 10
4.23503
 20
-3.40198
 30
0.0
 10
4.31271
 20
-3.76353
 30
0.0
 10
4.53934
 20
-4.00584
 30
0.0
 10
4.53934
 20
-4.00584
 30
0.0
 10
4.50678
 20
-4.04172
 30
0.0
 10
4.47384
 20
-4.07715
 30
0.0
 10
4.44051
 20
-4.11211
 30
0.0
  0
SPLINE
  5
56
330
1F
100
AcDbEntity
  8
Layer 1
370
    53
100
AcDbSpline
210
0.0
220
0.0
230
1.0
 70
    11
 71
     3
 72
    48
 73
    44
 74
     0
 42
0.0000000001
 43
0.0000000001
 12
1.0
 22
0.0
 32
0.0
 13
1.0
 23
0.0
 33
0.0
 40
0.0
 40
0.0
 40
0.0
 40
0.0
 40
0.0833333333333333
 40
0.0833333333333333
 40
0.0833333333333333
 40
0.0833333333333333
 40
0.1666666666666667
 40
0.1666666666666667
 40
0.1666666666666667
 40
0.1666666666666667
 40
0.25
 40
0.25
 40
0.25
 40
0.25
 40
0.3333333333333333
 40
0.3333333333333333
 40
0.3333333333333333
 40
0.3333333333333333
 40
0.4166666666666667
 40
0.4166666666666667
 40
0.4166666666666667
 40
0.4166666666666667
 40
0.5
 40
0.5
 40
0.5
 40
0.5
 40
0.5833333333333334
 40
0.5833333333333334
 40
0.5833333333333334
 40
0.5833333333333334
 40
0.6666666666666666
 40
0.6666666666666666
 40
0.6666666666666666
 40
0.6666666666666666
 40
0.75
 40
0.75
 40
0.75
 40
0.75
 40
0.8333333333333334
 40
0.8333333333333334
 40
0.8333333333333334
 40
0.8333333333333334
 40
1.0
 40
1.0
 40
1.0
 40
1.0
 10
1.78869
 20
-3.63358
 30
0.0
 10
1.8103
 20
-3.61704
 30
0.0
 10
1.83107
 20
-3.59888
 30
0.0
 10
1.85085
 20
-3.57911
 30
0.0
 10
1.85085
 20
-3.57911
 30
0.0
 10
2.01571
 20
-3.41424
 30
0.0
 10
2.0689
 20
-3.18002
 30
0.0
 10
2.01046
 20
-2.97038
 30
0.0
 10
2.01046
 20
-2.97038
 30
0.0
 10
2.03484
 20
-2.95488
 30
0.0
 10
2.05908
 20
-2.93905
 30
0.0
 10
2.08316
 20
-2.9229
 30
0.0
 10
2.08316
 20
-2.9229
 30
0.0
 10
2.10012
 20
-2.91153
 30
0.0
 10
2.11699
 20
-2.9
 30
0.0
 10
2.13379
 20
-2.88829
 30
0.0
 10
2.13379
 20
-2.88829
 30
0.0
 10
2.33846
 20
-3.06203
 30
0.0
 10
2.6288
 20
-3.08241
 30
0.0
 10
2.85361
 20
-2.94948
 30
0.0
 10
2.85361
 20
-2.94948
 30
0.0
 10
2.85361
 20
-2.94948
 30
0.0
 10
4.22705
 20
-4.32292
 30
0.0
 10
4.22705
 20
-4.32292
 30
0.0
 10
4.22705
 20
-4.32292
 30
0.0
 10
4.18242
 20
-4.36529
 30
0.0
 10
4.13729
 20
-4.40684
 30
0.0
 10
4.0917
 20
-4.44756
 30
0.0
 10
4.0917
 20
-4.44756
 30
0.0
 10
3.74987
 20
-4.12292
 30
0.0
 10
3.20958
 20
-4.12825
 30
0.0
 10
2.87424
 20
-4.46358
 30
0.0
 10
2.87424
 20
-4.46358
 30
0.0
 10
2.62437
 20
-4.71345
 30
0.0
 10
2.55778
 20
-5.07721
 30
0.0
 10
2.67442
 20
-5.38781
 30
0.0
 10
2.67442
 20
-5.38781
 30
0.0
 10
2.63002
 20
-5.40878
 30
0.0
 10
2.58543
 20
-5.42916
 30
0.0
 10
2.54065
 20
-5.44896
 30
0.0
 10
2.54065
 20
-5.44896
 30
0.0
 10
2.54065
 20
-5.44896
 30
0.0
 10
1.78869
 20
-3.63358
 30
0.0
 10
1.78869
 20
-3.63358
 30
0.0
  0
SPLINE
  5
57
330
1F
100
AcDbEntity
  8
Layer 1
370
    53
100
AcDbSpline
210
0.0
220
0.0
230
1.0
 70
    11
 71
     3
 72
    20
 73
    16
 74
     0
 42
0.0000000001
 43
0.0000000001
 12
1.0
 22
0.0
 32
0.0
 13
1.0
 23
0.0
 33
0.0
 40
0.0
 40
0.0
 40
0.0
 40
0.0
 40
0.2
 40
0.2
 40
0.2
 40
0.2
 40
0.4
 40
0.4
 40
0.4
 40
0.4
 40
0.6
 40
0.6
 40
0.6
 40
0.6
 40
1.0
 40
1.0
 40
1.0
 40
1.0
 10
0.78667
 20
-1.35523
 30
0.0
 10
0.90562
 20
-1.29849
 30
0.0
 10
1.01866
 20
-1.22523
 30
0.0
 10
1.12229
 20
-1.13536
 30
0.0
 10
1.12229
 20
-1.13536
 30
0.0
 10
1.12229
 20
-1.13536
 30
0.0
 10
2.09797
 20
-2.11104
 30
0.0
 10
2.09797
 20
-2.11104
 30
0.0
 10
2.09797
 20
-2.11104
 30
0.0
 10
1.8597
 20
-2.33403
 30
0.0
 10
1.5928
 20
-2.50888
 30
0.0
 10
1.30957
 20
-2.63568
 30
0.0
 10
1.30957
 20
-2.63568
 30
0.0
 10
1.30957
 20
-2.63568
 30
0.0
 10
0.78667
 20
-1.35523
 30
0.0
 10
0.78667
 20
-1.35523
 30
0.0
  0
SPLINE
  5
58
330
1F
100
AcDbEntity
  8
Layer 1
370
    53
100
AcDbSpline
210
0.0
220
0.0
230
1.0
 70
    11
 71
     3
 72
    48
 73
    44
 74
     0
 42
0.0000000001
 43
0.0000000001
 12
1.0
 22
0.0
 32
0.0
 13
1.0
 23
0.0
 33
0.0
 40
0.0
 40
0.0
 40
0.0
 40
0.0
 40
0.0833333333333333
 40
0.0833333333333333
 40
0.0833333333333333
 40
0.0833333333333333
 40
0.1666666666666667
 40
0.1666666666666667
 40
0.1666666666666667
 40
0.1666666666666667
 40
0.25
 40
0.25
 40
0.25
 40
0.25
 40
0.3333333333333333
 40
0.3333333333333333
 40
0.3333333333333333
 40
0.3333333333333333
 40
0.4166666666666667
 40
0.4166666666666667
 40
0.4166666666666667
 40
0.4166666666666667
 40
0.5
 40
0.5
 40
0.5
 40
0.5
 40
0.5833333333333334
 40
0.5833333333333334
 40
0.5833333333333334
 40
0.5833333333333334
 40
0.6666666666666666
 40
0.6666666666666666
 40
0.6666666666666666
 40
0.6666666666666666
 40
0.75
 40
0.75
 40
0.75
 40
0.75
 40
0.8333333333333334
 40
0.8333333333333334
 40
0.8333333333333334
 40
0.8333333333333334
 40
1.0
 40
1.0
 40
1.0
 40
1.0
 10
-2.50787
 20
-2.96225
 30
0.0
 10
-2.29246
 20
-3.05147
 30
0.0
 10
-2.05571
 20
-3.01098
 30
0.0
 10
-1.88438
 20
-2.87677
 30
0.0
 10
-1.88438
 20
-2.87677
 30
0.0
 10
-1.86074
 20
-2.89335
 30
0.0
 10
-1.83685
 20
-2.90968
 30
0.0
 10
-1.81271
 20
-2.92577
 30
0.0
 10
-1.81271
 20
-2.92577
 30
0.0
 10
-1.79571
 20
-2.93708
 30
0.0
 10
-1.7786
 20
-2.94825
 30
0.0
 10
-1.76136
 20
-2.9593
 30
0.0
 10
-1.76136
 20
-2.9593
 30
0.0
 10
-1.84257
 20
-3.21187
 30
0.0
 10
-1.7534
 20
-3.48445
 30
0.0
 10
-1.54973
 20
-3.64218
 30
0.0
 10
-1.54973
 20
-3.64218
 30
0.0
 10
-1.54973
 20
-3.64218
 30
0.0
 10
-2.29383
 20
-5.4386
 30
0.0
 10
-2.29383
 20
-5.4386
 30
0.0
 10
-2.29383
 20
-5.4386
 30
0.0
 10
-2.3473
 20
-5.41471
 30
0.0
 10
-2.40024
 20
-5.39013
 30
0.0
 10
-2.45267
 20
-5.36487
 30
0.0
 10
-2.45267
 20
-5.36487
 30
0.0
 10
-2.28356
 20
-4.92483
 30
0.0
 10
-2.49524
 20
-4.4277
 30
0.0
 10
-2.93337
 20
-4.24622
 30
0.0
 10
-2.93337
 20
-4.24622
 30
0.0
 10
-3.25985
 20
-4.11099
 30
0.0
 10
-3.6214
 20
-4.18867
 30
0.0
 10
-3.86371
 20
-4.4153
 30
0.0
 10
-3.86371
 20
-4.4153
 30
0.0
 10
-3.90275
 20
-4.37987
 30
0.0
 10
-3.94125
 20
-4.34399
 30
0.0
 10
-3.97921
 20
-4.30765
 30
0.0
 10
-3.97921
 20
-4.30765
 30
0.0
 10
-3.97921
 20
-4.30765
 30
0.0
 10
-2.59157
 20
-2.92001
 30
0.0
 10
-2.59157
 20
-2.92001
 30
0.0
 10
-2.59157
 20
-2.92001
 30
0.0
 10
-2.56515
 20
-2.93593
 30
0.0
 10
-2.53723
 20
-2.95009
 30
0.0
 10
-2.50787
 20
-2.96225
 30
0.0
  0
SPLINE
  5
59
330
1F
100
AcDbEntity
  8
Layer 1
370
    53
100
AcDbSpline
210
0.0
220
0.0
230
1.0
 70
    11
 71
     3
 72
    20
 73
    16
 74
     0
 42
0.0000000001
 43
0.0000000001
 12
1.0
 22
0.0
 32
0.0
 13
1.0
 23
0.0
 33
0.0
 40
0.0
 40
0.0
 40
0.0
 40
0.0
 40
0.2
 40
0.2
 40
0.2
 40
0.2
 40
0.4
 40
0.4
 40
0.4
 40
0.4
 40
0.6
 40
0.6
 40
0.6
 40
0.6
 40
1.0
 40
1.0
 40
1.0
 40
1.0
 10
-0.86051
 20
-1.12805
 30
0.0
 10
-0.76257
 20
-1.21622
 30
0.0
 10
-0.65162
 20
-1.29262
 30
0.0
 10
-0.52894
 20
-1.35397
 30
0.0
 10
-0.52894
 20
-1.35397
 30
0.0
 10
-0.52894
 20
-1.35397
 30
0.0
 10
-1.05698
 20
-2.62876
 30
0.0
 10
-1.05698
 20
-2.62876
 30
0.0
 10
-1.05698
 20
-2.62876
 30
0.0
 10
-1.35418
 20
-2.49396
 30
0.0
 10
-1.61786
 20
-2.31429
 30
0.0
 10
-1.84339
 20
-2.10115
 30
0.0
 10
-1.84339
 20
-2.10115
 30
0.0
 10
-1.84339
 20
-2.10115
 30
0.0
 10
-0.86051
 20
-1.12805
 30
0.0
 10
-0.86051
 20
-1.12805
 30
0.0
  0
SPLINE
  5
5A
330
1F
100
AcDbEntity
  8
Layer 1
370
    53
100
AcDbSpline
210
0.0
220
0.0
230
1.0
 70
    11
 71
     3
 72
    48
 73
    44
 74
     0
 42
0.0000000001
 43
0.0000000001
 12
1.0
 22
0.0
 32
0.0
 13
1.0
 23
0.0
 33
0.0
 40
0.0
 40
0.0
 40
0.0
 40
0.0
 40
0.0833333333333333
 40
0.0833333333333333
 40
0.0833333333333333
 40
0.0833333333333333
 40
0.1666666666666667
 40
0.1666666666666667
 40
0.1666666666666667
 40
0.1666666666666667
 40
0.25
 40
0.25
 40
0.25
 40
0.25
 40
0.3333333333333333
 40
0.3333333333333333
 40
0.3333333333333333
 40
0.3333333333333333
 40
0.4166666666666667
 40
0.4166666666666667
 40
0.4166666666666667
 40
0.4166666666666667
 40
0.5
 40
0.5
 40
0.5
 40
0.5
 40
0.5833333333333334
 40
0.5833333333333334
 40
0.5833333333333334
 40
0.5833333333333334
 40
0.6666666666666666
 40
0.6666666666666666
 40
0.6666666666666666
 40
0.6666666666666666
 40
0.75
 40
0.75
 40
0.75
 40
0.75
 40
0.8333333333333334
 40
0.8333333333333334
 40
0.8333333333333334
 40
0.8333333333333334
 40
1.0
 40
1.0
 40
1.0
 40
1.0
 10
-3.43698
 20
-1.72681
 30
0.0
 10
-3.27211
 20
-1.89167
 30
0.0
 10
-3.0379
 20
-1.94486
 30
0.0
 10
-2.82825
 20
-1.88642
 30
0.0
 10
-2.82825
 20
-1.88642
 30
0.0
 10
-2.81275
 20
-1.9108
 30
0.0
 10
-2.79692
 20
-1.93504
 30
0.0
 10
-2.78077
 20
-1.95912
 30
0.0
 10
-2.78077
 20
-1.95912
 30
0.0
 10
-2.7694
 20
-1.97608
 30
0.0
 10
-2.75787
 20
-1.99295
 30
0.0
 10
-2.74616
 20
-2.00975
 30
0.0
 10
-2.74616
 20
-2.00975
 30
0.0
 10
-2.91696
 20
-2.21096
 30
0.0
 10
-2.93954
 20
-2.49497
 30
0.0
 10
-2.81395
 20
-2.71812
 30
0.0
 10
-2.81395
 20
-2.71812
 30
0.0
 10
-2.81395
 20
-2.71812
 30
0.0
 10
-4.18957
 20
-4.09374
 30
0.0
 10
-4.18957
 20
-4.09374
 30
0.0
 10
-4.18957
 20
-4.09374
 30
0.0
 10
-4.2289
 20
-4.05213
 30
0.0
 10
-4.26752
 20
-4.0101
 30
0.0
 10
-4.30543
 20
-3.96766
 30
0.0
 10
-4.30543
 20
-3.96766
 30
0.0
 10
-3.98079
 20
-3.62583
 30
0.0
 10
-3.98612
 20
-3.08554
 30
0.0
 10
-4.32145
 20
-2.7502
 30
0.0
 10
-4.32145
 20
-2.7502
 30
0.0
 10
-4.57132
 20
-2.50033
 30
0.0
 10
-4.93508
 20
-2.43375
 30
0.0
 10
-5.24568
 20
-2.55038
 30
0.0
 10
-5.24568
 20
-2.55038
 30
0.0
 10
-5.26867
 20
-2.50169
 30
0.0
 10
-5.29097
 20
-2.45278
 30
0.0
 10
-5.31255
 20
-2.40363
 30
0.0
 10
-5.31255
 20
-2.40363
 30
0.0
 10
-5.31255
 20
-2.40363
 30
0.0
 10
-3.50021
 20
-1.65293
 30
0.0
 10
-3.50021
 20
-1.65293
 30
0.0
 10
-3.50021
 20
-1.65293
 30
0.0
 10
-3.48137
 20
-1.67876
 30
0.0
 10
-3.4603
 20
-1.70348
 30
0.0
 10
-3.43698
 20
-1.72681
 30
0.0
  0
SPLINE
  5
5B
330
1F
100
AcDbEntity
  8
Layer 1
370
    53
100
AcDbSpline
210
0.0
220
0.0
230
1.0
 70
    11
 71
     3
 72
    20
 73
    16
 74
     0
 42
0.0000000001
 43
0.0000000001
 12
1.0
 22
0.0
 32
0.0
 13
1.0
 23
0.0
 33
0.0
 40
0.0
 40
0.0
 40
0.0
 40
0.0
 40
0.2
 40
0.2
 40
0.2
 40
0.2
 40
0.4
 40
0.4
 40
0.4
 40
0.4
 40
0.6
 40
0.6
 40
0.6
 40
0.6
 40
1.0
 40
1.0
 40
1.0
 40
1.0
 10
-1.2131
 20
-0.66263
 30
0.0
 10
-1.15636
 20
-0.78158
 30
0.0
 10
-1.0831
 20
-0.89462
 30
0.0
 10
-0.99323
 20
-0.99825
 30
0.0
 10
-0.99323
 20
-0.99825
 30
0.0
 10
-0.99323
 20
-0.99825
 30
0.0
 10
-1.96891
 20
-1.97393
 30
0.0
 10
-1.96891
 20
-1.97393
 30
0.0
 10
-1.96891
 20
-1.97393
 30
0.0
 10
-2.1919
 20
-1.73565
 30
0.0
 10
-2.36675
 20
-1.46876
 30
0.0
 10
-2.49355
 20
-1.18553
 30
0.0
 10
-2.49355
 20
-1.18553
 30
0.0
 10
-2.49355
 20
-1.18553
 30
0.0
 10
-1.2131
 20
-0.66263
 30
0.0
 10
-1.2131
 20
-0.66263
 30
0.0
  0
SPLINE
  5
5C
330
1F
100
AcDbEntity
  8
Layer 1
370
    53
100
AcDbSpline
210
0.0
220
0.0
230
1.0
 70
    11
 71
     3
 72
    48
 73
    44
 74
     0
 42
0.0000000001
 43
0.0000000001
 12
1.0
 22
0.0
 32
0.0
 13
1.0
 23
0.0
 33
0.0
 40
0.0
 40
0.0
 40
0.0
 40
0.0
 40
0.0833333333333333
 40
0.0833333333333333
 40
0.0833333333333333
 40
0.0833333333333333
 40
0.1666666666666667
 40
0.1666666666666667
 40
0.1666666666666667
 40
0.1666666666666667
 40
0.25
 40
0.25
 40
0.25
 40
0.25
 40
0.3333333333333333
 40
0.3333333333333333
 40
0.3333333333333333
 40
0.3333333333333333
 40
0.4166666666666667
 40
0.4166666666666667
 40
0.4166666666666667
 40
0.4166666666666667
 40
0.5
 40
0.5
 40
0.5
 40
0.5
 40
0.5833333333333334
 40
0.5833333333333334
 40
0.5833333333333334
 40
0.5833333333333334
 40
0.6666666666666666
 40
0.6666666666666666
 40
0.6666666666666666
 40
0.6666666666666666
 40
0.75
 40
0.75
 40
0.75
 40
0.75
 40
0.8333333333333334
 40
0.8333333333333334
 40
0.8333333333333334
 40
0.8333333333333334
 40
1.0
 40
1.0
 40
1.0
 40
1.0
 10
-2.26069
 20
5.43694
 30
0.0
 10
-2.26069
 20
5.43694
 30
0.0
 10
-1.51006
 20
3.62479
 30
0.0
 10
-1.51006
 20
3.62479
 30
0.0
 10
-1.51006
 20
3.62479
 30
0.0
 10
-1.53616
 20
3.60581
 30
0.0
 10
-1.56113
 20
3.58457
 30
0.0
 10
-1.58468
 20
3.56102
 30
0.0
 10
-1.58468
 20
3.56102
 30
0.0
 10
-1.74954
 20
3.39615
 30
0.0
 10
-1.80273
 20
3.16193
 30
0.0
 10
-1.74429
 20
2.95229
 30
0.0
 10
-1.74429
 20
2.95229
 30
0.0
 10
-1.76867
 20
2.93679
 30
0.0
 10
-1.79291
 20
2.92096
 30
0.0
 10
-1.81699
 20
2.90481
 30
0.0
 10
-1.81699
 20
2.90481
 30
0.0
 10
-1.83395
 20
2.89344
 30
0.0
 10
-1.85082
 20
2.88191
 30
0.0
 10
-1.86762
 20
2.8702
 30
0.0
 10
-1.86762
 20
2.8702
 30
0.0
 10
-2.06713
 20
3.03956
 30
0.0
 10
-2.34807
 20
3.06322
 30
0.0
 10
-2.57034
 20
2.94117
 30
0.0
 10
-2.57034
 20
2.94117
 30
0.0
 10
-2.57034
 20
2.94117
 30
0.0
 10
-3.94707
 20
4.3179
 30
0.0
 10
-3.94707
 20
4.3179
 30
0.0
 10
-3.94707
 20
4.3179
 30
0.0
 10
-3.90694
 20
4.35575
 30
0.0
 10
-3.86643
 20
4.39294
 30
0.0
 10
-3.82553
 20
4.42947
 30
0.0
 10
-3.82553
 20
4.42947
 30
0.0
 10
-3.4837
 20
4.10483
 30
0.0
 10
-2.94341
 20
4.11016
 30
0.0
 10
-2.60807
 20
4.44548
 30
0.0
 10
-2.60807
 20
4.44548
 30
0.0
 10
-2.3582
 20
4.69536
 30
0.0
 10
-2.2916
 20
5.05913
 30
0.0
 10
-2.40825
 20
5.36972
 30
0.0
 10
-2.40825
 20
5.36972
 30
0.0
 10
-2.35929
 20
5.39284
 30
0.0
 10
-2.31011
 20
5.41525
 30
0.0
 10
-2.26069
 20
5.43694
 30
0.0
  0
SPLINE
  5
5D
330
1F
100
AcDbEntity
  8
Layer 1
370
    53
100
AcDbSpline
210
0.0
220
0.0
230
1.0
 70
    11
 71
     3
 72
    48
 73
    44
 74
     0
 42
0.0000000001
 43
0.0000000001
 12
1.0
 22
0.0
 32
0.0
 13
1.0
 23
0.0
 33
0.0
 40
0.0
 40
0.0
 40
0.0
 40
0.0
 40
0.0833333333333333
 40
0.0833333333333333
 40
0.0833333333333333
 40
0.0833333333333333
 40
0.1666666666666667
 40
0.1666666666666667
 40
0.1666666666666667
 40
0.1666666666666667
 40
0.25
 40
0.25
 40
0.25
 40
0.25
 40
0.3333333333333333
 40
0.3333333333333333
 40
0.3333333333333333
 40
0.3333333333333333
 40
0.4166666666666667
 40
0.4166666666666667
 40
0.4166666666666667
 40
0.4166666666666667
 40
0.5
 40
0.5
 40
0.5
 40
0.5
 40
0.5833333333333334
 40
0.5833333333333334
 40
0.5833333333333334
 40
0.5833333333333334
 40
0.6666666666666666
 40
0.6666666666666666
 40
0.6666666666666666
 40
0.6666666666666666
 40
0.75
 40
0.75
 40
0.75
 40
0.75
 40
0.8333333333333334
 40
0.8333333333333334
 40
0.8333333333333334
 40
0.8333333333333334
 40
1.0
 40
1.0
 40
1.0
 40
1.0
 10
4.24067
 20
4.29407
 30
0.0
 10
4.24067
 20
4.29407
 30
0.0
 10
2.85196
 20
2.90536
 30
0.0
 10
2.85196
 20
2.90536
 30
0.0
 10
2.85196
 20
2.90536
 30
0.0
 10
2.82726
 20
2.91988
 30
0.0
 10
2.80127
 20
2.93288
 30
0.0
 10
2.77404
 20
2.94415
 30
0.0
 10
2.77404
 20
2.94415
 30
0.0
 10
2.55863
 20
3.03339
 30
0.0
 10
2.32188
 20
2.99289
 30
0.0
 10
2.15056
 20
2.85868
 30
0.0
 10
2.15056
 20
2.85868
 30
0.0
 10
2.12692
 20
2.87526
 30
0.0
 10
2.10302
 20
2.89161
 30
0.0
 10
2.07888
 20
2.90767
 30
0.0
 10
2.07888
 20
2.90767
 30
0.0
 10
2.06189
 20
2.91899
 30
0.0
 10
2.04477
 20
2.93016
 30
0.0
 10
2.02753
 20
2.94121
 30
0.0
 10
2.02753
 20
2.94121
 30
0.0
 10
2.10862
 20
3.19336
 30
0.0
 10
2.01987
 20
3.46544
 30
0.0
 10
1.81692
 20
3.6233
 30
0.0
 10
1.81692
 20
3.6233
 30
0.0
 10
1.81692
 20
3.6233
 30
0.0
 10
2.56114
 20
5.42
 30
0.0
 10
2.56114
 20
5.42
 30
0.0
 10
2.56114
 20
5.42
 30
0.0
 10
2.61422
 20
5.39627
 30
0.0
 10
2.66679
 20
5.37186
 30
0.0
 10
2.71884
 20
5.34678
 30
0.0
 10
2.71884
 20
5.34678
 30
0.0
 10
2.54973
 20
4.90674
 30
0.0
 10
2.76141
 20
4.40961
 30
0.0
 10
3.19955
 20
4.22813
 30
0.0
 10
3.19955
 20
4.22813
 30
0.0
 10
3.52602
 20
4.0929
 30
0.0
 10
3.88757
 20
4.17058
 30
0.0
 10
4.12989
 20
4.39721
 30
0.0
 10
4.12989
 20
4.39721
 30
0.0
 10
4.16731
 20
4.36325
 30
0.0
 10
4.20424
 20
4.32887
 30
0.0
 10
4.24067
 20
4.29407
 30
0.0
  0
SPLINE
  5
5E
330
1F
100
AcDbEntity
  8
Layer 1
370
    53
100
AcDbSpline
210
0.0
220
0.0
230
1.0
 70
    11
 71
     3
 72
    20
 73
    16
 74
     0
 42
0.0000000001
 43
0.0000000001
 12
1.0
 22
0.0
 32
0.0
 13
1.0
 23
0.0
 33
0.0
 40
0.0
 40
0.0
 40
0.0
 40
0.0
 40
0.2
 40
0.2
 40
0.2
 40
0.2
 40
0.4
 40
0.4
 40
0.4
 40
0.4
 40
0.6
 40
0.6
 40
0.6
 40
0.6
 40
1.0
 40
1.0
 40
1.0
 40
1.0
 10
1.47927
 20
0.64454
 30
0.0
 10
1.42253
 20
0.76349
 30
0.0
 10
1.34927
 20
0.87653
 30
0.0
 10
1.2594
 20
0.98016
 30
0.0
 10
1.2594
 20
0.98016
 30
0.0
 10
1.2594
 20
0.98016
 30
0.0
 10
2.23509
 20
1.95584
 30
0.0
 10
2.23509
 20
1.95584
 30
0.0
 10
2.23509
 20
1.95584
 30
0.0
 10
2.45808
 20
1.71755
 30
0.0
 10
2.63292
 20
1.45067
 30
0.0
 10
2.75971
 20
1.16744
 30
0.0
 10
2.75971
 20
1.16744
 30
0.0
 10
2.75971
 20
1.16744
 30
0.0
 10
1.47927
 20
0.64454
 30
0.0
 10
1.47927
 20
0.64454
 30
0.0
  0
SPLINE
  5
5F
330
1F
100
AcDbEntity
  8
Layer 1
370
    53
100
AcDbSpline
210
0.0
220
0.0
230
1.0
 70
    11
 71
     3
 72
    48
 73
    44
 74
     0
 42
0.0000000001
 43
0.0000000001
 12
1.0
 22
0.0
 32
0.0
 13
1.0
 23
0.0
 33
0.0
 40
0.0
 40
0.0
 40
0.0
 40
0.0
 40
0.0833333333333333
 40
0.0833333333333333
 40
0.0833333333333333
 40
0.0833333333333333
 40
0.1666666666666667
 40
0.1666666666666667
 40
0.1666666666666667
 40
0.1666666666666667
 40
0.25
 40
0.25
 40
0.25
 40
0.25
 40
0.3333333333333333
 40
0.3333333333333333
 40
0.3333333333333333
 40
0.3333333333333333
 40
0.4166666666666667
 40
0.4166666666666667
 40
0.4166666666666667
 40
0.4166666666666667
 40
0.5
 40
0.5
 40
0.5
 40
0.5
 40
0.5833333333333334
 40
0.5833333333333334
 40
0.5833333333333334
 40
0.5833333333333334
 40
0.6666666666666666
 40
0.6666666666666666
 40
0.6666666666666666
 40
0.6666666666666666
 40
0.75
 40
0.75
 40
0.75
 40
0.75
 40
0.8333333333333334
 40
0.8333333333333334
 40
0.8333333333333334
 40
0.8333333333333334
 40
1.0
 40
1.0
 40
1.0
 40
1.0
 10
5.57335
 20
2.39771
 30
0.0
 10
5.57335
 20
2.39771
 30
0.0
 10
3.75818
 20
1.64583
 30
0.0
 10
3.75818
 20
1.64583
 30
0.0
 10
3.75818
 20
1.64583
 30
0.0
 10
3.74148
 20
1.6677
 30
0.0
 10
3.72315
 20
1.68872
 30
0.0
 10
3.70315
 20
1.70872
 30
0.0
 10
3.70315
 20
1.70872
 30
0.0
 10
3.53828
 20
1.87358
 30
0.0
 10
3.30406
 20
1.92677
 30
0.0
 10
3.09442
 20
1.86833
 30
0.0
 10
3.09442
 20
1.86833
 30
0.0
 10
3.07892
 20
1.89271
 30
0.0
 10
3.06309
 20
1.91695
 30
0.0
 10
3.04694
 20
1.94103
 30
0.0
 10
3.04694
 20
1.94103
 30
0.0
 10
3.03557
 20
1.95799
 30
0.0
 10
3.02404
 20
1.97486
 30
0.0
 10
3.01233
 20
1.99166
 30
0.0
 10
3.01233
 20
1.99166
 30
0.0
 10
3.18464
 20
2.19464
 30
0.0
 10
3.20613
 20
2.48191
 30
0.0
 10
3.0768
 20
2.70593
 30
0.0
 10
3.0768
 20
2.70593
 30
0.0
 10
3.0768
 20
2.70593
 30
0.0
 10
4.45126
 20
4.08039
 30
0.0
 10
4.45126
 20
4.08039
 30
0.0
 10
4.45126
 20
4.08039
 30
0.0
 10
4.49215
 20
4.03723
 30
0.0
 10
4.53225
 20
3.99362
 30
0.0
 10
4.5716
 20
3.94957
 30
0.0
 10
4.5716
 20
3.94957
 30
0.0
 10
4.24696
 20
3.60774
 30
0.0
 10
4.25229
 20
3.06745
 30
0.0
 10
4.58763
 20
2.73211
 30
0.0
 10
4.58763
 20
2.73211
 30
0.0
 10
4.83749
 20
2.48224
 30
0.0
 10
5.20127
 20
2.41565
 30
0.0
 10
5.51185
 20
2.53229
 30
0.0
 10
5.51185
 20
2.53229
 30
0.0
 10
5.53294
 20
2.48762
 30
0.0
 10
5.55344
 20
2.44276
 30
0.0
 10
5.57335
 20
2.39771
 30
0.0
  0
SPLINE
  5
60
330
1F
100
AcDbEntity
  8
Layer 1
370
    53
100
AcDbSpline
210
0.0
220
0.0
230
1.0
 70
    11
 71
     3
 72
    48
 73
    44
 74
     0
 42
0.0000000001
 43
0.0000000001
 12
1.0
 22
0.0
 32
0.0
 13
1.0
 23
0.0
 33
0.0
 40
0.0
 40
0.0
 40
0.0
 40
0.0
 40
0.0833333333333333
 40
0.0833333333333333
 40
0.0833333333333333
 40
0.0833333333333333
 40
0.1666666666666667
 40
0.1666666666666667
 40
0.1666666666666667
 40
0.1666666666666667
 40
0.25
 40
0.25
 40
0.25
 40
0.25
 40
0.3333333333333333
 40
0.3333333333333333
 40
0.3333333333333333
 40
0.3333333333333333
 40
0.4166666666666667
 40
0.4166666666666667
 40
0.4166666666666667
 40
0.4166666666666667
 40
0.5
 40
0.5
 40
0.5
 40
0.5
 40
0.5833333333333334
 40
0.5833333333333334
 40
0.5833333333333334
 40
0.5833333333333334
 40
0.6666666666666666
 40
0.6666666666666666
 40
0.6666666666666666
 40
0.6666666666666666
 40
0.75
 40
0.75
 40
0.75
 40
0.75
 40
0.8333333333333334
 40
0.8333333333333334
 40
0.8333333333333334
 40
0.8333333333333334
 40
1.0
 40
1.0
 40
1.0
 40
1.0
 10
-3.49322
 20
1.68247
 30
0.0
 10
-3.49322
 20
1.68247
 30
0.0
 10
-5.29212
 20
2.4276
 30
0.0
 10
-5.29212
 20
2.4276
 30
0.0
 10
-5.29212
 20
2.4276
 30
0.0
 10
-5.26961
 20
2.47776
 30
0.0
 10
-5.24647
 20
2.52747
 30
0.0
 10
-5.22274
 20
2.57671
 30
0.0
 10
-5.22274
 20
2.57671
 30
0.0
 10
-4.7827
 20
2.4076
 30
0.0
 10
-4.28557
 20
2.61928
 30
0.0
 10
-4.10409
 20
3.05743
 30
0.0
 10
-4.10409
 20
3.05743
 30
0.0
 10
-3.96886
 20
3.38389
 30
0.0
 10
-4.04654
 20
3.74544
 30
0.0
 10
-4.27317
 20
3.98776
 30
0.0
 10
-4.27317
 20
3.98776
 30
0.0
 10
-4.23634
 20
4.02834
 30
0.0
 10
-4.19902
 20
4.06834
 30
0.0
 10
-4.1612
 20
4.10776
 30
0.0
 10
-4.1612
 20
4.10776
 30
0.0
 10
-4.1612
 20
4.10776
 30
0.0
 10
-2.77453
 20
2.72109
 30
0.0
 10
-2.77453
 20
2.72109
 30
0.0
 10
-2.77453
 20
2.72109
 30
0.0
 10
-2.79182
 20
2.69307
 30
0.0
 10
-2.80711
 20
2.66331
 30
0.0
 10
-2.82012
 20
2.63191
 30
0.0
 10
-2.82012
 20
2.63191
 30
0.0
 10
-2.90934
 20
2.4165
 30
0.0
 10
-2.86885
 20
2.17975
 30
0.0
 10
-2.73464
 20
2.00843
 30
0.0
 10
-2.73464
 20
2.00843
 30
0.0
 10
-2.75122
 20
1.98479
 30
0.0
 10
-2.76756
 20
1.96089
 30
0.0
 10
-2.78364
 20
1.93675
 30
0.0
 10
-2.78364
 20
1.93675
 30
0.0
 10
-2.79495
 20
1.91976
 30
0.0
 10
-2.80612
 20
1.90264
 30
0.0
 10
-2.81717
 20
1.8854
 30
0.0
 10
-2.81717
 20
1.8854
 30
0.0
 10
-3.06613
 20
1.96545
 30
0.0
 10
-3.33453
 20
1.87998
 30
0.0
 10
-3.49322
 20
1.68247
 30
0.0
  0
SPLINE
  5
61
330
1F
100
AcDbEntity
  8
Layer 1
370
    53
100
AcDbSpline
210
0.0
220
0.0
230
1.0
 70
    11
 71
     3
 72
    44
 73
    40
 74
     0
 42
0.0000000001
 43
0.0000000001
 12
1.0
 22
0.0
 32
0.0
 13
1.0
 23
0.0
 33
0.0
 40
0.0
 40
0.0
 40
0.0
 40
0.0
 40
0.0909090909090909
 40
0.0909090909090909
 40
0.0909090909090909
 40
0.0909090909090909
 40
0.1818181818181818
 40
0.1818181818181818
 40
0.1818181818181818
 40
0.1818181818181818
 40
0.2727272727272727
 40
0.2727272727272727
 40
0.2727272727272727
 40
0.2727272727272727
 40
0.3636363636363636
 40
0.3636363636363636
 40
0.3636363636363636
 40
0.3636363636363636
 40
0.4545454545454545
 40
0.4545454545454545
 40
0.4545454545454545
 40
0.4545454545454545
 40
0.5454545454545454
 40
0.5454545454545454
 40
0.5454545454545454
 40
0.5454545454545454
 40
0.6363636363636364
 40
0.6363636363636364
 40
0.6363636363636364
 40
0.6363636363636364
 40
0.7272727272727273
 40
0.7272727272727273
 40
0.7272727272727273
 40
0.7272727272727273
 40
0.8181818181818182
 40
0.8181818181818182
 40
0.8181818181818182
 40
0.8181818181818182
 40
1.0
 40
1.0
 40
1.0
 40
1.0
 10
-0.2475
 20
-3.90186
 30
0.0
 10
-0.2475
 20
-3.90186
 30
0.0
 10
-0.2475
 20
-5.70307
 30
0.0
 10
-0.2475
 20
-5.70307
 30
0.0
 10
-0.2475
 20
-5.70307
 30
0.0
 10
-0.36016
 20
-5.3516
 30
0.0
 10
-0.68955
 20
-5.09717
 30
0.0
 10
-1.07846
 20
-5.09717
 30
0.0
 10
-1.07846
 20
-5.09717
 30
0.0
 10
-1.43183
 20
-5.09717
 30
0.0
 10
-1.73613
 20
-5.30731
 30
0.0
 10
-1.87328
 20
-5.6094
 30
0.0
 10
-1.87328
 20
-5.6094
 30
0.0
 10
-1.92168
 20
-5.59205
 30
0.0
 10
-1.96976
 20
-5.5741
 30
0.0
 10
-2.01755
 20
-5.55555
 30
0.0
 10
-2.01755
 20
-5.55555
 30
0.0
 10
-2.01755
 20
-5.55555
 30
0.0
 10
-1.26622
 20
-3.74169
 30
0.0
 10
-1.26622
 20
-3.74169
 30
0.0
 10
-1.26622
 20
-3.74169
 30
0.0
 10
-1.23699
 20
-3.74591
 30
0.0
 10
-1.2071
 20
-3.7481
 30
0.0
 10
-1.1767
 20
-3.74811
 30
0.0
 10
-1.1767
 20
-3.74811
 30
0.0
 10
-0.94354
 20
-3.7481
 30
0.0
 10
-0.74031
 20
-3.62009
 30
0.0
 10
-0.63339
 20
-3.43053
 30
0.0
 10
-0.63339
 20
-3.43053
 30
0.0
 10
-0.6052
 20
-3.43681
 30
0.0
 10
-0.57686
 20
-3.44276
 30
0.0
 10
-0.54841
 20
-3.44836
 30
0.0
 10
-0.54841
 20
-3.44836
 30
0.0
 10
-0.52839
 20
-3.45231
 30
0.0
 10
-0.50829
 20
-3.45611
 30
0.0
 10
-0.48814
 20
-3.45969
 30
0.0
 10
-0.48814
 20
-3.45969
 30
0.0
 10
-0.47344
 20
-3.63951
 30
0.0
 10
-0.3824
 20
-3.7977
 30
0.0
 10
-0.2475
 20
-3.90186
 30
0.0
  0
SPLINE
  5
62
330
1F
100
AcDbEntity
  8
Layer 1
370
    53
100
AcDbSpline
210
0.0
220
0.0
230
1.0
 70
    11
 71
     3
 72
    20
 73
    16
 74
     0
 42
0.0000000001
 43
0.0000000001
 12
1.0
 22
0.0
 32
0.0
 13
1.0
 23
0.0
 33
0.0
 40
0.0
 40
0.0
 40
0.0
 40
0.0
 40
0.2
 40
0.2
 40
0.2
 40
0.2
 40
0.4
 40
0.4
 40
0.4
 40
0.4
 40
0.6
 40
0.6
 40
0.6
 40
0.6
 40
1.0
 40
1.0
 40
1.0
 40
1.0
 10
-0.2475
 20
-1.45709
 30
0.0
 10
-0.2475
 20
-1.45709
 30
0.0
 10
-0.2475
 20
-2.86141
 30
0.0
 10
-0.2475
 20
-2.86141
 30
0.0
 10
-0.2475
 20
-2.86141
 30
0.0
 10
-0.4716
 20
-2.83179
 30
0.0
 10
-0.68757
 20
-2.77638
 30
0.0
 10
-0.89233
 20
-2.69826
 30
0.0
 10
-0.89233
 20
-2.69826
 30
0.0
 10
-0.89233
 20
-2.69826
 30
0.0
 10
-0.35666
 20
-1.4231
 30
0.0
 10
-0.35666
 20
-1.4231
 30
0.0
 10
-0.35666
 20
-1.4231
 30
0.0
 10
-0.32088
 20
-1.43577
 30
0.0
 10
-0.28447
 20
-1.44711
 30
0.0
 10
-0.2475
 20
-1.45709
 30
0.0
  0
SPLINE
  5
63
330
1F
100
AcDbEntity
  8
Layer 1
370
    53
100
AcDbSpline
210
0.0
220
0.0
230
1.0
 70
    11
 71
     3
 72
    20
 73
    16
 74
     0
 42
0.0000000001
 43
0.0000000001
 12
1.0
 22
0.0
 32
0.0
 13
1.0
 23
0.0
 33
0.0
 40
0.0
 40
0.0
 40
0.0
 40
0.0
 40
0.2
 40
0.2
 40
0.2
 40
0.2
 40
0.4
 40
0.4
 40
0.4
 40
0.4
 40
0.6
 40
0.6
 40
0.6
 40
0.6
 40
1.0
 40
1.0
 40
1.0
 40
1.0
 10
-0.2475
 20
2.84369
 30
0.0
 10
-0.2475
 20
2.84369
 30
0.0
 10
-0.2475
 20
1.44019
 30
0.0
 10
-0.2475
 20
1.44019
 30
0.0
 10
-0.2475
 20
1.44019
 30
0.0
 10
-0.28172
 20
1.43143
 30
0.0
 10
-0.31583
 20
1.4214
 30
0.0
 10
-0.34979
 20
1.41009
 30
0.0
 10
-0.34979
 20
1.41009
 30
0.0
 10
-0.34979
 20
1.41009
 30
0.0
 10
-0.87783
 20
2.68488
 30
0.0
 10
-0.87783
 20
2.68488
 30
0.0
 10
-0.87783
 20
2.68488
 30
0.0
 10
-0.67024
 20
2.76291
 30
0.0
 10
-0.45895
 20
2.81535
 30
0.0
 10
-0.2475
 20
2.84369
 30
0.0
  0
SPLINE
  5
64
330
1F
100
AcDbEntity
  8
Layer 1
370
    53
100
AcDbSpline
210
0.0
220
0.0
230
1.0
 70
    11
 71
     3
 72
    40
 73
    36
 74
     0
 42
0.0000000001
 43
0.0000000001
 12
1.0
 22
0.0
 32
0.0
 13
1.0
 23
0.0
 33
0.0
 40
0.0
 40
0.0
 40
0.0
 40
0.0
 40
0.1
 40
0.1
 40
0.1
 40
0.1
 40
0.2
 40
0.2
 40
0.2
 40
0.2
 40
0.3
 40
0.3
 40
0.3
 40
0.3
 40
0.4
 40
0.4
 40
0.4
 40
0.4
 40
0.5
 40
0.5
 40
0.5
 40
0.5
 40
0.6
 40
0.6
 40
0.6
 40
0.6
 40
0.7
 40
0.7
 40
0.7
 40
0.7
 40
0.8
 40
0.8
 40
0.8
 40
0.8
 40
1.0
 40
1.0
 40
1.0
 40
1.0
 10
-0.2475
 20
5.57288
 30
0.0
 10
-0.2475
 20
5.57288
 30
0.0
 10
-0.2475
 20
3.85039
 30
0.0
 10
-0.2475
 20
3.85039
 30
0.0
 10
-0.2475
 20
3.85039
 30
0.0
 10
-0.37102
 20
3.74788
 30
0.0
 10
-0.44912
 20
3.60185
 30
0.0
 10
-0.46813
 20
3.44531
 30
0.0
 10
-0.46813
 20
3.44531
 30
0.0
 10
-0.49658
 20
3.44032
 30
0.0
 10
-0.52504
 20
3.43498
 30
0.0
 10
-0.55347
 20
3.42927
 30
0.0
 10
-0.55347
 20
3.42927
 30
0.0
 10
-0.57348
 20
3.42525
 30
0.0
 10
-0.59347
 20
3.42106
 30
0.0
 10
-0.61348
 20
3.41667
 30
0.0
 10
-0.61348
 20
3.41667
 30
0.0
 10
-0.73332
 20
3.65012
 30
0.0
 10
-0.98486
 20
3.77954
 30
0.0
 10
-1.2376
 20
3.75092
 30
0.0
 10
-1.2376
 20
3.75092
 30
0.0
 10
-1.2376
 20
3.75092
 30
0.0
 10
-1.98248
 20
5.54923
 30
0.0
 10
-1.98248
 20
5.54923
 30
0.0
 10
-1.98248
 20
5.54923
 30
0.0
 10
-1.93031
 20
5.5691
 30
0.0
 10
-1.87803
 20
5.58819
 30
0.0
 10
-1.82565
 20
5.60651
 30
0.0
 10
-1.82565
 20
5.60651
 30
0.0
 10
-1.63409
 20
5.17576
 30
0.0
 10
-1.13287
 20
4.97393
 30
0.0
 10
-0.69474
 20
5.15541
 30
0.0
 10
-0.69474
 20
5.15541
 30
0.0
 10
-0.49213
 20
5.23933
 30
0.0
 10
-0.33798
 20
5.39078
 30
0.0
 10
-0.2475
 20
5.57288
 30
0.0
  0
SPLINE
  5
65
330
1F
100
AcDbEntity
  8
Layer 1
370
    53
100
AcDbSpline
210
0.0
220
0.0
230
1.0
 70
    11
 71
     3
 72
    44
 73
    40
 74
     0
 42
0.0000000001
 43
0.0000000001
 12
1.0
 22
0.0
 32
0.0
 13
1.0
 23
0.0
 33
0.0
 40
0.0
 40
0.0
 40
0.0
 40
0.0
 40
0.0909090909090909
 40
0.0909090909090909
 40
0.0909090909090909
 40
0.0909090909090909
 40
0.1818181818181818
 40
0.1818181818181818
 40
0.1818181818181818
 40
0.1818181818181818
 40
0.2727272727272727
 40
0.2727272727272727
 40
0.2727272727272727
 40
0.2727272727272727
 40
0.3636363636363636
 40
0.3636363636363636
 40
0.3636363636363636
 40
0.3636363636363636
 40
0.4545454545454545
 40
0.4545454545454545
 40
0.4545454545454545
 40
0.4545454545454545
 40
0.5454545454545454
 40
0.5454545454545454
 40
0.5454545454545454
 40
0.5454545454545454
 40
0.6363636363636364
 40
0.6363636363636364
 40
0.6363636363636364
 40
0.6363636363636364
 40
0.7272727272727273
 40
0.7272727272727273
 40
0.7272727272727273
 40
0.7272727272727273
 40
0.8181818181818182
 40
0.8181818181818182
 40
0.8181818181818182
 40
0.8181818181818182
 40
1.0
 40
1.0
 40
1.0
 40
1.0
 10
0.5525
 20
3.85117
 30
0.0
 10
0.5525
 20
3.85117
 30
0.0
 10
0.5525
 20
5.58542
 30
0.0
 10
0.5525
 20
5.58542
 30
0.0
 10
0.5525
 20
5.58542
 30
0.0
 10
0.69091
 20
5.28647
 30
0.0
 10
0.99351
 20
5.07908
 30
0.0
 10
1.34463
 20
5.07908
 30
0.0
 10
1.34463
 20
5.07908
 30
0.0
 10
1.698
 20
5.07908
 30
0.0
 10
2.0023
 20
5.28921
 30
0.0
 10
2.13945
 20
5.59131
 30
0.0
 10
2.13945
 20
5.59131
 30
0.0
 10
2.18824
 20
5.57382
 30
0.0
 10
2.23672
 20
5.55572
 30
0.0
 10
2.28489
 20
5.53701
 30
0.0
 10
2.28489
 20
5.53701
 30
0.0
 10
2.28489
 20
5.53701
 30
0.0
 10
1.53367
 20
3.72341
 30
0.0
 10
1.53367
 20
3.72341
 30
0.0
 10
1.53367
 20
3.72341
 30
0.0
 10
1.50403
 20
3.72775
 30
0.0
 10
1.47372
 20
3.73001
 30
0.0
 10
1.44287
 20
3.73002
 30
0.0
 10
1.44287
 20
3.73002
 30
0.0
 10
1.20971
 20
3.73001
 30
0.0
 10
1.00648
 20
3.602
 30
0.0
 10
0.89956
 20
3.41244
 30
0.0
 10
0.89956
 20
3.41244
 30
0.0
 10
0.87137
 20
3.41872
 30
0.0
 10
0.84303
 20
3.42467
 30
0.0
 10
0.81458
 20
3.43027
 30
0.0
 10
0.81458
 20
3.43027
 30
0.0
 10
0.79456
 20
3.43422
 30
0.0
 10
0.77446
 20
3.43801
 30
0.0
 10
0.7543
 20
3.4416
 30
0.0
 10
0.7543
 20
3.4416
 30
0.0
 10
0.74107
 20
3.60357
 30
0.0
 10
0.66588
 20
3.74798
 30
0.0
 10
0.5525
 20
3.85117
 30
0.0
  0
SPLINE
  5
66
330
1F
100
AcDbEntity
  8
Layer 1
370
    53
100
AcDbSpline
210
0.0
220
0.0
230
1.0
 70
    11
 71
     3
 72
    20
 73
    16
 74
     0
 42
0.0000000001
 43
0.0000000001
 12
1.0
 22
0.0
 32
0.0
 13
1.0
 23
0.0
 33
0.0
 40
0.0
 40
0.0
 40
0.0
 40
0.0
 40
0.2
 40
0.2
 40
0.2
 40
0.2
 40
0.4
 40
0.4
 40
0.4
 40
0.4
 40
0.6
 40
0.6
 40
0.6
 40
0.6
 40
1.0
 40
1.0
 40
1.0
 40
1.0
 10
0.5525
 20
1.42809
 30
0.0
 10
0.5525
 20
1.42809
 30
0.0
 10
0.5525
 20
2.83747
 30
0.0
 10
0.5525
 20
2.83747
 30
0.0
 10
0.5525
 20
2.83747
 30
0.0
 10
0.76408
 20
2.80685
 30
0.0
 10
0.96822
 20
2.75321
 30
0.0
 10
1.16229
 20
2.67917
 30
0.0
 10
1.16229
 20
2.67917
 30
0.0
 10
1.16229
 20
2.67917
 30
0.0
 10
0.62662
 20
1.40401
 30
0.0
 10
0.62662
 20
1.40401
 30
0.0
 10
0.62662
 20
1.40401
 30
0.0
 10
0.6022
 20
1.41266
 30
0.0
 10
0.57749
 20
1.42069
 30
0.0
 10
0.5525
 20
1.42809
 30
0.0
  0
SPLINE
  5
67
330
1F
100
AcDbEntity
  8
Layer 1
370
    53
100
AcDbSpline
210
0.0
220
0.0
230
1.0
 70
    11
 71
     3
 72
    20
 73
    16
 74
     0
 42
0.0000000001
 43
0.0000000001
 12
1.0
 22
0.0
 32
0.0
 13
1.0
 23
0.0
 33
0.0
 40
0.0
 40
0.0
 40
0.0
 40
0.0
 40
0.2
 40
0.2
 40
0.2
 40
0.2
 40
0.4
 40
0.4
 40
0.4
 40
0.4
 40
0.6
 40
0.6
 40
0.6
 40
0.6
 40
1.0
 40
1.0
 40
1.0
 40
1.0
 10
0.5525
 20
-2.8563
 30
0.0
 10
0.5525
 20
-2.8563
 30
0.0
 10
0.5525
 20
-1.44778
 30
0.0
 10
0.5525
 20
-1.44778
 30
0.0
 10
0.5525
 20
-1.44778
 30
0.0
 10
0.57371
 20
-1.44174
 30
0.0
 10
0.59486
 20
-1.43521
 30
0.0
 10
0.61596
 20
-1.42818
 30
0.0
 10
0.61596
 20
-1.42818
 30
0.0
 10
0.61596
 20
-1.42818
 30
0.0
 10
1.144
 20
-2.70297
 30
0.0
 10
1.144
 20
-2.70297
 30
0.0
 10
1.144
 20
-2.70297
 30
0.0
 10
0.94912
 20
-2.77623
 30
0.0
 10
0.75097
 20
-2.82692
 30
0.0
 10
0.5525
 20
-2.8563
 30
0.0
  0
SPLINE
  5
68
330
1F
100
AcDbEntity
  8
Layer 1
370
    53
100
AcDbSpline
210
0.0
220
0.0
230
1.0
 70
    11
 71
     3
 72
    40
 73
    36
 74
     0
 42
0.0000000001
 43
0.0000000001
 12
1.0
 22
0.0
 32
0.0
 13
1.0
 23
0.0
 33
0.0
 40
0.0
 40
0.0
 40
0.0
 40
0.0
 40
0.1
 40
0.1
 40
0.1
 40
0.1
 40
0.2
 40
0.2
 40
0.2
 40
0.2
 40
0.3
 40
0.3
 40
0.3
 40
0.3
 40
0.4
 40
0.4
 40
0.4
 40
0.4
 40
0.5
 40
0.5
 40
0.5
 40
0.5
 40
0.6
 40
0.6
 40
0.6
 40
0.6
 40
0.7
 40
0.7
 40
0.7
 40
0.7
 40
0.8
 40
0.8
 40
0.8
 40
0.8
 40
1.0
 40
1.0
 40
1.0
 40
1.0
 10
0.5525
 20
-5.52106
 30
0.0
 10
0.5525
 20
-5.52106
 30
0.0
 10
0.5525
 20
-3.83337
 30
0.0
 10
0.5525
 20
-3.83337
 30
0.0
 10
0.5525
 20
-3.83337
 30
0.0
 10
0.65354
 20
-3.73393
 30
0.0
 10
0.71736
 20
-3.60284
 30
0.0
 10
0.7343
 20
-3.4634
 30
0.0
 10
0.7343
 20
-3.4634
 30
0.0
 10
0.76275
 20
-3.45841
 30
0.0
 10
0.79121
 20
-3.45307
 30
0.0
 10
0.81964
 20
-3.44736
 30
0.0
 10
0.81964
 20
-3.44736
 30
0.0
 10
0.83965
 20
-3.44334
 30
0.0
 10
0.85966
 20
-3.43915
 30
0.0
 10
0.87965
 20
-3.43476
 30
0.0
 10
0.87965
 20
-3.43476
 30
0.0
 10
1.00194
 20
-3.67298
 30
0.0
 10
1.26135
 20
-3.80285
 30
0.0
 10
1.51926
 20
-3.76703
 30
0.0
 10
1.51926
 20
-3.76703
 30
0.0
 10
1.51926
 20
-3.76703
 30
0.0
 10
2.26273
 20
-5.56194
 30
0.0
 10
2.26273
 20
-5.56194
 30
0.0
 10
2.26273
 20
-5.56194
 30
0.0
 10
2.20589
 20
-5.58375
 30
0.0
 10
2.14891
 20
-5.60463
 30
0.0
 10
2.09182
 20
-5.6246
 30
0.0
 10
2.09182
 20
-5.6246
 30
0.0
 10
1.90025
 20
-5.19385
 30
0.0
 10
1.39904
 20
-4.99202
 30
0.0
 10
0.96091
 20
-5.1735
 30
0.0
 10
0.96091
 20
-5.1735
 30
0.0
 10
0.78486
 20
-5.24642
 30
0.0
 10
0.6454
 20
-5.37036
 30
0.0
 10
0.5525
 20
-5.52106
 30
0.0
  0
SPLINE
  5
69
330
1F
100
AcDbEntity
  8
Layer 1
370
    53
100
AcDbSpline
210
0.0
220
0.0
230
1.0
 70
    11
 71
     3
 72
    40
 73
    36
 74
     0
 42
0.0000000001
 43
0.0000000001
 12
1.0
 22
0.0
 32
0.0
 13
1.0
 23
0.0
 33
0.0
 40
0.0
 40
0.0
 40
0.0
 40
0.0
 40
0.1
 40
0.1
 40
0.1
 40
0.1
 40
0.2
 40
0.2
 40
0.2
 40
0.2
 40
0.3
 40
0.3
 40
0.3
 40
0.3
 40
0.4
 40
0.4
 40
0.4
 40
0.4
 40
0.5
 40
0.5
 40
0.5
 40
0.5
 40
0.6
 40
0.6
 40
0.6
 40
0.6
 40
0.7
 40
0.7
 40
0.7
 40
0.7
 40
0.8
 40
0.8
 40
0.8
 40
0.8
 40
1.0
 40
1.0
 40
1.0
 40
1.0
 10
-3.71755
 20
-0.40002
 30
0.0
 10
-3.71755
 20
-0.40002
 30
0.0
 10
-5.4286
 20
-0.40002
 30
0.0
 10
-5.4286
 20
-0.40002
 30
0.0
 10
-5.4286
 20
-0.40002
 30
0.0
 10
-5.25555
 20
-0.49167
 30
0.0
 10
-5.11216
 20
-0.64182
 30
0.0
 10
-5.03137
 20
-0.83687
 30
0.0
 10
-5.03137
 20
-0.83687
 30
0.0
 10
-4.84989
 20
-1.275
 30
0.0
 10
-5.05172
 20
-1.77621
 30
0.0
 10
-5.48246
 20
-1.96778
 30
0.0
 10
-5.48246
 20
-1.96778
 30
0.0
 10
-5.46405
 20
-2.02044
 30
0.0
 10
-5.44486
 20
-2.073
 30
0.0
 10
-5.42488
 20
-2.12544
 30
0.0
 10
-5.42488
 20
-2.12544
 30
0.0
 10
-5.42488
 20
-2.12544
 30
0.0
 10
-3.62676
 20
-1.38063
 30
0.0
 10
-3.62676
 20
-1.38063
 30
0.0
 10
-3.62676
 20
-1.38063
 30
0.0
 10
-3.6558
 20
-1.12758
 30
0.0
 10
-3.52636
 20
-0.8756
 30
0.0
 10
-3.29263
 20
-0.75561
 30
0.0
 10
-3.29263
 20
-0.75561
 30
0.0
 10
-3.29703
 20
-0.73562
 30
0.0
 10
-3.30121
 20
-0.71561
 30
0.0
 10
-3.30523
 20
-0.6956
 30
0.0
 10
-3.30523
 20
-0.6956
 30
0.0
 10
-3.31094
 20
-0.66717
 30
0.0
 10
-3.31628
 20
-0.63871
 30
0.0
 10
-3.32127
 20
-0.61026
 30
0.0
 10
-3.32127
 20
-0.61026
 30
0.0
 10
-3.47338
 20
-0.59179
 30
0.0
 10
-3.61557
 20
-0.51753
 30
0.0
 10
-3.71755
 20
-0.40002
 30
0.0
  0
SPLINE
  5
6A
330
1F
100
AcDbEntity
  8
Layer 1
370
    53
100
AcDbSpline
210
0.0
220
0.0
230
1.0
 70
    11
 71
     3
 72
    20
 73
    16
 74
     0
 42
0.0000000001
 43
0.0000000001
 12
1.0
 22
0.0
 32
0.0
 13
1.0
 23
0.0
 33
0.0
 40
0.0
 40
0.0
 40
0.0
 40
0.0
 40
0.2
 40
0.2
 40
0.2
 40
0.2
 40
0.4
 40
0.4
 40
0.4
 40
0.4
 40
0.6
 40
0.6
 40
0.6
 40
0.6
 40
1.0
 40
1.0
 40
1.0
 40
1.0
 10
-1.31346
 20
-0.40002
 30
0.0
 10
-1.31346
 20
-0.40002
 30
0.0
 10
-2.71823
 20
-0.40002
 30
0.0
 10
-2.71823
 20
-0.40002
 30
0.0
 10
-2.71823
 20
-0.40002
 30
0.0
 10
-2.68958
 20
-0.608
 30
0.0
 10
-2.6376
 20
-0.81577
 30
0.0
 10
-2.56084
 20
-1.01996
 30
0.0
 10
-2.56084
 20
-1.01996
 30
0.0
 10
-2.56084
 20
-1.01996
 30
0.0
 10
-1.28605
 20
-0.49192
 30
0.0
 10
-1.28605
 20
-0.49192
 30
0.0
 10
-1.28605
 20
-0.49192
 30
0.0
 10
-1.29622
 20
-0.4614
 30
0.0
 10
-1.30536
 20
-0.43075
 30
0.0
 10
-1.31346
 20
-0.40002
 30
0.0
  0
SPLINE
  5
6B
330
1F
100
AcDbEntity
  8
Layer 1
370
    53
100
AcDbSpline
210
0.0
220
0.0
230
1.0
 70
    11
 71
     3
 72
    20
 73
    16
 74
     0
 42
0.0000000001
 43
0.0000000001
 12
1.0
 22
0.0
 32
0.0
 13
1.0
 23
0.0
 33
0.0
 40
0.0
 40
0.0
 40
0.0
 40
0.0
 40
0.2
 40
0.2
 40
0.2
 40
0.2
 40
0.4
 40
0.4
 40
0.4
 40
0.4
 40
0.6
 40
0.6
 40
0.6
 40
0.6
 40
1.0
 40
1.0
 40
1.0
 40
1.0
 10
2.98405
 20
-0.40002
 30
0.0
 10
2.98405
 20
-0.40002
 30
0.0
 10
1.57829
 20
-0.40002
 30
0.0
 10
1.57829
 20
-0.40002
 30
0.0
 10
1.57829
 20
-0.40002
 30
0.0
 10
1.56902
 20
-0.43343
 30
0.0
 10
1.55862
 20
-0.46636
 30
0.0
 10
1.54714
 20
-0.49879
 30
0.0
 10
1.54714
 20
-0.49879
 30
0.0
 10
1.54714
 20
-0.49879
 30
0.0
 10
2.8223
 20
-1.03446
 30
0.0
 10
2.8223
 20
-1.03446
 30
0.0
 10
2.8223
 20
-1.03446
 30
0.0
 10
2.89921
 20
-0.83286
 30
0.0
 10
2.9541
 20
-0.6204
 30
0.0
 10
2.98405
 20
-0.40002
 30
0.0
  0
SPLINE
  5
6C
330
1F
100
AcDbEntity
  8
Layer 1
370
    53
100
AcDbSpline
210
0.0
220
0.0
230
1.0
 70
    11
 71
     3
 72
    44
 73
    40
 74
     0
 42
0.0000000001
 43
0.0000000001
 12
1.0
 22
0.0
 32
0.0
 13
1.0
 23
0.0
 33
0.0
 40
0.0
 40
0.0
 40
0.0
 40
0.0
 40
0.0909090909090909
 40
0.0909090909090909
 40
0.0909090909090909
 40
0.0909090909090909
 40
0.1818181818181818
 40
0.1818181818181818
 40
0.1818181818181818
 40
0.1818181818181818
 40
0.2727272727272727
 40
0.2727272727272727
 40
0.2727272727272727
 40
0.2727272727272727
 40
0.3636363636363636
 40
0.3636363636363636
 40
0.3636363636363636
 40
0.3636363636363636
 40
0.4545454545454545
 40
0.4545454545454545
 40
0.4545454545454545
 40
0.4545454545454545
 40
0.5454545454545454
 40
0.5454545454545454
 40
0.5454545454545454
 40
0.5454545454545454
 40
0.6363636363636364
 40
0.6363636363636364
 40
0.6363636363636364
 40
0.6363636363636364
 40
0.7272727272727273
 40
0.7272727272727273
 40
0.7272727272727273
 40
0.7272727272727273
 40
0.8181818181818182
 40
0.8181818181818182
 40
0.8181818181818182
 40
0.8181818181818182
 40
1.0
 40
1.0
 40
1.0
 40
1.0
 10
5.79649
 20
-0.40002
 30
0.0
 10
5.79649
 20
-0.40002
 30
0.0
 10
4.0177
 20
-0.40002
 30
0.0
 10
4.0177
 20
-0.40002
 30
0.0
 10
4.0177
 20
-0.40002
 30
0.0
 10
3.91355
 20
-0.52919
 30
0.0
 10
3.75889
 20
-0.61595
 30
0.0
 10
3.58373
 20
-0.63027
 30
0.0
 10
3.58373
 20
-0.63027
 30
0.0
 10
3.58014
 20
-0.65042
 30
0.0
 10
3.57635
 20
-0.67052
 30
0.0
 10
3.5724
 20
-0.69054
 30
0.0
 10
3.5724
 20
-0.69054
 30
0.0
 10
3.5668
 20
-0.71899
 30
0.0
 10
3.56085
 20
-0.74733
 30
0.0
 10
3.55457
 20
-0.77552
 30
0.0
 10
3.55457
 20
-0.77552
 30
0.0
 10
3.74413
 20
-0.88244
 30
0.0
 10
3.87214
 20
-1.08567
 30
0.0
 10
3.87215
 20
-1.31883
 30
0.0
 10
3.87215
 20
-1.31883
 30
0.0
 10
3.87214
 20
-1.3459
 30
0.0
 10
3.87041
 20
-1.37257
 30
0.0
 10
3.86704
 20
-1.39872
 30
0.0
 10
3.86704
 20
-1.39872
 30
0.0
 10
3.86704
 20
-1.39872
 30
0.0
 10
5.68298
 20
-2.15091
 30
0.0
 10
5.68298
 20
-2.15091
 30
0.0
 10
5.68298
 20
-2.15091
 30
0.0
 10
5.70032
 20
-2.10601
 30
0.0
 10
5.71715
 20
-2.06084
 30
0.0
 10
5.73344
 20
-2.01541
 30
0.0
 10
5.73344
 20
-2.01541
 30
0.0
 10
5.43134
 20
-1.87826
 30
0.0
 10
5.22121
 20
-1.57396
 30
0.0
 10
5.22121
 20
-1.22059
 30
0.0
 10
5.22121
 20
-1.22059
 30
0.0
 10
5.22122
 20
-0.84306
 30
0.0
 10
5.46096
 20
-0.52157
 30
0.0
 10
5.79649
 20
-0.40002
 30
0.0
  0
SPLINE
  5
6D
330
1F
100
AcDbEntity
  8
Layer 1
370
    53
100
AcDbSpline
210
0.0
220
0.0
230
1.0
 70
    11
 71
     3
 72
    40
 73
    36
 74
     0
 42
0.0000000001
 43
0.0000000001
 12
1.0
 22
0.0
 32
0.0
 13
1.0
 23
0.0
 33
0.0
 40
0.0
 40
0.0
 40
0.0
 40
0.0
 40
0.1
 40
0.1
 40
0.1
 40
0.1
 40
0.2
 40
0.2
 40
0.2
 40
0.2
 40
0.3
 40
0.3
 40
0.3
 40
0.3
 40
0.4
 40
0.4
 40
0.4
 40
0.4
 40
0.5
 40
0.5
 40
0.5
 40
0.5
 40
0.6
 40
0.6
 40
0.6
 40
0.6
 40
0.7
 40
0.7
 40
0.7
 40
0.7
 40
0.8
 40
0.8
 40
0.8
 40
0.8
 40
1.0
 40
1.0
 40
1.0
 40
1.0
 10
3.9674
 20
0.39998
 30
0.0
 10
3.9674
 20
0.39998
 30
0.0
 10
5.66236
 20
0.39998
 30
0.0
 10
5.66236
 20
0.39998
 30
0.0
 10
5.66236
 20
0.39998
 30
0.0
 10
5.50386
 20
0.49273
 30
0.0
 10
5.37323
 20
0.63605
 30
0.0
 10
5.29754
 20
0.81878
 30
0.0
 10
5.29754
 20
0.81878
 30
0.0
 10
5.11606
 20
1.25691
 30
0.0
 10
5.31789
 20
1.75812
 30
0.0
 10
5.74864
 20
1.94969
 30
0.0
 10
5.74864
 20
1.94969
 30
0.0
 10
5.72877
 20
2.00651
 30
0.0
 10
5.70799
 20
2.0632
 30
0.0
 10
5.6863
 20
2.11977
 30
0.0
 10
5.6863
 20
2.11977
 30
0.0
 10
5.6863
 20
2.11977
 30
0.0
 10
3.89121
 20
1.37623
 30
0.0
 10
3.89121
 20
1.37623
 30
0.0
 10
3.89121
 20
1.37623
 30
0.0
 10
3.9266
 20
1.11862
 30
0.0
 10
3.79675
 20
0.85967
 30
0.0
 10
3.5588
 20
0.73752
 30
0.0
 10
3.5588
 20
0.73752
 30
0.0
 10
3.56319
 20
0.71753
 30
0.0
 10
3.56738
 20
0.69752
 30
0.0
 10
3.5714
 20
0.67751
 30
0.0
 10
3.5714
 20
0.67751
 30
0.0
 10
3.57711
 20
0.64908
 30
0.0
 10
3.58245
 20
0.62062
 30
0.0
 10
3.58744
 20
0.59217
 30
0.0
 10
3.58744
 20
0.59217
 30
0.0
 10
3.7316
 20
0.57466
 30
0.0
 10
3.86685
 20
0.50704
 30
0.0
 10
3.9674
 20
0.39998
 30
0.0
  0
SPLINE
  5
6E
330
1F
100
AcDbEntity
  8
Layer 1
370
    53
100
AcDbSpline
210
0.0
220
0.0
230
1.0
 70
    11
 71
     3
 72
    20
 73
    16
 74
     0
 42
0.0000000001
 43
0.0000000001
 12
1.0
 22
0.0
 32
0.0
 13
1.0
 23
0.0
 33
0.0
 40
0.0
 40
0.0
 40
0.0
 40
0.0
 40
0.2
 40
0.2
 40
0.2
 40
0.2
 40
0.4
 40
0.4
 40
0.4
 40
0.4
 40
0.6
 40
0.6
 40
0.6
 40
0.6
 40
1.0
 40
1.0
 40
1.0
 40
1.0
 10
1.57474
 20
0.39998
 30
0.0
 10
1.57474
 20
0.39998
 30
0.0
 10
2.98186
 20
0.39998
 30
0.0
 10
2.98186
 20
0.39998
 30
0.0
 10
2.98186
 20
0.39998
 30
0.0
 10
2.95272
 20
0.60192
 30
0.0
 10
2.90155
 20
0.80359
 30
0.0
 10
2.82701
 20
1.00187
 30
0.0
 10
2.82701
 20
1.00187
 30
0.0
 10
2.82701
 20
1.00187
 30
0.0
 10
1.55222
 20
0.47383
 30
0.0
 10
1.55222
 20
0.47383
 30
0.0
 10
1.55222
 20
0.47383
 30
0.0
 10
1.5604
 20
0.44929
 30
0.0
 10
1.5679
 20
0.42466
 30
0.0
 10
1.57474
 20
0.39998
 30
0.0
  0
SPLINE
  5
6F
330
1F
100
AcDbEntity
  8
Layer 1
370
    53
100
AcDbSpline
210
0.0
220
0.0
230
1.0
 70
    11
 71
     3
 72
    20
 73
    16
 74
     0
 42
0.0000000001
 43
0.0000000001
 12
1.0
 22
0.0
 32
0.0
 13
1.0
 23
0.0
 33
0.0
 40
0.0
 40
0.0
 40
0.0
 40
0.0
 40
0.2
 40
0.2
 40
0.2
 40
0.2
 40
0.4
 40
0.4
 40
0.4
 40
0.4
 40
0.6
 40
0.6
 40
0.6
 40
0.6
 40
1.0
 40
1.0
 40
1.0
 40
1.0
 10
-2.71538
 20
0.39998
 30
0.0
 10
-2.71538
 20
0.39998
 30
0.0
 10
-1.30699
 20
0.39998
 30
0.0
 10
-1.30699
 20
0.39998
 30
0.0
 10
-1.30699
 20
0.39998
 30
0.0
 10
-1.29906
 20
0.42722
 30
0.0
 10
-1.29038
 20
0.45413
 30
0.0
 10
-1.28097
 20
0.4807
 30
0.0
 10
-1.28097
 20
0.4807
 30
0.0
 10
-1.28097
 20
0.4807
 30
0.0
 10
-2.55612
 20
1.01637
 30
0.0
 10
-2.55612
 20
1.01637
 30
0.0
 10
-2.55612
 20
1.01637
 30
0.0
 10
-2.63094
 20
0.82028
 30
0.0
 10
-2.68493
 20
0.61392
 30
0.0
 10
-2.71538
 20
0.39998
 30
0.0
  0
SPLINE
  5
70
330
1F
100
AcDbEntity
  8
Layer 1
370
    53
100
AcDbSpline
210
0.0
220
0.0
230
1.0
 70
    11
 71
     3
 72
    44
 73
    40
 74
     0
 42
0.0000000001
 43
0.0000000001
 12
1.0
 22
0.0
 32
0.0
 13
1.0
 23
0.0
 33
0.0
 40
0.0
 40
0.0
 40
0.0
 40
0.0
 40
0.0909090909090909
 40
0.0909090909090909
 40
0.0909090909090909
 40
0.0909090909090909
 40
0.1818181818181818
 40
0.1818181818181818
 40
0.1818181818181818
 40
0.1818181818181818
 40
0.2727272727272727
 40
0.2727272727272727
 40
0.2727272727272727
 40
0.2727272727272727
 40
0.3636363636363636
 40
0.3636363636363636
 40
0.3636363636363636
 40
0.3636363636363636
 40
0.4545454545454545
 40
0.4545454545454545
 40
0.4545454545454545
 40
0.4545454545454545
 40
0.5454545454545454
 40
0.5454545454545454
 40
0.5454545454545454
 40
0.5454545454545454
 40
0.6363636363636364
 40
0.6363636363636364
 40
0.6363636363636364
 40
0.6363636363636364
 40
0.7272727272727273
 40
0.7272727272727273
 40
0.7272727272727273
 40
0.7272727272727273
 40
0.8181818181818182
 40
0.8181818181818182
 40
0.8181818181818182
 40
0.8181818181818182
 40
1.0
 40
1.0
 40
1.0
 40
1.0
 10
-5.4847
 20
0.39998
 30
0.0
 10
-5.4847
 20
0.39998
 30
0.0
 10
-3.73642
 20
0.39998
 30
0.0
 10
-3.73642
 20
0.39998
 30
0.0
 10
-3.73642
 20
0.39998
 30
0.0
 10
-3.63269
 20
0.51916
 30
0.0
 10
-3.48444
 20
0.59854
 30
0.0
 10
-3.31756
 20
0.61218
 30
0.0
 10
-3.31756
 20
0.61218
 30
0.0
 10
-3.31396
 20
0.63233
 30
0.0
 10
-3.31018
 20
0.65243
 30
0.0
 10
-3.30623
 20
0.67245
 30
0.0
 10
-3.30623
 20
0.67245
 30
0.0
 10
-3.30063
 20
0.7009
 30
0.0
 10
-3.29468
 20
0.72924
 30
0.0
 10
-3.2884
 20
0.75743
 30
0.0
 10
-3.2884
 20
0.75743
 30
0.0
 10
-3.47796
 20
0.86435
 30
0.0
 10
-3.60597
 20
1.06758
 30
0.0
 10
-3.60598
 20
1.30074
 30
0.0
 10
-3.60598
 20
1.30074
 30
0.0
 10
-3.60597
 20
1.33491
 30
0.0
 10
-3.6032
 20
1.36843
 30
0.0
 10
-3.5979
 20
1.40111
 30
0.0
 10
-3.5979
 20
1.40111
 30
0.0
 10
-3.5979
 20
1.40111
 30
0.0
 10
-5.40956
 20
2.15152
 30
0.0
 10
-5.40956
 20
2.15152
 30
0.0
 10
-5.40956
 20
2.15152
 30
0.0
 10
-5.42949
 20
2.10047
 30
0.0
 10
-5.44872
 20
2.04907
 30
0.0
 10
-5.46727
 20
1.99732
 30
0.0
 10
-5.46727
 20
1.99732
 30
0.0
 10
-5.16517
 20
1.86017
 30
0.0
 10
-4.95504
 20
1.55587
 30
0.0
 10
-4.95504
 20
1.2025
 30
0.0
 10
-4.95504
 20
1.2025
 30
0.0
 10
-4.95504
 20
0.84232
 30
0.0
 10
-5.17326
 20
0.53319
 30
0.0
 10
-5.4847
 20
0.39998
 30
0.0
  0
SPLINE
  5
71
330
1F
100
AcDbEntity
  8
Layer 1
370
    53
100
AcDbSpline
210
0.0
220
0.0
230
1.0
 70
     8
 71
     3
 72
    16
 73
    12
 74
     0
 42
0.0000000001
 43
0.0000000001
 12
1.0
 22
0.0
 32
0.0
 13
1.0
 23
0.0
 33
0.0
 40
0.0
 40
0.0
 40
0.0
 40
0.0
 40
0.25
 40
0.25
 40
0.25
 40
0.25
 40
0.5
 40
0.5
 40
0.5
 40
0.5
 40
1.0
 40
1.0
 40
1.0
 40
1.0
 10
-6.11157
 20
-0.14291
 30
0.0
 10
-5.45853
 20
-0.14175
 30
0.0
 10
-4.16621
 20
-0.13946
 30
0.0
 10
-3.0625
 20
-0.1375
 30
0.0
 10
-3.0625
 20
-0.1375
 30
0.0
 10
-3.0625
 20
-0.1375
 30
0.0
 10
-3.06875
 20
0.14375
 30
0.0
 10
-3.06875
 20
0.14375
 30
0.0
 10
-3.06875
 20
0.14375
 30
0.0
 10
-3.06875
 20
0.14375
 30
0.0
 10
-6.1117
 20
0.14291
 30
0.0
 10
-6.1117
 20
0.14291
 30
0.0
  0
SPLINE
  5
72
330
1F
100
AcDbEntity
  8
Layer 1
 62
     3
370
    53
100
AcDbSpline
210
0.0
220
0.0
230
1.0
 70
     8
 71
     3
 72
    16
 73
    12
 74
     0
 42
0.0000000001
 43
0.0000000001
 12
1.0
 22
0.0
 32
0.0
 13
1.0
 23
0.0
 33
0.0
 40
0.0
 40
0.0
 40
0.0
 40
0.0
 40
0.25
 40
0.25
 40
0.25
 40
0.25
 40
0.5
 40
0.5
 40
0.5
 40
0.5
 40
1.0
 40
1.0
 40
1.0
 40
1.0
 10
6.3867
 20
-0.14293
 30
0.0
 10
6.32363
 20
-3.00802
 30
0.0
 10
4.2838
 20
-5.54772
 30
0.0
 10
1.35681
 20
-6.12993
 30
0.0
 10
1.35681
 20
-6.12993
 30
0.0
 10
-2.02807
 20
-6.80322
 30
0.0
 10
-5.31911
 20
-4.60422
 30
0.0
 10
-5.99241
 20
-1.21933
 30
0.0
 10
-5.99241
 20
-1.21933
 30
0.0
 10
-6.0642
 20
-0.85843
 30
0.0
 10
-6.10316
 20
-0.49861
 30
0.0
 10
-6.11157
 20
-0.14291
 30
0.0
  0
SPLINE
  5
73
330
1F
100
AcDbEntity
  8
Layer 1
370
    53
100
AcDbSpline
210
0.0
220
0.0
230
1.0
 70
     8
 71
     3
 72
    16
 73
    12
 74
     0
 42
0.0000000001
 43
0.0000000001
 12
1.0
 22
0.0
 32
0.0
 13
1.0
 23
0.0
 33
0.0
 40
0.0
 40
0.0
 40
0.0
 40
0.0
 40
0.25
 40
0.25
 40
0.25
 40
0.25
 40
0.5
 40
0.5
 40
0.5
 40
0.5
 40
1.0
 40
1.0
 40
1.0
 40
1.0
 10
6.38657
 20
0.14293
 30
0.0
 10
5.51918
 20
0.14141
 30
0.0
 10
4.36585
 20
0.14558
 30
0.0
 10
3.33125
 20
0.14375
 30
0.0
 10
3.33125
 20
0.14375
 30
0.0
 10
3.33125
 20
0.14375
 30
0.0
 10
3.33125
 20
-0.14375
 30
0.0
 10
3.33125
 20
-0.14375
 30
0.0
 10
3.33125
 20
-0.14375
 30
0.0
 10
3.33125
 20
-0.14375
 30
0.0
 10
6.3867
 20
-0.14293
 30
0.0
 10
6.3867
 20
-0.14293
 30
0.0
  0
SPLINE
  5
74
330
1F
100
AcDbEntity
  8
Layer 1
 62
     3
370
    53
100
AcDbSpline
210
0.0
220
0.0
230
1.0
 70
     8
 71
     3
 72
    12
 73
     8
 74
     0
 42
0.0000000001
 43
0.0000000001
 12
1.0
 22
0.0
 32
0.0
 13
1.0
 23
0.0
 33
0.0
 40
0.0
 40
0.0
 40
0.0
 40
0.0
 40
0.3333333333333333
 40
0.3333333333333333
 40
0.3333333333333333
 40
0.3333333333333333
 40
1.0
 40
1.0
 40
1.0
 40
1.0
 10
0.28611
 20
6.24908
 30
0.0
 10
3.14887
 20
6.18341
 30
0.0
 10
5.68558
 20
4.14434
 30
0.0
 10
6.26741
 20
1.21929
 30
0.0
 10
6.26741
 20
1.21929
 30
0.0
 10
6.33919
 20
0.8584
 30
0.0
 10
6.37804
 20
0.49862
 30
0.0
 10
6.38657
 20
0.14293
 30
0.0
  0
SPLINE
  5
75
330
1F
100
AcDbEntity
  8
Layer 1
370
    53
100
AcDbSpline
210
0.0
220
0.0
230
1.0
 70
     8
 71
     3
 72
    16
 73
    12
 74
     0
 42
0.0000000001
 43
0.0000000001
 12
1.0
 22
0.0
 32
0.0
 13
1.0
 23
0.0
 33
0.0
 40
0.0
 40
0.0
 40
0.0
 40
0.0
 40
0.25
 40
0.25
 40
0.25
 40
0.25
 40
0.5
 40
0.5
 40
0.5
 40
0.5
 40
1.0
 40
1.0
 40
1.0
 40
1.0
 10
-0.01111
 20
6.24887
 30
0.0
 10
-0.00805
 20
4.51799
 30
0.0
 10
-0.00352
 20
1.9858
 30
0.0
 10
0.0
 20
0.0
 30
0.0
 10
0.0
 20
0.0
 30
0.0
 10
0.0
 20
0.0
 30
0.0
 10
0.275
 20
0.0
 30
0.0
 10
0.275
 20
0.0
 30
0.0
 10
0.275
 20
0.0
 30
0.0
 10
0.275
 20
0.0
 30
0.0
 10
0.28611
 20
6.24908
 30
0.0
 10
0.28611
 20
6.24908
 30
0.0
  0
SPLINE
  5
76
330
1F
100
AcDbEntity
  8
Layer 1
 62
     3
370
    53
100
AcDbSpline
210
0.0
220
0.0
230
1.0
 70
     8
 71
     3
 72
    12
 73
     8
 74
     0
 42
0.0000000001
 43
0.0000000001
 12
1.0
 22
0.0
 32
0.0
 13
1.0
 23
0.0
 33
0.0
 40
0.0
 40
0.0
 40
0.0
 40
0.0
 40
0.3333333333333333
 40
0.3333333333333333
 40
0.3333333333333333
 40
0.3333333333333333
 40
1.0
 40
1.0
 40
1.0
 40
1.0
 10
-6.1117
 20
0.14291
 30
0.0
 10
-6.0486
 20
3.00799
 30
0.0
 10
-4.00879
 20
5.54767
 30
0.0
 10
-1.08181
 20
6.12989
 30
0.0
 10
-1.08181
 20
6.12989
 30
0.0
 10
-0.72283
 20
6.2013
 30
0.0
 10
-0.36495
 20
6.24017
 30
0.0
 10
-0.01111
 20
6.24887
 30
0.0
  0
SPLINE
  5
77
330
1F
100
AcDbEntity
  8
Layer 1
370
    53
100
AcDbSpline
210
0.0
220
0.0
230
1.0
 70
    11
 71
     3
 72
    20
 73
    16
 74
     0
 42
0.0000000001
 43
0.0000000001
 12
1.0
 22
0.0
 32
0.0
 13
1.0
 23
0.0
 33
0.0
 40
0.0
 40
0.0
 40
0.0
 40
0.0
 40
0.2
 40
0.2
 40
0.2
 40
0.2
 40
0.4
 40
0.4
 40
0.4
 40
0.4
 40
0.6
 40
0.6
 40
0.6
 40
0.6
 40
1.0
 40
1.0
 40
1.0
 40
1.0
 10
1.12668
 20
1.10996
 30
0.0
 10
1.02874
 20
1.19813
 30
0.0
 10
0.91779
 20
1.27453
 30
0.0
 10
0.79511
 20
1.33588
 30
0.0
 10
0.79511
 20
1.33588
 30
0.0
 10
0.79511
 20
1.33588
 30
0.0
 10
1.32315
 20
2.61067
 30
0.0
 10
1.32315
 20
2.61067
 30
0.0
 10
1.32315
 20
2.61067
 30
0.0
 10
1.62035
 20
2.47587
 30
0.0
 10
1.88403
 20
2.2962
 30
0.0
 10
2.10956
 20
2.08306
 30
0.0
 10
2.10956
 20
2.08306
 30
0.0
 10
2.10956
 20
2.08306
 30
0.0
 10
1.12668
 20
1.10996
 30
0.0
 10
1.12668
 20
1.10996
 30
0.0
  0
ENDSEC
  0
SECTION
  2
OBJECTS
  0
DICTIONARY
  5
C
330
0
100
AcDbDictionary
281
     1
  3
ACAD_GROUP
350
D
  3
ACAD_LAYOUT
350
1A
  3
ACAD_MATERIAL
350
3B
  3
ACAD_MLEADERSTYLE
350
99
  3
ACAD_MLINESTYLE
350
17
  3
ACAD_PLOTSETTINGS
350
19
  3
ACAD_PLOTSTYLENAME
350
E
  3
ACAD_TABLESTYLE
350
98
  3
ACAD_VISUALSTYLE
350
2A
  0
DICTIONARY
  5
D
102
{ACAD_REACTORS
330
C
102
}
330
C
100
AcDbDictionary
281
     1
  0
DICTIONARY
  5
1A
102
{ACAD_REACTORS
330
C
102
}
330
C
100
AcDbDictionary
281
     1
  3
Layout1
350
1E
  3
Layout2
350
26
  3
Model
350
22
  0
DICTIONARY
  5
3B
102
{ACAD_REACTORS
330
C
102
}
330
C
100
AcDbDictionary
281
     1
  3
ByBlock
350
3D
  3
ByLayer
350
3C
  3
Global
350
3E
  0
DICTIONARY
  5
99
102
{ACAD_REACTORS
330
C
102
}
330
C
100
AcDbDictionary
281
     1
  0
DICTIONARY
  5
17
102
{ACAD_REACTORS
330
C
102
}
330
C
100
AcDbDictionary
281
     1
  3
Standard
350
18
  0
DICTIONARY
  5
19
102
{ACAD_REACTORS
330
C
102
}
330
C
100
AcDbDictionary
281
     1
  0
ACDBDICTIONARYWDFLT
  5
E
102
{ACAD_REACTORS
330
C
102
}
330
C
100
AcDbDictionary
281
     1
  3
Normal
350
F
100
AcDbDictionaryWithDefault
340
F
  0
DICTIONARY
  5
98
102
{ACAD_REACTORS
330
C
102
}
330
C
100
AcDbDictionary
281
     1
  0
DICTIONARY
  5
2A
102
{ACAD_REACTORS
330
C
102
}
330
C
100
AcDbDictionary
281
     1
  3
2dWireframe
350
2F
  3
3D Hidden
350
31
  3
3dWireframe
350
30
  3
Basic
350
32
  3
Brighten
350
36
  3
ColorChange
350
3A
  3
Conceptual
350
34
  3
Dim
350
35
  3
Facepattern
350
39
  3
Flat
350
2B
  3
FlatWithEdges
350
2C
  3
Gouraud
350
2D
  3
GouraudWithEdges
350
2E
  3
Linepattern
350
38
  3
Realistic
350
33
  3
Thicken
350
37
  0
LAYOUT
  5
1E
102
{ACAD_REACTORS
330
1A
102
}
330
1A
100
AcDbPlotSettings
  1

  2
none_device
  4

  6

 40
0.0
 41
0.0
 42
0.0
 43
0.0
 44
0.0
 45
0.0
 46
0.0
 47
0.0
 48
0.0
 49
0.0
140
0.0
141
0.0
142
1.0
143
1.0
 70
   688
 72
     0
 73
     0
 74
     5
  7

 75
    16
 76
     0
 77
     2
 78
   300
147
1.0
148
0.0
149
0.0
100
AcDbLayout
  1
Layout1
 70
     1
 71
     1
 10
0.0
 20
0.0
 11
12.0
 21
9.0
 12
0.0
 22
0.0
 32
0.0
 14
1.000000000000000E+20
 24
1.000000000000000E+20
 34
1.000000000000000E+20
 15
-1.000000000000000E+20
 25
-1.000000000000000E+20
 35
-1.000000000000000E+20
146
0.0
 13
0.0
 23
0.0
 33
0.0
 16
1.0
 26
0.0
 36
0.0
 17
0.0
 27
1.0
 37
0.0
 76
     0
330
1B
  0
LAYOUT
  5
26
102
{ACAD_REACTORS
330
1A
102
}
330
1A
100
AcDbPlotSettings
  1

  2
none_device
  4

  6

 40
0.0
 41
0.0
 42
0.0
 43
0.0
 44
0.0
 45
0.0
 46
0.0
 47
0.0
 48
0.0
 49
0.0
140
0.0
141
0.0
142
1.0
143
1.0
 70
   688
 72
     0
 73
     0
 74
     5
  7

 75
    16
 76
     0
 77
     2
 78
   300
147
1.0
148
0.0
149
0.0
100
AcDbLayout
  1
Layout2
 70
     1
 71
     2
 10
0.0
 20
0.0
 11
0.0
 21
0.0
 12
0.0
 22
0.0
 32
0.0
 14
0.0
 24
0.0
 34
0.0
 15
0.0
 25
0.0
 35
0.0
146
0.0
 13
0.0
 23
0.0
 33
0.0
 16
1.0
 26
0.0
 36
0.0
 17
0.0
 27
1.0
 37
0.0
 76
     0
330
23
  0
LAYOUT
  5
22
102
{ACAD_REACTORS
330
1A
102
}
330
1A
100
AcDbPlotSettings
  1

  2
none_device
  4

  6

 40
0.0
 41
0.0
 42
0.0
 43
0.0
 44
0.0
 45
0.0
 46
0.0
 47
0.0
 48
0.0
 49
0.0
140
0.0
141
0.0
142
1.0
143
1.0
 70
  1712
 72
     0
 73
     0
 74
     0
  7

 75
     0
 76
     0
 77
     2
 78
   300
147
1.0
148
0.0
149
0.0
100
AcDbLayout
  1
Model
 70
     1
 71
     0
 10
0.0
 20
0.0
 11
12.0
 21
9.0
 12
0.0
 22
0.0
 32
0.0
 14
-6.92646
 24
-6.92646
 34
0.0
 15
6.92646
 25
6.92646
 35
0.0
146
0.0
 13
0.0
 23
0.0
 33
0.0
 16
1.0
 26
0.0
 36
0.0
 17
0.0
 27
1.0
 37
0.0
 76
     0
330
1F
331
29
  0
MATERIAL
  5
3D
102
{ACAD_REACTORS
330
3B
102
}
330
3B
100
AcDbMaterial
  1
ByBlock
 72
     1
 94
      127
  0
MATERIAL
  5
3C
102
{ACAD_REACTORS
330
3B
102
}
330
3B
100
AcDbMaterial
  1
ByLayer
 72
     1
 94
      127
  0
MATERIAL
  5
3E
102
{ACAD_REACTORS
330
3B
102
}
330
3B
100
AcDbMaterial
  1
Global
 72
     1
 94
      127
  0
MLINESTYLE
  5
18
102
{ACAD_REACTORS
330
17
102
}
330
17
100
AcDbMlineStyle
  2
Standard
 70
     0
  3

 62
   256
 51
90.0
 52
90.0
 71
     2
 49
0.5
 62
   256
  6
BYLAYER
 49
-0.5
 62
   256
  6
BYLAYER
  0
ACDBPLACEHOLDER
  5
F
102
{ACAD_REACTORS
330
E
102
}
330
E
  0
VISUALSTYLE
  5
2F
102
{ACAD_REACTORS
330
2A
102
}
102
{ACAD_XDICTIONARY
360
80
102
}
330
2A
100
AcDbVisualStyle
  2
2dWireframe
 70
     4
 71
     0
 72
     2
 73
     0
 90
        0
 40
-0.6
 41
-30.0
 62
     5
 63
     7
421
 16777215
 74
     1
 91
        4
 64
     7
 65
   257
 75
     1
175
     1
 42
1.0
 92
        0
 66
   257
 43
1.0
 76
     1
 77
     6
 78
     2
 67
     7
 79
     5
170
     0
171
     0
290
     0
174
     0
 93
        1
 44
0.0
173
     0
291
     0
 45
0.0
  0
VISUALSTYLE
  5
31
102
{ACAD_REACTORS
330
2A
102
}
102
{ACAD_XDICTIONARY
360
84
102
}
330
2A
100
AcDbVisualStyle
  2
3D Hidden
 70
     6
 71
     1
 72
     2
 73
     2
 90
        0
 40
-0.6
 41
-30.0
 62
     5
 63
     7
421
 16777215
 74
     2
 91
        2
 64
     7
 65
   257
 75
     2
175
     1
 42
40.0
 92
        0
 66
   257
 43
1.0
 76
     1
 77
     6
 78
     2
 67
     7
 79
     3
170
     0
171
     0
290
     0
174
     0
 93
        1
 44
0.0
173
     0
291
     0
 45
0.0
  0
VISUALSTYLE
  5
30
102
{ACAD_REACTORS
330
2A
102
}
102
{ACAD_XDICTIONARY
360
82
102
}
330
2A
100
AcDbVisualStyle
  2
3dWireframe
 70
     5
 71
     0
 72
     2
 73
     0
 90
        0
 40
-0.6
 41
-30.0
 62
     5
 63
     7
421
 16777215
 74
     1
 91
        4
 64
     7
 65
   257
 75
     1
175
     1
 42
1.0
 92
        0
 66
   257
 43
1.0
 76
     1
 77
     6
 78
     2
 67
     7
 79
     5
170
     0
171
     0
290
     0
174
     0
 93
        1
 44
0.0
173
     0
291
     0
 45
0.0
  0
VISUALSTYLE
  5
32
102
{ACAD_REACTORS
330
2A
102
}
102
{ACAD_XDICTIONARY
360
86
102
}
330
2A
100
AcDbVisualStyle
  2
Basic
 70
     7
 71
     1
 72
     0
 73
     1
 90
        0
 40
-0.6
 41
-30.0
 62
     5
 63
     7
421
 16777215
 74
     0
 91
        4
 64
     7
 65
   257
 75
     1
175
     1
 42
1.0
 92
        8
 66
     7
 43
1.0
 76
     1
 77
     6
 78
     2
 67
     7
 79
     5
170
     0
171
     0
290
     0
174
     0
 93
        1
 44
0.0
173
     0
291
     1
 45
0.0
  0
VISUALSTYLE
  5
36
102
{ACAD_REACTORS
330
2A
102
}
102
{ACAD_XDICTIONARY
360
8E
102
}
330
2A
100
AcDbVisualStyle
  2
Brighten
 70
    12
 71
     2
 72
     2
 73
     0
 90
        0
 40
-0.6
 41
-30.0
 62
     5
 63
     7
421
 16777215
 74
     1
 91
        4
 64
     7
 65
   257
 75
     1
175
     1
 42
1.0
 92
        8
 66
     7
 43
1.0
 76
     1
 77
     6
 78
     2
 67
     7
 79
     5
170
     0
171
     0
290
     0
174
     0
 93
        1
 44
50.0
173
     0
291
     1
 45
0.0
  0
VISUALSTYLE
  5
3A
102
{ACAD_REACTORS
330
2A
102
}
102
{ACAD_XDICTIONARY
360
96
102
}
330
2A
100
AcDbVisualStyle
  2
ColorChange
 70
    16
 71
     2
 72
     2
 73
     3
 90
        0
 40
-0.6
 41
-30.0
 62
     5
 63
     8
421
  8421504
 74
     1
 91
        4
 64
     7
 65
   257
 75
     1
175
     1
 42
1.0
 92
        8
 66
     8
424
  8421504
 43
1.0
 76
     1
 77
     6
 78
     2
 67
     7
 79
     5
170
     0
171
     0
290
     0
174
     0
 93
        1
 44
0.0
173
     0
291
     1
 45
0.0
  0
VISUALSTYLE
  5
34
102
{ACAD_REACTORS
330
2A
102
}
102
{ACAD_XDICTIONARY
360
8A
102
}
330
2A
100
AcDbVisualStyle
  2
Conceptual
 70
     9
 71
     3
 72
     2
 73
     0
 90
        0
 40
-0.6
 41
-30.0
 62
     5
 63
     7
421
 16777215
 74
     2
 91
        2
 64
     7
 65
   257
 75
     1
175
     1
 42
40.0
 92
        8
 66
     7
 43
1.0
 76
     1
 77
     6
 78
     2
 67
     7
 79
     3
170
     0
171
     0
290
     0
174
     0
 93
        1
 44
0.0
173
     0
291
     0
 45
0.0
  0
VISUALSTYLE
  5
35
102
{ACAD_REACTORS
330
2A
102
}
102
{ACAD_XDICTIONARY
360
8C
102
}
330
2A
100
AcDbVisualStyle
  2
Dim
 70
    11
 71
     2
 72
     2
 73
     0
 90
        0
 40
-0.6
 41
-30.0
 62
     5
 63
     7
421
 16777215
 74
     1
 91
        4
 64
     7
 65
   257
 75
     1
175
     1
 42
1.0
 92
        8
 66
     7
 43
1.0
 76
     1
 77
     6
 78
     2
 67
     7
 79
     5
170
     0
171
     0
290
     0
174
     0
 93
        1
 44
-50.0
173
     0
291
     1
 45
0.0
  0
VISUALSTYLE
  5
39
102
{ACAD_REACTORS
330
2A
102
}
102
{ACAD_XDICTIONARY
360
94
102
}
330
2A
100
AcDbVisualStyle
  2
Facepattern
 70
    15
 71
     2
 72
     2
 73
     0
 90
        0
 40
-0.6
 41
-30.0
 62
     5
 63
     7
421
 16777215
 74
     1
 91
        4
 64
     7
 65
   257
 75
     1
175
     1
 42
1.0
 92
        8
 66
     7
 43
1.0
 76
     1
 77
     6
 78
     2
 67
     7
 79
     5
170
     0
171
     0
290
     0
174
     0
 93
        1
 44
0.0
173
     0
291
     1
 45
0.0
  0
VISUALSTYLE
  5
2B
102
{ACAD_REACTORS
330
2A
102
}
102
{ACAD_XDICTIONARY
360
78
102
}
330
2A
100
AcDbVisualStyle
  2
Flat
 70
     0
 71
     2
 72
     1
 73
     1
 90
        2
 40
-0.6
 41
30.0
 62
     5
 63
     7
421
 16777215
 74
     0
 91
        4
 64
     7
 65
   257
 75
     1
175
     1
 42
1.0
 92
        8
 66
     7
 43
1.0
 76
     1
 77
     6
 78
     2
 67
     7
 79
     5
170
     0
171
     0
290
     0
174
     0
 93
       13
 44
0.0
173
     0
291
     1
 45
0.0
  0
VISUALSTYLE
  5
2C
102
{ACAD_REACTORS
330
2A
102
}
102
{ACAD_XDICTIONARY
360
7A
102
}
330
2A
100
AcDbVisualStyle
  2
FlatWithEdges
 70
     1
 71
     2
 72
     1
 73
     1
 90
        2
 40
-0.6
 41
30.0
 62
     5
 63
     7
421
 16777215
 74
     1
 91
        4
 64
     7
 65
   257
 75
     1
175
     1
 42
1.0
 92
        0
 66
   257
 43
1.0
 76
     1
 77
     6
 78
     2
 67
     7
 79
     5
170
     0
171
     0
290
     0
174
     0
 93
       13
 44
0.0
173
     0
291
     1
 45
0.0
  0
VISUALSTYLE
  5
2D
102
{ACAD_REACTORS
330
2A
102
}
102
{ACAD_XDICTIONARY
360
7C
102
}
330
2A
100
AcDbVisualStyle
  2
Gouraud
 70
     2
 71
     2
 72
     2
 73
     1
 90
        2
 40
-0.6
 41
30.0
 62
     5
 63
     7
421
 16777215
 74
     0
 91
        4
 64
     7
 65
   257
 75
     1
175
     1
 42
1.0
 92
        0
 66
     7
 43
1.0
 76
     1
 77
     6
 78
     2
 67
     7
 79
     5
170
     0
171
     0
290
     0
174
     0
 93
       13
 44
0.0
173
     0
291
     1
 45
0.0
  0
VISUALSTYLE
  5
2E
102
{ACAD_REACTORS
330
2A
102
}
102
{ACAD_XDICTIONARY
360
7E
102
}
330
2A
100
AcDbVisualStyle
  2
GouraudWithEdges
 70
     3
 71
     2
 72
     2
 73
     1
 90
        2
 40
-0.6
 41
30.0
 62
     5
 63
     7
421
 16777215
 74
     1
 91
        4
 64
     7
 65
   257
 75
     1
175
     1
 42
1.0
 92
        0
 66
   257
 43
1.0
 76
     1
 77
     6
 78
     2
 67
     7
 79
     5
170
     0
171
     0
290
     0
174
     0
 93
       13
 44
0.0
173
     0
291
     1
 45
0.0
  0
VISUALSTYLE
  5
38
102
{ACAD_REACTORS
330
2A
102
}
102
{ACAD_XDICTIONARY
360
92
102
}
330
2A
100
AcDbVisualStyle
  2
Linepattern
 70
    14
 71
     2
 72
     2
 73
     0
 90
        0
 40
-0.6
 41
-30.0
 62
     5
 63
     7
421
 16777215
 74
     1
 91
        4
 64
     7
 65
   257
 75
     7
175
     7
 42
1.0
 92
        8
 66
     7
 43
1.0
 76
     1
 77
     6
 78
     2
 67
     7
 79
     5
170
     0
171
     0
290
     0
174
     0
 93
        1
 44
0.0
173
     0
291
     1
 45
0.0
  0
VISUALSTYLE
  5
33
102
{ACAD_REACTORS
330
2A
102
}
102
{ACAD_XDICTIONARY
360
88
102
}
330
2A
100
AcDbVisualStyle
  2
Realistic
 70
     8
 71
     2
 72
     2
 73
     0
 90
        0
 40
-0.6
 41
-30.0
 62
     5
 63
     7
421
 16777215
 74
     1
 91
        0
 64
     7
 65
   257
 75
     1
175
     1
 42
1.0
 92
        8
 66
     8
424
  7895160
 43
1.0
 76
     1
 77
     6
 78
     2
 67
     7
 79
     5
170
     0
171
     0
290
     0
174
     0
 93
       13
 44
0.0
173
     0
291
     0
 45
0.0
  0
VISUALSTYLE
  5
37
102
{ACAD_REACTORS
330
2A
102
}
102
{ACAD_XDICTIONARY
360
90
102
}
330
2A
100
AcDbVisualStyle
  2
Thicken
 70
    13
 71
     2
 72
     2
 73
     0
 90
        0
 40
-0.6
 41
-30.0
 62
     5
 63
     7
421
 16777215
 74
     1
 91
        4
 64
     7
 65
   257
 75
     1
175
     1
 42
1.0
 92
       12
 66
     7
 43
1.0
 76
     1
 77
     6
 78
     2
 67
     7
 79
     5
170
     0
171
     0
290
     0
174
     0
 93
        1
 44
0.0
173
     0
291
     1
 45
0.0
  0
DICTIONARY
  5
80
330
2F
100
AcDbDictionary
280
     1
281
     1
  3
ACAD_XREC_ROUNDTRIP
360
81
  0
DICTIONARY
  5
84
330
31
100
AcDbDictionary
280
     1
281
     1
  3
ACAD_XREC_ROUNDTRIP
360
85
  0
DICTIONARY
  5
82
330
30
100
AcDbDictionary
280
     1
281
     1
  3
ACAD_XREC_ROUNDTRIP
360
83
  0
DICTIONARY
  5
86
330
32
100
AcDbDictionary
280
     1
281
     1
  3
ACAD_XREC_ROUNDTRIP
360
87
  0
DICTIONARY
  5
8E
330
36
100
AcDbDictionary
280
     1
281
     1
  3
ACAD_XREC_ROUNDTRIP
360
8F
  0
DICTIONARY
  5
96
330
3A
100
AcDbDictionary
280
     1
281
     1
  3
ACAD_XREC_ROUNDTRIP
360
97
  0
DICTIONARY
  5
8A
330
34
100
AcDbDictionary
280
     1
281
     1
  3
ACAD_XREC_ROUNDTRIP
360
8B
  0
DICTIONARY
  5
8C
330
35
100
AcDbDictionary
280
     1
281
     1
  3
ACAD_XREC_ROUNDTRIP
360
8D
  0
DICTIONARY
  5
94
330
39
100
AcDbDictionary
280
     1
281
     1
  3
ACAD_XREC_ROUNDTRIP
360
95
  0
DICTIONARY
  5
78
330
2B
100
AcDbDictionary
280
     1
281
     1
  3
ACAD_XREC_ROUNDTRIP
360
79
  0
DICTIONARY
  5
7A
330
2C
100
AcDbDictionary
280
     1
281
     1
  3
ACAD_XREC_ROUNDTRIP
360
7B
  0
DICTIONARY
  5
7C
330
2D
100
AcDbDictionary
280
     1
281
     1
  3
ACAD_XREC_ROUNDTRIP
360
7D
  0
DICTIONARY
  5
7E
330
2E
100
AcDbDictionary
280
     1
281
     1
  3
ACAD_XREC_ROUNDTRIP
360
7F
  0
DICTIONARY
  5
92
330
38
100
AcDbDictionary
280
     1
281
     1
  3
ACAD_XREC_ROUNDTRIP
360
93
  0
DICTIONARY
  5
88
330
33
100
AcDbDictionary
280
     1
281
     1
  3
ACAD_XREC_ROUNDTRIP
360
89
  0
DICTIONARY
  5
90
330
37
100
AcDbDictionary
280
     1
281
     1
  3
ACAD_XREC_ROUNDTRIP
360
91
  0
XRECORD
  5
81
102
{ACAD_REACTORS
330
80
102
}
330
80
100
AcDbXrecord
280
     1
102
RTVSPropertyOp0
 70
     1
102
RTVSPropertyOp1
 70
     1
102
RTVSPropertyOp2
 70
     1
102
RTVSPropertyOp3
 70
     1
102
RTVSPropertyOp4
 70
     1
102
RTVSPropertyOp5
 70
     1
102
RTVSPropertyOp6
 70
     1
102
RTVSPropertyOp7
 70
     1
102
RTVSPropertyOp8
 70
     1
102
RTVSPropertyOp9
 70
     1
102
RTVSPropertyOp10
 70
     1
102
RTVSPropertyOp11
 70
     1
102
RTVSPropertyOp12
 70
     1
102
RTVSPropertyOp13
 70
     1
102
RTVSPropertyOp14
 70
     1
102
RTVSPropertyOp15
 70
     1
102
RTVSPropertyOp16
 70
     1
102
RTVSPropertyOp17
 70
     1
102
RTVSPropertyOp18
 70
     1
102
RTVSPropertyOp19
 70
     1
102
RTVSPropertyOp20
 70
     1
102
RTVSPropertyOp21
 70
     1
102
RTVSPropertyOp22
 70
     1
102
RTVSPropertyOp23
 70
     1
102
RTVSPropertyOp24
 70
     1
102
RTVSPropertyOp25
 70
     1
102
RTVSPropertyOp26
 70
     1
102
RTVSPropertyOp27
 70
     1
102
RTVSPropertyOp28
 70
     1
102
RTVSPropertyOp29
 70
     1
102
RTVSPropertyOp30
 70
     1
102
RTVSPropertyOp31
 70
     1
102
RTVSPropertyOp32
 70
     1
  0
XRECORD
  5
85
102
{ACAD_REACTORS
330
84
102
}
330
84
100
AcDbXrecord
280
     1
102
RTVSPropertyOp0
 70
     1
102
RTVSPropertyOp1
 70
     1
102
RTVSPropertyOp2
 70
     1
102
RTVSPropertyOp3
 70
     1
102
RTVSPropertyOp4
 70
     1
102
RTVSPropertyOp5
 70
     1
102
RTVSPropertyOp6
 70
     1
102
RTVSPropertyOp7
 70
     1
102
RTVSPropertyOp8
 70
     1
102
RTVSPropertyOp9
 70
     1
102
RTVSPropertyOp10
 70
     1
102
RTVSPropertyOp11
 70
     1
102
RTVSPropertyOp12
 70
     1
102
RTVSPropertyOp13
 70
     1
102
RTVSPropertyOp14
 70
     1
102
RTVSPropertyOp15
 70
     1
102
RTVSPropertyOp16
 70
     1
102
RTVSPropertyOp17
 70
     1
102
RTVSPropertyOp18
 70
     1
102
RTVSPropertyOp19
 70
     1
102
RTVSPropertyOp20
 70
     1
102
RTVSPropertyOp21
 70
     1
102
RTVSPropertyOp22
 70
     1
102
RTVSPropertyOp23
 70
     1
102
RTVSPropertyOp24
 70
     1
102
RTVSPropertyOp25
 70
     1
102
RTVSPropertyOp26
 70
     1
102
RTVSPropertyOp27
 70
     1
102
RTVSPropertyOp28
 70
     1
102
RTVSPropertyOp29
 70
     1
102
RTVSPropertyOp30
 70
     1
102
RTVSPropertyOp31
 70
     1
102
RTVSPropertyOp32
 70
     1
  0
XRECORD
  5
83
102
{ACAD_REACTORS
330
82
102
}
330
82
100
AcDbXrecord
280
     1
102
RTVSPropertyOp0
 70
     1
102
RTVSPropertyOp1
 70
     1
102
RTVSPropertyOp2
 70
     1
102
RTVSPropertyOp3
 70
     1
102
RTVSPropertyOp4
 70
     1
102
RTVSPropertyOp5
 70
     1
102
RTVSPropertyOp6
 70
     1
102
RTVSPropertyOp7
 70
     1
102
RTVSPropertyOp8
 70
     1
102
RTVSPropertyOp9
 70
     1
102
RTVSPropertyOp10
 70
     1
102
RTVSPropertyOp11
 70
     1
102
RTVSPropertyOp12
 70
     1
102
RTVSPropertyOp13
 70
     1
102
RTVSPropertyOp14
 70
     1
102
RTVSPropertyOp15
 70
     1
102
RTVSPropertyOp16
 70
     1
102
RTVSPropertyOp17
 70
     1
102
RTVSPropertyOp18
 70
     1
102
RTVSPropertyOp19
 70
     1
102
RTVSPropertyOp20
 70
     1
102
RTVSPropertyOp21
 70
     1
102
RTVSPropertyOp22
 70
     1
102
RTVSPropertyOp23
 70
     1
102
RTVSPropertyOp24
 70
     1
102
RTVSPropertyOp25
 70
     1
102
RTVSPropertyOp26
 70
     1
102
RTVSPropertyOp27
 70
     1
102
RTVSPropertyOp28
 70
     1
102
RTVSPropertyOp29
 70
     1
102
RTVSPropertyOp30
 70
     1
102
RTVSPropertyOp31
 70
     1
102
RTVSPropertyOp32
 70
     1
  0
XRECORD
  5
87
102
{ACAD_REACTORS
330
86
102
}
330
86
100
AcDbXrecord
280
     1
102
RTVSPropertyOp0
 70
     1
102
RTVSPropertyOp1
 70
     1
102
RTVSPropertyOp2
 70
     1
102
RTVSPropertyOp3
 70
     1
102
RTVSPropertyOp4
 70
     1
102
RTVSPropertyOp5
 70
     1
102
RTVSPropertyOp6
 70
     1
102
RTVSPropertyOp7
 70
     1
102
RTVSPropertyOp8
 70
     1
102
RTVSPropertyOp9
 70
     1
102
RTVSPropertyOp10
 70
     1
102
RTVSPropertyOp11
 70
     1
102
RTVSPropertyOp12
 70
     1
102
RTVSPropertyOp13
 70
     1
102
RTVSPropertyOp14
 70
     1
102
RTVSPropertyOp15
 70
     1
102
RTVSPropertyOp16
 70
     1
102
RTVSPropertyOp17
 70
     1
102
RTVSPropertyOp18
 70
     1
102
RTVSPropertyOp19
 70
     1
102
RTVSPropertyOp20
 70
     1
102
RTVSPropertyOp21
 70
     1
102
RTVSPropertyOp22
 70
     1
102
RTVSPropertyOp23
 70
     1
102
RTVSPropertyOp24
 70
     1
102
RTVSPropertyOp25
 70
     1
102
RTVSPropertyOp26
 70
     1
102
RTVSPropertyOp27
 70
     1
102
RTVSPropertyOp28
 70
     1
102
RTVSPropertyOp29
 70
     1
102
RTVSPropertyOp30
 70
     1
102
RTVSPropertyOp31
 70
     1
102
RTVSPropertyOp32
 70
     1
  0
XRECORD
  5
8F
102
{ACAD_REACTORS
330
8E
102
}
330
8E
100
AcDbXrecord
280
     1
102
RTVSPropertyOp0
 70
     1
102
RTVSPropertyOp1
 70
     1
102
RTVSPropertyOp2
 70
     1
102
RTVSPropertyOp3
 70
     1
102
RTVSPropertyOp4
 70
     1
102
RTVSPropertyOp5
 70
     1
102
RTVSPropertyOp6
 70
     1
102
RTVSPropertyOp7
 70
     1
102
RTVSPropertyOp8
 70
     1
102
RTVSPropertyOp9
 70
     1
102
RTVSPropertyOp10
 70
     1
102
RTVSPropertyOp11
 70
     1
102
RTVSPropertyOp12
 70
     1
102
RTVSPropertyOp13
 70
     1
102
RTVSPropertyOp14
 70
     1
102
RTVSPropertyOp15
 70
     1
102
RTVSPropertyOp16
 70
     1
102
RTVSPropertyOp17
 70
     1
102
RTVSPropertyOp18
 70
     1
102
RTVSPropertyOp19
 70
     1
102
RTVSPropertyOp20
 70
     1
102
RTVSPropertyOp21
 70
     1
102
RTVSPropertyOp22
 70
     1
102
RTVSPropertyOp23
 70
     1
102
RTVSPropertyOp24
 70
     1
102
RTVSPropertyOp25
 70
     1
102
RTVSPropertyOp26
 70
     1
102
RTVSPropertyOp27
 70
     1
102
RTVSPropertyOp28
 70
     1
102
RTVSPropertyOp29
 70
     1
102
RTVSPropertyOp30
 70
     1
102
RTVSPropertyOp31
 70
     1
102
RTVSPropertyOp32
 70
     1
  0
XRECORD
  5
97
102
{ACAD_REACTORS
330
96
102
}
330
96
100
AcDbXrecord
280
     1
102
RTVSPropertyOp0
 70
     1
102
RTVSPropertyOp1
 70
     1
102
RTVSPropertyOp2
 70
     1
102
RTVSPropertyOp3
 70
     1
102
RTVSPropertyOp4
 70
     1
102
RTVSPropertyOp5
 70
     1
102
RTVSPropertyOp6
 70
     1
102
RTVSPropertyOp7
 70
     1
102
RTVSPropertyOp8
 70
     1
102
RTVSPropertyOp9
 70
     1
102
RTVSPropertyOp10
 70
     1
102
RTVSPropertyOp11
 70
     1
102
RTVSPropertyOp12
 70
     1
102
RTVSPropertyOp13
 70
     1
102
RTVSPropertyOp14
 70
     1
102
RTVSPropertyOp15
 70
     1
102
RTVSPropertyOp16
 70
     1
102
RTVSPropertyOp17
 70
     1
102
RTVSPropertyOp18
 70
     1
102
RTVSPropertyOp19
 70
     1
102
RTVSPropertyOp20
 70
     1
102
RTVSPropertyOp21
 70
     1
102
RTVSPropertyOp22
 70
     1
102
RTVSPropertyOp23
 70
     1
102
RTVSPropertyOp24
 70
     1
102
RTVSPropertyOp25
 70
     1
102
RTVSPropertyOp26
 70
     1
102
RTVSPropertyOp27
 70
     1
102
RTVSPropertyOp28
 70
     1
102
RTVSPropertyOp29
 70
     1
102
RTVSPropertyOp30
 70
     1
102
RTVSPropertyOp31
 70
     1
102
RTVSPropertyOp32
 70
     1
  0
XRECORD
  5
8B
102
{ACAD_REACTORS
330
8A
102
}
330
8A
100
AcDbXrecord
280
     1
102
RTVSPropertyOp0
 70
     1
102
RTVSPropertyOp1
 70
     1
102
RTVSPropertyOp2
 70
     1
102
RTVSPropertyOp3
 70
     1
102
RTVSPropertyOp4
 70
     1
102
RTVSPropertyOp5
 70
     1
102
RTVSPropertyOp6
 70
     1
102
RTVSPropertyOp7
 70
     1
102
RTVSPropertyOp8
 70
     1
102
RTVSPropertyOp9
 70
     1
102
RTVSPropertyOp10
 70
     1
102
RTVSPropertyOp11
 70
     1
102
RTVSPropertyOp12
 70
     1
102
RTVSPropertyOp13
 70
     1
102
RTVSPropertyOp14
 70
     1
102
RTVSPropertyOp15
 70
     1
102
RTVSPropertyOp16
 70
     1
102
RTVSPropertyOp17
 70
     1
102
RTVSPropertyOp18
 70
     1
102
RTVSPropertyOp19
 70
     1
102
RTVSPropertyOp20
 70
     1
102
RTVSPropertyOp21
 70
     1
102
RTVSPropertyOp22
 70
     1
102
RTVSPropertyOp23
 70
     1
102
RTVSPropertyOp24
 70
     1
102
RTVSPropertyOp25
 70
     1
102
RTVSPropertyOp26
 70
     1
102
RTVSPropertyOp27
 70
     1
102
RTVSPropertyOp28
 70
     1
102
RTVSPropertyOp29
 70
     1
102
RTVSPropertyOp30
 70
     1
102
RTVSPropertyOp31
 70
     1
102
RTVSPropertyOp32
 70
     1
  0
XRECORD
  5
8D
102
{ACAD_REACTORS
330
8C
102
}
330
8C
100
AcDbXrecord
280
     1
102
RTVSPropertyOp0
 70
     1
102
RTVSPropertyOp1
 70
     1
102
RTVSPropertyOp2
 70
     1
102
RTVSPropertyOp3
 70
     1
102
RTVSPropertyOp4
 70
     1
102
RTVSPropertyOp5
 70
     1
102
RTVSPropertyOp6
 70
     1
102
RTVSPropertyOp7
 70
     1
102
RTVSPropertyOp8
 70
     1
102
RTVSPropertyOp9
 70
     1
102
RTVSPropertyOp10
 70
     1
102
RTVSPropertyOp11
 70
     1
102
RTVSPropertyOp12
 70
     1
102
RTVSPropertyOp13
 70
     1
102
RTVSPropertyOp14
 70
     1
102
RTVSPropertyOp15
 70
     1
102
RTVSPropertyOp16
 70
     1
102
RTVSPropertyOp17
 70
     1
102
RTVSPropertyOp18
 70
     1
102
RTVSPropertyOp19
 70
     1
102
RTVSPropertyOp20
 70
     1
102
RTVSPropertyOp21
 70
     1
102
RTVSPropertyOp22
 70
     1
102
RTVSPropertyOp23
 70
     1
102
RTVSPropertyOp24
 70
     1
102
RTVSPropertyOp25
 70
     1
102
RTVSPropertyOp26
 70
     1
102
RTVSPropertyOp27
 70
     1
102
RTVSPropertyOp28
 70
     1
102
RTVSPropertyOp29
 70
     1
102
RTVSPropertyOp30
 70
     1
102
RTVSPropertyOp31
 70
     1
102
RTVSPropertyOp32
 70
     1
  0
XRECORD
  5
95
102
{ACAD_REACTORS
330
94
102
}
330
94
100
AcDbXrecord
280
     1
102
RTVSPropertyOp0
 70
     1
102
RTVSPropertyOp1
 70
     1
102
RTVSPropertyOp2
 70
     1
102
RTVSPropertyOp3
 70
     1
102
RTVSPropertyOp4
 70
     1
102
RTVSPropertyOp5
 70
     1
102
RTVSPropertyOp6
 70
     1
102
RTVSPropertyOp7
 70
     1
102
RTVSPropertyOp8
 70
     1
102
RTVSPropertyOp9
 70
     1
102
RTVSPropertyOp10
 70
     1
102
RTVSPropertyOp11
 70
     1
102
RTVSPropertyOp12
 70
     1
102
RTVSPropertyOp13
 70
     1
102
RTVSPropertyOp14
 70
     1
102
RTVSPropertyOp15
 70
     1
102
RTVSPropertyOp16
 70
     1
102
RTVSPropertyOp17
 70
     1
102
RTVSPropertyOp18
 70
     1
102
RTVSPropertyOp19
 70
     1
102
RTVSPropertyOp20
 70
     1
102
RTVSPropertyOp21
 70
     1
102
RTVSPropertyOp22
 70
     1
102
RTVSPropertyOp23
 70
     1
102
RTVSPropertyOp24
 70
     1
102
RTVSPropertyOp25
 70
     1
102
RTVSPropertyOp26
 70
     1
102
RTVSPropertyOp27
 70
     1
102
RTVSPropertyOp28
 70
     1
102
RTVSPropertyOp29
 70
     1
102
RTVSPropertyOp30
 70
     1
102
RTVSPropertyOp31
 70
     1
102
RTVSPropertyOp32
 70
     1
  0
XRECORD
  5
79
102
{ACAD_REACTORS
330
78
102
}
330
78
100
AcDbXrecord
280
     1
102
RTVSPropertyOp0
 70
     1
102
RTVSPropertyOp1
 70
     1
102
RTVSPropertyOp2
 70
     1
102
RTVSPropertyOp3
 70
     1
102
RTVSPropertyOp4
 70
     1
102
RTVSPropertyOp5
 70
     1
102
RTVSPropertyOp6
 70
     1
102
RTVSPropertyOp7
 70
     1
102
RTVSPropertyOp8
 70
     1
102
RTVSPropertyOp9
 70
     1
102
RTVSPropertyOp10
 70
     1
102
RTVSPropertyOp11
 70
     1
102
RTVSPropertyOp12
 70
     1
102
RTVSPropertyOp13
 70
     1
102
RTVSPropertyOp14
 70
     1
102
RTVSPropertyOp15
 70
     1
102
RTVSPropertyOp16
 70
     1
102
RTVSPropertyOp17
 70
     1
102
RTVSPropertyOp18
 70
     1
102
RTVSPropertyOp19
 70
     1
102
RTVSPropertyOp20
 70
     1
102
RTVSPropertyOp21
 70
     1
102
RTVSPropertyOp22
 70
     1
102
RTVSPropertyOp23
 70
     1
102
RTVSPropertyOp24
 70
     1
102
RTVSPropertyOp25
 70
     1
102
RTVSPropertyOp26
 70
     1
102
RTVSPropertyOp27
 70
     1
102
RTVSPropertyOp28
 70
     1
102
RTVSPropertyOp29
 70
     1
102
RTVSPropertyOp30
 70
     1
102
RTVSPropertyOp31
 70
     1
102
RTVSPropertyOp32
 70
     1
  0
XRECORD
  5
7B
102
{ACAD_REACTORS
330
7A
102
}
330
7A
100
AcDbXrecord
280
     1
102
RTVSPropertyOp0
 70
     1
102
RTVSPropertyOp1
 70
     1
102
RTVSPropertyOp2
 70
     1
102
RTVSPropertyOp3
 70
     1
102
RTVSPropertyOp4
 70
     1
102
RTVSPropertyOp5
 70
     1
102
RTVSPropertyOp6
 70
     1
102
RTVSPropertyOp7
 70
     1
102
RTVSPropertyOp8
 70
     1
102
RTVSPropertyOp9
 70
     1
102
RTVSPropertyOp10
 70
     1
102
RTVSPropertyOp11
 70
     1
102
RTVSPropertyOp12
 70
     1
102
RTVSPropertyOp13
 70
     1
102
RTVSPropertyOp14
 70
     1
102
RTVSPropertyOp15
 70
     1
102
RTVSPropertyOp16
 70
     1
102
RTVSPropertyOp17
 70
     1
102
RTVSPropertyOp18
 70
     1
102
RTVSPropertyOp19
 70
     1
102
RTVSPropertyOp20
 70
     1
102
RTVSPropertyOp21
 70
     1
102
RTVSPropertyOp22
 70
     1
102
RTVSPropertyOp23
 70
     1
102
RTVSPropertyOp24
 70
     1
102
RTVSPropertyOp25
 70
     1
102
RTVSPropertyOp26
 70
     1
102
RTVSPropertyOp27
 70
     1
102
RTVSPropertyOp28
 70
     1
102
RTVSPropertyOp29
 70
     1
102
RTVSPropertyOp30
 70
     1
102
RTVSPropertyOp31
 70
     1
102
RTVSPropertyOp32
 70
     1
  0
XRECORD
  5
7D
102
{ACAD_REACTORS
330
7C
102
}
330
7C
100
AcDbXrecord
280
     1
102
RTVSPropertyOp0
 70
     1
102
RTVSPropertyOp1
 70
     1
102
RTVSPropertyOp2
 70
     1
102
RTVSPropertyOp3
 70
     1
102
RTVSPropertyOp4
 70
     1
102
RTVSPropertyOp5
 70
     1
102
RTVSPropertyOp6
 70
     1
102
RTVSPropertyOp7
 70
     1
102
RTVSPropertyOp8
 70
     1
102
RTVSPropertyOp9
 70
     1
102
RTVSPropertyOp10
 70
     1
102
RTVSPropertyOp11
 70
     1
102
RTVSPropertyOp12
 70
     1
102
RTVSPropertyOp13
 70
     1
102
RTVSPropertyOp14
 70
     1
102
RTVSPropertyOp15
 70
     1
102
RTVSPropertyOp16
 70
     1
102
RTVSPropertyOp17
 70
     1
102
RTVSPropertyOp18
 70
     1
102
RTVSPropertyOp19
 70
     1
102
RTVSPropertyOp20
 70
     1
102
RTVSPropertyOp21
 70
     1
102
RTVSPropertyOp22
 70
     1
102
RTVSPropertyOp23
 70
     1
102
RTVSPropertyOp24
 70
     1
102
RTVSPropertyOp25
 70
     1
102
RTVSPropertyOp26
 70
     1
102
RTVSPropertyOp27
 70
     1
102
RTVSPropertyOp28
 70
     1
102
RTVSPropertyOp29
 70
     1
102
RTVSPropertyOp30
 70
     1
102
RTVSPropertyOp31
 70
     1
102
RTVSPropertyOp32
 70
     1
  0
XRECORD
  5
7F
102
{ACAD_REACTORS
330
7E
102
}
330
7E
100
AcDbXrecord
280
     1
102
RTVSPropertyOp0
 70
     1
102
RTVSPropertyOp1
 70
     1
102
RTVSPropertyOp2
 70
     1
102
RTVSPropertyOp3
 70
     1
102
RTVSPropertyOp4
 70
     1
102
RTVSPropertyOp5
 70
     1
102
RTVSPropertyOp6
 70
     1
102
RTVSPropertyOp7
 70
     1
102
RTVSPropertyOp8
 70
     1
102
RTVSPropertyOp9
 70
     1
102
RTVSPropertyOp10
 70
     1
102
RTVSPropertyOp11
 70
     1
102
RTVSPropertyOp12
 70
     1
102
RTVSPropertyOp13
 70
     1
102
RTVSPropertyOp14
 70
     1
102
RTVSPropertyOp15
 70
     1
102
RTVSPropertyOp16
 70
     1
102
RTVSPropertyOp17
 70
     1
102
RTVSPropertyOp18
 70
     1
102
RTVSPropertyOp19
 70
     1
102
RTVSPropertyOp20
 70
     1
102
RTVSPropertyOp21
 70
     1
102
RTVSPropertyOp22
 70
     1
102
RTVSPropertyOp23
 70
     1
102
RTVSPropertyOp24
 70
     1
102
RTVSPropertyOp25
 70
     1
102
RTVSPropertyOp26
 70
     1
102
RTVSPropertyOp27
 70
     1
102
RTVSPropertyOp28
 70
     1
102
RTVSPropertyOp29
 70
     1
102
RTVSPropertyOp30
 70
     1
102
RTVSPropertyOp31
 70
     1
102
RTVSPropertyOp32
 70
     1
  0
XRECORD
  5
93
102
{ACAD_REACTORS
330
92
102
}
330
92
100
AcDbXrecord
280
     1
102
RTVSPropertyOp0
 70
     1
102
RTVSPropertyOp1
 70
     1
102
RTVSPropertyOp2
 70
     1
102
RTVSPropertyOp3
 70
     1
102
RTVSPropertyOp4
 70
     1
102
RTVSPropertyOp5
 70
     1
102
RTVSPropertyOp6
 70
     1
102
RTVSPropertyOp7
 70
     1
102
RTVSPropertyOp8
 70
     1
102
RTVSPropertyOp9
 70
     1
102
RTVSPropertyOp10
 70
     1
102
RTVSPropertyOp11
 70
     1
102
RTVSPropertyOp12
 70
     1
102
RTVSPropertyOp13
 70
     1
102
RTVSPropertyOp14
 70
     1
102
RTVSPropertyOp15
 70
     1
102
RTVSPropertyOp16
 70
     1
102
RTVSPropertyOp17
 70
     1
102
RTVSPropertyOp18
 70
     1
102
RTVSPropertyOp19
 70
     1
102
RTVSPropertyOp20
 70
     1
102
RTVSPropertyOp21
 70
     1
102
RTVSPropertyOp22
 70
     1
102
RTVSPropertyOp23
 70
     1
102
RTVSPropertyOp24
 70
     1
102
RTVSPropertyOp25
 70
     1
102
RTVSPropertyOp26
 70
     1
102
RTVSPropertyOp27
 70
     1
102
RTVSPropertyOp28
 70
     1
102
RTVSPropertyOp29
 70
     1
102
RTVSPropertyOp30
 70
     1
102
RTVSPropertyOp31
 70
     1
102
RTVSPropertyOp32
 70
     1
  0
XRECORD
  5
89
102
{ACAD_REACTORS
330
88
102
}
330
88
100
AcDbXrecord
280
     1
102
RTVSPropertyOp0
 70
     1
102
RTVSPropertyOp1
 70
     1
102
RTVSPropertyOp2
 70
     1
102
RTVSPropertyOp3
 70
     1
102
RTVSPropertyOp4
 70
     1
102
RTVSPropertyOp5
 70
     1
102
RTVSPropertyOp6
 70
     1
102
RTVSPropertyOp7
 70
     1
102
RTVSPropertyOp8
 70
     1
102
RTVSPropertyOp9
 70
     1
102
RTVSPropertyOp10
 70
     1
102
RTVSPropertyOp11
 70
     1
102
RTVSPropertyOp12
 70
     1
102
RTVSPropertyOp13
 70
     1
102
RTVSPropertyOp14
 70
     1
102
RTVSPropertyOp15
 70
     1
102
RTVSPropertyOp16
 70
     1
102
RTVSPropertyOp17
 70
     1
102
RTVSPropertyOp18
 70
     1
102
RTVSPropertyOp19
 70
     1
102
RTVSPropertyOp20
 70
     1
102
RTVSPropertyOp21
 70
     1
102
RTVSPropertyOp22
 70
     1
102
RTVSPropertyOp23
 70
     1
102
RTVSPropertyOp24
 70
     1
102
RTVSPropertyOp25
 70
     1
102
RTVSPropertyOp26
 70
     1
102
RTVSPropertyOp27
 70
     1
102
RTVSPropertyOp28
 70
     1
102
RTVSPropertyOp29
 70
     1
102
RTVSPropertyOp30
 70
     1
102
RTVSPropertyOp31
 70
     1
102
RTVSPropertyOp32
 70
     1
  0
XRECORD
  5
91
102
{ACAD_REACTORS
330
90
102
}
330
90
100
AcDbXrecord
280
     1
102
RTVSPropertyOp0
 70
     1
102
RTVSPropertyOp1
 70
     1
102
RTVSPropertyOp2
 70
     1
102
RTVSPropertyOp3
 70
     1
102
RTVSPropertyOp4
 70
     1
102
RTVSPropertyOp5
 70
     1
102
RTVSPropertyOp6
 70
     1
102
RTVSPropertyOp7
 70
     1
102
RTVSPropertyOp8
 70
     1
102
RTVSPropertyOp9
 70
     1
102
RTVSPropertyOp10
 70
     1
102
RTVSPropertyOp11
 70
     1
102
RTVSPropertyOp12
 70
     1
102
RTVSPropertyOp13
 70
     1
102
RTVSPropertyOp14
 70
     1
102
RTVSPropertyOp15
 70
     1
102
RTVSPropertyOp16
 70
     1
102
RTVSPropertyOp17
 70
     1
102
RTVSPropertyOp18
 70
     1
102
RTVSPropertyOp19
 70
     1
102
RTVSPropertyOp20
 70
     1
102
RTVSPropertyOp21
 70
     1
102
RTVSPropertyOp22
 70
     1
102
RTVSPropertyOp23
 70
     1
102
RTVSPropertyOp24
 70
     1
102
RTVSPropertyOp25
 70
     1
102
RTVSPropertyOp26
 70
     1
102
RTVSPropertyOp27
 70
     1
102
RTVSPropertyOp28
 70
     1
102
RTVSPropertyOp29
 70
     1
102
RTVSPropertyOp30
 70
     1
102
RTVSPropertyOp31
 70
     1
102
RTVSPropertyOp32
 70
     1
  0
ENDSEC
  0
EOF
